<svg width="25" height="24" viewBox="0 0 25 24" fill="none" xmlns="http://www.w3.org/2000/svg">
<g id="ant-design:logout-outlined">
<path id="Vector" d="M20.8443 17.1563H19.1966C19.0841 17.1563 18.9786 17.2055 18.9083 17.2922C18.7443 17.4914 18.5685 17.6836 18.3833 17.8664C17.6261 18.6245 16.729 19.2286 15.7419 19.6453C14.7192 20.0773 13.6201 20.2989 12.5099 20.2969C11.3872 20.2969 10.2997 20.0766 9.27787 19.6453C8.29074 19.2286 7.39374 18.6245 6.63646 17.8664C5.87782 17.111 5.2729 16.2155 4.85521 15.2297C4.42162 14.2078 4.20365 13.1227 4.20365 12C4.20365 10.8774 4.42396 9.79222 4.85521 8.77035C5.2724 7.78363 5.8724 6.89535 6.63646 6.13363C7.40052 5.37191 8.2888 4.77191 9.27787 4.35472C10.2997 3.92347 11.3872 3.70316 12.5099 3.70316C13.6326 3.70316 14.7201 3.92113 15.7419 4.35472C16.731 4.77191 17.6193 5.37191 18.3833 6.13363C18.5685 6.31879 18.7419 6.51097 18.9083 6.70785C18.9786 6.79457 19.0865 6.84379 19.1966 6.84379H20.8443C20.9919 6.84379 21.0833 6.67972 21.0013 6.5555C19.2036 3.76175 16.0583 1.91254 12.4841 1.92191C6.86849 1.93597 2.36615 6.49457 2.4224 12.1032C2.47865 17.6227 6.97396 22.0782 12.5099 22.0782C16.0747 22.0782 19.206 20.2313 21.0013 17.4446C21.081 17.3203 20.9919 17.1563 20.8443 17.1563ZM22.9279 11.8524L19.6021 9.22738C19.4779 9.12894 19.2974 9.218 19.2974 9.37504V11.1563H11.938C11.8349 11.1563 11.7505 11.2407 11.7505 11.3438V12.6563C11.7505 12.7594 11.8349 12.8438 11.938 12.8438H19.2974V14.625C19.2974 14.7821 19.4802 14.8711 19.6021 14.7727L22.9279 12.1477C22.9503 12.1302 22.9684 12.1077 22.9809 12.0822C22.9933 12.0566 22.9998 12.0285 22.9998 12C22.9998 11.9716 22.9933 11.9435 22.9809 11.9179C22.9684 11.8923 22.9503 11.8699 22.9279 11.8524Z" fill="#E33629"/>
</g>
</svg>
