<svg width="236" height="188" viewBox="0 0 236 188" fill="none" xmlns="http://www.w3.org/2000/svg">
<g id="background-simple" opacity="0.15">
<path id="Vector" d="M234.72 82.3187C242.492 45.4053 183.191 16.8501 145.069 23.8448C106.946 30.8396 89.2777 39.2834 75.9748 20.6841C62.6719 2.08474 36.1696 -10.3757 15.0739 11.9664C-6.02177 34.3084 -6.38038 74.9588 22.9839 104.085C52.3482 133.21 28.032 161.891 80.9126 183.925C109.732 195.94 130.166 172.879 142.882 151.404C155.599 129.93 225.707 125.131 234.72 82.3187Z" fill="white"/>
<path id="Vector_2" opacity="0.36" d="M145.041 23.8448C106.884 30.8453 89.2501 39.2834 75.9472 20.6841C62.6443 2.08474 36.1696 -10.3757 15.0739 11.9664C-6.02177 34.3084 -6.38038 74.9588 22.9839 104.084C52.3482 133.21 28.032 161.891 80.9126 183.925C109.732 195.94 130.166 172.879 142.882 151.404C155.599 129.93 225.72 125.16 234.734 82.37C242.492 45.4053 183.191 16.8387 145.041 23.8448Z" fill="white"/>
</g>
</svg>
