<svg width="16" height="16" viewBox="0 0 16 16" fill="none" xmlns="http://www.w3.org/2000/svg">
<g id="basil:edit-solid">
<path id="Vector" d="M10.9839 2.00303C11.0952 2.01303 11.1439 2.14903 11.0639 2.22837L5.51723 7.77503C5.45457 7.83773 5.40971 7.91596 5.38723 8.0017L4.72056 10.555C4.69856 10.6394 4.699 10.7281 4.72185 10.8122C4.7447 10.8964 4.78916 10.9731 4.85083 11.0348C4.91249 11.0964 4.9892 11.1409 5.07336 11.1637C5.15751 11.1866 5.24618 11.187 5.33056 11.165L7.88323 10.4984C7.96903 10.4757 8.04726 10.4306 8.1099 10.3677L13.7352 4.74237C13.7528 4.7243 13.7752 4.71165 13.7998 4.70592C13.8244 4.70019 13.8501 4.70162 13.8738 4.71004C13.8976 4.71845 13.9185 4.73351 13.934 4.75341C13.9495 4.77332 13.9589 4.79725 13.9612 4.82237C14.1953 7.05545 14.1818 9.30756 13.9212 11.5377C13.7726 12.8077 12.7519 13.8044 11.4866 13.9464C9.169 14.2033 6.83013 14.2033 4.51256 13.9464C3.24656 13.8044 2.2259 12.8077 2.07723 11.5377C1.80238 9.18771 1.80238 6.81369 2.07723 4.4637C2.2259 3.19303 3.24656 2.19637 4.51256 2.05503C6.66224 1.8168 8.83067 1.79938 10.9839 2.00303Z" fill="#3355B9"/>
<path id="Vector_2" d="M11.8814 2.82436C11.8969 2.80883 11.9153 2.79652 11.9356 2.78812C11.9558 2.77972 11.9775 2.77539 11.9994 2.77539C12.0214 2.77539 12.0431 2.77972 12.0633 2.78812C12.0836 2.79652 12.1019 2.80883 12.1174 2.82436L13.0601 3.76769C13.0912 3.79893 13.1087 3.84124 13.1087 3.88535C13.1087 3.92947 13.0912 3.97178 13.0601 4.00302L7.53143 9.53302C7.51035 9.5539 7.48413 9.56885 7.45543 9.57635L6.17943 9.90969C6.1513 9.91702 6.12175 9.91688 6.0937 9.90926C6.06564 9.90164 6.04007 9.88682 6.01952 9.86627C5.99896 9.84571 5.98414 9.82014 5.97653 9.79209C5.96891 9.76404 5.96876 9.73448 5.9761 9.70636L6.30943 8.43036C6.31685 8.40162 6.33181 8.37538 6.35276 8.35435L11.8814 2.82436Z" fill="#3355B9"/>
</g>
</svg>
