<svg width="176" height="136" viewBox="0 0 176 136" fill="none" xmlns="http://www.w3.org/2000/svg">
<g id="camera/rafiki">
<g id="background-complete">
<path id="Vector" d="M176 119.515H0V119.606H176V119.515Z" fill="#EBEBEB"/>
<path id="Vector_2" d="M158.365 125.388H146.707V125.479H158.365V125.388Z" fill="#EBEBEB"/>
<path id="Vector_3" d="M116.589 126.381H113.53V126.472H116.589V126.381Z" fill="#EBEBEB"/>
<path id="Vector_4" d="M146.354 122.001H139.6V122.092H146.354V122.001Z" fill="#EBEBEB"/>
<path id="Vector_5" d="M33.6687 122.614H18.4658V122.705H33.6687V122.614Z" fill="#EBEBEB"/>
<path id="Vector_6" d="M39.0328 122.614H36.8047V122.705H39.0328V122.614Z" fill="#EBEBEB"/>
<path id="Vector_7" d="M79.2527 124.154H46.2773V124.246H79.2527V124.154Z" fill="#EBEBEB"/>
<path id="Vector_8" d="M83.4243 103.234H15.4566C14.9241 103.233 14.4138 103.013 14.0376 102.622C13.6615 102.231 13.4502 101.702 13.4502 101.149V2.06614C13.4548 1.51712 13.6682 0.992176 14.0438 0.605319C14.4195 0.218462 14.9272 0.000940489 15.4566 0H83.4243C83.9573 0 84.4686 0.219605 84.8455 0.610504C85.2224 1.0014 85.4342 1.53157 85.4342 2.08439V101.149C85.4342 101.702 85.2224 102.232 84.8455 102.623C84.4686 103.014 83.9573 103.234 83.4243 103.234ZM15.4566 0.0730087C14.9475 0.0739757 14.4595 0.284391 14.0999 0.658071C13.7402 1.03175 13.5382 1.53816 13.5382 2.06614V101.149C13.5382 101.677 13.7402 102.184 14.0999 102.558C14.4595 102.931 14.9475 103.142 15.4566 103.143H83.4243C83.9337 103.142 84.422 102.931 84.7823 102.558C85.1425 102.184 85.3453 101.678 85.3462 101.149V2.06614C85.3453 1.53782 85.1425 1.03142 84.7823 0.657848C84.422 0.284273 83.9337 0.0739736 83.4243 0.0730087H15.4566Z" fill="#EBEBEB"/>
<path id="Vector_9" d="M159.565 103.234H91.5939C91.0611 103.233 90.5504 103.013 90.1737 102.622C89.797 102.232 89.5849 101.702 89.584 101.149V2.06614C89.5895 1.51679 89.8036 0.991847 90.1799 0.605091C90.5561 0.218335 91.0642 0.000930233 91.5939 0H159.565C160.094 0.00189986 160.601 0.219846 160.976 0.6066C161.351 0.993354 161.563 1.51775 161.568 2.06614V101.149C161.568 101.701 161.357 102.23 160.982 102.621C160.606 103.011 160.097 103.232 159.565 103.234ZM91.5939 0.0730087C91.0845 0.0739736 90.5962 0.284273 90.2359 0.657848C89.8757 1.03142 89.6729 1.53782 89.672 2.06614V101.149C89.6729 101.678 89.8757 102.184 90.2359 102.558C90.5962 102.931 91.0845 103.142 91.5939 103.143H159.565C160.075 103.142 160.563 102.931 160.923 102.558C161.283 102.184 161.486 101.678 161.487 101.149V2.06614C161.486 1.53782 161.283 1.03142 160.923 0.657848C160.563 0.284273 160.075 0.0739736 159.565 0.0730087H91.5939Z" fill="#EBEBEB"/>
<path id="Vector_10" d="M90.2988 99.1125L89.7497 97.5173H85.7545L84.6562 99.1125H90.2988Z" fill="#E0E0E0"/>
<path id="Vector_11" d="M88.521 114.762H86.4336L93.8326 106.187H95.92L88.521 114.762Z" fill="#E0E0E0"/>
<path id="Vector_12" d="M86.4342 114.762H88.5216L81.1225 106.187H79.0352L86.4342 114.762Z" fill="#E0E0E0"/>
<path id="Vector_13" d="M88.5215 114.762V30.4044H86.4341V114.762H88.5215Z" fill="#E0E0E0"/>
<path id="Vector_14" d="M70.918 119.431L84.0265 98.0429C84.1253 97.8813 84.2621 97.7482 84.424 97.6563C84.5859 97.5644 84.7676 97.5165 84.9522 97.5173H86.4341L73.0053 119.42L70.918 119.431Z" fill="#E0E0E0"/>
<path id="Vector_15" opacity="0.3" d="M70.918 119.431L84.0265 98.0429C84.1253 97.8813 84.2621 97.7482 84.424 97.6563C84.5859 97.5644 84.7676 97.5165 84.9522 97.5173H86.4341L73.0053 119.42L70.918 119.431Z" fill="#E0E0E0"/>
<path id="Vector_16" d="M104.038 119.431L90.9292 98.0429C90.8303 97.8813 90.6935 97.7482 90.5316 97.6563C90.3697 97.5644 90.188 97.5165 90.0034 97.5173H88.5215L101.954 119.42L104.038 119.431Z" fill="#E0E0E0"/>
<path id="Vector_17" opacity="0.3" d="M104.038 119.431L90.9292 98.0429C90.8303 97.8813 90.6935 97.7482 90.5316 97.6563C90.3697 97.5644 90.188 97.5165 90.0034 97.5173H88.5215L101.954 119.42L104.038 119.431Z" fill="#E0E0E0"/>
<path id="Vector_18" d="M120.63 16.7554H55.3691V109.425H120.63V16.7554Z" fill="#FAFAFA"/>
<path id="Vector_19" d="M121.144 13.3386H54.8555V17.0255H121.144V13.3386Z" fill="#EBEBEB"/>
<path id="Vector_20" d="M32.5004 99.1125L31.9548 97.5173H27.9596L26.8613 99.1125H32.5004Z" fill="#E0E0E0"/>
<path id="Vector_21" d="M30.726 114.762H28.6387L36.0377 106.187H38.1251L30.726 114.762Z" fill="#E0E0E0"/>
<path id="Vector_22" d="M28.6393 114.762H30.7266L23.3276 106.187H21.2402L28.6393 114.762Z" fill="#E0E0E0"/>
<path id="Vector_23" d="M30.7227 114.766L30.7227 30.408H28.6353L28.6353 114.766H30.7227Z" fill="#E0E0E0"/>
<path id="Vector_24" d="M13.123 119.431L26.2315 98.0429C26.3304 97.8813 26.4671 97.7482 26.629 97.6563C26.791 97.5644 26.9727 97.5165 27.1573 97.5173H28.6392L15.2069 119.42L13.123 119.431Z" fill="#E0E0E0"/>
<path id="Vector_25" opacity="0.3" d="M13.123 119.431L26.2315 98.0429C26.3304 97.8813 26.4671 97.7482 26.629 97.6563C26.791 97.5644 26.9727 97.5165 27.1573 97.5173H28.6392L15.2069 119.42L13.123 119.431Z" fill="#E0E0E0"/>
<path id="Vector_26" d="M46.2427 119.431L33.1342 98.0429C33.0354 97.8813 32.8986 97.7482 32.7367 97.6563C32.5748 97.5644 32.3931 97.5165 32.2085 97.5173H30.7266L44.1554 119.42L46.2427 119.431Z" fill="#E0E0E0"/>
<path id="Vector_27" opacity="0.3" d="M46.2427 119.431L33.1342 98.0429C33.0354 97.8813 32.8986 97.7482 32.7367 97.6563C32.5748 97.5644 32.3931 97.5165 32.2085 97.5173H30.7266L44.1554 119.42L46.2427 119.431Z" fill="#E0E0E0"/>
<path id="Vector_28" d="M27.885 35.5186H31.4824V30.4043H27.885V35.5186Z" fill="#EBEBEB"/>
<path id="Vector_29" d="M33.6971 27.4292L28.1038 25.0711C27.3245 25.5452 26.7087 26.2617 26.3438 27.119C26.006 28.0199 25.9948 29.0173 26.3122 29.9261L31.6802 32.3464L33.6971 27.4292Z" fill="#EBEBEB"/>
<path id="Vector_30" d="M35.1297 53.7999C35.1297 53.7999 27.8609 39.9283 32.3665 29.1376C37.0586 17.887 47.3793 15.9961 47.3793 15.9961L47.499 16.0363L35.2001 53.8035L35.1297 53.7999Z" fill="#E6E6E6"/>
<path id="Vector_31" d="M47.3785 15.9815L55.5167 18.7047L43.3375 54.2452L35.1289 53.7998L47.3785 15.9815Z" fill="#E0E0E0"/>
<path id="Vector_32" d="M46.9504 17.3103L53.5399 19.5626L42.6666 51.8432L35.9258 51.3395L46.9504 17.3103Z" fill="#407BFF"/>
<path id="Vector_33" d="M46.9504 17.3103L53.5399 19.5626L42.6666 51.8432L35.9258 51.3395L46.9504 17.3103Z" fill="#F5F5F5"/>
<path id="Vector_34" d="M45.791 20.884L49.3955 22.2712L53.5385 19.5626L46.9491 17.3103L45.791 20.884Z" fill="#F5F5F5"/>
<path id="Vector_35" d="M41.8323 45.6923L42.6666 51.8432L35.9258 51.3395L37.8266 45.4733L41.8323 45.6923Z" fill="#F5F5F5"/>
<path id="Vector_36" d="M45.7919 20.8841L49.3964 22.2712L41.8319 45.6923L37.8262 45.4733L45.7919 20.8841Z" fill="white"/>
<path id="Vector_37" d="M143.5 99.1125L144.046 97.5173H148.041L149.139 99.1125H143.5Z" fill="#E0E0E0"/>
<path id="Vector_38" d="M145.274 114.762H147.361L139.962 106.187H137.875L145.274 114.762Z" fill="#E0E0E0"/>
<path id="Vector_39" d="M147.361 114.762H145.273L152.672 106.187H154.76L147.361 114.762Z" fill="#E0E0E0"/>
<path id="Vector_40" d="M147.361 114.762V30.4044H145.274V114.762H147.361Z" fill="#E0E0E0"/>
<path id="Vector_41" d="M162.877 119.431L149.769 98.0429C149.67 97.8813 149.533 97.7482 149.371 97.6563C149.21 97.5644 149.028 97.5165 148.843 97.5173H147.361L160.794 119.42L162.877 119.431Z" fill="#E0E0E0"/>
<path id="Vector_42" opacity="0.3" d="M162.877 119.431L149.769 98.0429C149.67 97.8813 149.533 97.7482 149.371 97.6563C149.21 97.5644 149.028 97.5165 148.843 97.5173H147.361L160.794 119.42L162.877 119.431Z" fill="#E0E0E0"/>
<path id="Vector_43" d="M129.758 119.431L142.866 98.0429C142.965 97.8813 143.102 97.7482 143.264 97.6563C143.426 97.5644 143.607 97.5165 143.792 97.5173H145.274L131.845 119.42L129.758 119.431Z" fill="#E0E0E0"/>
<path id="Vector_44" opacity="0.3" d="M129.758 119.431L142.866 98.0429C142.965 97.8813 143.102 97.7482 143.264 97.6563C143.426 97.5644 143.607 97.5165 143.792 97.5173H145.274L131.845 119.42L129.758 119.431Z" fill="#E0E0E0"/>
<path id="Vector_45" d="M148.118 30.408H144.521V35.5222H148.118V30.408Z" fill="#EBEBEB"/>
<path id="Vector_46" d="M142.303 27.4292L147.896 25.0711C148.674 25.5464 149.29 26.2625 149.656 27.119C149.994 28.0199 150.005 29.0173 149.688 29.9261L144.32 32.3464L142.303 27.4292Z" fill="#EBEBEB"/>
<path id="Vector_47" d="M140.87 53.7999C140.87 53.7999 148.139 39.9283 143.633 29.1376C138.941 17.887 128.621 15.9961 128.621 15.9961L128.501 16.0363L140.8 53.8035L140.87 53.7999Z" fill="#E6E6E6"/>
<path id="Vector_48" d="M128.621 15.9815L120.482 18.7047L132.662 54.2452L140.87 53.7998L128.621 15.9815Z" fill="#E0E0E0"/>
<path id="Vector_49" d="M129.05 17.3103L122.461 19.5626L133.334 51.8432L140.075 51.3395L129.05 17.3103Z" fill="#407BFF"/>
<path id="Vector_50" d="M129.05 17.3103L122.461 19.5626L133.334 51.8432L140.075 51.3395L129.05 17.3103Z" fill="#F5F5F5"/>
<path id="Vector_51" d="M130.208 20.884L126.604 22.2712L122.461 19.5626L129.05 17.3103L130.208 20.884Z" fill="#F5F5F5"/>
<path id="Vector_52" d="M134.168 45.6923L133.334 51.8432L140.075 51.3395L138.174 45.4733L134.168 45.6923Z" fill="#F5F5F5"/>
<path id="Vector_53" d="M130.208 20.8841L126.604 22.2712L134.168 45.6923L138.174 45.4733L130.208 20.8841Z" fill="white"/>
</g>
<g id="Shadow">
<path id="path" d="M87.9993 136C125.692 136 156.249 134.15 156.249 131.868C156.249 129.586 125.692 127.736 87.9993 127.736C50.3062 127.736 19.75 129.586 19.75 131.868C19.75 134.15 50.3062 136 87.9993 136Z" fill="#F5F5F5"/>
</g>
<g id="Camera">
<path id="Vector_54" d="M75.2303 81.5832H69.1055V83.8172H75.2303V81.5832Z" fill="#407BFF"/>
<path id="Vector_55" d="M87.627 82.3132H82.2344V84.091H87.627V82.3132Z" fill="#407BFF"/>
<path id="Vector_56" d="M88.9021 79.4733H80.9609L81.6403 78.6921H88.2227L88.9021 79.4733Z" fill="#407BFF"/>
<path id="Vector_57" d="M148.136 78.9512H93.2559L88.8383 83.1346H63.8991C63.5985 83.1346 63.3102 83.2584 63.0976 83.4789C62.885 83.6993 62.7656 83.9983 62.7656 84.31V131.415C62.7656 131.727 62.885 132.026 63.0976 132.246C63.3102 132.467 63.5985 132.59 63.8991 132.59H148.136C148.437 132.59 148.725 132.467 148.938 132.246C149.15 132.026 149.27 131.727 149.27 131.415V80.1303C149.27 79.8182 149.15 79.5189 148.938 79.2979C148.725 79.0769 148.437 78.9522 148.136 78.9512Z" fill="#407BFF"/>
<path id="Vector_58" opacity="0.6" d="M148.136 78.9512H93.2559L88.8383 83.1346H63.8991C63.5985 83.1346 63.3102 83.2584 63.0976 83.4789C62.885 83.6993 62.7656 83.9983 62.7656 84.31V131.415C62.7656 131.727 62.885 132.026 63.0976 132.246C63.3102 132.467 63.5985 132.59 63.8991 132.59H148.136C148.437 132.59 148.725 132.467 148.938 132.246C149.15 132.026 149.27 131.727 149.27 131.415V80.1303C149.27 79.8182 149.15 79.5189 148.938 79.2979C148.725 79.0769 148.437 78.9522 148.136 78.9512Z" fill="white"/>
<path id="Vector_59" d="M149.27 92.3081H62.7656V130.543H149.27V92.3081Z" fill="#407BFF"/>
<path id="Vector_60" opacity="0.2" d="M149.269 80.1303V131.415C149.269 131.726 149.149 132.025 148.936 132.245C148.724 132.465 148.436 132.59 148.136 132.59H134.549C134.849 132.59 135.137 132.465 135.349 132.245C135.562 132.025 135.681 131.726 135.682 131.415V80.1303C135.682 79.8182 135.563 79.5189 135.351 79.2979C135.138 79.0769 134.85 78.9522 134.549 78.9512H148.136C148.437 78.9522 148.725 79.0769 148.938 79.2979C149.15 79.5189 149.269 79.8182 149.269 80.1303Z" fill="black"/>
<path id="Vector_61" d="M129.329 81.0576H119.381C118.788 81.0576 118.308 81.556 118.308 82.1709V89.5594C118.308 90.1743 118.788 90.6728 119.381 90.6728H129.329C129.922 90.6728 130.402 90.1743 130.402 89.5594V82.1709C130.402 81.556 129.922 81.0576 129.329 81.0576Z" fill="#263238"/>
<path id="Vector_62" opacity="0.4" d="M128.755 81.5832H119.937C119.41 81.5832 118.983 82.0261 118.983 82.5724V89.1213C118.983 89.6676 119.41 90.1105 119.937 90.1105H128.755C129.282 90.1105 129.709 89.6676 129.709 89.1213V82.5724C129.709 82.0261 129.282 81.5832 128.755 81.5832Z" fill="black"/>
<path id="Vector_63" opacity="0.4" d="M128.6 82.8754H122.299C121.922 82.8754 121.616 83.1925 121.616 83.5836V88.2634C121.616 88.6546 121.922 88.9716 122.299 88.9716H128.6C128.977 88.9716 129.283 88.6546 129.283 88.2634V83.5836C129.283 83.1925 128.977 82.8754 128.6 82.8754Z" fill="black"/>
<path id="Vector_64" opacity="0.2" d="M122.081 87.3654V84.0508C122.081 83.895 122.141 83.7455 122.247 83.6353C122.353 83.5251 122.497 83.4631 122.648 83.4631H126.52C126.52 83.4631 125.034 86.3579 122.081 87.3654Z" fill="white"/>
<path id="Vector_65" opacity="0.4" d="M107.037 81.0392H99.8067C99.4528 81.0392 99.166 81.3367 99.166 81.7036V82.7841C99.166 83.1511 99.4528 83.4485 99.8067 83.4485H107.037C107.391 83.4485 107.677 83.1511 107.677 82.7841V81.7036C107.677 81.3367 107.391 81.0392 107.037 81.0392Z" fill="black"/>
<path id="Vector_66" opacity="0.6" d="M107.149 81.5978H99.6934V82.8864H107.149V81.5978Z" fill="white"/>
<path id="Vector_67" opacity="0.4" d="M94.8854 83.4631C95.5309 83.4631 96.0541 82.9205 96.0541 82.2512C96.0541 81.5819 95.5309 81.0392 94.8854 81.0392C94.24 81.0392 93.7168 81.5819 93.7168 82.2512C93.7168 82.9205 94.24 83.4631 94.8854 83.4631Z" fill="black"/>
<path id="Vector_68" opacity="0.3" d="M84.7726 91.6583C84.6857 91.6583 84.5977 91.651 84.5086 91.6364C84.3917 91.6507 84.2742 91.658 84.1566 91.6583H84.0862C83.3172 91.6306 82.5853 91.3087 82.0316 90.7546C81.4779 90.2006 81.1414 89.4537 81.0871 88.6577C81.0386 87.915 81.2418 87.1782 81.6614 86.5743C82.0811 85.9705 82.691 85.5376 83.3857 85.3504V84.6203C83.3866 84.4038 83.47 84.1963 83.6176 84.0432C83.7653 83.8901 83.9653 83.8036 84.1742 83.8026H84.8535C85.0623 83.8036 85.2624 83.8901 85.41 84.0432C85.5577 84.1963 85.6411 84.4038 85.642 84.6203V85.3504C86.3713 85.5461 87.0066 86.0113 87.4284 86.6586C87.8503 87.3058 88.0296 88.0906 87.9328 88.8653C87.8359 89.6401 87.4696 90.3515 86.9025 90.8658C86.3355 91.3801 85.6068 91.662 84.8535 91.6583H84.7726Z" fill="black"/>
<path id="Vector_69" d="M85.3072 85.6351V84.613C85.3072 84.49 85.2601 84.3721 85.1763 84.2852C85.0924 84.1982 84.9787 84.1494 84.8602 84.1494H84.1808C84.0622 84.1494 83.9485 84.1982 83.8647 84.2852C83.7809 84.3721 83.7338 84.49 83.7338 84.613V85.6351C83.059 85.7489 82.4493 86.1193 82.0236 86.6741C81.598 87.2289 81.3869 87.9283 81.4317 88.6358C81.4823 89.3429 81.7823 90.006 82.2745 90.4982C82.7667 90.9905 83.4165 91.2774 84.0998 91.3042C84.2375 91.308 84.3752 91.3007 84.5117 91.2823C84.6003 91.2952 84.6897 91.3025 84.7792 91.3042C85.4759 91.3236 86.1538 91.0682 86.676 90.5895C87.1982 90.1108 87.5259 89.4445 87.5929 88.7251C87.6599 88.0056 87.4613 87.2866 87.037 86.7131C86.6128 86.1396 85.9946 85.7544 85.3072 85.6351Z" fill="#407BFF"/>
<path id="Vector_70" opacity="0.4" d="M85.3072 85.6351V84.613C85.3072 84.49 85.2601 84.3721 85.1763 84.2852C85.0924 84.1982 84.9787 84.1494 84.8602 84.1494H84.1808C84.0622 84.1494 83.9485 84.1982 83.8647 84.2852C83.7809 84.3721 83.7338 84.49 83.7338 84.613V85.6351C83.059 85.7489 82.4493 86.1193 82.0236 86.6741C81.598 87.2289 81.3869 87.9283 81.4317 88.6358C81.4823 89.3429 81.7823 90.006 82.2745 90.4982C82.7667 90.9905 83.4165 91.2774 84.0998 91.3042C84.2375 91.308 84.3752 91.3007 84.5117 91.2823C84.6003 91.2952 84.6897 91.3025 84.7792 91.3042C85.4759 91.3236 86.1538 91.0682 86.676 90.5895C87.1982 90.1108 87.5259 89.4445 87.5929 88.7251C87.6599 88.0056 87.4613 87.2866 87.037 86.7131C86.6128 86.1396 85.9946 85.7544 85.3072 85.6351Z" fill="white"/>
<path id="Vector_71" opacity="0.4" d="M84.6278 85.6351V84.613C84.6278 84.5521 84.6163 84.4918 84.5938 84.4356C84.5713 84.3793 84.5384 84.3282 84.4969 84.2852C84.4554 84.2421 84.4061 84.208 84.3519 84.1847C84.2976 84.1614 84.2395 84.1494 84.1808 84.1494C84.0622 84.1494 83.9485 84.1982 83.8647 84.2852C83.7809 84.3721 83.7338 84.49 83.7338 84.613V85.6351C83.059 85.7489 82.4493 86.1193 82.0236 86.6741C81.598 87.2289 81.3869 87.9283 81.4317 88.6358C81.4555 89.3938 81.7687 90.111 82.3024 90.6296C82.8361 91.1482 83.5466 91.4256 84.2776 91.4009C85.0086 91.3763 85.7002 91.0514 86.2002 90.498C86.7003 89.9445 86.9678 89.2076 86.944 88.4496C86.9431 87.7716 86.7095 87.1162 86.2852 86.6005C85.8608 86.0848 85.2733 85.7426 84.6278 85.6351Z" fill="white"/>
<path id="Vector_72" opacity="0.3" d="M79.9922 89.4681V87.2669C79.9922 87.1056 79.8661 86.9748 79.7106 86.9748H71.7554C71.5999 86.9748 71.4738 87.1056 71.4738 87.2669V89.4681C71.4738 89.6293 71.5999 89.7601 71.7554 89.7601H79.7106C79.8661 89.7601 79.9922 89.6293 79.9922 89.4681Z" fill="black"/>
<path id="Vector_73" d="M79.6545 87.3253H71.8154V89.406H79.6545V87.3253Z" fill="#407BFF"/>
<path id="Vector_74" opacity="0.4" d="M79.6545 87.3253H71.8154V89.406H79.6545V87.3253Z" fill="white"/>
<path id="Vector_75" opacity="0.6" d="M75.1698 87.4311H73.709V89.3111H75.1698V87.4311Z" fill="white"/>
<path id="Vector_76" opacity="0.6" d="M75.3702 89.3147H76.1094V87.4347H75.3702V89.3147Z" fill="white"/>
<path id="Vector_77" opacity="0.6" d="M76.391 89.3147H77.0176V87.4347H76.391V89.3147Z" fill="white"/>
<path id="Vector_78" opacity="0.6" d="M77.412 89.3147H77.8379V87.4347H77.412V89.3147Z" fill="white"/>
<path id="Vector_79" opacity="0.6" d="M78.6407 89.3147H78.8555V87.4347H78.6407V89.3147Z" fill="white"/>
<path id="Vector_80" opacity="0.6" d="M72.7549 89.3147H73.4941V87.4347H72.7549V89.3147Z" fill="white"/>
<path id="Vector_81" opacity="0.6" d="M71.9736 89.3147H72.498V87.4347H71.9736V89.3147Z" fill="white"/>
<path id="Vector_82" d="M89.1161 79.3053H80.749V82.6564H89.1161V79.3053Z" fill="#407BFF"/>
<path id="Vector_83" opacity="0.4" d="M89.1161 79.3053H80.749V82.6564H89.1161V79.3053Z" fill="white"/>
<path id="Vector_84" opacity="0.6" d="M84.3289 79.4732H82.7695V82.4994H84.3289V79.4732Z" fill="white"/>
<path id="Vector_85" opacity="0.6" d="M84.5435 82.4995H85.332V79.4733H84.5435V82.4995Z" fill="white"/>
<path id="Vector_86" opacity="0.6" d="M85.6349 82.4995H86.3037V79.4733H85.6349V82.4995Z" fill="white"/>
<path id="Vector_87" opacity="0.6" d="M86.7192 82.4995H87.1768V79.4733H86.7192V82.4995Z" fill="white"/>
<path id="Vector_88" opacity="0.6" d="M88.0359 82.4995H88.2646V79.4733H88.0359V82.4995Z" fill="white"/>
<path id="Vector_89" opacity="0.6" d="M81.7486 82.4995H82.5371V79.4733H81.7486V82.4995Z" fill="white"/>
<path id="Vector_90" opacity="0.6" d="M80.9188 82.4995H81.4785V79.4733H80.9188V82.4995Z" fill="white"/>
<path id="Vector_91" d="M76.3495 79.9697H67.9824V82.6564H76.3495V79.9697Z" fill="#407BFF"/>
<path id="Vector_92" opacity="0.4" d="M76.3495 79.9697H67.9824V82.6564H76.3495V79.9697Z" fill="white"/>
<path id="Vector_93" opacity="0.6" d="M71.5623 80.1047H70.0029V82.5323H71.5623V80.1047Z" fill="white"/>
<path id="Vector_94" opacity="0.6" d="M71.7799 82.5286H72.5684V80.1011H71.7799V82.5286Z" fill="white"/>
<path id="Vector_95" opacity="0.6" d="M72.8683 82.5286H73.5371V80.1011H72.8683V82.5286Z" fill="white"/>
<path id="Vector_96" opacity="0.6" d="M73.9526 82.5286H74.4102V80.1011H73.9526V82.5286Z" fill="white"/>
<path id="Vector_97" opacity="0.6" d="M75.2692 82.5286H75.498V80.1011H75.2692V82.5286Z" fill="white"/>
<path id="Vector_98" opacity="0.6" d="M68.985 82.5286H69.7734V80.1011H68.985V82.5286Z" fill="white"/>
<path id="Vector_99" opacity="0.6" d="M68.1513 82.5286H68.7109V80.1011H68.1513V82.5286Z" fill="white"/>
<path id="Vector_100" d="M101.909 126.33C111.934 126.33 120.061 117.428 120.061 106.446C120.061 95.4647 111.934 86.5624 101.909 86.5624C91.8831 86.5624 83.7559 95.4647 83.7559 106.446C83.7559 117.428 91.8831 126.33 101.909 126.33Z" fill="#407BFF"/>
<path id="Vector_101" opacity="0.2" d="M101.909 126.33C111.934 126.33 120.061 117.428 120.061 106.446C120.061 95.4647 111.934 86.5624 101.909 86.5624C91.8831 86.5624 83.7559 95.4647 83.7559 106.446C83.7559 117.428 91.8831 126.33 101.909 126.33Z" fill="black"/>
<path id="Vector_102" d="M101.908 87.1464H95.1143C85.3815 87.1464 77.4932 95.787 77.4932 106.446C77.4932 117.105 85.3815 125.746 95.1143 125.746H101.908C111.641 125.746 119.529 117.105 119.529 106.446C119.529 95.787 111.641 87.1464 101.908 87.1464Z" fill="#407BFF"/>
<path id="Vector_103" opacity="0.3" d="M101.908 87.1464H95.1143C85.3815 87.1464 77.4932 95.787 77.4932 106.446C77.4932 117.105 85.3815 125.746 95.1143 125.746H101.908C111.641 125.746 119.529 117.105 119.529 106.446C119.529 95.787 111.641 87.1464 101.908 87.1464Z" fill="white"/>
<path id="Vector_104" opacity="0.6" d="M95.1143 125.746C104.846 125.746 112.735 117.105 112.735 106.446C112.735 95.7872 104.846 87.1464 95.1143 87.1464C85.3824 87.1464 77.4932 95.7872 77.4932 106.446C77.4932 117.105 85.3824 125.746 95.1143 125.746Z" fill="white"/>
<path id="Vector_105" d="M94.9873 88.4605H88.6513C79.5802 88.4605 72.2305 96.5133 72.2305 106.446C72.2305 116.379 79.5802 124.432 88.6513 124.432H94.9873C104.055 124.432 111.408 116.379 111.408 106.446C111.408 96.5133 104.055 88.4605 94.9873 88.4605Z" fill="#407BFF"/>
<path id="Vector_106" opacity="0.3" d="M94.9873 88.4605H88.6513C79.5802 88.4605 72.2305 96.5133 72.2305 106.446C72.2305 116.379 79.5802 124.432 88.6513 124.432H94.9873C104.055 124.432 111.408 116.379 111.408 106.446C111.408 96.5133 104.055 88.4605 94.9873 88.4605Z" fill="white"/>
<path id="Vector_107" opacity="0.6" d="M88.6591 124.432C97.728 124.432 105.08 116.379 105.08 106.446C105.08 96.513 97.728 88.4605 88.6591 88.4605C79.5901 88.4605 72.2383 96.513 72.2383 106.446C72.2383 116.379 79.5901 124.432 88.6591 124.432Z" fill="white"/>
<path id="Vector_108" d="M88.6546 122.654C80.5375 122.654 73.9199 115.393 73.9199 106.446C73.9199 97.499 80.5234 90.22 88.6406 90.22C96.7577 90.22 103.365 97.499 103.365 106.446C103.365 115.393 96.7718 122.654 88.6546 122.654Z" fill="#263238"/>
<path id="Vector_109" opacity="0.4" d="M89.5071 122.654C89.2255 122.654 88.9439 122.683 88.6587 122.683C80.5416 122.683 73.9346 115.404 73.9346 106.457C73.9346 97.5099 80.5416 90.231 88.6587 90.231C88.9439 90.231 89.2255 90.231 89.5071 90.2602C81.7842 90.7457 75.6312 97.8239 75.6312 106.457C75.6312 115.09 81.7842 122.158 89.5071 122.654Z" fill="black"/>
<path id="Vector_110" opacity="0.4" d="M89.6757 120.205C82.868 120.205 77.3311 114.032 77.3311 106.446C77.3311 98.8606 82.868 92.6877 89.6757 92.6877C96.4834 92.6877 102.02 98.8606 102.02 106.446C102.02 114.032 96.4834 120.205 89.6757 120.205Z" fill="black"/>
<path id="Vector_111" d="M95.9388 101.263H85.5302C84.9742 101.263 84.5234 101.73 84.5234 102.307V109.881C84.5234 110.458 84.9742 110.925 85.5302 110.925H95.9388C96.4948 110.925 96.9455 110.458 96.9455 109.881V102.307C96.9455 101.73 96.4948 101.263 95.9388 101.263Z" fill="#263238"/>
<path id="Vector_112" opacity="0.4" d="M89.676 117.386C84.3679 117.386 80.0488 112.477 80.0488 106.435C80.0488 100.394 84.3679 95.484 89.676 95.484C94.9842 95.484 99.3032 100.39 99.3032 106.435C99.3032 112.48 94.9842 117.386 89.676 117.386Z" fill="black"/>
<path id="Vector_113" opacity="0.2" d="M85.3496 107.348V103.175C85.3496 102.941 85.4394 102.716 85.5991 102.551C85.7589 102.385 85.9755 102.292 86.2014 102.292H92.6677C92.6677 102.292 91.0274 106.432 85.3496 107.348Z" fill="white"/>
</g>
<g id="character-2">
<path id="Vector_114" d="M105.078 48.0286C105.078 48.0286 105.676 47.335 104.497 46.437C103.318 45.539 100.157 46.802 99.1891 49.5581C98.2211 52.3142 100.682 53.1611 98.0487 55.7638C95.4157 58.3666 96.1584 60.0129 98.8371 62.5864C101.516 65.16 98.9251 66.4011 99.0131 68.0621C99.1011 69.723 98.9075 71.7818 104.293 68.814C109.679 65.8463 110.168 58.5746 110.344 54.5373C110.52 50.4999 107.5 46.4224 105.078 48.0286Z" fill="#263238"/>
<path id="Vector_115" d="M111.024 51.3432L109.472 52.2485C109.472 52.2485 109.517 51.1534 108.891 51.2775C108.677 51.3285 108.465 51.3907 108.257 51.4637C107.127 51.8287 105.089 52.5917 105.089 52.5917L104.505 51.3432C104.505 51.3432 106.135 50.5839 107.673 50.0619C108.757 49.6969 109.785 49.4267 110.179 49.6312C111.091 50.1276 111.024 51.3432 111.024 51.3432Z" fill="#EBB376"/>
<path id="Vector_116" opacity="0.2" d="M108.25 51.4709C107.12 51.836 105.082 52.5989 105.082 52.5989L104.498 51.3505C104.498 51.3505 106.128 50.5912 107.666 50.0692C107.954 50.4885 108.153 50.9662 108.25 51.4709Z" fill="black"/>
<path id="Vector_117" d="M111.693 58.33C111.542 58.78 111.336 59.2081 111.081 59.604C110.535 60.4035 109.852 60.367 109.191 59.9691C107.92 59.2098 106.727 57.1364 106.727 57.1364C106.727 57.1364 109.317 53.4859 109.356 52.9676C109.407 52.5527 109.494 52.1434 109.616 51.7447C109.616 51.7447 111.503 51.1387 112.116 51.1862C112.64 51.2263 112.661 55.5849 111.693 58.33Z" fill="#407BFF"/>
<path id="Vector_118" d="M109.341 52.964L108.943 51.7411L111.971 50.405L113.111 51.4527C113.111 51.4527 110.798 52.8289 109.341 52.964Z" fill="#407BFF"/>
<path id="Vector_119" opacity="0.2" d="M109.341 52.964L108.943 51.7411L111.971 50.405L113.111 51.4527C113.111 51.4527 110.798 52.8289 109.341 52.964Z" fill="black"/>
<path id="Vector_120" opacity="0.2" d="M111.693 58.3301C111.542 58.78 111.336 59.2081 111.081 59.6041C110.535 60.4035 109.852 60.367 109.191 59.9691L108.508 57.4138C108.508 57.4138 110.493 56.7531 111.693 58.3301Z" fill="black"/>
<path id="Vector_121" d="M113.921 66.6311L116.033 68.4162C116.033 68.4162 117.818 68.679 118.702 69.1462C119.205 70.1426 119.561 71.212 119.758 72.3185C120.145 75.4834 119.508 79.2981 115.534 79.225C109.729 79.1192 107.758 77.2392 106.709 69.3069L113.921 66.6311Z" fill="#263238"/>
<path id="Vector_122" d="M133.407 68.4563C131.394 68.2629 121.932 68.8214 121.932 68.8214L118.711 69.1499L118.007 69.2229C118.007 69.2229 118.159 69.4419 118.381 69.7851C119.032 70.7999 120.274 72.9098 119.908 73.7531C119.352 75.0271 115.702 76.458 114.681 76.834L114.417 76.9326L114.611 76.9691C118.796 77.7393 127.057 75.1439 131.077 73.7896C132.404 73.3442 133.27 73.034 133.372 73.0266C133.474 73.0193 133.869 68.4965 133.407 68.4563Z" fill="#EBB376"/>
<path id="Vector_123" d="M116.043 68.4162H121.073L122.414 77.3999L117.525 78.3636L116.043 68.4162Z" fill="#263238"/>
<path id="Vector_124" d="M120.689 68.2118L121.84 77.6371L122.601 77.3999L121.446 68.2118H120.689Z" fill="#407BFF"/>
<path id="Vector_125" opacity="0.2" d="M131.078 73.7932C127.072 75.1402 118.797 77.7539 114.611 76.9727L114.682 76.8377C115.617 75.0228 116.214 73.0413 116.442 70.997C116.604 69.5587 116.118 68.8323 116.118 68.8323C116.626 69.1855 117.045 69.6584 117.343 70.2122C117.343 70.2122 125.566 70.7597 131.078 73.7932Z" fill="black"/>
<path id="Vector_126" d="M154.066 75.5345C154.031 76.2646 154.003 76.929 153.978 77.5349C153.947 78.265 153.918 78.9367 153.887 79.5719C153.841 80.6962 152.665 79.6923 150.793 79.4952H150.599C150.571 79.4952 150.55 79.4478 150.539 79.3748C150.512 78.7948 150.532 78.2136 150.599 77.6372C150.934 77.3363 151.254 77.017 151.556 76.6807C152.161 76.0701 152.629 75.3301 152.929 74.5124C153.327 73.0486 154.137 73.9028 154.066 75.5345Z" fill="#EBB376"/>
<path id="Vector_127" d="M151.138 77.6335L151.06 79.4405L150.835 79.4587H150.74C150.694 79.4587 150.649 79.4587 150.599 79.4587L149.67 79.5317C146.403 79.7617 138.167 80.1888 133.559 79.0426C133.559 79.0426 117.367 79.1192 114.424 79.0243C111.482 78.9294 110 74.7424 111.496 72.3221C112.372 70.9058 113.664 69.7413 117.832 70.9167C121.999 72.0922 130.901 75.049 134.231 75.6148C134.231 75.6148 138.881 76.8268 146.699 77.3889H146.882C148.051 77.4692 149.286 77.5386 150.592 77.5824C150.698 77.5824 150.8 77.5824 150.906 77.5824L151.138 77.6335Z" fill="#EBB376"/>
<path id="Vector_128" d="M106.923 69.8143L107.127 70.9861L114.304 67.3539L113.674 66.1675L106.923 69.8143Z" fill="black"/>
<path id="Vector_129" d="M109.116 68.3998L108.773 68.562L109.569 70.3684L109.912 70.2061L109.116 68.3998Z" fill="#263238"/>
<path id="Vector_130" d="M112.142 67.1034L110.658 67.8787L111.225 69.0458L112.709 68.2705L112.142 67.1034Z" fill="white"/>
<path id="Vector_131" d="M113.227 66.149L112.885 66.3112L113.68 68.1177L114.023 67.9554L113.227 66.149Z" fill="#263238"/>
<path id="Vector_132" d="M113.762 66.3391L106.785 69.8435C106.564 69.1045 106.253 68.3978 105.859 67.7409C105.265 66.7605 104.589 65.8359 103.839 64.9775C101.882 62.6668 100.062 60.9146 101.727 59.3084C104.363 56.7349 108.908 56.0741 110.914 59.3084C112.201 61.4889 113.161 63.8595 113.762 66.3391Z" fill="#407BFF"/>
<path id="Vector_133" d="M110.616 72.9318C111.288 71.1832 112.689 68.7046 119.356 71.3767L118.085 79.2361H114.305C111.911 79.2361 109.535 75.739 110.616 72.9318Z" fill="#263238"/>
<path id="Vector_134" d="M119.095 70.9861L117.758 79.4477H118.427L119.733 71.2525L119.095 70.9861Z" fill="#407BFF"/>
<path id="Vector_135" d="M102.488 57.6767C103.78 56.7969 106.543 56.3406 109.092 56.9466L108.127 57.1656L110.018 58.7462C110.018 58.7462 109.24 59.7027 109.342 60.1115C109.444 60.5204 109.532 62.5938 109.532 62.5938C109.532 62.5938 107.163 60.2721 105.273 59.4508C103.382 58.6294 102.488 58.6586 102.488 58.6586" fill="#407BFF"/>
<path id="Vector_136" opacity="0.2" d="M102.488 57.6767C103.78 56.7969 106.543 56.3406 109.092 56.9466L108.127 57.1656L110.018 58.7462C110.018 58.7462 109.24 59.7027 109.342 60.1115C109.444 60.5204 109.532 62.5938 109.532 62.5938C109.532 62.5938 108.384 59.9399 105.941 59.0857L105.417 60.5459C104.345 60.0991 103.355 59.4658 102.488 58.6732" fill="black"/>
<path id="Vector_137" d="M108.852 61.4329C108.852 61.4329 107.772 60.3159 107.205 59.8158C107.205 59.8158 105.719 59.8559 105.67 58.6805L103.002 58.3154C104.579 57.5269 104.558 56.9575 104.375 56.1544C104.263 55.7044 104.059 55.2848 103.776 54.9242C103.741 54.8772 103.704 54.8321 103.664 54.7891L106.385 54.5884L106.716 54.5628H106.927C106.902 54.6065 106.88 54.6516 106.86 54.6979C106.684 55.0629 106.261 56.0011 106.455 56.7494C106.571 57.2094 106.923 57.589 107.712 57.6912C109.18 57.8591 108.852 61.4329 108.852 61.4329Z" fill="#EBB376"/>
<path id="Vector_138" opacity="0.2" d="M106.455 56.7312C105.722 56.7446 105.001 56.5421 104.375 56.1471C104.263 55.6972 104.059 55.2775 103.776 54.9169L106.385 54.5811L106.694 54.5446C106.701 54.5462 106.709 54.5462 106.716 54.5446L106.86 54.6687C106.684 55.0264 106.261 55.9829 106.455 56.7312Z" fill="black"/>
<path id="Vector_139" d="M102.488 58.6623V57.673L105.67 58.6805L105.339 60.2283L102.488 58.6623Z" fill="#407BFF"/>
<path id="Vector_140" d="M105.036 48.3097C105.036 48.3097 106.339 45.006 103.776 45.2287C101.214 45.4514 100.64 50.4597 98.2675 52.9639C95.895 55.4681 94.8848 53.5991 94.8848 53.5991" stroke="#263238" stroke-width="0.5" stroke-linecap="round" stroke-linejoin="round"/>
<path id="Vector_141" d="M104.297 48.6455C104.297 48.6455 104.772 47.0758 106.761 47.4153C108.75 47.7548 108.978 51.4308 107.817 53.0771" stroke="#263238" stroke-width="0.5" stroke-linecap="round" stroke-linejoin="round"/>
<path id="Vector_142" d="M102.625 49.0872C104.533 47.9629 105.726 48.6638 106.983 50.6204C108.556 53.0662 109.003 55.198 106.317 56.0595C102.671 57.2277 99.4534 50.9563 102.625 49.0872Z" fill="#EBB376"/>
<path id="Vector_143" d="M105.691 51.2373C106.006 51.4418 106.343 51.6072 106.695 51.7301C106.684 51.8447 106.643 51.954 106.576 52.0456C106.509 52.1372 106.418 52.2075 106.314 52.2485L105.691 51.2373Z" fill="#D58745"/>
<path id="Vector_144" d="M104.434 51.763C104.526 51.9236 104.519 52.1025 104.413 52.1682C104.308 52.2339 104.153 52.1682 104.061 51.993C103.97 51.8177 103.977 51.6498 104.079 51.5878C104.181 51.5257 104.339 51.6024 104.434 51.763Z" fill="#263238"/>
<path id="Vector_145" d="M104.04 51.6206L104.297 51.2775C104.297 51.2775 104.301 51.6754 104.04 51.6206Z" fill="#263238"/>
<path id="Vector_146" d="M106.339 50.5328C106.43 50.6934 106.423 50.8759 106.318 50.938C106.212 51 106.057 50.938 105.966 50.7664C105.874 50.5948 105.885 50.4233 105.987 50.3575C106.089 50.2918 106.244 50.3758 106.339 50.5328Z" fill="#263238"/>
<path id="Vector_147" d="M105.951 50.394L106.208 50.029C106.208 50.029 106.205 50.4451 105.951 50.394Z" fill="#263238"/>
<path id="Vector_148" d="M103.667 50.405C103.506 50.4751 103.362 50.5826 103.246 50.7193C103.131 50.8559 103.047 51.0182 103.002 51.1935" stroke="#263238" stroke-width="0.72468" stroke-linecap="round" stroke-linejoin="round"/>
<path id="Vector_149" d="M105.008 49.507C105.119 49.3957 105.253 49.3119 105.4 49.262C105.547 49.212 105.703 49.1972 105.856 49.2186" stroke="#263238" stroke-width="0.72468" stroke-linecap="round" stroke-linejoin="round"/>
<path id="Vector_150" d="M102.365 53.6612C102.365 53.6612 102.365 51.5074 101.544 50.332C101.544 50.332 104.448 46.5027 106.824 50.3721C106.824 50.3721 105.258 46.6195 101.932 48.4739C98.6051 50.3283 101.347 55.2965 103.857 55.7748C103.839 55.7748 102.372 54.9936 102.365 53.6612Z" fill="#263238"/>
<path id="Vector_151" d="M102.907 53.8875C102.763 53.6691 102.541 53.5188 102.29 53.4696C102.04 53.4203 101.78 53.4761 101.569 53.6247C101.017 54.0408 101.425 55.4499 103.062 54.9023C103.294 54.822 103.298 54.5373 102.907 53.8875Z" fill="#EBB376"/>
<path id="Vector_152" d="M106.261 53.5407C106.056 53.5973 105.84 53.5998 105.633 53.5482C105.427 53.4966 105.236 53.3924 105.078 53.245" stroke="#263238" stroke-width="0.5" stroke-linecap="round" stroke-linejoin="round"/>
<path id="Vector_153" d="M106.402 49.361C107.3 50.6679 108.514 53.0297 107.42 54.5446" stroke="#263238" stroke-width="0.5" stroke-linecap="round" stroke-linejoin="round"/>
<path id="Vector_154" d="M99.541 53.1246C99.541 53.1246 100.748 54.2708 98.0697 56.2019C95.3909 58.1329 94.6869 59.6807 96.5103 61.5716C98.3337 63.4626 99.629 63.7619 98.661 65.1491" stroke="#263238" stroke-width="0.5" stroke-linecap="round" stroke-linejoin="round"/>
<path id="Vector_155" d="M104.498 48.5506C104.498 48.5506 102.66 48.0724 101.914 51.9528" stroke="#263238" stroke-width="0.5" stroke-linecap="round" stroke-linejoin="round"/>
<path id="Vector_156" opacity="0.2" d="M105.86 67.7409C105.266 66.7605 104.59 65.8359 103.84 64.9775L104.896 63.4772C104.896 63.4772 106.49 65.6419 105.86 67.7409Z" fill="black"/>
<path id="Vector_157" d="M101.728 59.3194C100.32 59.6516 100.848 66.1968 101.115 70.2013C101.193 71.384 99.6826 78.1519 99.6826 78.1519C99.6826 78.1519 97.7502 78.3928 97.2679 78.3636C96.7857 78.3344 96.2119 79.0937 96.2119 79.0937L98.7569 79.8238C98.7569 79.8238 100.492 79.7836 100.725 79.4405L100.953 79.0937C100.953 79.0937 102.879 71.5884 103.136 70.4531C103.393 69.3179 103.541 62.0572 103.541 62.0572C103.541 62.0572 103.136 58.9799 101.728 59.3194Z" fill="#EBB376"/>
<path id="Vector_158" d="M102.128 58.9506C100.101 59.385 100.294 64.0612 99.8754 65.9886C99.4566 67.916 100.77 70.2012 100.77 70.2012L100.393 71.3657L103.001 72.0009L103.666 70.4531C103.666 70.4531 104.722 66.0361 105.008 64.7146C105.293 63.3932 103.307 58.6951 102.128 58.9506Z" fill="#407BFF"/>
<path id="Vector_159" d="M103.667 70.4531L99.7949 70.2012L100.073 71.6833C100.073 71.6833 103.308 72.6397 103.336 72.5046C103.364 72.3696 103.667 70.4531 103.667 70.4531Z" fill="#407BFF"/>
<path id="Vector_160" opacity="0.2" d="M103.667 70.4531L99.7949 70.2012L100.073 71.6833C100.073 71.6833 103.308 72.6397 103.336 72.5046C103.364 72.3696 103.667 70.4531 103.667 70.4531Z" fill="black"/>
<path id="Vector_161" d="M154.225 75.1147C154.141 76.5091 154.07 77.6335 154.007 78.6629C154.007 78.8892 153.982 79.1082 153.968 79.3273C153.894 80.5356 152.947 79.7142 150.878 79.528C150.86 79.528 150.846 79.5025 150.835 79.4587C150.803 78.849 150.83 78.2375 150.916 77.6335C150.916 77.4948 150.941 77.3706 150.952 77.2684L150.987 76.98C150.987 76.98 152.624 75.5199 153.06 74.0086C153.497 72.4973 154.327 73.4099 154.225 75.1147Z" fill="#263238"/>
<path id="Vector_162" d="M151.669 75.8557C151.584 76.1524 151.466 76.4378 151.317 76.7063V76.7282H151.296H151.278H151.25C151.226 76.7282 150.666 76.4653 150.546 76.1113C150.527 76.0577 150.52 76.0005 150.525 75.9437C150.53 75.8869 150.547 75.8319 150.574 75.7827C150.634 75.6696 150.708 75.6184 150.789 75.6294C150.87 75.6403 151.039 75.8338 151.141 76.0492C151.123 75.854 151.156 75.6573 151.236 75.4797C151.256 75.4479 151.282 75.4206 151.312 75.3993C151.342 75.378 151.376 75.3631 151.412 75.3556C151.458 75.3392 151.507 75.3382 151.553 75.3526C151.599 75.367 151.64 75.3962 151.669 75.4359C151.697 75.5022 151.711 75.5737 151.711 75.6458C151.711 75.718 151.697 75.7894 151.669 75.8557ZM151.296 76.4726C151.472 76.1076 151.648 75.6476 151.546 75.5199C151.546 75.5199 151.518 75.4761 151.419 75.4943C151.4 75.4982 151.382 75.5065 151.366 75.5185C151.35 75.5304 151.337 75.5459 151.328 75.5637C151.236 75.8577 151.225 76.1725 151.296 76.4726ZM150.655 75.9287C150.643 75.9766 150.643 76.0269 150.655 76.0747C150.772 76.2833 150.948 76.4491 151.159 76.5493C151.043 76.1624 150.874 75.7827 150.765 75.7681C150.729 75.7681 150.694 75.8229 150.677 75.8557C150.666 75.8788 150.659 75.9034 150.655 75.9287Z" fill="#407BFF"/>
<path id="Vector_163" opacity="0.2" d="M154.006 78.6629C154.006 78.8892 153.982 79.1083 153.968 79.3273C153.894 80.5356 152.947 79.7142 150.877 79.5281C150.86 79.5281 150.846 79.5025 150.835 79.4587H150.74C150.694 79.4587 150.648 79.4587 150.599 79.4587L149.67 79.5317C148.839 78.9002 147.716 78.0351 146.893 77.4035C148.061 77.4838 149.297 77.5532 150.603 77.597C150.708 77.597 150.81 77.597 150.916 77.597C150.916 77.4583 150.941 77.3342 150.951 77.232L154.006 78.6629Z" fill="black"/>
<path id="Vector_164" d="M133.408 68.4564C133.056 68.4199 133.288 73.034 133.372 73.0303C133.848 72.9975 154.295 79.0937 154.295 79.0937L154.943 77.4145C154.943 77.4145 135.421 68.6462 133.408 68.4564Z" fill="#EBB376"/>
<path id="Vector_165" d="M151.789 78.5132C151.662 78.3526 153.612 76.7866 153.612 76.7866C153.612 76.7866 155.77 76.9472 157.104 76.2062C158.438 75.4652 158.403 76.7209 157.171 77.8489L154.116 80.6378C153.239 81.4409 153.12 80.1632 151.789 78.5132Z" fill="#263238"/>
<path id="Vector_166" d="M154.854 76.4982C154.594 76.6482 154.318 76.7646 154.03 76.845H154.006H153.981V76.8231C153.855 76.5231 153.827 76.1881 153.904 75.8703C153.926 75.8174 153.96 75.7706 154.002 75.7338C154.045 75.697 154.096 75.6712 154.15 75.6586C154.193 75.6378 154.241 75.6315 154.287 75.6407C154.333 75.6499 154.375 75.674 154.407 75.7097C154.488 75.8156 154.442 76.0346 154.361 76.2573C154.479 76.1037 154.637 75.9884 154.815 75.9251C154.851 75.9156 154.889 75.9143 154.925 75.9212C154.962 75.9281 154.996 75.9432 155.027 75.9653C155.07 75.9875 155.105 76.0229 155.127 76.0667C155.15 76.1105 155.159 76.1605 155.153 76.2098C155.108 76.2938 154.998 76.4069 154.854 76.4982ZM154.175 76.6588C154.548 76.5311 154.977 76.3266 155.002 76.1733C155.002 76.1733 155.002 76.1186 154.928 76.0602C154.912 76.049 154.894 76.0416 154.875 76.0384C154.857 76.0353 154.837 76.0365 154.819 76.0419C154.615 76.0821 154.337 76.4216 154.175 76.6588ZM154.09 75.8046C154.05 75.832 154.017 75.8697 153.995 75.9141C153.935 76.1457 153.947 76.3912 154.03 76.615C154.21 76.25 154.347 75.8667 154.28 75.7754C154.259 75.7499 154.196 75.7754 154.161 75.7754C154.135 75.7811 154.11 75.7909 154.087 75.8046H154.09Z" fill="#407BFF"/>
</g>
<g id="character-1">
<path id="Vector_167" d="M52.3453 51.7483C52.3453 51.7483 49.2653 58.852 47.9172 60.1443C46.569 61.4365 41.6445 60.1443 41.6445 60.1443L42.3098 57.3882C42.3098 57.3882 46.3121 57.7788 46.9949 57.7533C47.6778 57.7277 50.1946 52.0002 50.1946 52.0002L52.3453 51.7483Z" fill="#B97964"/>
<path id="Vector_168" opacity="0.2" d="M52.3453 51.7483C52.3453 51.7483 49.2653 58.852 47.9172 60.1443C46.569 61.4365 41.6445 60.1443 41.6445 60.1443L42.3098 57.3882C42.3098 57.3882 46.3121 57.7788 46.9949 57.7533C47.6778 57.7277 50.1946 52.0002 50.1946 52.0002L52.3453 51.7483Z" fill="black"/>
<path id="Vector_169" d="M46.9282 54.0663C46.9282 54.0663 47.0866 61.9512 44.9499 64.021C42.8133 66.0908 39.6699 55.8404 39.6699 55.8404L40.0219 55.793C40.0219 55.793 43.0843 64.2838 44.3374 63.6377C46.5832 62.4805 46.5832 54.2999 46.5832 54.2999L46.9282 54.0663Z" fill="#263238"/>
<path id="Vector_170" d="M48.3156 46.1449C48.1114 45.9683 47.8704 45.8433 47.6116 45.7799C47.2984 45.7507 45.4116 48.5323 45.6756 48.8572C45.9396 49.1821 46.9675 49.9012 47.4814 49.7954C47.9953 49.6895 48.7416 47.6416 48.7838 47.4737C48.826 47.3058 48.3156 46.1449 48.3156 46.1449Z" fill="#B97964"/>
<path id="Vector_171" d="M49.4344 47.4773H46.9282C46.5666 47.4773 46.2734 47.7813 46.2734 48.1563V53.3874C46.2734 53.7623 46.5666 54.0663 46.9282 54.0663H49.4344C49.796 54.0663 50.0891 53.7623 50.0891 53.3874V48.1563C50.0891 47.7813 49.796 47.4773 49.4344 47.4773Z" fill="#263238"/>
<path id="Vector_172" d="M55.236 52.1426H48.7803V49.4011H55.236C55.586 49.4011 55.9218 49.5453 56.1693 49.802C56.4169 50.0588 56.556 50.4069 56.556 50.77C56.5564 50.9501 56.5226 51.1285 56.4565 51.295C56.3904 51.4615 56.2932 51.6128 56.1706 51.7403C56.048 51.8678 55.9023 51.969 55.7419 52.038C55.5815 52.107 55.4096 52.1426 55.236 52.1426Z" fill="#263238"/>
<path id="Vector_173" opacity="0.6" d="M48.1814 49.4011H46.7734V51.9965H48.1814V49.4011Z" fill="white"/>
<path id="Vector_174" d="M44.4466 51.6023C44.3832 51.7191 44.3163 51.8286 44.2459 51.9345C43.8418 52.5533 43.2644 53.0285 42.5915 53.2961C42.4224 53.3651 42.2481 53.4201 42.0706 53.4604C41.391 53.6191 40.6801 53.5444 40.0452 53.2474C39.4102 52.9504 38.8856 52.4473 38.5506 51.814C37.653 50.1713 38.0754 48.6856 38.5928 46.1157C38.7054 45.5133 38.9647 44.9507 39.3459 44.4815C39.7272 44.0122 40.2178 43.6518 40.7712 43.4345C41.3246 43.2173 41.9224 43.1503 42.5077 43.2401C43.0931 43.3299 43.6466 43.5733 44.1157 43.9474C46.2206 45.6302 45.5694 49.4704 44.4466 51.6023Z" fill="#B97964"/>
<path id="Vector_175" opacity="0.2" d="M42.5921 53.2961C42.4229 53.3652 42.2487 53.4201 42.0711 53.4604C41.6033 53.5709 41.1176 53.572 40.6493 53.4633C40.1811 53.3547 39.7421 53.1392 39.3643 52.8325C39.5535 52.5605 39.7759 52.3151 40.026 52.1024C40.974 52.2372 41.8646 52.6515 42.5921 53.2961Z" fill="black"/>
<path id="Vector_176" d="M36.8164 55.187C37.7246 56.6472 40.7799 57.0634 40.7799 57.0634C40.7799 57.0634 42.7546 57.0633 42.5399 56.3515C41.505 55.8624 41.1319 55.1907 41.0756 54.4606C41.0645 54.0116 41.1399 53.5648 41.2974 53.1464C41.3783 52.9115 41.4711 52.6812 41.5754 52.4565L38.6609 48.6382C38.6433 50.6204 38.3441 54.1795 36.8164 55.187Z" fill="#B97964"/>
<path id="Vector_177" d="M44.5248 42.8632C43.9616 42.4032 42.272 41.571 41.1069 41.571C37.4989 41.571 37.3827 43.7247 37.3827 43.7247C37.6835 43.3787 38.071 43.1259 38.5021 42.9946C34.5808 46.791 38.1501 51.4672 38.1501 51.4672C39.6637 51.1898 41.3181 52.1499 41.3181 52.1499C41.3181 52.1499 42.2755 49.9596 43.0605 49.3719C43.9301 48.6219 44.4822 47.5489 44.5987 46.3822C44.5987 45.4477 45.3485 46.0865 45.3485 46.0865C46.1299 45.6302 45.3485 43.5385 44.5248 42.8632Z" fill="#263238"/>
<path id="Vector_178" d="M42.2859 48.7185C42.2696 48.9694 42.3076 49.2209 42.3971 49.4546C42.4867 49.6883 42.6255 49.8983 42.8033 50.0691C43.2433 50.4342 43.7608 49.7917 43.8875 49.0105C43.9931 48.3169 43.8875 47.2729 43.3384 47.251C42.7893 47.2291 42.2894 47.9884 42.2859 48.7185Z" fill="#B97964"/>
<path id="Vector_179" d="M46.5234 129.002L49.1599 129.29L49.2937 127.706L49.6527 123.391L47.0162 123.103L46.6185 127.867L46.5234 129.002Z" fill="#B97964"/>
<path id="Vector_180" d="M23.6016 128.655H26.1571L26.2838 128.06L26.3014 127.984L27.0969 124.158L27.111 124.078L27.4208 122.61H24.8582L23.6016 128.655Z" fill="#B97964"/>
<path id="Vector_181" opacity="0.2" d="M47.0169 123.103L46.6191 127.867L49.2943 127.706L49.6534 123.391L47.0169 123.103Z" fill="black"/>
<path id="Vector_182" opacity="0.2" d="M23.6758 128.32H23.6793L26.2982 127.984H26.3017L27.0761 124.289H27.0726L24.4713 124.501L23.7004 128.203L23.6758 128.32Z" fill="black"/>
<path id="Vector_183" d="M26.5128 128.495H23.4046C23.3542 128.495 23.3053 128.513 23.2657 128.545C23.2261 128.577 23.1982 128.623 23.1864 128.674L22.683 131.05C22.6727 131.1 22.6721 131.152 22.6812 131.203C22.6903 131.253 22.709 131.302 22.7362 131.345C22.7633 131.388 22.7984 131.425 22.8394 131.454C22.8804 131.483 22.9266 131.503 22.9752 131.514H23.0561C24.0629 131.514 24.795 131.43 26.0552 131.43C26.8331 131.43 29.1774 131.514 30.251 131.514C31.3246 131.514 31.4654 130.418 31.0254 130.316C29.0542 129.871 27.5723 129.254 26.9422 128.666C26.826 128.553 26.672 128.492 26.5128 128.495Z" fill="#263238"/>
<path id="Vector_184" d="M49.4415 128.411H46.3333C46.2826 128.412 46.2336 128.43 46.1941 128.463C46.1546 128.496 46.1268 128.542 46.1151 128.593L45.6117 130.955C45.6014 131.005 45.6008 131.057 45.6099 131.108C45.6191 131.159 45.6377 131.207 45.6649 131.25C45.692 131.293 45.7271 131.33 45.7681 131.359C45.8092 131.388 45.8553 131.408 45.9039 131.419C45.9306 131.424 45.9581 131.424 45.9848 131.419C46.9916 131.419 47.7237 131.338 48.9839 131.338C49.7618 131.338 52.1061 131.422 53.1797 131.422C54.2533 131.422 54.3941 130.327 53.9541 130.221C51.9829 129.776 50.501 129.159 49.8674 128.575C49.7508 128.466 49.5985 128.407 49.4415 128.411Z" fill="#263238"/>
<path id="Vector_185" d="M49.8964 126.633L46.1229 126.761C47.4957 100.598 48.1364 99.2658 35.8938 86.9091C35.6087 90.6471 35.2848 94.5239 34.968 97.7545C34.7709 99.7549 34.7111 101.503 34.3908 102.781C32.2119 111.447 26.9671 126.783 26.9671 126.783L23.2852 126.951C23.2852 126.951 27.8928 105.935 28.368 99.0869C28.9911 90.0996 26.96 80.3749 28.1181 73.3405L28.7165 69.8945L41.1386 71.205L40.9767 75.6037C52.642 93.3046 54.7751 97.1303 49.8964 126.633Z" fill="#263238"/>
<path id="Vector_186" opacity="0.2" d="M35.9038 86.88C35.6186 90.618 35.2948 94.5021 34.978 97.7327C34.4958 93.0857 33.9396 89.7565 33.9396 89.7565C33.9396 89.7565 33.4116 89.3075 31.9543 86.8946C30.497 84.4816 31.9543 79.9807 31.9543 79.9807C31.9086 84.1604 35.9038 86.88 35.9038 86.88Z" fill="black"/>
<path id="Vector_187" d="M50.3178 126.21L50.1348 127.308H45.7031V126.297L50.3178 126.21Z" fill="black"/>
<path id="Vector_188" d="M27.4032 126.633L26.9773 127.644H22.9434L23.0173 126.633H27.4032Z" fill="black"/>
<path id="Vector_189" d="M45.2598 52.5988C47.5055 52.398 52.0322 49.3572 52.3455 48.3497C52.6588 47.3422 48.199 47.5868 48.199 47.5868L48.0617 46.1887C48.0617 46.1887 55.1615 44.9293 56.1366 46.8567C57.1116 48.7841 52.6553 52.4236 49.0367 54.1795C45.4182 55.9353 45.2598 52.5988 45.2598 52.5988Z" fill="#B97964"/>
<path id="Vector_190" d="M36.6602 54.5372C36.6602 54.5372 38.4765 51.4745 41.6445 54.0663H41.1834C41.1834 54.0663 38.1914 52.6609 37.079 54.8767L36.6602 54.5372Z" fill="#263238"/>
<path id="Vector_191" d="M45.26 52.5988C45.26 52.5988 44.7883 54.3182 44.1793 57.1582C43.7992 58.9214 43.3697 61.1189 42.9649 63.6049C42.4616 66.715 42.004 70.2742 41.747 74.0122L27.9521 71.7051C27.9521 71.7051 31.1765 57.0633 35.6152 54.7745L45.26 52.5988Z" fill="#407BFF"/>
<path id="Vector_192" d="M58.4316 48.1855L59.6144 45.7835C59.6144 45.7835 59.6496 48.4775 62.7824 47.4773C62.7824 47.4773 61.758 50.2188 63.6377 51.2007C63.6377 51.2007 61.9904 53.1793 62.7436 54.665C62.7436 54.665 60.086 53.8363 60.086 55.2125L58.4316 53.9057C58.4316 53.9057 59.2659 54.7708 60.5894 53.8728C61.9129 52.9748 61.7756 49.5617 60.4521 48.1672C59.1286 46.7728 58.4316 48.1855 58.4316 48.1855Z" fill="#E0E0E0"/>
<path id="Vector_193" opacity="0.2" d="M44.1797 57.1582C43.7995 58.9214 43.37 61.1189 42.9652 63.6049C41.0715 61.1919 43.3172 56.472 43.3172 56.472L44.1797 57.1582Z" fill="black"/>
<path id="Vector_194" d="M44.7605 52.7121L50.6178 50.0399L50.7656 54.6906L43.5285 60.3816C43.5285 60.3816 42.1557 56.9976 44.7605 52.7121Z" fill="#407BFF"/>
</g>
</g>
</svg>
