<svg width="119" height="129" viewBox="0 0 119 129" fill="none" xmlns="http://www.w3.org/2000/svg">
<g id="Character">
<path id="Vector" d="M69.5903 47.1373L67.4965 55.8265C67.4965 55.8265 45.4283 59.8202 42.3417 65.303C39.2551 70.7858 49.9241 98.1771 49.9241 98.1771H54.7793C54.7793 98.1771 51.7612 75.8122 53.7695 73.5073C55.7777 71.2023 77.4351 66.6609 77.4351 66.6609L69.5903 47.1373Z" fill="#69BAF8"/>
<path id="Vector_2" opacity="0.6" d="M53.7695 73.5015C51.7612 75.7837 54.7736 98.1713 54.7736 98.1713H49.9241C49.9241 98.1713 39.2551 70.7858 42.3417 65.303C45.4283 59.8202 67.4907 55.8264 67.4907 55.8264L69.5903 47.1315L75.2956 61.3321L77.4351 66.6494C77.4351 66.6494 66.2755 69 59.2352 71.1681C56.4681 72.0296 54.34 72.8568 53.7695 73.5015Z" fill="white"/>
<path id="Vector_3" opacity="0.2" d="M77.4344 66.6495C77.4344 66.6495 66.2747 69.0001 59.2344 71.1681C61.2198 65.9363 69.6751 62.5245 69.6751 62.5245L70.4054 55.1076C72.1814 57.0673 73.8154 59.1512 75.2949 61.3435L77.4344 66.6495Z" fill="black"/>
<path id="Vector_4" d="M53.5063 107.791L56.6043 106.735L55.6458 102.251L54.7614 98.1315L50.8818 98.7819L52.2682 103.552L53.5063 107.791Z" fill="#FABBB2"/>
<path id="Vector_5" d="M57.215 106.564C57.215 106.204 52.7705 106.53 52.7705 106.53C52.7705 106.53 50.0719 109.337 47.4303 109.987C44.7888 110.638 46.2893 112.212 49.2446 112.184L56.5703 112.104C58.6755 112.081 57.3405 110.301 57.215 106.564Z" fill="#69BAF8"/>
<path id="Vector_6" d="M50.0608 107.591C49.9966 107.532 49.9514 107.456 49.931 107.372C49.9107 107.287 49.9161 107.199 49.9467 107.117C49.9622 107.053 49.9911 106.993 50.0314 106.941C50.0717 106.889 50.1226 106.846 50.1807 106.815C50.4943 106.685 50.8378 106.643 51.1734 106.695C50.814 106.507 50.4945 106.279 50.4773 106.045C50.4602 105.811 50.5629 105.765 50.7626 105.668C50.852 105.627 50.9494 105.605 51.0479 105.605C51.1464 105.605 51.2437 105.627 51.3331 105.668C51.9379 105.914 52.3201 106.94 52.3373 106.986C52.34 107.003 52.34 107.02 52.3373 107.037C52.3367 107.047 52.3367 107.056 52.3373 107.066V107.1L52.303 107.129C51.8221 107.368 51.3146 107.55 50.7911 107.671C50.6704 107.708 50.5433 107.72 50.4177 107.706C50.2921 107.693 50.1706 107.653 50.0608 107.591ZM50.3005 107.02C50.2694 107.036 50.2421 107.059 50.2204 107.087C50.1988 107.114 50.1833 107.146 50.175 107.18C50.1293 107.351 50.175 107.397 50.2035 107.414C50.4146 107.585 51.2247 107.328 51.8751 107.049C51.3634 106.893 50.8185 106.881 50.3005 107.015V107.02ZM50.871 105.879C50.814 105.908 50.7113 105.965 50.717 106.028C50.717 106.227 51.3674 106.564 52.0292 106.809C51.879 106.42 51.6093 106.089 51.259 105.862C51.178 105.828 51.0888 105.818 51.0022 105.834C50.9548 105.843 50.9088 105.858 50.8653 105.879H50.871Z" fill="#263238"/>
<path id="Vector_7" opacity="0.2" d="M52.3026 103.649L55.6745 102.336L54.7787 98.1771L50.8877 98.8047L52.3026 103.649Z" fill="black"/>
<path id="Vector_8" d="M55.6403 96.1003L48.8281 97.3555L50.2545 99.7632L55.8514 98.662L55.6403 96.1003Z" fill="#69BAF8"/>
<path id="Vector_9" d="M84.1958 109.616L81.8338 115.059C81.3868 116.087 80.6492 116.962 79.7116 117.576C78.774 118.19 77.6773 118.517 76.5564 118.517H66.652C66.0015 118.517 65.3573 118.389 64.7563 118.14C64.1552 117.892 63.609 117.527 63.1489 117.067H44.6465C43.9308 117.068 43.2253 116.898 42.5884 116.571C41.9514 116.245 41.4014 115.772 40.9837 115.19L38.5361 111.767L84.1958 109.616Z" fill="#2E353A"/>
<path id="Vector_10" opacity="0.4" d="M84.1958 109.616L81.8338 115.059C81.3868 116.087 80.6492 116.962 79.7116 117.576C78.774 118.19 77.6773 118.517 76.5564 118.517H66.652C66.0015 118.517 65.3573 118.389 64.7563 118.14C64.1552 117.892 63.609 117.527 63.1489 117.067H44.6465C43.9308 117.068 43.2253 116.898 42.5884 116.571C41.9514 116.245 41.4014 115.772 40.9837 115.19L38.5361 111.767L84.1958 109.616Z" fill="black"/>
<path id="Vector_11" d="M40.9951 50.298C40.962 50.2975 40.9295 50.289 40.9004 50.2732C40.8713 50.2574 40.8465 50.2348 40.828 50.2074C40.8095 50.1799 40.7979 50.1484 40.7942 50.1155C40.7906 50.0826 40.7949 50.0493 40.8068 50.0184C41.5599 48.1585 45.548 46.5211 48.6459 46.2187C49.6219 46.162 50.5925 46.0343 51.55 45.8365C51.5753 45.8225 51.6038 45.8151 51.6327 45.8151C51.6616 45.8151 51.6901 45.8225 51.7154 45.8365C51.7411 45.8436 51.765 45.8559 51.7859 45.8725C51.8067 45.8891 51.824 45.9097 51.8368 45.9331C51.8496 45.9565 51.8575 45.9822 51.8602 46.0087C51.8629 46.0352 51.8602 46.062 51.8523 46.0875C51.8124 46.2301 51.7782 46.3442 48.6859 46.658C45.7077 46.949 41.8395 48.5294 41.1834 50.2067C41.1631 50.2374 41.1349 50.2621 41.1017 50.2781C41.0686 50.2942 41.0318 50.3011 40.9951 50.298Z" fill="#263238"/>
<path id="Vector_12" d="M30.5365 50.0527H30.451C29.1102 49.4023 28.8649 48.5293 28.5226 47.3198L28.4769 47.1487C28.1688 46.0646 26.908 46.213 26.8566 46.2244C26.8029 46.2309 26.7489 46.2159 26.7062 46.1828C26.6635 46.1497 26.6355 46.1011 26.6284 46.0475C26.6252 46.0213 26.6273 45.9947 26.6345 45.9692C26.6417 45.9438 26.6539 45.92 26.6703 45.8993C26.6868 45.8786 26.7072 45.8614 26.7303 45.8486C26.7535 45.8359 26.779 45.8278 26.8053 45.825C27.2374 45.7447 27.6841 45.8235 28.0627 46.0469C28.4413 46.2703 28.7262 46.6231 28.8649 47.0403L28.9105 47.2057C29.2357 48.3468 29.4525 49.117 30.6221 49.6875C30.6699 49.711 30.7066 49.752 30.7247 49.802C30.7428 49.852 30.7408 49.9071 30.7191 49.9557C30.7004 49.987 30.6735 50.0125 30.6414 50.0296C30.6092 50.0467 30.5729 50.0547 30.5365 50.0527Z" fill="#263238"/>
<path id="Vector_13" d="M116.978 104.795H115.837V103.044H118.119C118.098 103.41 117.982 103.764 117.782 104.072C117.582 104.379 117.305 104.628 116.978 104.795Z" fill="#2E353A"/>
<path id="Vector_14" d="M99.4002 127.999C107.794 127.999 114.599 119.787 114.599 109.656C114.599 99.5259 107.794 91.3136 99.4002 91.3136C91.006 91.3136 84.2012 99.5259 84.2012 109.656C84.2012 119.787 91.006 127.999 99.4002 127.999Z" fill="#2E353A"/>
<path id="Vector_15" d="M101.944 121.227C107.238 121.227 111.529 116.046 111.529 109.656C111.529 103.266 107.238 98.0858 101.944 98.0858C96.6507 98.0858 92.3594 103.266 92.3594 109.656C92.3594 116.046 96.6507 121.227 101.944 121.227Z" fill="black"/>
<path id="Vector_16" d="M104.147 114.323C106.353 114.323 108.141 112.165 108.141 109.502C108.141 106.84 106.353 104.681 104.147 104.681C101.941 104.681 100.153 106.84 100.153 109.502C100.153 112.165 101.941 114.323 104.147 114.323Z" fill="#263238"/>
<path id="Vector_17" opacity="0.4" d="M104.147 114.323C106.353 114.323 108.141 112.165 108.141 109.502C108.141 106.84 106.353 104.681 104.147 104.681C101.941 104.681 100.153 106.84 100.153 109.502C100.153 112.165 101.941 114.323 104.147 114.323Z" fill="black"/>
<path id="Vector_18" d="M115.495 100.26C115.495 100.26 117.207 103.979 115.495 106.912C110.367 109.411 104.756 110.76 99.0525 110.866C90.0837 110.866 101.757 99.3924 115.495 100.26Z" fill="#2E353A"/>
<path id="Vector_19" opacity="0.6" d="M115.495 100.26C115.495 100.26 117.207 103.979 115.495 106.912C110.367 109.411 104.756 110.76 99.0525 110.866C90.0837 110.866 101.757 99.3924 115.495 100.26Z" fill="#7D7D7D"/>
<path id="Vector_20" d="M109.271 77.0104C109.271 77.0104 110.737 77.4611 110.737 80.7645C110.737 82.7671 108.706 84.7924 108.706 84.7924C108.706 84.7924 105.431 76.8963 109.271 77.0104Z" fill="#69BAF8"/>
<path id="Vector_21" opacity="0.7" d="M109.271 77.0104C109.271 77.0104 110.737 77.4611 110.737 80.7645C110.737 82.7671 108.706 84.7924 108.706 84.7924C108.706 84.7924 105.431 76.8963 109.271 77.0104Z" fill="white"/>
<path id="Vector_22" d="M102.681 76.1032H109.944C109.944 76.1032 111.085 78.0316 108.141 80.2852C105.197 82.5388 102.681 76.1032 102.681 76.1032Z" fill="#263238"/>
<path id="Vector_23" d="M109.835 81.0725C110.084 81.0725 110.286 80.5489 110.286 79.9029C110.286 79.257 110.084 78.7333 109.835 78.7333C109.587 78.7333 109.385 79.257 109.385 79.9029C109.385 80.5489 109.587 81.0725 109.835 81.0725Z" fill="white"/>
<path id="Vector_24" d="M69.1277 88.0502C69.1277 90.6575 58.7269 109.16 57.6828 109.924C56.6387 110.689 43.0771 109.833 43.0771 109.833L44.087 113.678H81.3713L96.8498 83.6171L86.6145 68.8403L67.9524 69.3595C67.9524 69.3595 69.1277 85.4485 69.1277 88.0502Z" fill="#263238"/>
<path id="Vector_25" opacity="0.2" d="M69.1277 88.0502C69.1277 90.6575 58.7269 109.16 57.6828 109.924C56.6387 110.689 43.0771 109.833 43.0771 109.833L44.087 113.678H81.3713L96.8498 83.6171L86.6145 68.8403L67.9524 69.3595C67.9524 69.3595 69.1277 85.4485 69.1277 88.0502Z" fill="black"/>
<path id="Vector_26" d="M14.71 81.9512C14.71 81.9512 26.8338 91.2452 32.6361 110.369C32.962 111.463 33.6312 112.422 34.5447 113.105C35.4582 113.788 36.5674 114.16 37.7081 114.163H55.6399L34.8212 80.3024L23.8442 75.7381L14.71 81.9512Z" fill="#263238"/>
<path id="Vector_27" opacity="0.4" d="M13.2725 80.8786C13.2725 80.8786 26.68 91.1482 32.6306 110.392C32.9603 111.48 33.6304 112.434 34.5424 113.113C35.4543 113.791 36.5601 114.16 37.697 114.163H55.6402L34.8215 80.3024L23.8444 75.7381L13.2725 80.8786Z" fill="black"/>
<path id="Vector_28" d="M117.777 98.4624C117.734 98.8203 117.561 99.15 117.291 99.3881C117.02 99.6261 116.671 99.7556 116.31 99.7518H113.675C113.433 99.7514 113.195 99.8021 112.975 99.9004C112.754 99.9987 112.557 100.143 112.397 100.322L104.483 109.017C104.245 109.279 103.968 109.502 103.662 109.679C98.4227 112.615 92.5171 114.155 86.5115 114.152H49.6665C48.6875 114.141 47.7479 113.764 47.0323 113.096C46.3166 112.428 45.8765 111.516 45.7983 110.541C44.9026 99.8887 38.4727 92.0781 33.0926 87.2799C31.3673 85.7493 29.5392 84.3387 27.6211 83.058C26.2759 82.177 24.699 81.7162 23.0911 81.7343H14.613C13.5404 81.7343 12.7816 80.3708 13.1125 79.3552C14.5103 75.1105 17.1062 70.5519 19.685 66.6324C22.0007 63.1362 24.5152 59.776 27.2161 56.5682H39.0774C39.6773 56.5792 40.2654 56.7368 40.7905 57.0272C41.3155 57.3176 41.7616 57.7319 42.0898 58.2341C42.6973 59.1001 42.9504 60.1657 42.7973 61.2123C42.0708 66.0865 42.017 71.0375 42.6375 75.9263C44.3491 90.395 50.7733 103.552 54.1338 109.542C54.7173 110.616 55.5736 111.516 56.6164 112.154C57.6591 112.791 58.8514 113.141 60.073 113.171H69.2814C76.0194 111.237 81.2284 92.3748 81.2284 87.4454C81.2284 82.2364 75.9281 69.6105 75.9281 69.6105H102.372V75.8864C102.857 75.9434 102.618 76.0062 102.772 76.0804C112.887 80.1426 116.419 90.5148 117.674 96.5568C117.807 97.1828 117.841 97.8257 117.777 98.4624Z" fill="#263238"/>
<path id="Vector_29" d="M33.6349 52.6372H37.0125C37.9035 52.6364 38.7673 52.3304 39.46 51.77L46.4262 46.1331C46.701 45.9117 47.0433 45.7909 47.3961 45.7908H60.7751C60.9084 45.801 61.0423 45.7836 61.1685 45.7397C61.2947 45.6957 61.4104 45.6262 61.5085 45.5354C61.6065 45.4446 61.6847 45.3345 61.7382 45.212C61.7917 45.0896 61.8194 44.9574 61.8194 44.8237C61.8194 44.6901 61.7917 44.5579 61.7382 44.4355C61.6847 44.313 61.6065 44.2029 61.5085 44.1121C61.4104 44.0213 61.2947 43.9518 61.1685 43.9078C61.0423 43.8639 60.9084 43.8465 60.7751 43.8567H47.3961C46.5987 43.8576 45.8255 44.1314 45.2053 44.6326L38.2391 50.2524C37.8919 50.533 37.4589 50.686 37.0125 50.686H33.6349C33.1654 50.683 32.7125 50.5123 32.3579 50.2047C32.0032 49.8971 31.7702 49.4729 31.7008 49.0086L31.3927 46.8349C31.2741 46.009 30.8637 45.2528 30.2358 44.7033C29.6078 44.1539 28.8039 43.8475 27.9695 43.8396H25.4192C25.286 43.8293 25.1521 43.8467 25.0259 43.8907C24.8997 43.9346 24.7839 44.0042 24.6859 44.095C24.5878 44.1858 24.5096 44.2959 24.4561 44.4184C24.4026 44.5408 24.375 44.673 24.375 44.8066C24.375 44.9403 24.4026 45.0725 24.4561 45.1949C24.5096 45.3174 24.5878 45.4275 24.6859 45.5183C24.7839 45.6091 24.8997 45.6786 25.0259 45.7226C25.1521 45.7665 25.286 45.7839 25.4192 45.7737H27.9695C28.3414 45.7753 28.7003 45.9104 28.9809 46.1544C29.2615 46.3984 29.4452 46.735 29.4985 47.103L29.8066 49.2768C29.9387 50.2016 30.3972 51.0487 31.0993 51.665C31.8014 52.2813 32.7007 52.6261 33.6349 52.6372Z" fill="#2E353A"/>
<path id="Vector_30" d="M42.1016 55.2331L40.5896 57.6693H26.5317L25.4306 55.5925C25.2524 55.2609 25.1851 54.8809 25.2385 54.5083C25.2919 54.1356 25.4632 53.7898 25.7273 53.5215L29.9036 49.2482C30.0613 49.0858 30.242 48.9473 30.4399 48.8374C30.5405 48.78 30.6454 48.7304 30.7537 48.6891C31.0193 48.5862 31.3018 48.534 31.5866 48.5351H39.5741C39.5741 48.5351 39.5342 50.8172 41.6737 50.6803L42.3754 53.1564C42.4765 53.5026 42.5044 53.866 42.4573 54.2236C42.4101 54.5812 42.289 54.925 42.1016 55.2331Z" fill="#A94CD5"/>
<path id="Vector_31" opacity="0.4" d="M34.3023 51.6045H35.8598L29.5554 55.4499L28.209 51.4561H29.8293L30.4398 48.8431C30.5404 48.7856 30.6453 48.736 30.7536 48.6948C31.0192 48.5919 31.3017 48.5396 31.5865 48.5407H38.5699L34.3023 51.6045Z" fill="white"/>
<path id="Vector_32" opacity="0.4" d="M37.5432 48.5294L30.5371 53.9152L36.0656 48.5294H37.5432Z" fill="white"/>
<path id="Vector_33" opacity="0.4" d="M31.6955 48.5407L29.7842 53.9266L30.7541 48.6948C31.0197 48.5919 31.3022 48.5396 31.5871 48.5407H31.6955Z" fill="white"/>
<path id="Vector_34" d="M65.5674 68.9658V70.7915C65.5674 72.4404 66.9195 73.513 68.5684 73.513H101.3C102.96 73.513 104.284 72.4404 104.284 70.7915V68.9658C104.284 67.317 102.96 66.2444 101.3 66.2444H68.5684C66.9195 66.2273 65.5674 67.317 65.5674 68.9658Z" fill="#2E353A"/>
<path id="Vector_35" opacity="0.2" d="M101.563 66.2444H78.9353C77.4323 66.2444 76.2139 67.4628 76.2139 68.9658V70.7801C76.2139 72.2831 77.4323 73.5016 78.9353 73.5016H101.563C103.066 73.5016 104.284 72.2831 104.284 70.7801V68.9658C104.284 67.4628 103.066 66.2444 101.563 66.2444Z" fill="white"/>
<path id="Vector_36" d="M117.777 98.4624C117.735 98.8203 117.562 99.1501 117.291 99.3881C117.02 99.6261 116.671 99.7557 116.311 99.7518H113.675C113.434 99.7515 113.195 99.8021 112.975 99.9004C112.755 99.9988 112.558 100.143 112.397 100.322L104.484 109.017C104.246 109.279 103.968 109.502 103.662 109.679C98.4231 112.615 92.5175 114.155 86.5119 114.152H80.333V102.49C80.3324 99.0814 81.0802 95.714 82.5238 92.6258L86.8884 83.2862C87.8866 81.1475 89.4744 79.3382 91.4654 78.0708C93.4564 76.8035 95.7678 76.1308 98.1279 76.1317H102.213L102.681 76.1032C106.567 77.6852 109.91 80.3608 112.306 83.8054C112.545 84.1363 112.773 84.4729 112.996 84.8095C113.717 85.9213 114.36 87.0823 114.919 88.2841C115.387 89.2716 115.804 90.2828 116.168 91.3136C116.787 93.0315 117.283 94.7913 117.652 96.5796C117.79 97.1971 117.832 97.8321 117.777 98.4624Z" fill="#A94CD5"/>
<path id="Vector_37" d="M53.0068 37.3312L47.7627 44.1878L48.5331 44.777L53.7773 37.9205L53.0068 37.3312Z" fill="#2E353A"/>
<path id="Vector_38" d="M56.1599 36.4797H53.6895C53.4334 36.48 53.1829 36.5552 52.969 36.6962C52.755 36.8371 52.587 37.0375 52.4857 37.2728L52.1662 38.043C52.0799 38.2422 52.0447 38.4597 52.0636 38.6759C52.0824 38.8921 52.1549 39.1002 52.2744 39.2814C52.3938 39.4626 52.5566 39.6112 52.7479 39.7137C52.9392 39.8163 53.153 39.8695 53.37 39.8687H56.0572C56.3749 39.8685 56.6817 39.7525 56.92 39.5425C57.1584 39.3325 57.3121 39.0428 57.3523 38.7276L57.4664 37.9574C57.49 37.7722 57.4737 37.5841 57.4188 37.4057C57.3638 37.2273 57.2714 37.0626 57.1478 36.9228C57.0241 36.7829 56.872 36.671 56.7016 36.5946C56.5313 36.5182 56.3466 36.4791 56.1599 36.4797Z" fill="#A94CD5"/>
<path id="Vector_39" d="M28.369 38.405L27.4199 38.6049L28.7106 44.7349L29.6597 44.5351L28.369 38.405Z" fill="#2E353A"/>
<path id="Vector_40" d="M24.9973 36.4797H27.6332C27.8939 36.4798 28.1459 36.5739 28.3429 36.7447C28.5399 36.9155 28.6687 37.1516 28.7058 37.4097L28.8769 38.6364C28.899 38.7894 28.8879 38.9453 28.8444 39.0937C28.801 39.242 28.7261 39.3793 28.6249 39.4962C28.5237 39.6131 28.3986 39.7068 28.258 39.7711C28.1174 39.8354 27.9646 39.8686 27.81 39.8687H25.1513C24.8912 39.8684 24.64 39.7741 24.444 39.6032C24.2479 39.4323 24.1202 39.1964 24.0844 38.9387L23.9076 37.7121C23.8852 37.5571 23.8968 37.3992 23.9416 37.2492C23.9864 37.0992 24.0633 36.9608 24.167 36.8435C24.2707 36.7262 24.3987 36.633 24.5421 36.5701C24.6854 36.5073 24.8408 36.4765 24.9973 36.4797Z" fill="#A94CD5"/>
<path id="Vector_41" d="M42.4322 64.1163C42.169 66.9789 42.1366 69.858 42.3352 72.7257C42.4074 73.8097 42.5082 74.8842 42.6375 75.9492L36.704 87.28H33.0926L32.7445 86.9776L32.3908 86.6695C30.877 85.3733 29.2881 84.1674 27.6326 83.058C26.2874 82.177 24.7104 81.7163 23.1025 81.7344H14.613C13.5404 81.7344 12.7816 80.3708 13.1125 79.3553C14.5103 75.1105 17.1062 70.5519 19.685 66.6324C19.754 71.2052 19.4084 75.7748 18.6524 80.2852H22.726C22.726 80.2852 30.1429 69.7532 36.4815 67.7335L42.0898 58.2399C42.6973 59.1058 42.9504 60.1714 42.7973 61.218C42.6432 62.1765 42.5234 63.1464 42.4322 64.1163Z" fill="#A94CD5"/>
<path id="Vector_42" d="M18.6523 69.5421C18.862 72.5502 18.4881 75.5705 17.5512 78.4367H14.0596C14.0596 78.4367 16.3246 72.2636 18.6523 69.5421Z" fill="#69BAF8"/>
<path id="Vector_43" opacity="0.7" d="M18.6523 69.5421C18.862 72.5502 18.4881 75.5705 17.5512 78.4367H14.0596C14.0596 78.4367 16.3246 72.2636 18.6523 69.5421Z" fill="white"/>
<path id="Vector_44" d="M35.1757 69.5421C35.2899 69.4736 31.667 79.0814 31.667 79.0814H26.3496C28.3567 75.1492 31.4111 71.8481 35.1757 69.5421Z" fill="#69BAF8"/>
<path id="Vector_45" opacity="0.7" d="M35.1757 69.5421C35.2899 69.4736 31.667 79.0814 31.667 79.0814H26.3496C28.3567 75.1492 31.4111 71.8481 35.1757 69.5421Z" fill="white"/>
<path id="Vector_46" d="M30.3426 78.6135C31.2658 78.6135 32.0142 77.648 32.0142 76.4569C32.0142 75.2658 31.2658 74.3003 30.3426 74.3003C29.4193 74.3003 28.6709 75.2658 28.6709 76.4569C28.6709 77.648 29.4193 78.6135 30.3426 78.6135Z" fill="white"/>
<path id="Vector_47" d="M17.9334 75.7381C17.9334 76.9248 17.4086 77.8947 16.7582 77.8947C16.1077 77.8947 15.5771 76.9248 15.5771 75.7381C15.5771 74.5514 16.1077 73.5757 16.7582 73.5757C17.4086 73.5757 17.9334 74.5457 17.9334 75.7381Z" fill="white"/>
<path id="Vector_48" d="M33.5663 73.2049C33.5268 73.3577 33.4454 73.4963 33.3311 73.6051C33.2169 73.7139 33.0745 73.7886 32.92 73.8206C32.7656 73.8526 32.6052 73.8407 32.4572 73.7863C32.3091 73.7318 32.1793 73.6369 32.0824 73.5124C31.9855 73.3879 31.9254 73.2388 31.9089 73.0819C31.8924 72.925 31.9203 72.7666 31.9892 72.6247C32.0582 72.4828 32.1655 72.3631 32.299 72.2791C32.4325 72.1951 32.5869 72.1502 32.7447 72.1494C32.9915 72.1849 33.2151 72.3147 33.3683 72.5115C33.5214 72.7083 33.5924 72.9569 33.5663 73.2049Z" fill="white"/>
<path id="Vector_49" d="M18.3959 72.6515C18.3959 73.222 18.1449 73.7069 17.8254 73.7069C17.5059 73.7069 17.2549 73.2391 17.2549 72.6515C17.2549 72.0638 17.5059 71.6017 17.8254 71.6017C18.1449 71.6017 18.3959 72.0695 18.3959 72.6515Z" fill="white"/>
<path id="Vector_50" opacity="0.4" d="M42.3356 72.7256L35.1754 86.9889H32.7678L32.4141 86.6808L34.6391 85.7109L38.9124 74.7282L37.1038 75.2359L42.4554 64.1277C42.1853 66.9858 42.1452 69.8611 42.3356 72.7256Z" fill="white"/>
<path id="Vector_51" d="M34.6163 58.1942C34.6163 58.1942 32.106 74.0093 23.8104 74.1177C16.0341 74.2147 15.3095 59.3809 22.7264 57.0988C28.7227 55.2502 34.6163 58.1942 34.6163 58.1942Z" fill="#263238"/>
<path id="Vector_52" d="M34.6163 58.1942C34.6163 58.1942 32.106 74.0093 23.8104 74.1177C16.0341 74.2147 15.3095 59.3809 22.7264 57.0988C28.7227 55.2502 34.6163 58.1942 34.6163 58.1942Z" fill="#A94CD5"/>
<path id="Vector_53" opacity="0.7" d="M29.4907 66.1519C29.9717 62.1538 27.8179 58.6067 24.6801 58.2292C21.5423 57.8517 18.6087 60.7867 18.1277 64.7848C17.6468 68.7829 19.8005 72.3301 22.9383 72.7076C26.0761 73.085 29.0097 70.15 29.4907 66.1519Z" fill="white"/>
<path id="Vector_54" d="M25.2194 67.3683C25.2194 69.1427 24.0783 70.5861 22.7262 70.5861C21.374 70.5861 20.2158 69.137 20.2158 67.3683C20.2158 65.5997 21.3569 64.1505 22.7148 64.1505C24.0726 64.1505 25.2194 65.5883 25.2194 67.3683Z" fill="white"/>
<path id="Vector_55" d="M27.3301 63.1806C27.3301 64.0707 26.7596 64.7895 26.0864 64.7895C25.4131 64.7895 24.8369 64.0707 24.8369 63.1806C24.8369 62.2906 25.4074 61.5717 26.0864 61.5717C26.7653 61.5717 27.3301 62.2906 27.3301 63.1806Z" fill="white"/>
<path id="Vector_56" d="M117.32 95.1304H114.85C114.641 95.1304 114.441 95.2134 114.293 95.361C114.145 95.5087 114.062 95.709 114.062 95.9178V97.2984C114.062 97.5073 114.145 97.7075 114.293 97.8552C114.441 98.0028 114.641 98.0858 114.85 98.0858H117.777C117.908 97.5883 117.935 97.069 117.856 96.5605C117.778 96.052 117.595 95.5652 117.32 95.1304Z" fill="#69BAF8"/>
<path id="Vector_57" opacity="0.7" d="M117.32 95.1304H114.85C114.641 95.1304 114.441 95.2134 114.293 95.361C114.145 95.5087 114.062 95.709 114.062 95.9178V97.2984C114.062 97.5073 114.145 97.7075 114.293 97.8552C114.441 98.0028 114.641 98.0858 114.85 98.0858H117.777C117.908 97.5883 117.935 97.069 117.856 96.5605C117.778 96.052 117.595 95.5652 117.32 95.1304Z" fill="white"/>
<path id="Vector_58" opacity="0.4" d="M101.945 95.5583L104.798 99.7632C95.361 109.907 82.4555 111.259 80.3389 111.413V110.814C94.7049 108.407 100.735 99.1698 100.735 99.1698L96.2909 93.6128C98.1738 90.9961 100.56 88.7817 103.31 87.0995C106.06 85.4174 109.119 84.3013 112.306 83.8168C112.545 84.1477 112.774 84.4843 112.996 84.8209C113.718 85.9327 114.36 87.0937 114.919 88.2955C115.388 89.283 115.805 90.2942 116.168 91.325C107.057 91.8213 101.945 95.5583 101.945 95.5583Z" fill="white"/>
<path id="Vector_59" opacity="0.4" d="M98.6238 93.9039L99.8049 96.1004L97.5684 93.5273C101.691 89.1144 107.067 86.0717 112.973 84.8096C113.694 85.9213 114.337 87.0824 114.895 88.2841C109.104 88.8447 103.527 90.7707 98.6238 93.9039Z" fill="white"/>
<path id="Vector_60" opacity="0.3" d="M101.802 100.699C90.9901 109.993 82.0441 111.248 80.3154 111.408V110.837C90.6535 109.685 100.604 101.703 101.802 100.699Z" fill="white"/>
<path id="Vector_61" d="M53.7684 43.8567C53.7684 43.8567 53.6885 43.3831 52.4448 43.3831C51.201 43.3831 50.7617 45.186 50.7617 45.186L51.2638 46.7093H52.9754L53.7912 46.4184C53.7912 46.4184 56.8721 47.2171 57.1517 47.7249C57.4312 48.2327 57.8762 48.3468 57.7222 47.7249C57.5682 47.103 54.2591 45.768 54.2591 45.768L53.7684 43.8567Z" fill="#2E353A"/>
<path id="Vector_62" d="M28.9109 43.9766C28.8241 43.7931 28.6867 43.6382 28.5149 43.53C28.3431 43.4219 28.144 43.365 27.941 43.3661C27.8018 43.3495 27.6608 43.3617 27.5266 43.4019C27.3923 43.4422 27.2678 43.5096 27.1608 43.6001C27.0538 43.6905 26.9665 43.802 26.9044 43.9276C26.8423 44.0533 26.8068 44.1903 26.7999 44.3303C26.7682 44.71 26.7682 45.0917 26.7999 45.4713L26.1153 46.0076C26.1153 46.0076 24.0157 46.9947 23.8332 47.1487C23.6506 47.3028 23.5707 47.8505 23.9416 47.7934C24.3124 47.7364 24.8772 47.2229 25.5562 46.8349C26.1207 46.5697 26.7307 46.4147 27.3533 46.3785L28.6256 45.5969L28.9109 43.9766Z" fill="#2E353A"/>
<path id="Vector_63" d="M18.9037 82.0139L10.5283 109.291L12.6564 110.603L21.0661 84.1306L18.9037 82.0139Z" fill="#263238"/>
<path id="Vector_64" opacity="0.6" d="M18.9037 82.0139L10.5283 109.291L12.6564 110.603L21.0661 84.1306L18.9037 82.0139Z" fill="white"/>
<path id="Vector_65" d="M22.3954 81.7344L18.9038 92.9453H18.2419C17.0153 91.4905 15.9598 91.6046 15.9598 91.6046L15.5205 90.9599L18.1678 81.7344H22.3954Z" fill="#2E353A"/>
<path id="Vector_66" d="M13.746 108.892C13.746 110.301 12.9416 111.448 11.9546 111.448C10.9675 111.448 10.1631 110.307 10.1631 108.892C10.1631 107.477 10.9675 106.336 11.9546 106.336C12.9416 106.336 13.746 107.477 13.746 108.892Z" fill="#2E353A"/>
<path id="Vector_67" d="M36.5555 108.104H32.9497C32.4617 108.105 31.9825 107.974 31.5634 107.724C31.1444 107.473 30.8012 107.114 30.5706 106.684C28.6879 103.152 23.2051 94.0978 15.4915 91.8499C5.86087 89.0657 20.7289 87.394 26.0862 91.2394C31.4435 95.0848 36.5555 108.104 36.5555 108.104Z" fill="#69BAF8"/>
<path id="Vector_68" opacity="0.4" d="M36.5555 108.104H32.9497C32.4617 108.105 31.9825 107.974 31.5634 107.724C31.1444 107.473 30.8012 107.114 30.5706 106.684C28.6879 103.152 23.2051 94.0978 15.4915 91.8499C5.86087 89.0657 20.7289 87.394 26.0862 91.2394C31.4435 95.0848 36.5555 108.104 36.5555 108.104Z" fill="black"/>
<path id="Vector_69" d="M15.4919 127.999C23.8861 127.999 30.6909 119.787 30.6909 109.656C30.6909 99.5259 23.8861 91.3136 15.4919 91.3136C7.09778 91.3136 0.292969 99.5259 0.292969 109.656C0.292969 119.787 7.09778 127.999 15.4919 127.999Z" fill="#2E353A"/>
<path id="Vector_70" d="M18.0361 121.227C23.3297 121.227 27.621 116.046 27.621 109.656C27.621 103.266 23.3297 98.0858 18.0361 98.0858C12.7425 98.0858 8.45117 103.266 8.45117 109.656C8.45117 116.046 12.7425 121.227 18.0361 121.227Z" fill="black"/>
<path id="Vector_71" d="M20.2388 114.323C22.4445 114.323 24.2326 112.165 24.2326 109.502C24.2326 106.84 22.4445 104.681 20.2388 104.681C18.0332 104.681 16.2451 106.84 16.2451 109.502C16.2451 112.165 18.0332 114.323 20.2388 114.323Z" fill="#263238"/>
<path id="Vector_72" opacity="0.4" d="M20.2388 114.323C22.4445 114.323 24.2326 112.165 24.2326 109.502C24.2326 106.84 22.4445 104.681 20.2388 104.681C18.0332 104.681 16.2451 106.84 16.2451 109.502C16.2451 112.165 18.0332 114.323 20.2388 114.323Z" fill="black"/>
<path id="Vector_73" d="M3.21411 98.1771H4.92571C6.32779 98.1717 7.6906 97.7135 8.81103 96.8705C11.4355 94.9022 16.9868 91.6102 22.7491 93.5158C29.4244 95.7295 33.9544 104.481 35.2438 107.254C35.3617 107.509 35.5501 107.724 35.7868 107.875C36.0234 108.026 36.2983 108.105 36.5788 108.104C36.5788 108.104 34.4793 90.9884 22.7491 86.3043C11.3385 81.7857 3.66483 91.2907 2.00458 96.4826C1.94213 96.6751 1.92568 96.8797 1.95656 97.0797C1.98745 97.2798 2.06479 97.4698 2.1824 97.6346C2.30001 97.7994 2.4546 97.9343 2.63378 98.0285C2.81295 98.1227 3.01171 98.1736 3.21411 98.1771Z" fill="#A94CD5"/>
<path id="Vector_74" d="M30.4854 85.1004L27.9922 92.9453L22.3838 110.603L20.2158 109.285L25.6473 91.5988L28.1576 83.4231C28.848 83.9138 29.6182 84.45 30.4854 85.1004Z" fill="#263238"/>
<path id="Vector_75" opacity="0.6" d="M30.4854 85.1004L27.9922 92.9453L22.3838 110.603L20.2158 109.285L25.6473 91.5988L28.1576 83.4231C28.848 83.9138 29.6182 84.45 30.4854 85.1004Z" fill="white"/>
<path id="Vector_76" d="M30.9308 85.4713L28.603 92.9453H27.9412C26.7145 91.4904 25.659 91.6046 25.659 91.6046L25.2197 90.9599L27.5019 82.9724C27.5411 82.9931 27.5792 83.016 27.616 83.0409L28.1865 83.4117C28.8654 83.8738 29.6356 84.433 30.4686 85.0834L30.9308 85.4713Z" fill="#2E353A"/>
<path id="Vector_77" d="M23.4452 108.892C23.4452 110.301 22.6408 111.448 21.6538 111.448C20.6668 111.448 19.8623 110.307 19.8623 108.892C19.8623 107.477 20.6668 106.336 21.6538 106.336C22.6408 106.336 23.4452 107.477 23.4452 108.892Z" fill="#2E353A"/>
<path id="Vector_78" d="M70.2746 22.2963L69.801 28.4238L69.59 31.0939C69.59 31.0939 68.8026 32.6229 67.6045 34.4771C65.619 37.5466 62.5096 41.5061 60.0164 40.8671C56.0227 39.8458 58.4417 32.6971 58.4417 32.6971L61.8935 33.6042C61.8935 33.6042 67.5703 22.5302 70.2746 22.2963Z" fill="#69BAF8"/>
<path id="Vector_79" opacity="0.2" d="M69.8007 28.4409L69.5896 31.111C69.5896 31.111 68.8023 32.64 67.6042 34.4943C66.8054 31.7101 69.3158 27.4368 69.3158 27.4368C69.5438 27.7352 69.7088 28.0768 69.8007 28.4409Z" fill="#00309B"/>
<path id="Vector_80" d="M88.1092 13.6527C88.1092 13.6527 87.339 15.9919 89.119 20.5447C91.3498 26.2501 88.6683 32.5259 81.7021 32.2578C74.7359 31.9896 74.4849 27.4425 74.0912 22.6272C73.6975 17.8119 75.8313 10.2124 77.948 10.1839C80.0647 10.1554 88.1092 13.6527 88.1092 13.6527Z" fill="#263238"/>
<path id="Vector_81" d="M85.5586 48.3582C89.7463 55.5355 91.612 61.7315 86.4373 68.1899C81.2625 74.6483 70.5822 89.8131 70.3482 91.3592C70.1143 92.9053 78.9804 114.865 78.9804 114.865L75.1749 117.267C75.1749 117.267 60.033 93.1507 58.9262 87.6907C57.8194 82.2307 71.6833 62.5245 71.6833 62.5245C71.6833 62.5245 69.8918 54.0578 69.5723 47.1201C69.2528 40.1825 85.5586 48.3582 85.5586 48.3582Z" fill="#69BAF8"/>
<path id="Vector_82" opacity="0.6" d="M85.5586 48.3582C89.7463 55.5355 91.612 61.7315 86.4373 68.1899C81.2625 74.6483 70.5822 89.8131 70.3482 91.3592C70.1143 92.9053 78.9804 114.865 78.9804 114.865L75.1749 117.267C75.1749 117.267 60.033 93.1507 58.9262 87.6907C57.8194 82.2307 71.6833 62.5245 71.6833 62.5245C71.6833 62.5245 69.8918 54.0578 69.5723 47.1201C69.2528 40.1825 85.5586 48.3582 85.5586 48.3582Z" fill="white"/>
<path id="Vector_83" d="M78.707 125.175L81.6167 123.68L80.0192 119.378L78.5472 115.436L74.7988 116.645L76.8642 121.158L78.707 125.175Z" fill="#FABBB2"/>
<path id="Vector_84" d="M82.0334 123.28C82.0334 122.915 77.5947 123.201 77.5947 123.201C77.5947 123.201 74.8618 125.973 72.2145 126.624C69.5673 127.274 71.0449 128.837 74.006 128.837H81.3316C83.4369 128.837 82.1247 127.04 82.0334 123.28Z" fill="#69BAF8"/>
<path id="Vector_85" d="M74.8676 124.25C74.8041 124.193 74.7598 124.117 74.7404 124.033C74.721 123.95 74.7276 123.862 74.7592 123.783C74.7763 123.718 74.8064 123.659 74.8476 123.607C74.8889 123.555 74.9403 123.512 74.9988 123.48C75.3123 123.349 75.6571 123.311 75.9915 123.372C75.6321 123.178 75.3183 122.944 75.3012 122.71C75.3012 122.562 75.3925 122.436 75.5922 122.339C75.6816 122.298 75.7789 122.276 75.8774 122.276C75.976 122.276 76.0733 122.298 76.1627 122.339C76.7618 122.59 77.1383 123.623 77.1497 123.668C77.1612 123.698 77.1612 123.73 77.1497 123.76L77.1098 123.794C76.5345 124.088 75.9131 124.281 75.2727 124.365C75.128 124.379 74.9831 124.339 74.8676 124.25ZM75.1129 123.68C75.0818 123.696 75.0545 123.719 75.0328 123.746C75.0112 123.774 74.9957 123.806 74.9874 123.84C74.9418 124.011 74.9874 124.056 75.0159 124.074C75.227 124.245 76.0372 123.999 76.6933 123.72C76.18 123.562 75.6335 123.549 75.1129 123.68ZM75.6834 122.539C75.6207 122.539 75.5237 122.624 75.5237 122.687C75.5237 122.887 76.1684 123.229 76.8245 123.48C76.683 123.088 76.4164 122.753 76.0657 122.527C76.0097 122.503 75.9497 122.49 75.8888 122.487C75.8203 122.493 75.754 122.515 75.6949 122.55L75.6834 122.539Z" fill="#263238"/>
<path id="Vector_86" opacity="0.2" d="M76.9101 121.249L80.0595 119.458L78.5646 115.476L74.8105 116.662L76.9101 121.249Z" fill="black"/>
<path id="Vector_87" d="M79.4488 113.952L72.8877 116.183L74.6506 118.357L80.0308 116.457L79.4488 113.952Z" fill="#69BAF8"/>
<path id="Vector_88" d="M85.559 46.019V48.3582L69.5898 47.1373V44.3702L85.559 46.019Z" fill="#263238"/>
<path id="Vector_89" d="M73.0531 47.5852L76.5479 47.8983L76.7851 45.2503L73.2903 44.9371L73.0531 47.5852Z" fill="white"/>
<path id="Vector_90" d="M79.9883 49.0843L80.7803 49.1247L80.986 45.0906L80.194 45.0502L79.9883 49.0843Z" fill="#69BAF8"/>
<path id="Vector_91" opacity="0.6" d="M79.9883 49.0843L80.7803 49.1247L80.986 45.0906L80.194 45.0502L79.9883 49.0843Z" fill="white"/>
<path id="Vector_92" d="M70.2275 48.0167L71.0195 48.0571L71.2253 44.023L70.4333 43.9826L70.2275 48.0167Z" fill="#69BAF8"/>
<path id="Vector_93" opacity="0.6" d="M70.2275 48.0167L71.0195 48.0571L71.2253 44.023L70.4333 43.9826L70.2275 48.0167Z" fill="white"/>
<path id="Vector_94" d="M90.751 24.2247C90.3935 25.1984 90.0626 26.1227 89.7583 26.9975C89.2904 28.3268 88.874 29.5477 88.5088 30.6717C87.3526 34.0104 86.5047 37.4479 85.9757 40.9413C85.7303 42.6529 85.6048 44.3017 85.4793 46.1502L69.5044 44.8494C68.8597 34.2546 69.1449 28.4352 69.4416 25.5198C69.7611 22.4218 70.2689 22.3077 70.2689 22.3077C70.2689 22.3077 73.8347 21.9768 76.9498 21.9996C79.3516 22.0824 81.7453 22.3226 84.1157 22.7185C86.3594 23.0677 88.5764 23.5709 90.751 24.2247Z" fill="#69BAF8"/>
<path id="Vector_95" d="M78.268 25.5369C82.2104 25.0348 83.4028 23.3518 83.4028 23.3518C80.9039 20.9955 82.9806 16.9105 82.9806 16.9105L78.2395 17.7948C78.3487 18.4552 78.4116 19.1225 78.4277 19.7917C78.462 22.6443 77.1612 22.6957 77.1612 22.6957C76.3168 24.2532 78.268 25.5369 78.268 25.5369Z" fill="#FABBB2"/>
<path id="Vector_96" opacity="0.2" d="M78.2275 17.7948C78.3367 18.4552 78.3996 19.1225 78.4158 19.7917C80.698 19.2611 82.9801 16.9105 82.9801 16.9105L78.2275 17.7948Z" fill="black"/>
<path id="Vector_97" d="M72.9905 4.64404C72.9905 4.64404 70.4574 14.3431 76.8473 16.4483C83.2373 18.5536 75.8318 0.171062 72.9905 4.64404Z" fill="#69BAF8"/>
<path id="Vector_98" opacity="0.2" d="M72.9905 4.64404C72.9905 4.64404 70.4574 14.3431 76.8473 16.4483C83.2373 18.5536 75.8318 0.171062 72.9905 4.64404Z" fill="black"/>
<path id="Vector_99" d="M83.8983 2.03094C90.3681 3.17201 91.0071 19.4094 81.9357 16.9104C79.2656 16.1744 70.3995 7.56511 75.0379 4.69533C77.6858 2.99969 80.7544 2.07693 83.8983 2.03094Z" fill="#263238"/>
<path id="Vector_100" d="M78.8209 4.78667C74.793 4.98065 73.6005 7.20002 73.5093 11.3592C73.3894 16.5625 74.7131 20.191 79.6938 18.8389C86.4603 17.0075 85.5018 4.46146 78.8209 4.78667Z" fill="#FABBB2"/>
<path id="Vector_101" d="M76.1278 11.0112C75.8341 11.6231 75.4683 12.1977 75.0381 12.7228C75.1633 12.8828 75.3302 13.0052 75.5204 13.0766C75.7106 13.1481 75.9168 13.1658 76.1164 13.1278L76.1278 11.0112Z" fill="#EA817E"/>
<path id="Vector_102" d="M78.5474 10.5604C78.5474 10.8913 78.7414 11.131 78.9639 11.131C79.1864 11.131 79.3519 10.8514 79.3462 10.5205C79.3405 10.1896 79.1522 9.92143 78.9297 9.94996C78.7072 9.97849 78.536 10.2295 78.5474 10.5604Z" fill="#263238"/>
<path id="Vector_103" d="M79.0262 9.96706L78.2959 9.69891C78.2959 9.69891 78.6724 10.3151 79.0262 9.96706Z" fill="#263238"/>
<path id="Vector_104" d="M74.416 10.5946C74.416 10.9256 74.61 11.1652 74.8325 11.1652C75.055 11.1652 75.2262 10.8913 75.2148 10.5604C75.2033 10.2295 75.0208 9.96135 74.804 9.98988C74.5872 10.0184 74.416 10.2637 74.416 10.5946Z" fill="#263238"/>
<path id="Vector_105" d="M74.907 10.0013L74.1768 9.73315C74.1768 9.73315 74.5533 10.3151 74.907 10.0013Z" fill="#263238"/>
<path id="Vector_106" d="M80.2304 8.50651C80.2014 8.50664 80.1726 8.50061 80.1461 8.48881C80.1195 8.47701 80.0958 8.45971 80.0764 8.43805C79.8636 8.24694 79.6106 8.10616 79.336 8.02616C79.0615 7.94616 78.7724 7.92898 78.4903 7.97591C78.4645 7.98078 78.4379 7.98051 78.4122 7.97512C78.3864 7.96972 78.362 7.95932 78.3403 7.94448C78.3185 7.92965 78.3 7.91069 78.2856 7.88867C78.2712 7.86665 78.2613 7.84201 78.2564 7.81616C78.2515 7.79031 78.2518 7.76376 78.2572 7.73802C78.2626 7.71227 78.273 7.68784 78.2878 7.66612C78.3027 7.6444 78.3216 7.62581 78.3436 7.61142C78.3657 7.59703 78.3903 7.58712 78.4161 7.58225C78.7651 7.51824 79.1242 7.53647 79.4649 7.63551C79.8056 7.73455 80.1185 7.91167 80.3788 8.15278C80.3978 8.17137 80.4128 8.19356 80.4231 8.21806C80.4334 8.24255 80.4387 8.26885 80.4387 8.29541C80.4387 8.32198 80.4334 8.34827 80.4231 8.37276C80.4128 8.39726 80.3978 8.41945 80.3788 8.43805C80.3608 8.45987 80.3381 8.47735 80.3124 8.4892C80.2867 8.50105 80.2587 8.50697 80.2304 8.50651Z" fill="#263238"/>
<path id="Vector_107" d="M73.9316 8.36393C73.8881 8.36573 73.8453 8.3533 73.8096 8.32852C73.7738 8.30375 73.7471 8.26798 73.7336 8.22667C73.72 8.18535 73.7203 8.14074 73.7344 8.09961C73.7486 8.05848 73.7757 8.02308 73.8118 7.99879C74.0536 7.79554 74.3386 7.65028 74.6452 7.57414C74.9517 7.49799 75.2716 7.49298 75.5804 7.55948C75.6303 7.57647 75.6718 7.61202 75.6962 7.65875C75.7207 7.70549 75.7262 7.75982 75.7116 7.81051C75.7038 7.83566 75.6912 7.85901 75.6743 7.87923C75.6574 7.89945 75.6368 7.91615 75.6134 7.92834C75.5901 7.94054 75.5646 7.948 75.5384 7.9503C75.5121 7.9526 75.4857 7.94968 75.4606 7.94173C75.2121 7.89758 74.9568 7.90896 74.7132 7.97505C74.4696 8.04113 74.2436 8.16029 74.0514 8.32399C74.0155 8.34729 73.9743 8.36104 73.9316 8.36393Z" fill="#263238"/>
<path id="Vector_108" d="M83.5447 11.3592C83.5447 11.3592 81.5022 8.14136 81.6676 5.57397C81.6676 5.57397 73.5318 2.72131 73.5261 10.8172C73.5261 10.8172 72.3851 3.66268 79.3113 3.17202C86.2376 2.68137 86.6883 12.8026 83.2594 15.9919C83.2594 16.0204 84.8113 13.3731 83.5447 11.3592Z" fill="#263238"/>
<path id="Vector_109" d="M82.9287 12.2378C82.9361 12.0055 82.9892 11.7769 83.0849 11.5652C83.1807 11.3534 83.3173 11.1626 83.4868 11.0036C83.6564 10.8447 83.8556 10.7207 84.0731 10.6388C84.2906 10.5568 84.5221 10.5186 84.7544 10.5262C86.0096 10.6061 86.7227 13.1393 83.6533 13.9038C83.2083 14.0179 82.9401 13.5957 82.9287 12.2378Z" fill="#FABBB2"/>
<path id="Vector_110" d="M83.8986 2.03098C83.8986 2.03098 78.1476 0.713056 74.171 3.89092C70.1944 7.06879 80.9546 7.51951 80.9546 7.51951L78.3587 6.02471C78.3587 6.02471 81.6621 7.31411 83.1797 6.96609L83.8986 2.03098Z" fill="#263238"/>
<path id="Vector_111" d="M77.4405 8.03301C76.9898 7.96455 73.0417 7.31414 72.8763 5.88781C72.7108 4.46148 74.6392 3.60568 74.7248 3.56004C74.7413 3.55242 74.7591 3.54814 74.7772 3.54746C74.7953 3.54678 74.8134 3.54972 74.8304 3.55609C74.8474 3.56246 74.863 3.57214 74.8762 3.58457C74.8894 3.597 74.9 3.61193 74.9074 3.6285C74.9209 3.66263 74.9207 3.70065 74.9069 3.73466C74.8931 3.76866 74.8667 3.79603 74.8332 3.81107C74.8332 3.81107 73.0075 4.61552 73.1558 5.85928C73.2757 6.88624 76.3223 7.57088 77.4862 7.75916C77.5043 7.76191 77.5216 7.76827 77.5372 7.77785C77.5528 7.78743 77.5663 7.80004 77.577 7.81493C77.5876 7.82983 77.5952 7.8467 77.5992 7.86456C77.6032 7.88241 77.6035 7.9009 77.6003 7.9189C77.5975 7.937 77.5912 7.95435 77.5816 7.96995C77.572 7.98554 77.5594 7.99906 77.5445 8.0097C77.5296 8.02033 77.5127 8.02787 77.4949 8.03188C77.477 8.03588 77.4585 8.03627 77.4405 8.03301Z" fill="#263238"/>
<path id="Vector_112" d="M75.9453 13.9608C76.1907 14.4034 76.4042 14.8629 76.5843 15.3358L76.8468 15.2788C78.0221 15.022 78.4899 14.5143 78.6439 14.0293C78.7444 13.6501 78.7143 13.2482 78.5584 12.8882C77.9002 13.3717 77.1449 13.7065 76.3447 13.8696C76.1279 13.9323 75.9453 13.9608 75.9453 13.9608Z" fill="#263238"/>
<path id="Vector_113" d="M76.3447 13.8696L76.5444 14.2689C77.657 14.0236 78.4043 13.6984 78.6782 13.2933C78.6559 13.1537 78.6156 13.0176 78.5584 12.8882C77.9002 13.3717 77.1449 13.7065 76.3447 13.8696Z" fill="white"/>
<path id="Vector_114" d="M76.8467 15.2787C78.022 15.022 78.4898 14.5142 78.6439 14.0292C78.1948 14.1429 77.7696 14.3362 77.3887 14.5998C77.1421 14.7645 76.9527 15.0017 76.8467 15.2787Z" fill="#EA817E"/>
<path id="Vector_115" d="M74.0167 16.1174C74.2368 16.6269 74.5983 17.0627 75.0584 17.3731C75.5184 17.6835 76.0578 17.8556 76.6127 17.869C79.2086 17.9032 82.7744 15.0163 82.7744 15.0163L83.2308 16.0889C83.2308 16.0889 79.665 18.7133 76.8123 18.7133C75.2947 18.7305 73.8456 17.1615 74.0167 16.1174Z" fill="#263238"/>
<path id="Vector_116" d="M77.7771 18.6392L77.4405 17.7948C76.9994 17.6438 76.5415 17.548 76.0769 17.5095C75.7999 17.4988 75.5243 17.5535 75.2725 17.6692C75.305 17.9174 75.4101 18.1505 75.5745 18.3393C75.7389 18.528 75.9554 18.6641 76.1967 18.7304C76.7236 18.8208 77.2641 18.7896 77.7771 18.6392Z" fill="#263238"/>
<path id="Vector_117" opacity="0.5" d="M77.7771 18.6392L77.4405 17.7948C76.9994 17.6438 76.5415 17.548 76.0769 17.5095C75.7999 17.4988 75.5243 17.5535 75.2725 17.6692C75.305 17.9174 75.4101 18.1505 75.5745 18.3393C75.7389 18.528 75.9554 18.6641 76.1967 18.7304C76.7236 18.8208 77.2641 18.7896 77.7771 18.6392Z" fill="white"/>
<path id="Vector_118" d="M89.5131 13.1678C88.0012 16.1916 85.0287 18.2569 82.9691 16.4711C80.9095 14.6854 82.2959 6.68081 82.2959 6.68081C77.84 4.80946 72.9905 5.90489 72.9905 5.90489C72.8878 2.82401 76.3452 -0.884447 83.591 0.770096C84.6738 0.983116 85.7016 1.41542 86.6112 2.04042C87.5207 2.66543 88.2928 3.46991 88.8798 4.40438C88.9995 4.589 89.1099 4.77941 89.2107 4.97492C89.4211 5.37762 89.5967 5.79753 89.7356 6.23009C89.8981 6.7136 90.0203 7.20977 90.1008 7.71347C90.4546 9.54943 90.2499 11.4493 89.5131 13.1678Z" fill="#69BAF8"/>
<path id="Vector_119" d="M72.9901 4.64401C76.2806 3.82222 79.7418 4.00303 82.9288 5.16319C83.3328 5.98434 83.6686 6.8373 83.9329 7.71347C84.0185 8.32394 71.4611 7.5366 70.7365 6.81773C70.0119 6.09886 72.3796 5.8136 72.3796 5.8136L72.9901 4.64401Z" fill="#263238"/>
<path id="Vector_120" opacity="0.4" d="M88.5085 8.74617L88.7596 9.69896L82.9287 14.1092L87.2647 9.54491L85.827 7.08022L88.8794 4.41583C88.999 4.60045 89.1094 4.79086 89.2103 4.98636C89.4206 5.38907 89.5962 5.80898 89.7352 6.24153C89.8977 6.72505 90.0198 7.22122 90.1003 7.72492L88.5085 8.74617Z" fill="white"/>
<path id="Vector_121" opacity="0.4" d="M89.7353 6.25865L87.2363 7.9189L87.4874 8.74617L86.6943 7.31984L89.2104 5.00348C89.4207 5.40618 89.5963 5.82609 89.7353 6.25865Z" fill="white"/>
<path id="Vector_122" d="M65.8586 27.5338C65.866 27.5901 65.8612 27.6474 65.8444 27.7016C65.8276 27.7559 65.7992 27.8059 65.7613 27.8482C65.7233 27.8905 65.6767 27.924 65.6246 27.9466C65.5724 27.9691 65.516 27.9801 65.4592 27.9788H61.0319C60.9091 27.976 60.7913 27.9298 60.6993 27.8483C60.6074 27.7668 60.5474 27.6554 60.5298 27.5338L59.5428 18.8046C59.534 18.7448 59.5375 18.6839 59.5531 18.6255C59.5686 18.567 59.5959 18.5124 59.6333 18.4649C59.6707 18.4174 59.7174 18.378 59.7705 18.3491C59.8236 18.3202 59.882 18.3024 59.9422 18.2969H64.3695C64.4975 18.313 64.6162 18.3719 64.7063 18.4641C64.7964 18.5563 64.8527 18.6764 64.8659 18.8046L65.8586 27.5338Z" fill="#263238"/>
<path id="Vector_123" opacity="0.5" d="M64.3808 18.7476L65.3849 27.5623C65.3976 27.6136 65.398 27.6672 65.386 27.7187C65.3741 27.7702 65.3503 27.8181 65.3164 27.8587C65.2825 27.8993 65.2395 27.9313 65.191 27.9521C65.1424 27.973 65.0896 27.9821 65.0369 27.9788H61.2942C61.0432 27.9788 60.5867 27.8419 60.5582 27.5908L59.5541 18.7476C59.5256 18.4966 59.9535 18.2969 60.2102 18.2969H63.9586C64.0726 18.3054 64.1793 18.3565 64.2575 18.44C64.3357 18.5235 64.3797 18.6332 64.3808 18.7476Z" fill="white"/>
<path id="Vector_124" d="M58.835 32.8169L60.3069 28.458C60.1027 27.5462 60.0051 26.6138 60.016 25.6795C60.1187 24.6754 62.8002 23.9679 62.9428 24.1961C63.0854 24.4243 63.9812 27.3569 63.656 28.1214C63.3308 28.8859 61.7447 29.1655 61.7447 29.1655L60.8261 33.3418L58.835 32.8169Z" fill="#FABBB2"/>
<path id="Vector_125" d="M83.8079 19.7917C83.8079 19.7917 80.0025 21.5033 78.7073 21.2237C78.1368 21.1096 76.9444 19.7917 76.9444 19.7917L75.9346 22.0111C75.9346 22.0111 76.2484 24.7097 77.5149 26.29C78.7815 27.8704 84.8862 23.135 84.8862 23.135L83.8079 19.7917Z" fill="#69BAF8"/>
<path id="Vector_126" opacity="0.2" d="M76.1278 22.941C76.1278 22.941 76.0422 26.3642 77.6055 27.2941C79.1687 28.2241 83.6189 24.0763 83.6189 24.0763C83.6189 24.0763 77.7025 29.0171 76.1278 22.941Z" fill="#00309B"/>
<path id="Vector_127" d="M75.8371 44.3474H75.2666C75.2666 36.3599 77.8283 26.4954 78.0109 25.788L77.9424 22.011H78.5129L78.5814 25.8678V25.9078C78.5472 25.9991 75.8485 36.1659 75.8371 44.3474Z" fill="#263238"/>
<path id="Vector_128" opacity="0.2" d="M88.5089 30.6717C87.3527 34.0104 86.5048 37.448 85.9757 40.9413C76.3622 39.4408 73.0931 29.3823 72.9961 29.0571C73.1844 29.1941 82.427 35.8408 86.4606 28.8517L88.5089 30.6717Z" fill="#00309B"/>
<path id="Vector_129" d="M76.6188 29.5934L73.7148 27.0089C73.7148 27.0089 72.7563 25.5198 72.4938 25.1889C72.2314 24.858 67.998 25.5369 67.998 25.5369C67.998 25.5369 68.7683 27.4368 69.0022 27.9788C69.2361 28.5208 70.942 28.5208 71.735 28.5208H72.5224L74.9871 31.4248L76.6188 29.5934Z" fill="#FABBB2"/>
<path id="Vector_130" d="M90.7506 24.2247C92.5022 25.788 89.6096 40.4849 84.3264 39.0586C79.0433 37.6322 73.4863 30.957 73.4863 30.957L74.8157 27.7963C74.8157 27.7963 81.7134 33.1193 83.2196 33.1707C84.7258 33.222 85.5017 31.8071 86.4545 28.8517C87.4073 25.8964 90.7506 24.2247 90.7506 24.2247Z" fill="#69BAF8"/>
</g>
</svg>
