<svg width="24" height="24" viewBox="0 0 24 24" fill="none" xmlns="http://www.w3.org/2000/svg">
<g id="City">
<path id="Vector" d="M3 19.0001V9.0001C3 8.4501 3.196 7.97943 3.588 7.5881C3.98 7.19676 4.45067 7.00076 5 7.0001H9V5.8251C9 5.55843 9.05 5.3041 9.15 5.0621C9.25 4.8201 9.39167 4.60776 9.575 4.4251L10.575 3.4251C10.9583 3.04176 11.4333 2.8501 12 2.8501C12.5667 2.8501 13.0417 3.04176 13.425 3.4251L14.425 4.4251C14.6083 4.60843 14.75 4.8211 14.85 5.0631C14.95 5.3051 15 5.5591 15 5.8251V11.0001H19C19.55 11.0001 20.021 11.1961 20.413 11.5881C20.805 11.9801 21.0007 12.4508 21 13.0001V19.0001C21 19.5501 20.8043 20.0211 20.413 20.4131C20.0217 20.8051 19.5507 21.0008 19 21.0001H5C4.45 21.0001 3.97933 20.8044 3.588 20.4131C3.19667 20.0218 3.00067 19.5508 3 19.0001ZM5 19.0001H7V17.0001H5V19.0001ZM5 15.0001H7V13.0001H5V15.0001ZM5 11.0001H7V9.0001H5V11.0001ZM11 19.0001H13V17.0001H11V19.0001ZM11 15.0001H13V13.0001H11V15.0001ZM11 11.0001H13V9.0001H11V11.0001ZM11 7.0001H13V5.0001H11V7.0001ZM17 19.0001H19V17.0001H17V19.0001ZM17 15.0001H19V13.0001H17V15.0001Z" fill="#3355B9"/>
</g>
</svg>
