<svg width="25" height="25" viewBox="0 0 25 25" fill="none" xmlns="http://www.w3.org/2000/svg">
<g id="clarity:battery-solid" clip-path="url(#clip0_2229_15719)">
<path id="Vector" d="M14.5728 5.0625V4.32937C14.5742 4.28751 14.5673 4.24578 14.5526 4.20656C14.5379 4.16734 14.5156 4.13141 14.487 4.10082C14.4583 4.07023 14.424 4.04558 14.3858 4.02828C14.3477 4.01098 14.3065 4.00137 14.2646 4H10.6309C10.589 4.00137 10.5478 4.01098 10.5097 4.02828C10.4715 4.04558 10.4372 4.07023 10.4085 4.10082C10.3799 4.13141 10.3576 4.16734 10.3429 4.20656C10.3282 4.24578 10.3213 4.28751 10.3228 4.32937V5.0625H8.19775C8.05443 5.07436 7.92064 5.13913 7.82244 5.2442C7.72424 5.34928 7.66865 5.48713 7.6665 5.63094V20.5059C7.67593 20.6403 7.73604 20.766 7.83466 20.8578C7.93329 20.9495 8.06307 21.0003 8.19775 21H16.6978C16.8333 21.0002 16.9638 20.9487 17.0626 20.8558C17.1613 20.763 17.2209 20.6359 17.229 20.5006V5.62562C17.2256 5.48275 17.1694 5.34619 17.0713 5.24223C16.9732 5.13828 16.8402 5.07426 16.6978 5.0625H14.5728ZM13.6484 16.4525C13.7238 16.604 13.7359 16.7792 13.6821 16.9396C13.6283 17.1 13.513 17.2324 13.3615 17.3078C13.21 17.3832 13.0348 17.3953 12.8744 17.3415C12.714 17.2877 12.5816 17.1724 12.5062 17.0209L9.60557 11.2037L12.7931 11.735L11.5765 9.61C11.5346 9.53744 11.5075 9.45735 11.4966 9.3743C11.4857 9.29125 11.4912 9.20687 11.5129 9.12596C11.5346 9.04506 11.5721 8.96922 11.6231 8.90279C11.6741 8.83635 11.7377 8.78061 11.8103 8.73875C11.8828 8.69689 11.9629 8.66973 12.0459 8.65883C12.129 8.64792 12.2134 8.65348 12.2943 8.67518C12.3752 8.69689 12.451 8.73432 12.5175 8.78533C12.5839 8.83634 12.6396 8.89994 12.6815 8.9725L15.2474 13.4191L11.8634 12.8719L13.6484 16.4525Z" fill="#363636" fill-opacity="0.6"/>
</g>
<defs>
<clipPath id="clip0_2229_15719">
<rect width="24" height="24" fill="white" transform="translate(0.666504 0.375977)"/>
</clipPath>
</defs>
</svg>
