<svg width="46" height="28" viewBox="0 0 46 28" fill="none" xmlns="http://www.w3.org/2000/svg">
<path id="Vector" d="M0.0918282 22.2557C0.089054 21.4707 0.270609 20.696 0.621879 19.9939C0.973149 19.2919 1.48433 18.6821 2.11427 18.2137C2.74421 17.7453 3.47532 17.4313 4.24877 17.2969C5.02221 17.1626 5.81639 17.2118 6.56737 17.4404C6.32127 15.7624 6.4794 14.0499 7.02861 12.4453C7.57781 10.8408 8.50221 9.39052 9.72491 8.21525C10.9476 7.03998 12.4333 6.17365 14.0583 5.68833C15.6833 5.20301 17.4008 5.11273 19.0677 5.425C20.1177 3.69945 21.7004 2.36215 23.577 1.61482C25.4536 0.867495 27.5223 0.750674 29.4711 1.28198C31.4198 1.8133 33.143 2.96392 34.3806 4.56029C35.6182 6.15665 36.3031 8.11218 36.332 10.1319H36.4918C38.7676 10.1319 40.9501 11.0359 42.5593 12.6452C44.1685 14.2544 45.0726 16.4369 45.0726 18.7127C45.0726 20.9885 44.1685 23.171 42.5593 24.7802C40.9501 26.3895 38.7676 27.2935 36.4918 27.2935H4.98129C3.67011 27.2578 2.42483 26.7109 1.5113 25.7697C0.597769 24.8284 0.0883638 23.5674 0.0918282 22.2557Z" fill="#F5F5F5"/>
</svg>
