<svg width="164" height="109" viewBox="0 0 164 109" fill="none" xmlns="http://www.w3.org/2000/svg">
<g id="reading-glasses/cuate">
<g id="background-complete">
<path id="Vector" d="M54.9128 51.5967L95.5713 51.5967V38.3646L54.9128 38.3646V51.5967Z" fill="#C7C7C7"/>
<path id="Vector_2" d="M95.5713 38.3672V51.5993H158.948V50.3082H157.582V39.6582H158.948V38.3672H95.5713Z" fill="#A6A6A6"/>
<path id="Vector_3" d="M97.2362 50.2256L157.653 50.2256V39.7402L97.2362 39.7402V50.2256Z" fill="white"/>
<path id="Vector_4" d="M97.2327 50.2243C112.293 50.1813 142.597 50.1281 157.652 50.1104L157.539 50.2243V39.7389C148.373 40.1009 121.786 39.6933 112.352 39.8123L97.2453 39.7768C97.2883 39.5515 97.2453 50.2724 97.2453 50.2243H97.2327ZM97.2327 50.2243C97.2327 50.1888 97.1973 39.7363 97.1973 39.7034C97.1973 39.6705 112.329 39.6705 112.339 39.6655L157.652 39.6123H157.779V39.7389L157.766 50.2243V50.3382H157.652C142.594 50.323 112.288 50.2699 97.2327 50.2243Z" fill="#DBDBDB"/>
<path id="Vector_5" d="M135.969 47.9061C140.588 47.9669 145.208 48.0091 149.828 48.0327L157.653 48.053V47.7617L149.828 47.782C145.208 47.7989 140.588 47.8402 135.969 47.9061Z" fill="#DBDBDB"/>
<path id="Vector_6" d="M97.2334 45.4273V45.6958L107.32 45.7236L121.941 45.6856C126.56 45.6637 131.18 45.6223 135.8 45.5615C131.18 45.5007 126.56 45.4594 121.941 45.4374L107.32 45.3994L97.2334 45.4273Z" fill="#DBDBDB"/>
<path id="Vector_7" d="M97.2334 41.4961V41.8203L111.654 41.7823C116.277 41.7603 120.897 41.719 125.513 41.6582C120.893 41.5974 116.274 41.556 111.654 41.5341L97.2334 41.4961Z" fill="#DBDBDB"/>
<path id="Vector_8" d="M97.2334 47.9346V48.203H101.107C105.726 48.1828 110.347 48.1414 114.968 48.0789C110.345 48.0215 105.725 47.9802 101.107 47.9548L97.2334 47.9346Z" fill="#DBDBDB"/>
<path id="Vector_9" d="M135.507 43.4155C140.128 43.4729 144.749 43.5142 149.368 43.5396L157.654 43.5624V43.2686L149.368 43.2913C144.745 43.3116 140.125 43.353 135.507 43.4155Z" fill="#DBDBDB"/>
<path id="Vector_10" d="M153.633 44.4911C150.454 44.4742 147.272 44.4616 144.087 44.4531H134.021H124.212C121.03 44.4531 117.848 44.4658 114.667 44.4911C117.85 44.508 121.031 44.5207 124.212 44.5291H134.021H144.087C147.27 44.5207 150.452 44.508 153.633 44.4911Z" fill="#DBDBDB"/>
<path id="Vector_11" d="M149.651 28.5322H108.992V38.367H149.651V28.5322Z" fill="#EBEBEB"/>
<path id="Vector_12" d="M108.989 38.367V28.5322H45.6123V29.4917H46.9785V37.4076H45.6123V38.367H108.989Z" fill="#DBDBDB"/>
<path id="Vector_13" d="M107.327 29.5527H46.9102V37.3472H107.327V29.5527Z" fill="white"/>
<path id="Vector_14" d="M107.328 29.553C92.2672 29.5985 61.9637 29.6517 46.9107 29.6694L47.0271 29.553V37.3474C46.2276 36.9981 77.29 37.3702 77.1104 37.2588C84.6344 37.2588 99.7988 37.2943 107.32 37.3196C107.277 37.4866 107.32 29.5201 107.32 29.553H107.328ZM107.328 29.553L107.356 37.3474V37.3753H107.328C99.7912 37.4006 84.6521 37.4335 77.118 37.436L46.9107 37.474H46.7842V37.3474V29.553V29.4365H46.9006C61.9587 29.4542 92.2647 29.5074 107.318 29.553H107.328Z" fill="#DBDBDB"/>
<path id="Vector_15" d="M68.5947 31.2769C63.9751 31.2313 59.3546 31.2001 54.7333 31.1832L46.9082 31.168V31.3833L54.7333 31.3706C59.3479 31.3588 63.9683 31.3275 68.5947 31.2769Z" fill="#DBDBDB"/>
<path id="Vector_16" d="M107.328 33.1246V32.9246L97.2436 32.9043L82.6232 32.9322C78.0035 32.949 73.383 32.9794 68.7617 33.0233C73.3814 33.0689 78.0019 33.1002 82.6232 33.1171L97.2436 33.1449L107.328 33.1246Z" fill="#DBDBDB"/>
<path id="Vector_17" d="M107.327 36.0423V35.7891L92.9064 35.8169C88.2851 35.8338 83.6646 35.865 79.0449 35.9106C83.6646 35.9528 88.2851 35.9832 92.9064 36.0018L107.327 36.0423Z" fill="#DBDBDB"/>
<path id="Vector_18" d="M107.327 31.2567V31.0566H103.454C98.834 31.0718 94.2144 31.1031 89.5947 31.1504C94.2144 31.1943 98.834 31.2246 103.454 31.2415L107.327 31.2567Z" fill="#DBDBDB"/>
<path id="Vector_19" d="M69.0577 34.6157C64.4364 34.5735 59.815 34.5423 55.1937 34.522L46.9082 34.5068V34.7247L55.1937 34.7069C59.8167 34.6917 64.4381 34.6613 69.0577 34.6157Z" fill="#DBDBDB"/>
<path id="Vector_20" d="M50.9277 33.8169C54.1104 33.8304 57.2922 33.8397 60.4731 33.8448H70.5422H80.3482C83.5309 33.8448 86.7127 33.8355 89.8936 33.8169C86.7127 33.8017 83.5309 33.7924 80.3482 33.7891H70.5422H60.4731C57.2905 33.7941 54.1087 33.8034 50.9277 33.8169Z" fill="#DBDBDB"/>
<path id="Vector_21" d="M70.9906 8.73926H14.5732V51.5998H70.9906V8.73926Z" fill="#EBEBEB"/>
<path id="Vector_22" d="M92.4314 8.73926H70.9902V51.5998H92.4314V8.73926Z" fill="#DBDBDB"/>
<path id="Vector_23" d="M14.5732 30.0039H70.9906L26.9319 31.1158L14.5732 30.0039Z" fill="#DBDBDB"/>
<path id="Vector_24" d="M70.9906 46.3828H14.5732L58.6344 47.4947L70.9906 46.3828Z" fill="#DBDBDB"/>
<path id="Vector_25" d="M14.5732 17.9307H50.311L18.5427 18.8374L14.5732 17.9307Z" fill="#DBDBDB"/>
<path id="Vector_26" d="M70.9901 40.0225H35.2549L67.0206 40.9292L70.9901 40.0225Z" fill="#DBDBDB"/>
<path id="Vector_27" d="M75.7264 11.4053H39.9912L71.7595 12.3146L75.7264 11.4053Z" fill="#DBDBDB"/>
<path id="Vector_28" d="M39.0371 14.1211H79.3439L72.6244 14.6656L39.0371 14.1211Z" fill="#DBDBDB"/>
<path id="Vector_29" d="M20.0576 34.6338H60.3644L53.6449 35.1783L20.0576 34.6338Z" fill="#DBDBDB"/>
<path id="Vector_30" d="M44.8438 22.042H70.9905L75.6633 23.4958L44.8438 22.042Z" fill="#EBEBEB"/>
<path id="Vector_31" d="M51.1455 36.5244H77.2923L81.9625 37.9782L51.1455 36.5244Z" fill="#EBEBEB"/>
<path id="Vector_32" d="M45.3955 42.9072H71.5423L76.2151 44.3611L45.3955 42.9072Z" fill="#EBEBEB"/>
<path id="Vector_33" d="M7.37012 22.042H33.5169L38.1872 23.4958L7.37012 22.042Z" fill="#DBDBDB"/>
<path id="Vector_34" d="M40.9196 13.668H14.7753L10.1025 15.1193L40.9196 13.668Z" fill="#EBEBEB"/>
<path id="Vector_35" d="M42.3332 39.2969H16.1864L11.5137 40.7507L42.3332 39.2969Z" fill="#EBEBEB"/>
<path id="Vector_36" d="M40.9196 41.4561H14.7753L10.1025 42.9074L40.9196 41.4561Z" fill="#DBDBDB"/>
<path id="Vector_37" d="M70.9902 36.5244H91.9861L96.6589 37.9782L70.9902 36.5244Z" fill="#DBDBDB"/>
<path id="Vector_38" d="M78.3193 30.0043H94.6019L92.4313 28.8164L78.3193 30.0043Z" fill="#DBDBDB"/>
</g>
<g id="Table">
<path id="Vector_39" d="M2.31836 51.6051C54.111 51.4506 112.208 51.4481 164.001 51.6051C112.208 51.7621 54.111 51.7596 2.31836 51.6051Z" fill="#263238"/>
</g>
<g id="Sheets">
<path id="Vector_40" d="M106.548 87.4421L131.673 81.2627L163.595 85.713L137.385 92.3506L106.548 87.4421Z" fill="#DBDBDB"/>
<path id="Vector_41" d="M106.548 87.4416L131.665 81.2344C131.665 81.2344 163.61 85.6543 163.61 85.6518L163.932 85.6949L163.61 85.7784L137.385 92.3856C137.385 92.3856 106.558 87.439 106.548 87.4416ZM106.548 87.4416C106.548 87.4416 137.433 92.3197 137.378 92.3172L163.58 85.6518V85.7759C163.58 85.7759 131.632 81.2875 131.68 81.2901L106.548 87.4416Z" fill="#DBDBDB"/>
<path id="Vector_42" d="M136.386 90.6285C137.932 90.1526 139.525 89.7096 141.124 89.2716C142.723 88.8337 144.347 88.4135 145.977 88.0059C147.606 87.5983 149.266 87.1857 150.93 86.7984L153.44 86.2187C154.295 86.0364 155.132 85.844 155.998 85.6719C155.239 85.9124 154.434 86.1326 153.652 86.3655L151.262 87.0262C149.668 87.4692 148.039 87.8869 146.409 88.292C144.78 88.697 143.12 89.1122 141.456 89.4995C139.791 89.8868 138.111 90.2741 136.386 90.6285Z" fill="#C7C7C7"/>
<path id="Vector_43" d="M140.538 88.1154C142.309 87.5078 144.222 86.9863 146.16 86.4902C148.098 85.994 150.096 85.5257 152.226 85.1611C150.455 85.7712 148.545 86.2902 146.605 86.7863C144.664 87.2825 142.656 87.7407 140.538 88.1154Z" fill="#C7C7C7"/>
<path id="Vector_44" d="M128.817 89.6236C130.363 89.1477 131.957 88.7047 133.556 88.2668C135.155 87.8288 136.779 87.4086 138.408 87.001C140.038 86.5935 141.697 86.1808 143.359 85.7935L145.872 85.2163C146.724 85.0341 147.564 84.8417 148.429 84.667C147.67 84.9075 146.866 85.1303 146.084 85.3606L143.693 86.0239C142.097 86.4644 140.47 86.882 138.841 87.2896C137.212 87.6972 135.552 88.1098 133.887 88.4971C132.223 88.8844 130.543 89.2692 128.817 89.6236Z" fill="#C7C7C7"/>
<path id="Vector_45" d="M127.851 88.4058C130.479 87.5806 133.239 86.8464 136.032 86.1275C138.825 85.4085 141.674 84.7402 144.634 84.1504C142.006 84.9757 139.245 85.7098 136.455 86.4287C133.664 87.1477 130.821 87.816 127.851 88.4058Z" fill="#C7C7C7"/>
<path id="Vector_46" d="M131.134 86.1155C132.583 85.5889 134.17 85.151 135.781 84.7358C137.393 84.3207 139.07 83.946 140.859 83.6523C139.409 84.1814 137.823 84.6168 136.214 85.032C134.605 85.4472 132.925 85.8218 131.134 86.1155Z" fill="#C7C7C7"/>
<path id="Vector_47" d="M2.72266 61.4908L37.585 54.8887L71.2255 64.7235L36.5377 71.5636L2.72266 61.4908Z" fill="#EBEBEB"/>
<path id="Vector_48" d="M2.72266 61.4915L37.5876 54.8564C37.5876 54.8564 71.2356 64.6659 71.2356 64.6634L71.4886 64.7368L71.2356 64.7875L36.5376 71.6022C36.525 71.6022 2.73278 61.4991 2.72266 61.4991V61.4915ZM2.72266 61.4915L36.5478 71.5313C36.4643 71.5491 71.2356 64.6558 71.2078 64.6634V64.7849L37.5774 54.9121C37.6432 54.8969 2.71254 61.494 2.72266 61.494V61.4915Z" fill="#DBDBDB"/>
<path id="Vector_49" d="M36.0488 69.5597C38.3258 69.0331 40.6204 68.5471 42.9252 68.0585C45.2299 67.5699 47.5524 67.1042 49.8774 66.6434C52.2024 66.1827 54.5401 65.7321 56.8929 65.3043L60.4221 64.6613C61.6087 64.4587 62.7851 64.2461 63.9817 64.0537C62.8483 64.3195 61.7048 64.56 60.5562 64.8132L57.1003 65.5549C54.7981 66.046 52.4731 66.5093 50.1506 66.97C47.8282 67.4307 45.488 67.8813 43.1352 68.3091C40.7823 68.737 38.432 69.1698 36.0488 69.5597Z" fill="#DBDBDB"/>
<path id="Vector_50" d="M44.9854 66.0584C47.4697 65.4179 50.0452 64.8762 52.6283 64.3598C55.2113 63.8433 57.8424 63.3725 60.5444 62.9902C58.06 63.6307 55.4845 64.1724 52.9015 64.6889C50.3184 65.2053 47.6873 65.6761 44.9854 66.0584Z" fill="#DBDBDB"/>
<path id="Vector_51" d="M32.6113 66.7568C34.5973 66.286 36.6111 65.8531 38.63 65.4227C40.6489 64.9924 42.6779 64.5848 44.7221 64.1773C46.7663 63.7697 48.813 63.3798 50.8799 63.0077L53.9791 62.4508C55.0239 62.2761 56.0562 62.0913 57.1086 61.9268C56.1194 62.1647 55.1125 62.3824 54.1132 62.6103L51.0899 63.2608C49.066 63.6937 47.042 64.0988 44.9978 64.5063C42.9537 64.9139 40.9095 65.3012 38.8425 65.6759C36.7756 66.0505 34.7112 66.4227 32.6113 66.7568Z" fill="#DBDBDB"/>
<path id="Vector_52" d="M30.9893 65.3366C32.8235 64.8962 34.6855 64.4911 36.5551 64.0911C38.4247 63.6912 40.307 63.3114 42.1943 62.9368C44.0816 62.5621 45.9892 62.1976 47.8968 61.8558L50.7682 61.3495C51.7372 61.1901 52.696 61.0205 53.6726 60.8711C52.7593 61.0964 51.8257 61.2964 50.9048 61.5116L48.1067 62.1166C46.2422 62.5191 44.3549 62.8963 42.4675 63.2709C40.5802 63.6456 38.6726 64.0076 36.7651 64.3519C34.8575 64.6962 32.9373 65.0202 30.9893 65.3366Z" fill="#DBDBDB"/>
<path id="Vector_53" d="M22.3047 65.3083C24.5816 64.7818 26.8763 64.2957 29.181 63.8046C31.4858 63.3135 33.8083 62.8528 36.1333 62.3895C38.4583 61.9262 40.7959 61.4807 43.1462 61.0504L46.6881 60.4074C47.8746 60.2074 49.0511 59.9922 50.2477 59.7998C49.1143 60.0681 47.9708 60.3061 46.8222 60.5592L43.3689 61.2934C41.0666 61.782 38.7416 62.2452 36.4191 62.7085C34.0967 63.1717 31.7565 63.6173 29.4037 64.0476C27.0508 64.478 24.6879 64.9159 22.3047 65.3083Z" fill="#DBDBDB"/>
<path id="Vector_54" d="M22.0156 63.6258C24.0244 63.1499 26.0635 62.7119 28.1052 62.2765C30.1468 61.8411 32.2087 61.4285 34.2706 61.0108C36.3325 60.5931 38.407 60.2032 40.4967 59.826L43.6338 59.2615C44.6888 59.0843 45.7362 58.897 46.7988 58.7324C45.7868 58.9729 44.7748 59.1906 43.7629 59.4235L40.7042 60.0792C38.6651 60.5171 36.6032 60.9272 34.5413 61.3449C32.4794 61.7626 30.4023 62.1525 28.3126 62.5296C26.2229 62.9068 24.1382 63.2866 22.0156 63.6258Z" fill="#DBDBDB"/>
<path id="Vector_55" d="M15.4307 63.1827C17.7076 62.6562 20.0022 62.1701 22.3095 61.6816C24.6168 61.193 26.9368 60.7171 29.2719 60.2665C31.607 59.8159 33.9345 59.3551 36.2874 58.9273L39.8166 58.2843C41.0032 58.0818 42.1821 57.8692 43.3762 57.6768C42.2428 57.9426 41.0993 58.1831 39.9532 58.4362L36.4999 59.1729C34.1977 59.6614 31.8727 60.1247 29.5477 60.5854C27.2226 61.0462 24.885 61.4968 22.5322 61.9246C20.1793 62.3524 17.8164 62.7929 15.4307 63.1827Z" fill="#DBDBDB"/>
<path id="Vector_56" d="M23.418 59.8688C26.0617 59.1954 28.789 58.6233 31.5365 58.0765C34.284 57.5297 37.0669 57.0259 39.9283 56.6133C37.2845 57.2867 34.5598 57.8562 31.8097 58.4056C29.0597 58.9549 26.2793 59.4511 23.418 59.8688Z" fill="#DBDBDB"/>
<path id="Vector_57" d="M53.8066 95.196L98.1107 86.8066L140.856 99.3046L96.7774 107.995L53.8066 95.196Z" fill="#EBEBEB"/>
<path id="Vector_58" d="M53.8117 95.1957L98.1107 86.7734C98.1107 86.7734 140.866 99.2461 140.866 99.2435L141.119 99.3169L140.866 99.3676L96.7774 108.028C96.7648 108.03 53.8117 95.1957 53.8117 95.1957ZM53.8117 95.1957L96.7926 107.964C96.7142 107.964 140.869 99.2385 140.849 99.2435V99.365L98.1006 86.8367C98.1664 86.8165 53.7965 95.2083 53.8066 95.1906L53.8117 95.1957Z" fill="#DBDBDB"/>
<path id="Vector_59" d="M96.1553 105.448C99.0419 104.78 101.974 104.155 104.896 103.539C107.818 102.924 110.776 102.329 113.728 101.742C116.681 101.155 119.653 100.585 122.644 100.038L127.129 99.2233C128.647 98.9701 130.132 98.6942 131.653 98.4512C130.213 98.7904 128.751 99.1018 127.301 99.4283L122.912 100.36C119.987 100.983 117.032 101.57 114.08 102.157C111.127 102.745 108.155 103.314 105.164 103.858C102.174 104.403 99.1861 104.952 96.1553 105.448Z" fill="#DBDBDB"/>
<path id="Vector_60" d="M107.513 100.997C110.67 100.185 113.934 99.4959 117.223 98.8403C120.511 98.1846 123.851 97.5746 127.287 97.0986C124.129 97.9138 120.863 98.6023 117.574 99.258C114.285 99.9136 110.946 100.511 107.513 100.997Z" fill="#DBDBDB"/>
<path id="Vector_61" d="M91.7891 101.886C94.319 101.289 96.8717 100.737 99.437 100.193C102.002 99.6485 104.59 99.127 107.179 98.6106C109.767 98.0942 112.375 97.598 115.001 97.1221L118.943 96.4132C120.268 96.193 121.581 95.9576 122.92 95.75C121.655 96.0538 120.39 96.3297 119.125 96.6183L115.284 97.4436C112.722 97.9929 110.131 98.5093 107.543 99.0257C104.955 99.5422 102.344 100.038 99.7179 100.512C97.0918 100.985 94.4556 101.474 91.7891 101.886Z" fill="#DBDBDB"/>
<path id="Vector_62" d="M89.7363 100.082C92.0664 99.5222 94.4344 99.0083 96.8201 98.502C99.2058 97.9957 101.587 97.5096 103.985 97.0312C106.383 96.5527 108.792 96.0945 111.231 95.6591L114.884 95.006C116.113 94.806 117.33 94.5883 118.572 94.3984C117.411 94.6845 116.227 94.9402 115.053 95.211L111.499 95.9705C109.131 96.4768 106.732 96.9603 104.334 97.4388C101.936 97.9172 99.5271 98.3754 97.0883 98.8108C94.6494 99.2462 92.2005 99.7019 89.7363 100.082Z" fill="#DBDBDB"/>
<path id="Vector_63" d="M78.6885 100.046C81.5751 99.378 84.5073 98.7527 87.4294 98.1376C90.3514 97.5224 93.3089 96.9275 96.2613 96.3402C99.2138 95.7529 102.186 95.1833 105.169 94.639L109.655 93.8239C111.173 93.5708 112.658 93.2948 114.178 93.0645C112.739 93.4037 111.276 93.715 109.827 94.0416L105.437 94.9732C102.513 95.5959 99.5578 96.1832 96.6054 96.7706C93.653 97.3579 90.6803 97.9274 87.69 98.4717C84.6996 99.016 81.7193 99.5501 78.6885 100.046Z" fill="#DBDBDB"/>
<path id="Vector_64" d="M78.3242 97.9064C80.8769 97.3039 83.4676 96.7444 86.0633 96.1951C88.659 95.6458 91.2749 95.1167 93.906 94.5927C96.5372 94.0687 99.1632 93.5674 101.82 93.089L105.794 92.3599C107.138 92.1371 108.466 91.8992 109.819 91.6865C108.554 91.9928 107.251 92.2713 105.966 92.5649L102.08 93.4003C99.487 93.9547 96.866 94.4787 94.2375 95.0002C91.6089 95.5217 88.9803 96.0128 86.3238 96.5039C83.6674 96.995 81.0211 97.476 78.3242 97.9064Z" fill="#DBDBDB"/>
<path id="Vector_65" d="M69.9551 97.3447C72.8417 96.6764 75.7739 96.0511 78.696 95.4359C81.618 94.8208 84.5755 94.2259 87.5279 93.6386C90.4804 93.0513 93.453 92.4817 96.4434 91.9349L100.929 91.1198C102.447 90.8666 103.932 90.5907 105.45 90.3477C104.013 90.6869 102.551 90.9983 101.101 91.3248L96.7116 92.2564C93.787 92.8791 90.832 93.4664 87.8796 94.0538C84.9272 94.6411 81.9545 95.2106 78.9641 95.7549C75.9738 96.2992 72.9859 96.8485 69.9551 97.3447Z" fill="#DBDBDB"/>
<path id="Vector_66" d="M80.1055 93.1331C83.4652 92.28 86.9363 91.5535 90.42 90.8548C93.9037 90.1561 97.4506 89.5182 101.086 88.9941C97.7264 89.8498 94.2553 90.5763 90.7691 91.2725C87.2829 91.9686 83.741 92.6142 80.1055 93.1331Z" fill="#DBDBDB"/>
</g>
<g id="Book">
<path id="Vector_67" d="M162.067 73.9347L80.042 96.6117V80.2659L162.067 57.5889C166.414 65.6086 162.067 73.9347 162.067 73.9347Z" fill="#6F8088"/>
<path id="Vector_68" d="M0 85.2726L80.0418 96.6111V92.4671L7.31908 83.5664L0 84.0069V85.2726Z" fill="#8798A0"/>
<path id="Vector_69" d="M80.044 80.3415C83.0344 87.5435 80.044 96.6113 80.044 96.6113L3.86035 84.5716V70.4434L80.044 80.3415Z" fill="#8798A0"/>
<path id="Vector_70" d="M78.1592 80.0986C81.0712 87.2729 78.3996 94.9989 78.3996 94.9989L3.86035 84.5135V70.4385L78.1592 80.0986Z" fill="white"/>
<path id="Vector_71" d="M78.1597 80.0988C78.2584 80.3773 78.5443 81.162 78.643 81.438C79.2348 83.4088 79.5349 85.4557 79.5335 87.5135C79.5446 90.052 79.1753 92.5778 78.438 95.0067C78.4734 95.1181 3.86846 84.5998 3.84316 84.6276L3.73438 84.6125V84.5137V70.4387V70.3096L3.86087 70.3273L41.0255 75.1953L78.1446 80.0938L78.1597 80.0988ZM78.1597 80.0988C59.8836 77.6407 21.6387 73.1043 3.97219 70.4437L3.98484 84.5188L3.87605 84.3922C3.87605 84.4201 78.5696 94.9207 78.3571 94.9865C78.7349 93.7811 79.0174 92.5478 79.2021 91.2981C79.7662 87.5591 79.5487 83.6353 78.1572 80.0988H78.1597Z" fill="#DBDBDB"/>
<path id="Vector_72" d="M39.9268 76.54C52.3639 78.0589 66.2936 79.9322 78.6878 81.7726C66.2506 80.2537 52.3209 78.3779 39.9268 76.54Z" fill="#DBDBDB"/>
<path id="Vector_73" d="M3.86035 75.5928C14.5215 76.8585 26.3489 78.4635 36.972 80.0608C26.3033 78.7951 14.481 77.1952 3.86035 75.5928Z" fill="#DBDBDB"/>
<path id="Vector_74" d="M5.63574 76.9824C23.7525 79.2608 44.0501 81.9998 62.1189 84.6047C44.0046 82.3264 23.707 79.5873 5.63574 76.9824Z" fill="#DBDBDB"/>
<path id="Vector_75" d="M15.4297 81.7646C34.222 84.0911 55.2785 86.8858 74.0253 89.5388C55.2355 87.2149 34.179 84.4176 15.4297 81.7646Z" fill="#DBDBDB"/>
<path id="Vector_76" d="M28.0615 84.7422C44.4504 86.7927 62.8303 89.2685 79.1812 91.643C62.7848 89.5976 44.415 87.1167 28.0615 84.7422Z" fill="#DBDBDB"/>
<path id="Vector_77" d="M13.332 84.7139C34.3304 87.3922 57.8587 90.5667 78.804 93.5513C57.8056 90.8755 34.2773 87.6985 13.332 84.7139Z" fill="#DBDBDB"/>
<path id="Vector_78" d="M80.0443 80.3417L162.067 57.5888L79.1816 53.832L0 68.5248V69.9424L80.0443 80.3417Z" fill="#8798A0"/>
<path id="Vector_79" d="M82.1465 77.841C92.3218 74.7552 102.773 71.968 113.214 69.5605C103.041 72.649 92.59 75.4311 82.1465 77.841Z" fill="#6F8088"/>
<path id="Vector_80" d="M62.4688 76.3926C65.3023 76.5394 68.2294 76.8685 71.0427 77.2102C73.8559 77.552 76.7603 77.9697 79.5179 78.5393C76.6844 78.395 73.7573 78.0634 70.9465 77.7216C68.1358 77.3799 65.2289 76.9495 62.4688 76.3926Z" fill="#6F8088"/>
<path id="Vector_81" d="M2.2002 68.8008C21.4656 70.8715 40.8853 73.3144 60.0217 76.0813C40.7411 74.0156 21.3239 71.5677 2.2002 68.8008Z" fill="#6F8088"/>
<path id="Vector_82" d="M135.782 66.8087C143.787 64.2924 151.889 61.9997 160.087 59.9307C152.086 62.447 143.984 64.7396 135.782 66.8087Z" fill="#8798A0"/>
</g>
<g id="Glasses">
<path id="Vector_83" d="M93.2503 54.3409C92.1877 54.5485 87.8008 54.7839 87.7123 53.8346C87.5756 52.4068 98.0672 42.2809 101.832 40.3772C105.412 38.5647 116.946 34.6105 119.794 34.5244L119.82 43.6175C118.208 44.0276 105.369 42.7745 102.672 44.2073C101.5 44.8301 99.9495 47.4122 96.7922 51.5132C95.6815 52.9587 93.8777 54.2168 93.2503 54.3409Z" fill="#3355B9"/>
<g id="Group" opacity="0.3">
<path id="Vector_84" d="M93.2493 54.3419C92.1867 54.5494 87.7998 54.7849 87.7113 53.8356C87.5747 52.4078 98.0663 42.2819 101.831 40.3782C105.411 38.5656 116.945 34.6115 119.793 34.5254L119.819 43.6185C118.207 44.0286 105.368 42.7755 102.671 44.2083C101.499 44.8311 99.9485 47.4132 96.7912 51.5142C95.6806 52.9597 93.8767 54.2178 93.2493 54.3419Z" fill="black"/>
</g>
<path id="Vector_85" d="M91.0716 54.3409C90.0065 54.5485 85.9283 54.7839 85.8372 53.8346C85.7031 52.4068 96.1947 42.2809 99.9567 40.3772C103.537 38.5647 116.945 34.6105 119.794 34.5244L119.819 43.6175C118.208 44.0276 103.496 42.7745 100.799 44.2073C99.6278 44.8301 97.7633 47.4122 94.611 51.5132C93.5029 52.9587 91.6991 54.2168 91.0716 54.3409Z" fill="#3355B9"/>
<g id="Group_2" opacity="0.2">
<path id="Vector_86" d="M91.0716 54.3419C90.0065 54.5494 85.9283 54.7849 85.8372 53.8356C85.7031 52.4078 96.1947 42.2819 99.9567 40.3782C103.537 38.5656 116.945 34.6115 119.794 34.5254L119.819 43.6185C118.208 44.0286 103.496 42.7755 100.799 44.2083C99.6278 44.8311 97.7633 47.4132 94.611 51.5142C93.5029 52.9597 91.6991 54.2178 91.0716 54.3419Z" fill="black"/>
</g>
<path id="Vector_87" d="M132.439 66.4064C133.355 66.7912 136.958 66.9861 137.575 66.209C138.506 65.0318 127.147 49.0151 120.473 46.109C114.231 43.413 26.1772 26.3001 24.3607 26.0166L24.2949 33.125C36.5625 35.0439 114.403 47.4532 119.218 49.5518C122.357 50.9163 126.357 58.1158 129.231 63.0902C130.392 65.1103 131.377 65.9609 132.439 66.4064Z" fill="#3355B9"/>
<g id="Group_3" opacity="0.2">
<path id="Vector_88" d="M132.438 66.4064C133.354 66.7912 136.957 66.9861 137.574 66.209C138.505 65.0318 127.146 49.0151 120.472 46.109C114.23 43.413 26.1762 26.3001 24.3597 26.0166L24.2939 33.125C36.5616 35.0439 114.402 47.4532 119.217 49.5518C122.356 50.9163 126.356 58.1158 129.23 63.0902C130.391 65.1103 131.376 65.9609 132.438 66.4064Z" fill="black"/>
</g>
<path id="Vector_89" d="M130.918 66.4064C131.833 66.7912 135.436 66.9861 136.053 66.209C136.984 65.0318 125.709 48.6278 119.037 45.7217C112.793 43.0256 26.1762 26.29 24.3597 26.0166L22.7734 33.125C35.041 35.0439 112.882 47.4532 117.696 49.5518C120.836 50.9163 124.836 58.1158 127.71 63.0902C128.871 65.1103 129.855 65.9609 130.918 66.4064Z" fill="#3355B9"/>
<g id="Group_4" opacity="0.1">
<path id="Vector_90" d="M130.918 66.4064C131.833 66.7912 135.436 66.9861 136.053 66.209C136.984 65.0318 125.709 48.6278 119.037 45.7217C112.793 43.0256 26.1762 26.29 24.3597 26.0166L22.7734 33.125C35.041 35.0439 112.882 47.4532 117.696 49.5518C120.836 50.9163 124.836 58.1158 127.71 63.0902C128.871 65.1103 129.855 65.9609 130.918 66.4064Z" fill="black"/>
</g>
<g id="Group_5" opacity="0.1">
<path id="Vector_91" d="M41.4147 29.2974L34.7509 35.0312C29.2078 34.1452 24.955 33.4744 22.7793 33.1326L24.363 26.0166C24.8564 26.0925 31.6543 27.3963 41.4147 29.2974Z" fill="black"/>
<path id="Vector_92" d="M58.4571 38.8688L54.3181 38.1879L50.4727 31.0693L56.5673 32.2743L58.4571 38.8688Z" fill="black"/>
<path id="Vector_93" d="M81.7667 37.3427L77.0864 41.9576L72.9297 41.2589L76.254 36.2188C78.1009 36.5917 79.9384 36.9664 81.7667 37.3427Z" fill="black"/>
<path id="Vector_94" d="M118.466 45.5127L116.855 49.2821C116.081 49.0644 114.914 48.791 113.414 48.4745L112.253 43.8799C115.172 44.5684 117.328 45.1279 118.466 45.5127Z" fill="black"/>
</g>
<path id="Vector_95" d="M41.0952 70.1304C31.9217 69.6874 24.9416 59.2906 25.5336 46.9572C25.8145 41.0715 27.76 35.5984 31.0084 31.5455C34.3656 27.3584 38.6994 25.1611 43.2532 25.3914C47.8071 25.6218 51.9106 28.2039 54.8479 32.6973C57.6941 37.0363 59.1058 42.6739 58.8199 48.5647C58.2582 60.2348 51.1087 69.5253 42.5651 70.1152C42.0758 70.1481 41.5851 70.1532 41.0952 70.1304ZM33.3435 33.4238C30.4872 36.9806 28.7644 41.841 28.5114 47.104C28.0054 57.7868 33.7053 66.7761 41.2344 67.1381C48.7634 67.5001 55.3083 59.1032 55.827 48.4052C56.08 43.1422 54.8378 38.1425 52.3407 34.3225C49.9348 30.6544 46.6535 28.5406 43.1014 28.371C42.7231 28.3482 42.3438 28.3482 41.9655 28.371C38.8183 28.6115 35.7925 30.3658 33.3435 33.4188V33.4238ZM25.5463 48.5241C25.0833 39.5019 26.0928 38.0894 25.6829 35.4288C25.4881 34.163 23.707 32.9479 23.707 32.9479L25.2629 26.4699C25.2629 26.4699 30.1128 26.9432 31.231 26.961C33.2196 26.9888 37.5128 25.5357 41.2521 25.4421C41.2521 25.4421 33.1234 29.0975 30.51 33.758C27.8966 38.4185 25.5463 48.5191 25.5463 48.5191V48.5241Z" fill="#3355B9"/>
<path id="Vector_96" opacity="0.1" d="M41.0952 70.1304C31.9217 69.6874 24.9416 59.2906 25.5336 46.9572C25.8145 41.0715 27.76 35.5984 31.0084 31.5455C34.3656 27.3584 38.6994 25.1611 43.2532 25.3914C47.8071 25.6218 51.9106 28.2039 54.8479 32.6973C57.6941 37.0363 59.1058 42.6739 58.8199 48.5647C58.2582 60.2348 51.1087 69.5253 42.5651 70.1152C42.0758 70.1481 41.5851 70.1532 41.0952 70.1304ZM33.3435 33.4238C30.4872 36.9806 28.7644 41.841 28.5114 47.104C28.0054 57.7868 33.7053 66.7761 41.2344 67.1381C48.7634 67.5001 55.3083 59.1032 55.827 48.4052C56.08 43.1422 54.8378 38.1425 52.3407 34.3225C49.9348 30.6544 46.6535 28.5406 43.1014 28.371C42.7231 28.3482 42.3438 28.3482 41.9655 28.371C38.8183 28.6115 35.7925 30.3658 33.3435 33.4188V33.4238ZM25.5463 48.5241C25.0833 39.5019 26.0928 38.0894 25.6829 35.4288C25.4881 34.163 23.707 32.9479 23.707 32.9479L25.2629 26.4699C25.2629 26.4699 30.1128 26.9432 31.231 26.961C33.2196 26.9888 37.5128 25.5357 41.2521 25.4421C41.2521 25.4421 33.1234 29.0975 30.51 33.758C27.8966 38.4185 25.5463 48.5191 25.5463 48.5191V48.5241Z" fill="black"/>
<path id="Vector_97" d="M39.8487 70.1304C30.6727 69.6874 23.6926 59.2906 24.2846 46.9572C24.5654 41.0715 26.5109 35.5984 29.7594 31.5455C33.1166 27.3584 37.4503 25.1611 42.0042 25.3914C46.5581 25.6218 50.6616 28.2039 53.5989 32.6973C56.445 37.0363 57.8567 42.6739 57.5708 48.5647C57.0092 60.2348 49.8596 69.5253 41.3161 70.1152C40.8276 70.1481 40.3377 70.1532 39.8487 70.1304ZM32.0945 33.4238C29.2382 36.9856 27.5254 41.8461 27.2725 47.1091C26.7665 57.7919 32.4639 66.7812 39.9929 67.1432C47.522 67.5052 54.0669 59.1083 54.5855 48.4102C54.8385 43.1473 53.5963 38.1476 51.0993 34.3276C48.6959 30.6595 45.412 28.5457 41.86 28.3761C41.4817 28.3533 41.1024 28.3533 40.7241 28.3761C37.5718 28.6115 34.5435 30.3658 32.0945 33.4188V33.4238ZM24.2973 48.5241C23.8343 39.5019 24.8437 38.0894 24.4339 35.4288C24.2391 34.163 22.458 32.9479 22.458 32.9479L24.0847 25.7281C24.0847 25.7281 29.0156 26.6015 30.1313 26.6167C32.1198 26.6471 36.2638 25.5357 39.998 25.4522C39.998 25.4522 31.8693 29.1077 29.2559 33.7681C26.6425 38.4286 24.2973 48.5191 24.2973 48.5191V48.5241Z" fill="#3355B9"/>
<path id="Vector_98" d="M28.9473 29.0327C28.8891 29.481 28.0568 29.7393 27.0878 29.6101C26.1189 29.481 25.3852 29.0124 25.4459 28.5666C25.5066 28.1208 26.3364 27.86 27.3054 27.9891C28.2744 28.1183 29.0181 28.5843 28.9473 29.0327Z" fill="#A6A6A6"/>
<path id="Vector_99" d="M25.8711 28.5806C25.9495 28.3653 26.792 28.1222 27.7129 28.3704L25.8711 28.5806Z" fill="white"/>
<path id="Vector_100" d="M23.7043 33.0059C25.455 33.9881 26.2038 35.4361 26.0065 37.441C25.8117 40.9193 25.4196 44.3646 25.4145 47.8429C25.3906 49.5788 25.5023 51.3139 25.7485 53.0324C24.6277 48.7947 24.9617 44.3267 25.3563 40.0105L25.6093 37.4182C25.8825 35.4791 25.2703 34.1526 23.6992 33.0059H23.7043Z" fill="white"/>
<path id="Vector_101" d="M32.8486 27.0351C35.2774 26.3411 37.7997 25.7687 40.3397 25.8827C37.8098 26.1081 35.3533 26.6755 32.8486 27.0351Z" fill="white"/>
<path id="Vector_102" opacity="0.1" d="M32.8457 33.6031C30.0855 37.1472 28.431 41.9772 28.183 47.2123C27.6897 57.8446 33.2049 66.7756 40.481 67.1376C47.7571 67.4996 54.0844 59.1457 54.5853 48.5186C54.8383 43.286 53.6315 38.3116 51.218 34.5144C48.893 30.864 45.7205 28.7629 42.2848 28.5933C41.9192 28.5705 41.5525 28.5705 41.1868 28.5933C38.1383 28.8211 35.2137 30.5628 32.8457 33.6031Z" fill="#EBEBEB"/>
<g id="Group_6" opacity="0.2">
<path id="Vector_103" d="M46.808 30.0205L28.1625 49.2168C28.1448 48.5535 28.1625 47.8877 28.1853 47.2093C28.2735 45.2287 28.5772 43.2637 29.091 41.3489L41.4876 28.5928C41.7406 28.5928 42.0214 28.5928 42.2896 28.5928C43.8912 28.684 45.4445 29.1748 46.808 30.0205Z" fill="white"/>
<path id="Vector_104" d="M53.305 38.9469L31.5906 61.3024C31.1913 60.6826 30.8297 60.0393 30.5078 59.3759L52.4448 36.79C52.7721 37.4921 53.0593 38.2122 53.305 38.9469Z" fill="white"/>
<path id="Vector_105" d="M54.1505 52.3018C53.8853 53.7439 53.4977 55.1607 52.9918 56.5369L42.8848 66.9413C42.0957 67.1117 41.2876 67.1773 40.4813 67.1363C40.2536 67.1236 40.0259 67.1059 39.8008 67.0755L54.1505 52.3018Z" fill="white"/>
<path id="Vector_106" d="M54.19 42.387L33.4826 63.7046C33.3839 63.6084 33.2903 63.5071 33.1992 63.4034L54.0939 41.8857C54.1318 42.0528 54.1597 42.2224 54.19 42.387Z" fill="white"/>
</g>
<path id="Vector_107" d="M69.6792 49.1168L71.7032 46.9169C68.4497 43.9045 60.7916 39.6971 55.0537 45.2791L57.1384 47.4258C62.2792 42.416 69.3782 48.8434 69.6792 49.1168Z" fill="#3355B9"/>
<path id="Vector_108" d="M89.0431 72.8691C83.2025 71.7961 78.0263 68.4475 74.6513 63.5586C71.2762 58.6698 69.9784 52.6404 71.0427 46.7948C71.8398 42.4358 73.9108 38.4113 76.9938 35.2301C80.0767 32.0488 84.0332 29.8537 88.3629 28.9224C92.6925 27.991 97.201 28.3652 101.318 29.9976C105.435 31.63 108.976 34.4473 111.493 38.0933C114.01 41.7393 115.39 46.0503 115.459 50.4811C115.528 54.9119 114.282 59.2635 111.879 62.9858C109.476 66.708 106.024 69.6337 101.959 71.3929C97.8942 73.1521 93.3995 73.6658 89.0431 72.8691ZM73.9875 47.3416C73.2668 51.3144 73.8042 55.4132 75.5245 59.0656C77.2449 62.718 80.0623 65.7416 83.5833 67.7141C87.1043 69.6865 91.153 70.5094 95.164 70.0677C99.1751 69.626 102.948 67.9418 105.956 65.2504C108.964 62.5589 111.057 58.9947 111.942 55.0553C112.828 51.116 112.461 46.9983 110.895 43.2774C109.328 39.5565 106.639 36.4181 103.203 34.3007C99.7668 32.1833 95.7558 31.1924 91.7299 31.4666C87.4312 31.7673 83.3546 33.4904 80.1424 36.3646C76.9302 39.2387 74.7648 43.1005 73.9875 47.3416Z" fill="#3355B9"/>
<path id="Vector_109" d="M113.011 41.2559C111.471 36.1373 102.497 30.5098 102.497 30.5098C106.13 31.4034 110.137 33.221 112.085 33.626C113.178 33.8513 119.807 34.5298 119.807 34.5298L119.832 43.6229C119.832 43.6229 118.011 43.7241 117.555 44.9164C116.579 47.4251 117.072 48.0327 114.663 56.7359C114.641 56.7359 114.529 46.372 113.011 41.2559Z" fill="#3355B9"/>
<g id="Group_7" opacity="0.1">
<path id="Vector_110" d="M89.0421 72.87C83.2015 71.7971 78.0253 68.4484 74.6503 63.5596C71.2753 58.6707 69.9774 52.6414 71.0417 46.7958C71.8389 42.4368 73.9099 38.4123 76.9928 35.231C80.0758 32.0498 84.0322 29.8547 88.3619 28.9233C92.6916 27.992 97.2 28.3662 101.317 29.9986C105.434 31.631 108.975 34.4483 111.492 38.0943C114.009 41.7403 115.389 46.0513 115.458 50.4821C115.527 54.9128 114.281 59.2645 111.878 62.9867C109.475 66.709 106.023 69.6347 101.958 71.3939C97.8932 73.1531 93.3985 73.6668 89.0421 72.87ZM73.9865 47.3426C73.2658 51.3154 73.8032 55.4142 75.5235 59.0666C77.2439 62.719 80.0613 65.7426 83.5823 67.715C87.1033 69.6875 91.152 70.5103 95.163 70.0687C99.1741 69.627 102.947 67.9428 105.955 65.2514C108.963 62.5599 111.056 58.9956 111.941 55.0563C112.827 51.117 112.46 46.9993 110.894 43.2784C109.327 39.5575 106.638 36.4191 103.202 34.3017C99.7658 32.1842 95.7548 31.1934 91.7289 31.4676C87.4302 31.7683 83.3537 33.4914 80.1414 36.3655C76.9292 39.2397 74.7639 43.1015 73.9865 47.3426Z" fill="black"/>
<path id="Vector_111" d="M113.01 41.2569C111.47 36.1382 102.496 30.5107 102.496 30.5107C106.129 31.4044 110.136 33.222 112.085 33.627C113.177 33.8523 119.806 34.5307 119.806 34.5307L119.831 43.6238C119.831 43.6238 118.01 43.7251 117.554 44.9174C116.578 47.4261 117.071 48.0337 114.663 56.7369C114.64 56.7369 114.528 46.373 113.01 41.2569Z" fill="black"/>
</g>
<path id="Vector_112" d="M87.0518 72.5433C81.2159 71.4701 76.0436 68.1248 72.6692 63.2411C69.2948 58.3575 67.9937 52.334 69.0514 46.4918C69.8434 42.128 71.9113 38.0974 74.9935 34.91C78.0756 31.7226 82.0335 29.5217 86.3661 28.5858C90.6988 27.6499 95.2115 28.0211 99.3333 29.6525C103.455 31.2838 107 34.1019 109.521 37.7502C112.042 41.3984 113.424 45.7129 113.493 50.1475C113.562 54.5822 112.315 58.9377 109.91 62.6629C107.504 66.3881 104.048 69.3156 99.9793 71.0748C95.9105 72.834 91.4115 73.346 87.0518 72.5459V72.5433ZM71.9962 47.0285C71.2723 51.0045 71.8079 55.1074 73.5281 58.7639C75.2482 62.4205 78.067 65.4479 81.5906 67.4233C85.1142 69.3987 89.1664 70.2233 93.1812 69.7819C97.1959 69.3404 100.973 67.655 103.983 64.9612C106.994 62.2673 109.089 58.6996 109.974 54.7565C110.86 50.8135 110.492 46.6921 108.923 42.9683C107.353 39.2445 104.661 36.1043 101.221 33.9865C97.7807 31.8687 93.7655 30.8792 89.736 31.1561C85.4382 31.4572 81.3625 33.1802 78.1508 36.0538C74.9391 38.9273 72.7739 42.7883 71.9962 47.0285Z" fill="#3355B9"/>
<path id="Vector_113" d="M111.009 40.9424C109.468 35.8238 100.494 30.1963 100.494 30.1963C104.127 31.0899 108.135 32.9075 110.083 33.3125C111.175 33.5379 117.804 34.2163 117.804 34.2163L117.829 42.5423C117.829 42.5423 116.008 43.0942 115.552 44.284C114.573 46.7927 115.067 47.7192 112.658 56.4351C112.65 56.4149 112.549 46.0586 111.009 40.9424Z" fill="#3355B9"/>
<path id="Vector_114" d="M114.964 37.9557C114.904 38.404 114.071 38.6623 113.105 38.5332C112.139 38.404 111.4 37.938 111.461 37.4897C111.521 37.0414 112.354 36.783 113.32 36.9122C114.286 37.0414 115.035 37.5099 114.964 37.9557Z" fill="#A6A6A6"/>
<path id="Vector_115" d="M111.885 37.5075C111.963 37.2922 112.806 37.0465 113.727 37.2973L111.885 37.5075Z" fill="white"/>
<path id="Vector_116" d="M80.8389 31.8271C82.7572 30.3652 85.1066 29.5825 87.5179 29.6019C85.2409 30.2702 83.05 30.9942 80.8389 31.8271Z" fill="white"/>
<path id="Vector_117" d="M71.3643 42.9975C72.4977 38.4687 76.2824 34.0994 80.4492 32.0615C76.5481 34.8462 73.2769 38.5826 71.3643 42.9975Z" fill="white"/>
<path id="Vector_118" opacity="0.1" d="M72.9195 47.0285C71.0473 57.5519 77.8731 67.6778 88.1395 69.5992C98.4059 71.5206 108.278 64.5185 110.15 53.9977C112.022 43.4768 105.194 33.3458 94.9273 31.427C93.3835 31.1362 91.8088 31.0452 90.2419 31.1561C81.8096 31.751 74.5032 38.1303 72.9195 47.0285Z" fill="#EBEBEB"/>
<g id="Group_8" opacity="0.2">
<path id="Vector_119" d="M110.442 51.406L92.4062 69.8858C90.9776 69.9517 89.5462 69.8515 88.1408 69.5871C87.5324 69.4742 86.9303 69.3297 86.3369 69.1542L109.724 45.1836C110.295 47.2057 110.538 49.3067 110.442 51.406Z" fill="white"/>
<path id="Vector_120" d="M93.9619 31.2715L72.7687 53.0018C72.5178 51.0141 72.569 48.9998 72.9205 47.0275C73.0065 46.5364 73.1153 46.0478 73.2367 45.5693L86.701 31.755C87.8592 31.4398 89.0455 31.2389 90.2429 31.1551C91.4832 31.0657 92.7295 31.1047 93.9619 31.2715Z" fill="white"/>
<path id="Vector_121" d="M107.368 39.9064L81.1856 66.7402C80.5876 66.342 80.0139 65.9084 79.4678 65.4415L106.105 38.1445C106.56 38.7068 106.982 39.2951 107.368 39.9064Z" fill="white"/>
<path id="Vector_122" d="M99.1755 32.7582L74.2254 58.3262C73.9119 57.5991 73.6432 56.8535 73.4209 56.0935L96.9973 31.9229C97.74 32.1558 98.4675 32.4348 99.1755 32.7582Z" fill="white"/>
<path id="Vector_123" d="M110.199 53.7285C110.186 53.8171 110.169 53.9083 110.153 53.9969C110.128 54.1538 110.098 54.3108 110.065 54.4626L95.3913 69.5098C95.1561 69.5604 94.9157 69.606 94.6729 69.6465L110.199 53.7285Z" fill="white"/>
<path id="Vector_124" d="M104.615 36.4991L77.8687 63.9202C77.7726 63.8189 77.679 63.7151 77.5879 63.6113L104.317 36.208L104.615 36.4991Z" fill="white"/>
</g>
</g>
</g>
</svg>
