<svg width="24" height="24" viewBox="0 0 24 24" fill="none" xmlns="http://www.w3.org/2000/svg">
<g id="devicon:google" clip-path="url(#clip0_1_1702)">
<path id="Vector" d="M8.36104 0.789371C5.96307 1.62125 3.89506 3.20018 2.46077 5.29425C1.02649 7.38832 0.301526 9.88714 0.392371 12.4237C0.483217 14.9602 1.38508 17.4008 2.9655 19.3869C4.54591 21.373 6.72158 22.7999 9.17292 23.4581C11.1603 23.9709 13.2424 23.9934 15.2404 23.5237C17.0504 23.1172 18.7238 22.2476 20.0967 21C21.5256 19.6619 22.5627 17.9596 23.0967 16.0762C23.6768 14.0281 23.7801 11.8743 23.3985 9.78H12.2385V14.4094H18.7017C18.5725 15.1477 18.2957 15.8524 17.8878 16.4813C17.48 17.1102 16.9494 17.6503 16.3279 18.0694C15.5388 18.5916 14.6491 18.9429 13.716 19.1006C12.7803 19.2747 11.8205 19.2747 10.8848 19.1006C9.93633 18.9047 9.03912 18.5133 8.25042 17.9512C6.9832 17.0542 6.03168 15.7799 5.53167 14.31C5.02333 12.8126 5.02333 11.1893 5.53167 9.69187C5.88759 8.64228 6.47598 7.68663 7.25292 6.89625C8.14203 5.97515 9.26766 5.31674 10.5063 4.99326C11.745 4.66979 13.0488 4.69374 14.2748 5.0625C15.2325 5.35635 16.1083 5.87002 16.8323 6.5625C17.561 5.8375 18.2885 5.11062 19.0148 4.38187C19.3898 3.99 19.7985 3.61687 20.1679 3.21562C19.0627 2.18722 17.7654 1.38694 16.3504 0.860621C13.7736 -0.0750226 10.9541 -0.100167 8.36104 0.789371Z" fill="white"/>
<path id="Vector_2" d="M8.3607 0.789367C10.9536 -0.100776 13.7731 -0.0762933 16.3501 0.858742C17.7653 1.38864 19.062 2.19277 20.1657 3.22499C19.7907 3.62624 19.3951 4.00124 19.0126 4.39124C18.2851 5.11749 17.5582 5.84124 16.832 6.56249C16.108 5.87001 15.2322 5.35635 14.2745 5.06249C13.0489 4.69244 11.7451 4.66711 10.5061 4.98926C9.26712 5.31141 8.14079 5.96861 7.2507 6.88874C6.47377 7.67912 5.88538 8.63477 5.52945 9.68437L1.64258 6.67499C3.03384 3.91604 5.44273 1.80566 8.3607 0.789367Z" fill="#E33629"/>
<path id="Vector_3" d="M0.611401 9.65624C0.820163 8.62081 1.16701 7.6181 1.64265 6.67499L5.52953 9.69186C5.02119 11.1893 5.02119 12.8126 5.52953 14.31C4.23453 15.31 2.9389 16.315 1.64265 17.325C0.452308 14.9556 0.0892746 12.2559 0.611401 9.65624Z" fill="#F8BD00"/>
<path id="Vector_4" d="M12.2381 9.77814H23.3981C23.7797 11.8724 23.6764 14.0262 23.0963 16.0744C22.5623 17.9578 21.5252 19.66 20.0963 20.9981C18.8419 20.0194 17.5819 19.0481 16.3275 18.0694C16.9494 17.6499 17.4802 17.1092 17.8881 16.4796C18.296 15.8501 18.5726 15.1447 18.7013 14.4056H12.2381C12.2363 12.8644 12.2381 11.3213 12.2381 9.77814Z" fill="#587DBD"/>
<path id="Vector_5" d="M1.64062 17.325C2.93687 16.325 4.2325 15.32 5.5275 14.31C6.02851 15.7804 6.98138 17.0548 8.25 17.9512C9.04116 18.5107 9.9403 18.899 10.89 19.0912C11.8257 19.2653 12.7855 19.2653 13.7212 19.0912C14.6543 18.9335 15.544 18.5823 16.3331 18.06C17.5875 19.0387 18.8475 20.01 20.1019 20.9887C18.7292 22.237 17.0558 23.1073 15.2456 23.5144C13.2476 23.9841 11.1655 23.9615 9.17812 23.4487C7.60632 23.0291 6.13814 22.2892 4.86562 21.2756C3.51886 20.2062 2.41882 18.8586 1.64062 17.325Z" fill="#319F43"/>
</g>
<defs>
<clipPath id="clip0_1_1702">
<rect width="24" height="24" fill="white"/>
</clipPath>
</defs>
</svg>
