<svg width="97" height="174" viewBox="0 0 97 174" fill="none" xmlns="http://www.w3.org/2000/svg">
<g id="Device">
<path id="Vector" d="M90.7061 0.62915H6.18744C2.91044 0.62915 0.253906 3.28569 0.253906 6.56269V168.058C0.253906 171.335 2.91044 173.991 6.18744 173.991H90.7061C93.9831 173.991 96.6396 171.335 96.6396 168.058V6.56269C96.6396 3.28569 93.9831 0.62915 90.7061 0.62915Z" fill="#263238"/>
<path id="Vector_2" opacity="0.2" d="M90.7061 0.62915H6.18744C2.91044 0.62915 0.253906 3.28569 0.253906 6.56269V168.058C0.253906 171.335 2.91044 173.991 6.18744 173.991H90.7061C93.9831 173.991 96.6396 171.335 96.6396 168.058V6.56269C96.6396 3.28569 93.9831 0.62915 90.7061 0.62915Z" fill="white"/>
<path id="Vector_3" d="M93.3823 6.43715V167.864C93.3823 168.177 93.3201 168.487 93.1993 168.775C93.0784 169.064 92.9014 169.326 92.6784 169.546C92.4555 169.766 92.191 169.939 91.9005 170.056C91.6099 170.172 91.2991 170.23 90.9861 170.226H5.64585C5.3616 170.229 5.07962 170.175 4.81675 170.066C4.55387 169.958 4.31549 169.798 4.11581 169.596C3.91614 169.393 3.75926 169.153 3.65455 168.889C3.54984 168.624 3.49945 168.342 3.50636 168.058V6.24318C3.49645 5.99149 3.53653 5.74034 3.62429 5.50425C3.71205 5.26815 3.84575 5.0518 4.01764 4.8677C4.18954 4.6836 4.39623 4.5354 4.62576 4.43168C4.85529 4.32796 5.10311 4.27077 5.35488 4.26343H26.6928C26.9903 4.26938 27.2794 4.36369 27.5232 4.53437C27.7671 4.70504 27.9546 4.94437 28.0621 5.22192L28.9464 7.39565C29.0551 7.67302 29.2439 7.91175 29.4888 8.08143C29.7337 8.25111 30.0235 8.34406 30.3214 8.34844H66.63C66.9259 8.34545 67.2144 8.25502 67.459 8.08853C67.7037 7.92204 67.8936 7.68693 68.005 7.41276L68.8836 5.22763C68.9925 4.94942 69.181 4.70953 69.4256 4.53801C69.6702 4.36649 69.96 4.27097 70.2586 4.26343H91.2884C91.8529 4.27837 92.3889 4.5147 92.7806 4.92139C93.1724 5.32808 93.3885 5.87251 93.3823 6.43715Z" fill="#69BAF8"/>
<path id="Vector_4" opacity="0.7" d="M93.3818 14.3505H3.50586V159.408H93.3818V14.3505Z" fill="white"/>
<path id="Vector_5" opacity="0.6" d="M13.405 10.7675H14.5176V9.28978H13.405V10.7675Z" fill="white"/>
<path id="Vector_6" opacity="0.6" d="M11.5964 10.7675H12.709V8.79342H11.5964V10.7675Z" fill="white"/>
<path id="Vector_7" opacity="0.6" d="M9.78785 10.7675H10.9004V8.30276H9.78785V10.7675Z" fill="white"/>
<path id="Vector_8" opacity="0.6" d="M7.97926 10.7675H9.0918V7.80639H7.97926V10.7675Z" fill="white"/>
<path id="Vector_9" opacity="0.6" d="M83.2089 8.7478H82.5527V10.2255H83.2089V8.7478Z" fill="white"/>
<path id="Vector_10" opacity="0.6" d="M83.6601 10.7675H88.9033V8.20577H83.6601V10.7675Z" fill="white"/>
<path id="Vector_11" opacity="0.6" d="M48.4292 4.47455C48.4304 4.7199 48.3586 4.96005 48.223 5.16452C48.0873 5.36899 47.894 5.52855 47.6676 5.62296C47.4411 5.71738 47.1917 5.74237 46.951 5.69479C46.7104 5.6472 46.4892 5.52917 46.3157 5.35568C46.1423 5.18219 46.0242 4.96107 45.9766 4.72038C45.929 4.47969 45.954 4.23029 46.0485 4.00383C46.1429 3.77737 46.3024 3.58408 46.5069 3.44847C46.7114 3.31287 46.9515 3.24107 47.1969 3.2422C47.5237 3.2422 47.8372 3.37204 48.0683 3.60315C48.2994 3.83426 48.4292 4.14771 48.4292 4.47455Z" fill="white"/>
<path id="Vector_12" opacity="0.6" d="M50.923 4.47446C50.923 4.63155 50.8763 4.7851 50.7889 4.91563C50.7015 5.04617 50.5774 5.14781 50.4321 5.20766C50.2869 5.26751 50.1271 5.28288 49.9731 5.25181C49.8191 5.22075 49.6778 5.14465 49.5672 5.03317C49.4565 4.92169 49.3814 4.77985 49.3515 4.62564C49.3215 4.47143 49.338 4.31181 49.3989 4.167C49.4598 4.02219 49.5624 3.89873 49.6935 3.81228C49.8247 3.72583 49.9786 3.68029 50.1357 3.68142C50.2395 3.68141 50.3424 3.70196 50.4383 3.74189C50.5342 3.78181 50.6212 3.84032 50.6944 3.91403C50.7676 3.98775 50.8255 4.07522 50.8647 4.1714C50.9039 4.26759 50.9237 4.37058 50.923 4.47446Z" fill="white"/>
<path id="Vector_13" d="M74.9876 135.594H10.392C9.28283 135.594 8.21912 135.154 7.43484 134.369C6.65056 133.585 6.20996 132.521 6.20996 131.412C6.20996 130.303 6.65038 129.238 7.4345 128.453C8.21861 127.668 9.2823 127.226 10.392 127.224H74.9876C76.0973 127.226 77.161 127.668 77.9451 128.453C78.7292 129.238 79.1696 130.303 79.1696 131.412C79.1696 131.961 79.0615 132.505 78.8513 133.013C78.6411 133.52 78.3331 133.981 77.9447 134.369C77.5564 134.758 77.0954 135.066 76.588 135.276C76.0806 135.486 75.5368 135.594 74.9876 135.594Z" fill="white"/>
<path id="Vector_14" d="M90.9625 32.5333H5.77637V123.254H90.9625V32.5333Z" fill="#6EDF72"/>
<path id="Vector_15" opacity="0.4" d="M90.9625 32.5333H5.77637V123.254H90.9625V32.5333Z" fill="white"/>
<path id="Vector_16" d="M90.9341 33.0696L90.2609 32.5333H83.6712L88.0586 36.373L65.0605 40.1728L59.5548 32.5333H55.5155L60.9584 40.8574L40.539 44.2349L38.4451 37.8792L47.0031 36.6012C47.8418 36.4757 48.3154 35.9793 48.0757 35.5001L46.598 32.5333H43.5685L44.7096 35.0665L37.8632 36.0592L36.7221 32.5333H19.6062L21.6144 33.6344C22.004 33.8169 22.441 33.8727 22.8639 33.7942L30.161 32.8129L32.8539 45.5072L5.81641 49.9859V56.0906L9.83866 55.3717L5.81641 95.5657V123.259H6.74067L9.0228 119.374L46.0047 107.501L49.2853 123.259H66.3328L51.2022 77.0463L79.8601 69.8747L90.9341 86.7909V75.9508L85.4969 68.4369L90.9341 67.0791V62.5148L82.6614 64.4831L68.4666 44.8796L78.0344 43.168L90.9341 57.8193V53.1524L81.081 42.6146L90.9341 40.8574V33.0696ZM11.459 109.584L14.0663 54.6129L33.9893 51.0471L44.3102 99.6907L11.459 109.584ZM77.2413 65.7782L49.7189 72.3222L42.2734 49.5694L64.0963 45.6613L77.2413 65.7782Z" fill="#61ABEE"/>
<path id="Vector_17" d="M50.9231 100.278L60.6051 111.29L54.1352 109.886L49.3428 114.616L50.9231 100.278Z" fill="white"/>
<path id="Vector_18" d="M49.3428 114.616L49.9304 116.071L54.9739 111.854L60.6051 112.933V111.29L54.1352 109.886L49.3428 114.616Z" fill="#8597C5"/>
<path id="Vector_19" d="M66.4527 39.0202C66.275 38.795 66.0517 38.6101 65.7974 38.4775C65.5431 38.3449 65.2636 38.2676 64.9773 38.2508C64.691 38.234 64.4044 38.278 64.1363 38.3799C63.8683 38.4819 63.6248 38.6394 63.422 38.8422C63.2193 39.045 63.0617 39.2884 62.9598 39.5565C62.8578 39.8246 62.8138 40.1112 62.8306 40.3975C62.8475 40.6838 62.9247 40.9633 63.0573 41.2175C63.1899 41.4718 63.3749 41.6952 63.6 41.8728L65.0377 43.3106L66.4755 41.8728C66.846 41.4891 67.0512 40.9753 67.0469 40.4418C67.0426 39.9084 66.8293 39.398 66.4527 39.0202ZM65.0149 41.2624C64.8558 41.2624 64.7003 41.2152 64.568 41.1268C64.4357 41.0384 64.3326 40.9128 64.2717 40.7658C64.2108 40.6188 64.1949 40.457 64.2259 40.301C64.257 40.1449 64.3336 40.0016 64.4461 39.8891C64.5586 39.7766 64.7019 39.7 64.858 39.6689C65.014 39.6379 65.1758 39.6538 65.3228 39.7147C65.4698 39.7756 65.5954 39.8787 65.6838 40.011C65.7722 40.1433 65.8194 40.2988 65.8194 40.4579C65.8194 40.6713 65.7346 40.8759 65.5838 41.0267C65.4329 41.1776 65.2283 41.2624 65.0149 41.2624Z" fill="white"/>
<path id="Vector_20" opacity="0.5" d="M52.7713 97.7394L38.508 47.3899C38.4902 47.3283 38.4858 47.2637 38.495 47.2002C38.5042 47.1368 38.5269 47.076 38.5614 47.022C38.596 46.968 38.6417 46.922 38.6954 46.8871C38.7492 46.8521 38.8098 46.8291 38.8732 46.8194L62.6872 43.0425L62.1166 42.3236L36.9448 46.4029C36.8181 46.4246 36.6972 46.4717 36.5893 46.5416C36.4815 46.6115 36.389 46.7026 36.3175 46.8093C36.246 46.916 36.1969 47.0362 36.1733 47.1625C36.1497 47.2888 36.1521 47.4186 36.1802 47.544L48.8232 98.715L52.7713 97.7394Z" fill="white"/>
<path id="Vector_21" d="M87.3858 50.9672H84.3164C83.6767 50.9672 83.1582 51.4857 83.1582 52.1253V110.434C83.1582 111.073 83.6767 111.592 84.3164 111.592H87.3858C88.0255 111.592 88.544 111.073 88.544 110.434V52.1253C88.544 51.4857 88.0255 50.9672 87.3858 50.9672Z" fill="white"/>
<path id="Vector_22" opacity="0.2" d="M85.8508 108.796C85.6995 108.796 85.5544 108.736 85.4474 108.629C85.3404 108.522 85.2803 108.377 85.2803 108.226V54.3276C85.2803 54.1763 85.3404 54.0312 85.4474 53.9242C85.5544 53.8172 85.6995 53.7571 85.8508 53.7571C86.0021 53.7571 86.1472 53.8172 86.2542 53.9242C86.3612 54.0312 86.4213 54.1763 86.4213 54.3276V108.243C86.4169 108.391 86.3548 108.532 86.2483 108.635C86.1418 108.739 85.9992 108.796 85.8508 108.796Z" fill="black"/>
<path id="Vector_23" d="M87.2256 65.938C87.2256 66.2099 87.1449 66.4758 86.9938 66.7019C86.8427 66.928 86.628 67.1042 86.3768 67.2083C86.1255 67.3124 85.849 67.3396 85.5823 67.2865C85.3156 67.2335 85.0706 67.1025 84.8783 66.9102C84.686 66.7179 84.5551 66.4729 84.502 66.2062C84.449 65.9395 84.4762 65.663 84.5803 65.4118C84.6843 65.1605 84.8606 64.9458 85.0867 64.7947C85.3128 64.6436 85.5786 64.563 85.8506 64.563C86.2152 64.563 86.565 64.7079 86.8228 64.9657C87.0807 65.2236 87.2256 65.5733 87.2256 65.938Z" fill="#69BAF8"/>
<path id="Vector_24" d="M88.3214 47.1218C88.3225 47.612 88.1781 48.0915 87.9064 48.4996C87.6348 48.9076 87.2481 49.2259 86.7954 49.414C86.3428 49.6021 85.8444 49.6517 85.3636 49.5563C84.8827 49.4609 84.441 49.225 84.0944 48.8784C83.7477 48.5317 83.5118 48.09 83.4164 47.6091C83.3211 47.1283 83.3706 46.63 83.5587 46.1773C83.7468 45.7246 84.0651 45.3379 84.4732 45.0663C84.8812 44.7947 85.3607 44.6502 85.8509 44.6514C86.1754 44.6514 86.4966 44.7153 86.7963 44.8394C87.0961 44.9636 87.3684 45.1455 87.5978 45.3749C87.8272 45.6043 88.0092 45.8767 88.1333 46.1764C88.2575 46.4761 88.3214 46.7974 88.3214 47.1218Z" fill="white"/>
<path id="Vector_25" opacity="0.2" d="M86.1135 45.3816H85.5771V48.8618H86.1135V45.3816Z" fill="black"/>
<path id="Vector_26" opacity="0.2" d="M87.5908 47.3842V46.8479H84.1106V47.3842H87.5908Z" fill="black"/>
<path id="Vector_27" d="M88.3214 115.449C88.3225 115.939 88.1781 116.418 87.9064 116.827C87.6348 117.235 87.2481 117.553 86.7954 117.741C86.3428 117.929 85.8444 117.979 85.3636 117.883C84.8827 117.788 84.441 117.552 84.0944 117.205C83.7477 116.859 83.5118 116.417 83.4164 115.936C83.3211 115.455 83.3706 114.957 83.5587 114.504C83.7468 114.052 84.0651 113.665 84.4732 113.393C84.8812 113.122 85.3607 112.977 85.8509 112.978C86.5061 112.978 87.1345 113.239 87.5978 113.702C88.0611 114.165 88.3214 114.794 88.3214 115.449Z" fill="white"/>
<path id="Vector_28" opacity="0.2" d="M87.5908 115.717V115.181H84.1106V115.717H87.5908Z" fill="black"/>
<path id="Vector_29" d="M90.9625 17.0433H5.77637V30.0344H90.9625V17.0433Z" fill="#263238"/>
<path id="Vector_30" d="M85.6967 135.594C88.0063 135.594 89.8786 133.722 89.8786 131.412C89.8786 129.103 88.0063 127.23 85.6967 127.23C83.387 127.23 81.5146 129.103 81.5146 131.412C81.5146 133.722 83.387 135.594 85.6967 135.594Z" fill="#69BAF8"/>
<path id="Vector_31" opacity="0.2" d="M89.6845 139.668H7.05436C6.34855 139.668 5.77637 140.24 5.77637 140.946V155.694C5.77637 156.4 6.34855 156.972 7.05436 156.972H89.6845C90.3904 156.972 90.9625 156.4 90.9625 155.694V140.946C90.9625 140.24 90.3904 139.668 89.6845 139.668Z" fill="black"/>
<path id="Vector_32" opacity="0.3" d="M16.9248 23.3648L12.3891 19.799L7.84766 23.3648H9.69618V26.052H15.0763V23.3648H16.9248Z" fill="white"/>
<g id="Group" opacity="0.3">
<path id="Vector_33" d="M88.0877 20.6833H82.3652V21.6476H88.0877V20.6833Z" fill="white"/>
<path id="Vector_34" d="M88.0877 22.4463H82.3652V23.4105H88.0877V22.4463Z" fill="white"/>
<path id="Vector_35" d="M88.0877 24.2092H82.3652V25.1734H88.0877V24.2092Z" fill="white"/>
</g>
<path id="Vector_36" d="M26.3386 101.185H9.06289C8.39173 101.185 7.84766 101.73 7.84766 102.401V119.676C7.84766 120.348 8.39173 120.892 9.06289 120.892H26.3386C27.0098 120.892 27.5538 120.348 27.5538 119.676V102.401C27.5538 101.73 27.0098 101.185 26.3386 101.185Z" fill="#263238"/>
<path id="Vector_37" d="M24.2509 107.096L20.1316 104.243V106.526H13.7702C13.3162 106.526 12.8809 106.706 12.5599 107.027C12.2389 107.348 12.0586 107.783 12.0586 108.237V116.955H13.1483V108.271C13.1483 108.189 13.1645 108.107 13.1961 108.031C13.2276 107.955 13.2739 107.886 13.3321 107.828C13.3904 107.769 13.4596 107.723 13.5357 107.692C13.6119 107.66 13.6935 107.644 13.7759 107.644H20.1316V109.926L24.2509 107.096Z" fill="white"/>
</g>
</svg>
