<svg width="48" height="11" viewBox="0 0 48 11" fill="none" xmlns="http://www.w3.org/2000/svg">
<g id="EVER">
<path d="M10.3292 10.5471H0.292236V0.841797H10.3292V2.22924H1.67968V9.15969H10.3292V10.5471ZM9.15157 6.39157H2.37002V5.00413H9.15157V6.39157Z" fill="#3355B9"/>
<path d="M22.8839 0.841797L17.7808 10.5471H16.1971L11.1008 0.841797H12.6777L16.9889 9.05141L21.3002 0.841797H22.8839Z" fill="#3355B9"/>
<path d="M34.288 10.5471H24.251V0.841797H34.288V2.22924H25.6385V9.15969H34.288V10.5471ZM33.1104 6.39157H26.3288V5.00413H33.1104V6.39157Z" fill="#3355B9"/>
<path d="M47.2149 10.5471H45.3402L42.4299 7.77225H38.1796V6.40511H43.7497C44.0385 6.40511 44.3092 6.35097 44.5618 6.24268C44.8145 6.12988 45.0334 5.97872 45.2183 5.78922C45.4079 5.59972 45.5568 5.37863 45.665 5.12595C45.7733 4.86877 45.8275 4.59579 45.8275 4.30702C45.8275 4.01825 45.7733 3.74753 45.665 3.49486C45.5568 3.24219 45.4079 3.02336 45.2183 2.83836C45.0334 2.64886 44.8145 2.49996 44.5618 2.39167C44.3092 2.28339 44.0385 2.22924 43.7497 2.22924H37.4013V10.5471H36.0138V0.841797H43.7497C44.228 0.841797 44.6769 0.934293 45.0965 1.11929C45.5161 1.29977 45.8816 1.54793 46.1929 1.86377C46.5088 2.1751 46.7569 2.54057 46.9374 2.96019C47.1224 3.3798 47.2149 3.82875 47.2149 4.30702C47.2149 4.74018 47.1405 5.15077 46.9916 5.5388C46.8427 5.92232 46.6374 6.26749 46.3757 6.57431C46.114 6.87662 45.8049 7.12929 45.4485 7.33233C45.0965 7.53086 44.7153 7.66396 44.3047 7.73164L47.2149 10.5471Z" fill="#3355B9"/>
</g>
</svg>
