<svg width="76" height="16" viewBox="0 0 76 16" fill="none" xmlns="http://www.w3.org/2000/svg">
<g id="EVER">
<path d="M16.5095 15.7686H0.441406V0.231445H16.5095V2.45259H2.66255V13.5475H16.5095V15.7686ZM14.6242 9.11603H3.76771V6.89489H14.6242V9.11603Z" fill="#2B2D50"/>
<path d="M36.6082 0.231445L28.4387 15.7686H25.9033L17.7447 0.231445H20.2692L27.171 13.3741L34.0728 0.231445H36.6082Z" fill="#2B2D50"/>
<path d="M54.8649 15.7686H38.7968V0.231445H54.8649V2.45259H41.018V13.5475H54.8649V15.7686ZM52.9797 9.11603H42.1231V6.89489H52.9797V9.11603Z" fill="#2B2D50"/>
<path d="M75.5595 15.7686H72.5583L67.8993 11.3263H61.095V9.1377H70.0121C70.4743 9.1377 70.9077 9.05102 71.3122 8.87767C71.7167 8.69709 72.0671 8.45511 72.3632 8.15173C72.6666 7.84835 72.905 7.49442 73.0783 7.08991C73.2517 6.67819 73.3384 6.24118 73.3384 5.7789C73.3384 5.31661 73.2517 4.88321 73.0783 4.47871C72.905 4.07421 72.6666 3.72388 72.3632 3.42773C72.0671 3.12435 71.7167 2.88599 71.3122 2.71263C70.9077 2.53927 70.4743 2.45259 70.0121 2.45259H59.849V15.7686H57.6278V0.231445H70.0121C70.7777 0.231445 71.4964 0.379522 72.1682 0.675675C72.84 0.964604 73.425 1.36188 73.9234 1.86751C74.4291 2.36591 74.8263 2.951 75.1153 3.62276C75.4114 4.29452 75.5595 5.01323 75.5595 5.7789C75.5595 6.47233 75.4403 7.12964 75.202 7.75084C74.9636 8.36482 74.6349 8.91739 74.216 9.40857C73.797 9.89253 73.3022 10.297 72.7316 10.6221C72.1682 10.9399 71.5578 11.153 70.9005 11.2613L75.5595 15.7686Z" fill="#2B2D50"/>
</g>
</svg>
