<svg width="255" height="209" viewBox="0 0 255 209" fill="none" xmlns="http://www.w3.org/2000/svg">
<g id="vehicle-sale/rafiki">
<g id="Shadow">
<path id="path" d="M128 208.4C198.246 208.4 255.192 205.075 255.192 200.974C255.192 196.873 198.246 193.548 128 193.548C57.7538 193.548 0.808105 196.873 0.808105 200.974C0.808105 205.075 57.7538 208.4 128 208.4Z" fill="#F5F5F5"/>
</g>
<g id="character-2">
<g id="group">
<path id="Vector" d="M182.763 194.932L177.442 195.49L176.445 184.016L181.765 183.452L182.763 194.932Z" fill="#E4897B"/>
<path id="Vector_2" d="M209.317 194.544H204.161L203.735 182.599H208.898L209.317 194.544Z" fill="#E4897B"/>
<path id="Vector_3" d="M203.44 193.948H209.705C209.807 193.947 209.907 193.982 209.988 194.046C210.068 194.111 210.123 194.201 210.144 194.302L211.161 198.894C211.182 199.005 211.179 199.12 211.15 199.23C211.122 199.34 211.071 199.442 210.999 199.529C210.927 199.617 210.836 199.688 210.734 199.737C210.632 199.785 210.52 199.811 210.407 199.812C208.38 199.779 206.904 199.655 204.358 199.655C202.79 199.655 198.061 199.819 195.896 199.819C193.731 199.819 193.449 197.68 194.335 197.483C198.31 196.617 201.301 195.417 202.574 194.276C202.809 194.058 203.12 193.941 203.44 193.948Z" fill="#2E353A"/>
<path id="Vector_4" d="M201.741 194.853C201.39 194.879 201.041 194.787 200.75 194.59C200.656 194.511 200.583 194.41 200.538 194.295C200.494 194.18 200.479 194.056 200.494 193.934C200.492 193.863 200.51 193.793 200.548 193.732C200.585 193.671 200.639 193.623 200.704 193.593C201.275 193.298 202.941 194.321 203.125 194.44C203.147 194.449 203.164 194.467 203.175 194.488C203.186 194.51 203.189 194.534 203.184 194.558C203.181 194.582 203.17 194.605 203.154 194.624C203.138 194.643 203.116 194.656 203.092 194.663C202.65 194.775 202.197 194.839 201.741 194.853ZM200.973 193.784C200.919 193.778 200.863 193.789 200.816 193.816C200.783 193.816 200.744 193.862 200.737 193.961C200.727 194.042 200.736 194.124 200.765 194.201C200.793 194.277 200.84 194.346 200.901 194.4C201.479 194.662 202.136 194.695 202.738 194.492C202.201 194.143 201.602 193.903 200.973 193.784Z" fill="#407BFF"/>
<path id="Vector_5" d="M203.059 194.669H203C202.469 194.38 201.439 193.246 201.544 192.701C201.562 192.61 201.612 192.528 201.683 192.47C201.755 192.411 201.845 192.379 201.938 192.38C202.03 192.367 202.124 192.375 202.214 192.402C202.303 192.429 202.386 192.475 202.456 192.537C203.053 193.022 203.178 194.505 203.184 194.577C203.184 194.599 203.179 194.621 203.169 194.641C203.159 194.66 203.143 194.677 203.125 194.689C203.102 194.689 203.079 194.682 203.059 194.669ZM202.023 192.576H201.964C201.806 192.576 201.793 192.668 201.787 192.701C201.721 193.036 202.377 193.895 202.909 194.295C202.875 193.707 202.662 193.144 202.298 192.681C202.223 192.613 202.125 192.575 202.023 192.576Z" fill="#407BFF"/>
<path id="Vector_6" d="M176.878 193.783H183.143C183.246 193.783 183.346 193.818 183.426 193.882C183.506 193.947 183.561 194.037 183.583 194.138L184.599 198.73C184.621 198.841 184.617 198.956 184.589 199.066C184.561 199.175 184.509 199.278 184.437 199.365C184.365 199.453 184.275 199.524 184.172 199.573C184.07 199.621 183.958 199.647 183.845 199.648C181.818 199.615 180.342 199.491 177.797 199.491C176.229 199.491 171.499 199.655 169.334 199.655C167.17 199.655 166.887 197.516 167.773 197.319C171.748 196.453 174.74 195.253 176.012 194.111C176.248 193.894 176.558 193.777 176.878 193.783Z" fill="#2E353A"/>
<path id="Vector_7" d="M175.173 194.689C174.823 194.715 174.474 194.623 174.182 194.426C174.088 194.347 174.015 194.246 173.971 194.131C173.926 194.016 173.911 193.892 173.926 193.77C173.924 193.699 173.942 193.629 173.98 193.568C174.017 193.507 174.072 193.459 174.136 193.429C174.707 193.134 176.373 194.157 176.557 194.275C176.579 194.285 176.597 194.303 176.607 194.324C176.618 194.346 176.621 194.37 176.616 194.394C176.613 194.418 176.603 194.441 176.586 194.46C176.57 194.479 176.548 194.492 176.524 194.498C176.082 194.611 175.629 194.675 175.173 194.689ZM174.405 193.6C174.351 193.594 174.296 193.605 174.248 193.633C174.215 193.633 174.176 193.678 174.169 193.777C174.159 193.858 174.168 193.94 174.197 194.017C174.226 194.093 174.272 194.162 174.333 194.216C174.912 194.479 175.568 194.512 176.17 194.308C175.633 193.96 175.034 193.719 174.405 193.6Z" fill="#407BFF"/>
<path id="Vector_8" d="M176.491 194.505H176.432C175.901 194.216 174.871 193.081 174.976 192.537C174.994 192.446 175.043 192.364 175.115 192.306C175.187 192.247 175.277 192.215 175.369 192.216C175.462 192.203 175.556 192.211 175.645 192.238C175.735 192.265 175.817 192.311 175.888 192.373C176.485 192.858 176.609 194.341 176.616 194.413C176.616 194.435 176.611 194.457 176.6 194.476C176.59 194.496 176.575 194.513 176.557 194.525C176.533 194.525 176.51 194.518 176.491 194.505ZM175.455 192.412H175.396C175.238 192.412 175.225 192.504 175.218 192.537C175.153 192.872 175.809 193.731 176.34 194.131C176.307 193.543 176.094 192.98 175.73 192.517C175.655 192.449 175.556 192.411 175.455 192.412Z" fill="#407BFF"/>
<path id="Vector_9" opacity="0.2" d="M181.765 183.452L176.445 184.016L176.964 189.933L182.284 189.376L181.765 183.452Z" fill="black"/>
<path id="Vector_10" opacity="0.2" d="M208.898 182.605H203.735L203.958 188.765H209.121L208.898 182.605Z" fill="black"/>
<path id="Vector_11" d="M206.766 77.8164H179.397C176.773 92.0254 168.652 142.314 174.497 187.126L183.76 185.978C183.76 185.978 182.9 126.492 191.081 104.502C192.025 116.271 193.14 128.774 194.111 135.453C196.493 151.853 201.59 187.696 201.59 187.696H211.023C211.023 187.696 209.094 153.388 208.202 137.27C207.225 119.774 206.805 81.4244 206.766 77.8164Z" fill="#407BFF"/>
<path id="Vector_12" opacity="0.6" d="M211.023 187.696H201.59C201.59 187.696 196.493 151.853 194.111 135.453C193.14 128.794 192.025 116.271 191.081 104.503C189.734 108.358 188.711 112.318 188.024 116.343C183.136 142.721 183.76 185.978 183.76 185.978L174.497 187.29C168.672 142.478 176.793 91.9205 179.397 78.1445H206.766C206.805 81.4245 207.225 119.938 208.202 137.434C209.094 153.584 211.023 187.696 211.023 187.696Z" fill="white"/>
<path id="Vector_13" d="M173.435 189.284L184.901 187.578L184.554 184.403L172.621 185.965L173.435 189.284Z" fill="#407BFF"/>
<path id="Vector_14" d="M200.455 187.775H211.581V184.449L200.035 184.232L200.455 187.775Z" fill="#407BFF"/>
<path id="Vector_15" d="M211.508 32.8803C209.993 38.4473 208.896 44.1201 208.228 49.851C208.012 51.609 207.835 53.3343 207.69 55.0071C207.5 57.1326 207.369 59.1793 207.264 61.121C207.133 63.581 207.093 66.4871 207.1 69.3473C207.1 75.9073 207.376 82.2377 207.376 82.2377C202.128 83.5497 186.961 82.6772 178.676 82.0737C177.7 74.1515 177.445 66.157 177.915 58.1887C178.191 52.9269 178.771 47.6854 179.653 42.4907C180.098 39.7171 180.716 36.9741 181.503 34.2775C181.808 33.3217 182.38 32.4733 183.152 31.8327C183.924 31.1921 184.863 30.7861 185.859 30.663C186.862 30.5383 188.024 30.4137 189.244 30.3415C189.716 30.3415 190.188 30.2956 190.667 30.2891C194.581 30.3336 198.488 30.6052 202.37 31.1025C203.105 31.1878 203.853 31.2993 204.574 31.4174C206.91 31.7827 209.224 32.271 211.508 32.8803Z" fill="#407BFF"/>
<path id="Vector_16" opacity="0.2" d="M184.881 39.2236C182.174 45.3993 179.847 51.735 177.915 58.1951C178.19 52.9333 178.771 47.6918 179.653 42.4971L184.881 39.2236Z" fill="black"/>
<path id="Vector_17" d="M184.062 31.2334C177.856 31.732 165.654 52.022 167.95 56.4303C170.246 60.8387 174.091 62.8919 180.729 50.4279C187.368 37.964 184.062 31.2334 184.062 31.2334Z" fill="#407BFF"/>
<path id="Vector_18" opacity="0.2" d="M184.062 31.2334C177.856 31.732 165.654 52.022 167.95 56.4303C170.246 60.8387 174.091 62.8919 180.729 50.4279C187.368 37.964 184.062 31.2334 184.062 31.2334Z" fill="black"/>
<path id="Vector_19" d="M187.04 8.22802C187.04 8.22802 186.167 14.073 189.939 16.8085C193.711 19.544 193.711 6.3125 193.711 6.3125L187.04 8.22802Z" fill="#2E353A"/>
<path id="Vector_20" d="M202.377 31.076C199.864 33.3589 193.711 32.5126 193.711 32.5126C193.711 32.5126 189.867 31.463 190.674 30.2625C192.937 29.8886 194.033 28.8325 194.485 27.4811C194.733 26.6434 194.811 25.7647 194.715 24.8965C194.677 24.4123 194.614 23.9306 194.525 23.4533L202.128 17.792C201.137 21.5378 199.917 28.3798 202.377 31.076Z" fill="#E4897B"/>
<path id="Vector_21" opacity="0.2" d="M200.376 21.4004C200.074 25.9924 196.322 27.2257 194.472 27.4815C194.72 26.6438 194.798 25.7651 194.702 24.8969L200.376 21.4004Z" fill="black"/>
<path id="Vector_22" d="M200.888 22.4565C200.097 23.6266 198.944 24.5048 197.606 24.9563C196.269 25.4078 194.819 25.4076 193.481 24.9559C191.742 24.4017 190.276 23.2085 189.381 21.6168C189.257 21.404 189.143 21.1851 189.04 20.9608C187.184 16.6181 186.593 9.02164 191.185 6.1746C192.195 5.54043 193.35 5.17498 194.541 5.11298C195.732 5.05097 196.919 5.29447 197.989 5.82034C199.059 6.34621 199.977 7.13698 200.655 8.11751C201.334 9.09805 201.75 10.2358 201.865 11.4226C202.429 16.4804 203 19.452 200.888 22.4565Z" fill="#E4897B"/>
<path id="Vector_23" d="M194.466 14.1316C194.564 14.5318 194.374 14.9057 194.105 14.9516C193.836 14.9975 193.56 14.7023 193.488 14.2956C193.416 13.8889 193.587 13.5215 193.849 13.4756C194.112 13.4297 194.387 13.7118 194.466 14.1316Z" fill="#2E353A"/>
<path id="Vector_24" d="M189.828 14.9185C189.926 15.3187 189.736 15.6992 189.467 15.7451C189.198 15.791 188.929 15.4892 188.857 15.0891C188.785 14.6889 188.949 14.3084 189.218 14.2625C189.487 14.2166 189.762 14.5118 189.828 14.9185Z" fill="#2E353A"/>
<path id="Vector_25" d="M191.336 14.873C191.06 16.2079 190.603 17.499 189.979 18.7106C190.297 18.8599 190.644 18.9373 190.995 18.9373C191.347 18.9373 191.694 18.8599 192.012 18.7106L191.336 14.873Z" fill="#DE5753"/>
<path id="Vector_26" d="M195.647 12.38C195.604 12.3945 195.559 12.3972 195.515 12.388C195.471 12.3788 195.43 12.3579 195.397 12.3275C195.179 12.1123 194.914 11.9509 194.622 11.8564C194.331 11.7619 194.021 11.7367 193.718 11.783C193.655 11.7987 193.589 11.7888 193.534 11.7556C193.478 11.7224 193.438 11.6685 193.423 11.6059C193.407 11.5433 193.417 11.477 193.45 11.4216C193.483 11.3663 193.537 11.3264 193.6 11.3107C193.981 11.2422 194.373 11.266 194.742 11.3801C195.112 11.4943 195.449 11.6954 195.725 11.9667C195.748 11.9888 195.767 12.0152 195.779 12.0445C195.792 12.0739 195.798 12.1054 195.798 12.1373C195.798 12.1692 195.792 12.2007 195.779 12.23C195.767 12.2593 195.748 12.2858 195.725 12.3078C195.704 12.3366 195.677 12.361 195.647 12.38Z" fill="#2E353A"/>
<path id="Vector_27" d="M193.036 20.7511C193.638 20.742 194.229 20.5869 194.758 20.2989C195.287 20.011 195.738 19.5988 196.073 19.098C196.082 19.0835 196.088 19.0673 196.091 19.0503C196.094 19.0333 196.093 19.016 196.089 18.9994C196.084 18.9827 196.077 18.9672 196.066 18.9536C196.055 18.9401 196.042 18.929 196.027 18.9208C195.999 18.9037 195.965 18.8982 195.934 18.9055C195.902 18.9129 195.874 18.9325 195.856 18.9602C195.536 19.4168 195.114 19.7922 194.623 20.0564C194.132 20.3207 193.586 20.4665 193.029 20.4821C192.996 20.4837 192.966 20.4973 192.943 20.5204C192.92 20.5434 192.906 20.5742 192.904 20.6067C192.904 20.6398 192.917 20.6715 192.941 20.6949C192.964 20.7183 192.996 20.7314 193.029 20.7314L193.036 20.7511Z" fill="#2E353A"/>
<path id="Vector_28" d="M187.564 13.659C187.523 13.6849 187.475 13.6986 187.427 13.6983C187.395 13.69 187.366 13.6755 187.341 13.6558C187.315 13.636 187.294 13.6114 187.278 13.5833C187.262 13.5552 187.252 13.5242 187.248 13.4921C187.244 13.4601 187.247 13.4276 187.256 13.3966C187.356 13.0218 187.545 12.6766 187.806 12.3901C188.068 12.1035 188.394 11.884 188.758 11.75C188.789 11.74 188.821 11.7363 188.853 11.7393C188.885 11.7422 188.916 11.7516 188.945 11.7669C188.973 11.7823 188.998 11.8033 189.018 11.8286C189.037 11.8538 189.052 11.8829 189.06 11.914C189.069 11.9446 189.072 11.9766 189.069 12.0084C189.065 12.0401 189.056 12.0708 189.041 12.0989C189.025 12.1269 189.005 12.1516 188.98 12.1717C188.955 12.1918 188.927 12.2067 188.896 12.2158C188.613 12.3291 188.36 12.5066 188.158 12.7343C187.955 12.962 187.808 13.2336 187.728 13.5278C187.713 13.5611 187.691 13.5904 187.662 13.6132C187.634 13.636 187.6 13.6517 187.564 13.659Z" fill="#2E353A"/>
<path id="Vector_29" d="M195.456 8.11613C196.88 7.40765 198.566 8.52285 198.192 10.0316C197.7 11.9996 199.123 14.7811 200.704 15.7716C200.704 15.7716 200.652 14.9516 201.36 15.0566C202.069 15.1616 202.403 19.4321 201.308 21.6166C201.308 21.6166 203.112 19.5436 203.715 14.9516C204.319 10.3596 203.932 6.69261 202.672 5.43965C201.413 4.18669 201.091 5.49213 200.16 3.74061C199.228 1.98909 197.372 0.0276513 195.784 1.17565C194.197 2.32365 192.563 2.54013 191.304 1.66765C190.044 0.795171 188.627 2.21213 188.791 3.79965C188.955 5.38717 186.331 4.23261 185.78 5.87261C185.229 7.51261 186.476 12.6032 195.456 8.11613Z" fill="#2E353A"/>
<path id="Vector_30" opacity="0.2" d="M193.482 24.9552C191.742 24.4011 190.277 23.2079 189.382 21.6162C190.622 21.6162 192.426 21.6884 192.898 21.977C193.37 22.2657 193.475 23.8466 193.482 24.9552Z" fill="black"/>
<path id="Vector_31" d="M204.752 15.1686C204.385 16.4029 203.546 17.4425 202.416 18.0615C200.914 18.8684 199.792 17.6089 199.897 16.0017C200.002 14.565 200.888 12.374 202.554 12.2494C204.22 12.1247 205.198 13.6466 204.752 15.1686Z" fill="#E4897B"/>
<path id="Vector_32" d="M201.255 28.1768L193.98 31.4568L193.554 28.8328L190.884 29.7708C190.416 29.9329 190.017 30.2489 189.753 30.6673C189.488 31.0856 189.374 31.5814 189.428 32.0734L189.723 34.9598L193.416 32.9393L195.253 35.5633L203.991 31.3584L201.255 28.1768Z" fill="#407BFF"/>
<path id="Vector_33" opacity="0.6" d="M201.255 28.1768L193.98 31.4568L193.554 28.8328L190.884 29.7708C190.416 29.9329 190.017 30.2489 189.753 30.6673C189.488 31.0856 189.374 31.5814 189.428 32.0734L189.723 34.9598L193.416 32.9393L195.253 35.5633L203.991 31.3584L201.255 28.1768Z" fill="white"/>
<path id="Vector_34" d="M182.999 40.6926L189.172 30.6427C190.187 30.4175 191.089 29.8386 191.717 29.0093C192.668 27.6973 193.258 22.4493 192.812 22.2262C192.366 22.0032 187.564 22.5543 187.236 23.1971C186.908 23.84 185.957 29.1667 185.957 29.1667L178.846 37.5045L182.999 40.6926Z" fill="#E4897B"/>
<path id="Vector_35" d="M169.091 49.497C172.116 44.531 182.73 31.5947 182.73 31.5947L187.656 34.9141C187.656 34.9141 178.781 52.9278 175.448 56.4309C172.116 59.9339 164.827 56.4965 169.091 49.497Z" fill="#407BFF"/>
<path id="Vector_36" opacity="0.1" d="M169.091 49.497C172.116 44.531 182.73 31.5947 182.73 31.5947L187.656 34.9141C187.656 34.9141 178.781 52.9278 175.448 56.4309C172.116 59.9339 164.827 56.4965 169.091 49.497Z" fill="black"/>
<path id="Vector_37" opacity="0.2" d="M207.264 61.1277C207.133 63.5877 207.094 66.4938 207.1 69.354C197.431 68.3044 195.023 63.0564 195.023 63.0564L207.691 55.04C207.501 57.1524 207.376 59.186 207.264 61.1277Z" fill="black"/>
<path id="Vector_38" d="M188.516 56.916L176.747 56.096C176.078 55.3018 175.147 54.7716 174.123 54.6003C172.496 54.3773 167.609 56.26 167.609 56.7651C167.609 57.2702 170.318 61.2587 171.046 61.2587C171.774 61.2587 176.95 59.6253 176.95 59.6253L187.63 62.0721L188.516 56.916Z" fill="#E4897B"/>
<path id="Vector_39" d="M211.43 32.9395C211.43 32.9395 213.903 34.3499 214.264 41.2444C214.585 47.4633 212.584 60.6948 208.688 63.5878C202.462 68.1798 179.824 61.8362 179.824 61.8362L180.696 55.1844C180.696 55.1844 197.831 57.4542 201.911 55.1844C205.992 52.9146 207.212 41.2706 207.212 41.2706C207.212 41.2706 208.917 33.6545 211.43 32.9395Z" fill="#407BFF"/>
<path id="Vector_40" opacity="0.1" d="M211.43 32.9395C211.43 32.9395 213.903 34.3499 214.264 41.2444C214.585 47.4633 212.584 60.6948 208.688 63.5878C202.462 68.1798 179.824 61.8362 179.824 61.8362L180.696 55.1844C180.696 55.1844 197.831 57.4542 201.911 55.1844C205.992 52.9146 207.212 41.2706 207.212 41.2706C207.212 41.2706 208.917 33.6545 211.43 32.9395Z" fill="black"/>
<path id="Vector_41" d="M182.336 54.6465L181.201 63.0302L179.122 62.2298L179.653 54.7777L182.336 54.6465Z" fill="#407BFF"/>
<path id="Vector_42" opacity="0.6" d="M182.336 54.6465L181.201 63.0302L179.122 62.2298L179.653 54.7777L182.336 54.6465Z" fill="white"/>
<path id="Vector_43" d="M181.273 32.4271L182.861 30.833L188.155 34.769L187.656 36.8157L181.273 32.4271Z" fill="#407BFF"/>
<path id="Vector_44" opacity="0.6" d="M181.273 32.4271L182.861 30.833L188.155 34.769L187.656 36.8157L181.273 32.4271Z" fill="white"/>
<path id="Vector_45" opacity="0.2" d="M191.081 104.502C189.734 108.357 188.711 112.318 188.024 116.343C187.256 105.847 190.32 94.7607 190.32 94.7607L191.081 104.502Z" fill="black"/>
</g>
</g>
<g id="character-1">
<path id="Vector_46" d="M124.287 188.411L120.154 189.145L118.455 183.504L116.907 178.321L121.676 176.655L123.061 182.881L124.287 188.411Z" fill="#E4897B"/>
<path id="Vector_47" opacity="0.2" d="M123.087 183.006L118.475 183.616L116.914 178.381L121.683 176.688L123.087 183.006Z" fill="black"/>
<path id="Vector_48" d="M96.6629 190.32H92.4646L91.7758 184.403L91.146 178.997L96.1381 178.171L96.4202 184.6L96.6629 190.32Z" fill="#E4897B"/>
<path id="Vector_49" opacity="0.2" d="M96.4202 184.652L91.7758 184.448L91.146 179.023L96.1381 178.184L96.4202 184.652Z" fill="black"/>
<path id="Vector_50" d="M129.476 59.7763L136.259 53.0719C136.259 53.0719 136.495 51.2745 137.151 50.7759C137.807 50.2774 142.465 48.5849 143.055 48.9654C143.646 49.3459 144.42 53.0982 143.626 53.787C142.832 54.4758 138.594 55.3548 138.162 55.2826L130.821 64.0009L129.476 59.7763Z" fill="#EEC1BB"/>
<path id="Vector_51" d="M105.171 47.541C108.104 49.0892 118.488 63.613 120.017 64.3346C121.545 65.0562 133.248 55.5704 133.248 55.5704L135.216 58.9292C135.216 58.9292 125.619 72.4887 120.194 71.8327C114.769 71.1767 104.384 59.6967 104.384 59.6967L105.171 47.541Z" fill="#407BFF"/>
<path id="Vector_52" opacity="0.3" d="M105.171 47.541C108.104 49.0892 118.488 63.613 120.017 64.3346C121.545 65.0562 133.248 55.5704 133.248 55.5704L135.216 58.9292C135.216 58.9292 125.619 72.4887 120.194 71.8327C114.769 71.1767 104.384 59.6967 104.384 59.6967L105.171 47.541Z" fill="black"/>
<path id="Vector_53" d="M132.599 55.9247L133.412 55.1572L135.544 58.7652L134.777 60.2412L132.599 55.9247Z" fill="#407BFF"/>
<path id="Vector_54" opacity="0.2" d="M108.556 63.935C106.129 61.6194 104.384 59.6973 104.384 59.6973L104.568 56.8109L105.48 54.0098C106.735 55.3071 107.667 56.8814 108.202 58.6055C108.736 60.3297 108.858 62.1553 108.556 63.935Z" fill="black"/>
<path id="Vector_55" d="M123.474 179.725L116.671 180.926C109.809 163.824 104.928 149.549 101.478 137.702C99.6214 131.306 98.0732 125.625 96.958 120.58L97.1679 139.198V181.136H90.4636C73.6635 101.104 85.5699 82.8668 85.5699 82.8668L105.696 79.5146C106.494 83.2411 107.057 87.014 107.382 90.811L108.287 97.4825L116.159 138.069L123.474 179.725Z" fill="#2E353A"/>
<path id="Vector_56" d="M85.3601 83.0376C85.3601 83.0376 82.349 89.9584 81.4766 92.8776L96.6105 94.6619L99.0114 85.6419L102.475 94.0059L108.156 91.8673L106.352 81.4697L85.3601 83.0376Z" fill="#407BFF"/>
<path id="Vector_57" opacity="0.3" d="M85.3601 83.0376C85.3601 83.0376 82.349 89.9584 81.4766 92.8776L96.6105 94.6619L99.0114 85.6419L102.475 94.0059L108.156 91.8673L106.352 81.4697L85.3601 83.0376Z" fill="black"/>
<path id="Vector_58" d="M85.3604 80.0398V83.0377L106.352 81.4633V77.9209L85.3604 80.0398Z" fill="#2E353A"/>
<path id="Vector_59" d="M101.337 78.6472L96.855 79.0488L97.1594 82.4464L101.642 82.0448L101.337 78.6472Z" fill="white"/>
<path id="Vector_60" d="M92.4647 78.7674L91.4492 78.8193L91.7145 84.0015L92.7299 83.9495L92.4647 78.7674Z" fill="#407BFF"/>
<path id="Vector_61" opacity="0.3" d="M92.4647 78.7674L91.4492 78.8193L91.7145 84.0015L92.7299 83.9495L92.4647 78.7674Z" fill="black"/>
<path id="Vector_62" d="M104.968 77.4072L103.953 77.459L104.217 82.6412L105.232 82.5894L104.968 77.4072Z" fill="#407BFF"/>
<path id="Vector_63" opacity="0.3" d="M104.968 77.4072L103.953 77.459L104.217 82.6412L105.232 82.5894L104.968 77.4072Z" fill="black"/>
<path id="Vector_64" opacity="0.2" d="M101.478 137.703C99.6214 131.307 98.1979 125.626 97.063 120.581C97.1617 114.609 97.5998 108.647 98.375 102.725C98.375 102.725 101.307 125.757 101.478 137.703Z" fill="black"/>
<path id="Vector_65" d="M82.1853 31.7452C82.7757 34.015 79.5613 40.2732 80.8733 51.6482C82.1853 63.0233 94.6493 62.3345 100.271 58.5428C105.893 54.7511 104.909 34.1593 102.981 30.1052C101.052 26.0511 82.1853 31.7452 82.1853 31.7452Z" fill="#2E353A"/>
<path id="Vector_66" d="M106.155 78.2751L85.6487 80.0463C85.4534 74.9545 84.7234 69.8974 83.4708 64.9583C82.9788 62.9903 82.3621 60.7993 81.5749 58.2671C81.1551 56.9092 80.6893 55.4594 80.1645 53.8916C79.7709 52.7042 79.3511 51.4447 78.8525 50.113C81.6426 49.2259 84.4925 48.5397 87.3805 48.0597C90.4153 47.5209 93.4842 47.1965 96.5645 47.0889C100.553 47.0889 105.132 47.5087 105.132 47.5087C105.132 47.5087 105.788 47.6596 106.195 51.8908C106.608 55.8924 107.008 63.8365 106.155 78.2751Z" fill="#407BFF"/>
<path id="Vector_67" opacity="0.3" d="M106.155 78.2751L85.6487 80.0463C85.4534 74.9545 84.7234 69.8974 83.4708 64.9583C82.9788 62.9903 82.3621 60.7993 81.5749 58.2671C81.1551 56.9092 80.6893 55.4594 80.1645 53.8916C79.7709 52.7042 79.3511 51.4447 78.8525 50.113C81.6426 49.2259 84.4925 48.5397 87.3805 48.0597C90.4153 47.5209 93.4842 47.1965 96.5645 47.0889C100.553 47.0889 105.132 47.5087 105.132 47.5087C105.132 47.5087 105.788 47.6596 106.195 51.8908C106.608 55.8924 107.008 63.8365 106.155 78.2751Z" fill="black"/>
<path id="Vector_68" d="M92.9174 46.5312C90.4574 46.6821 86.5214 46.6558 83.9761 50.5918H88.6402L86.1015 53.6947C86.1015 53.6947 94.2687 55.6627 96.8271 61.0025C96.8271 61.0025 100.488 54.6525 102.475 53.1765C101.254 51.9628 99.8564 50.9409 98.3293 50.1457C99.6591 49.579 101.05 49.1695 102.475 48.9256C102.475 48.9256 96.2433 46.3344 92.9174 46.5312Z" fill="white"/>
<path id="Vector_69" d="M88.3384 48.8472C88.3384 48.8472 94.6622 55.9779 96.6105 59.4219C97.5008 55.6551 97.4105 51.7229 96.3481 48.001L88.3384 48.8472Z" fill="#407BFF"/>
<path id="Vector_70" opacity="0.6" d="M88.3384 48.8472C88.3384 48.8472 94.6622 55.9779 96.6105 59.4219C97.5008 55.6551 97.4105 51.7229 96.3481 48.001L88.3384 48.8472Z" fill="white"/>
<path id="Vector_71" d="M94.9116 51.6478C89.8538 50.9918 88.3516 48.8466 88.3516 48.8466C91.5594 45.8225 88.896 40.5811 88.896 40.5811L94.9772 41.7159C94.8332 42.5614 94.7543 43.4167 94.741 44.2743C94.6951 47.9676 96.3613 48.0004 96.3613 48.0004C97.4175 50.0012 94.9116 51.6478 94.9116 51.6478Z" fill="#EEC1BB"/>
<path id="Vector_72" opacity="0.2" d="M94.9639 41.7159C94.82 42.5614 94.741 43.4167 94.7278 44.2743C90.6147 44.2743 88.8828 40.5811 88.8828 40.5811L94.9639 41.7159Z" fill="black"/>
<path id="Vector_73" d="M91.5985 24.7062C96.8858 24.4176 98.7423 27.1531 99.4311 32.5782C100.29 39.3613 99.0441 44.2813 92.3529 43.1858C83.2673 41.7098 82.8212 25.1851 91.5985 24.7062Z" fill="#EEC1BB"/>
<path id="Vector_74" d="M95.9937 32.4736C96.4616 33.2408 97.0187 33.9498 97.6533 34.586C97.5089 34.8093 97.3059 34.9887 97.0664 35.1044C96.8269 35.2201 96.5601 35.2677 96.2954 35.242L95.9937 32.4736Z" fill="#D4827D"/>
<path id="Vector_75" d="M92.7335 32.2236C92.7729 32.6565 92.563 33.0305 92.2743 33.0501C91.9857 33.0698 91.7233 32.7418 91.6905 32.3089C91.6577 31.8759 91.861 31.502 92.1497 31.4823C92.4383 31.4626 92.7007 31.7841 92.7335 32.2236Z" fill="#2E353A"/>
<path id="Vector_76" d="M92.0317 31.502L92.9501 31.0625C92.9501 31.0625 92.5369 31.8891 92.0317 31.502Z" fill="#2E353A"/>
<path id="Vector_77" d="M98.1193 31.706C98.1586 32.139 97.9487 32.5129 97.6601 32.5325C97.3714 32.5522 97.109 32.2242 97.0762 31.7913C97.0434 31.3583 97.2468 30.9844 97.5354 30.9647C97.8241 30.945 98.0865 31.273 98.1193 31.706Z" fill="#2E353A"/>
<path id="Vector_78" d="M97.4175 30.9903L98.3293 30.5508C98.3293 30.5508 97.9226 31.3773 97.4175 30.9903Z" fill="#2E353A"/>
<path id="Vector_79" d="M92.4845 28.5695C92.0637 28.5417 91.6421 28.6106 91.2521 28.7709C90.8621 28.9312 90.5139 29.1787 90.2344 29.4945" stroke="#2E353A" stroke-width="0.686238" stroke-linecap="round" stroke-linejoin="round"/>
<path id="Vector_80" d="M96.3154 28.1369C96.6718 28.0246 97.0491 27.9951 97.4186 28.0509C97.7881 28.1066 98.14 28.2459 98.4474 28.4583" stroke="#2E353A" stroke-width="0.686238" stroke-linecap="round" stroke-linejoin="round"/>
<path id="Vector_81" d="M95.6398 37.38C95.4203 37.9893 95.2471 38.6142 95.1216 39.2496H94.7804C93.2323 39.1774 92.5369 38.6329 92.2351 38.0491C92.0941 37.7639 92.0243 37.4488 92.0318 37.1307C92.0303 36.9489 92.0546 36.7678 92.1039 36.5928C93.0399 37.0583 94.0639 37.3199 95.1084 37.3603L95.6398 37.38Z" fill="#2E353A"/>
<path id="Vector_82" d="M95.1084 37.3476L94.9444 37.8921C93.4881 37.8265 92.4713 37.5772 92.0318 37.118C92.0303 36.9362 92.0546 36.7551 92.104 36.5801C93.0399 37.0456 94.0639 37.3072 95.1084 37.3476Z" fill="white"/>
<path id="Vector_83" d="M94.7801 39.2366C93.232 39.1645 92.5366 38.62 92.2349 38.0361C92.8235 38.0759 93.4006 38.218 93.9405 38.456C94.2947 38.6226 94.5882 38.8954 94.7801 39.2366Z" fill="#DE5753"/>
<path id="Vector_84" d="M86.3115 33.9361C86.3115 33.9361 88.5419 29.4556 87.9843 26.1232C87.9843 26.1232 98.2311 21.2688 99.3266 31.8763C99.3266 31.8763 99.8383 22.3774 90.733 22.6595C81.6277 22.9416 82.4018 36.2452 87.3152 39.9516C87.3283 39.9516 84.9274 36.7372 86.3115 33.9361Z" fill="#2E353A"/>
<path id="Vector_85" d="M87.2362 35.0056C87.1485 34.397 86.823 33.848 86.3311 33.4791C85.8392 33.1102 85.221 32.9514 84.6122 33.0376C82.9853 33.3 82.3884 36.7112 86.5081 37.295C87.105 37.3672 87.4068 36.7768 87.2362 35.0056Z" fill="#EEC1BB"/>
<path id="Vector_86" d="M89.3946 25.5917C89.7602 29.972 88.6769 34.351 86.3114 38.0557C83.3398 42.5493 86.7575 46.4853 86.7575 46.4853C86.7575 46.4853 79.699 44.0516 82.7756 34.0213C82.7756 34.0213 79.4562 25.0735 85.9834 22.6594C85.9834 22.6594 86.0162 19.937 91.9202 20.4553C97.8242 20.9735 102.58 26.0312 103.486 32.4797C104.391 38.9282 101.026 46.1245 101.026 46.1245C101.026 46.1245 104.594 23.2629 89.3946 25.5917Z" fill="#2E353A"/>
<path id="Vector_87" d="M89.7095 25.5L89.7685 25.723C89.8013 25.8674 89.8472 26.0838 89.8866 26.379C90.0002 27.1173 90.0616 27.8626 90.0702 28.6094C90.0702 29.0686 90.0702 29.5672 90.0309 30.0986C89.9915 30.6299 89.9391 31.1744 89.8538 31.7451C89.7685 32.3158 89.6635 32.8931 89.5323 33.4835C89.4011 34.0739 89.2371 34.6578 89.06 35.2416C88.8829 35.8254 88.6927 36.3962 88.4565 36.9538C88.2435 37.5014 88.0027 38.0379 87.7349 38.561C87.2688 39.4849 86.7175 40.3634 86.0883 41.185C85.6445 41.7691 85.153 42.3154 84.6189 42.8184C84.411 43.0064 84.1919 43.1817 83.9629 43.3432C84.1938 43.1745 84.4129 42.9904 84.6189 42.7922C85.137 42.2768 85.6089 41.7171 86.0293 41.1194C86.6221 40.2773 87.138 39.3838 87.5709 38.4494C87.8171 37.9231 88.0361 37.3845 88.2269 36.8357C88.4302 36.2912 88.6008 35.6942 88.7648 35.1235C88.9288 34.5528 89.06 33.9558 89.165 33.372C89.2699 32.7882 89.3683 32.2174 89.4274 31.6598C89.4864 31.1022 89.5323 30.5578 89.5455 30.0461C89.5586 29.5344 89.5455 29.0424 89.5455 28.5963C89.5115 27.8808 89.4282 27.1684 89.2962 26.4643C89.2437 26.2085 89.1978 26.0117 89.165 25.8805L89.1059 25.6902L89.7095 25.5Z" fill="#2E353A"/>
<path id="Vector_88" opacity="0.2" d="M84.2778 68.5202C84.0548 67.4182 83.7924 66.2439 83.4709 64.9844C83.2676 64.1841 83.0445 63.3444 82.8149 62.4522C83.4709 60.2153 84.1269 61.9668 84.1269 61.9668C84.5337 64.1285 84.5847 66.3421 84.2778 68.5202Z" fill="black"/>
<path id="Vector_89" d="M59.9336 83.3916L52.5601 89.453C52.5601 89.453 50.7496 89.5055 50.1854 90.109C49.6213 90.7126 47.4827 95.1799 47.7976 95.7834C48.1125 96.387 51.7795 97.5481 52.547 96.8199C53.3145 96.0918 54.6069 91.9721 54.5741 91.5326L63.9745 85.0906L59.9336 83.3916Z" fill="#EEC1BB"/>
<path id="Vector_90" d="M78.8854 50.1455C78.8854 50.1455 71.8006 71.0653 69.7014 73.5844C67.6022 76.1034 56.7979 85.1693 56.7979 85.1693L58.2214 89.4333C58.2214 89.4333 70.2458 82.5453 73.0863 79.8164C75.2774 77.7041 84.0218 62.1044 84.0218 62.1044C84.0218 62.1044 83.7791 52.0807 78.8854 50.1455Z" fill="#407BFF"/>
<path id="Vector_91" opacity="0.3" d="M78.8854 50.1455C78.8854 50.1455 71.8006 71.0653 69.7014 73.5844C67.6022 76.1034 56.7979 85.1693 56.7979 85.1693L58.2214 89.4333C58.2214 89.4333 70.2458 82.5453 73.0863 79.8164C75.2774 77.7041 84.0218 62.1044 84.0218 62.1044C84.0218 62.1044 83.7791 52.0807 78.8854 50.1455Z" fill="black"/>
<path id="Vector_92" d="M55.7285 85.1692L57.152 83.9688L59.2316 89.8727L57.5916 90.5287L55.7285 85.1692Z" fill="#407BFF"/>
<path id="Vector_93" d="M102.364 198.644C101.698 198.102 100.937 197.688 100.12 197.424C100.12 197.424 97.6799 195.004 96.5057 187.715L93.311 186.882C92.7687 186.75 92.1987 186.788 91.6787 186.991C91.1587 187.194 90.7139 187.552 90.4049 188.017C90.3138 188.145 90.2451 188.287 90.2015 188.437C90.032 189.217 89.918 190.009 89.8604 190.805C89.539 193.272 89.8145 198.808 89.8145 198.808H90.3918L90.6214 193.783C90.7067 192.078 92.0121 194.079 92.386 195.915C92.7599 197.752 93.5537 199.707 97.2929 199.799C101.655 199.884 103.466 199.714 102.364 198.644Z" fill="#2E353A"/>
<path id="Vector_94" d="M130.244 198.153C129.578 197.61 128.817 197.197 128 196.933C128 196.933 125.56 194.512 124.386 187.224L121.191 186.384C120.649 186.252 120.079 186.29 119.559 186.493C119.039 186.696 118.594 187.054 118.285 187.519C118.194 187.646 118.125 187.788 118.081 187.939C117.912 188.719 117.798 189.511 117.74 190.307C117.419 192.774 117.694 198.31 117.694 198.31H118.272L118.501 193.285C118.587 191.58 119.892 193.58 120.266 195.417C120.64 197.254 121.434 199.209 125.173 199.301C129.535 199.393 131.346 199.222 130.244 198.153Z" fill="#2E353A"/>
</g>
<g id="Motorcycle">
<path id="Vector_95" d="M53.5439 176.288L56.7518 183.662C57.3567 185.055 58.3558 186.242 59.6262 187.075C60.8966 187.908 62.3829 188.352 63.9022 188.352H77.3305C79.1118 188.351 80.82 187.643 82.0799 186.384H107.159C108.127 186.384 109.082 186.154 109.944 185.712C110.807 185.271 111.552 184.631 112.118 183.845L115.431 179.253L53.5439 176.288Z" fill="#2E353A"/>
<path id="Vector_96" d="M73.9783 147.057C73.9783 150.593 88.0691 175.705 89.4795 176.702C90.8899 177.699 109.284 176.584 109.284 176.584L107.913 181.792H57.4012L36.4092 141.048L50.2901 121.021L75.5789 121.722C75.5789 121.722 73.9783 143.528 73.9783 147.057Z" fill="#407BFF"/>
<path id="Vector_97" opacity="0.2" d="M73.9783 147.057C73.9783 150.593 88.0691 175.705 89.4795 176.702C90.8899 177.699 109.284 176.584 109.284 176.584L107.913 181.792H57.4012L36.4092 141.048L50.2901 121.021L75.5789 121.722C75.5789 121.722 73.9783 143.528 73.9783 147.057Z" fill="black"/>
<path id="Vector_98" d="M32.9458 201.197C44.3256 201.197 53.5507 190.069 53.5507 176.341C53.5507 162.614 44.3256 151.485 32.9458 151.485C21.566 151.485 12.3408 162.614 12.3408 176.341C12.3408 190.069 21.566 201.197 32.9458 201.197Z" fill="#2E353A"/>
<path id="Vector_99" d="M29.4949 192.019C36.672 192.019 42.4902 184.999 42.4902 176.34C42.4902 167.682 36.672 160.662 29.4949 160.662C22.3177 160.662 16.4995 167.682 16.4995 176.34C16.4995 184.999 22.3177 192.019 29.4949 192.019Z" fill="white"/>
<path id="Vector_100" d="M26.5101 182.658C29.4991 182.658 31.9221 179.736 31.9221 176.131C31.9221 172.526 29.4991 169.604 26.5101 169.604C23.5212 169.604 21.0981 172.526 21.0981 176.131C21.0981 179.736 23.5212 182.658 26.5101 182.658Z" fill="#407BFF"/>
<path id="Vector_101" opacity="0.4" d="M26.5101 182.658C29.4991 182.658 31.9221 179.736 31.9221 176.131C31.9221 172.526 29.4991 169.604 26.5101 169.604C23.5212 169.604 21.0981 172.526 21.0981 176.131C21.0981 179.736 23.5212 182.658 26.5101 182.658Z" fill="black"/>
<path id="Vector_102" d="M147.726 138.791C147.726 138.791 129.128 153.052 122.037 182.448H92.2544L120.462 136.528L135.34 130.342L147.726 138.791Z" fill="#407BFF"/>
<path id="Vector_103" opacity="0.4" d="M149.648 137.341C149.648 137.341 132.257 150.638 123.952 175.658C123.311 177.625 122.067 179.339 120.396 180.558C118.725 181.777 116.712 182.438 114.644 182.448H92.2544L120.462 136.528L135.34 130.342L149.648 137.341Z" fill="black"/>
<path id="Vector_104" d="M147.857 138.496H136.37C134.19 138.469 132.052 139.095 130.23 140.293C123.414 144.833 107.27 157.494 105.591 177.554C105.486 178.878 104.889 180.115 103.918 181.021C102.946 181.926 101.671 182.436 100.343 182.448H50.4149C42.0251 182.449 33.7853 180.223 26.5365 175.999L12.2619 167.681C10.7241 166.783 9.50615 165.425 8.77907 163.799C8.05199 162.173 7.85223 160.361 8.20784 158.615C9.90688 150.422 14.6957 136.364 28.3995 130.866C28.616 130.768 28.288 130.683 28.944 130.604V122.096H64.7353C64.7353 122.096 57.5587 139.211 57.5587 146.269C57.5587 152.928 64.6172 178.512 73.7488 181.136H86.2128C87.8693 181.095 89.4861 180.62 90.9002 179.756C92.3144 178.892 93.4761 177.671 94.2684 176.216C100.343 165.372 113.837 137.256 109.632 110.681C109.14 107.579 111.528 104.384 114.677 104.384H130.749C130.749 104.384 145.181 121.125 149.864 135.275C150.343 136.652 149.313 138.496 147.857 138.496Z" fill="#407BFF"/>
<path id="Vector_105" d="M122.096 99.0578H117.504C116.299 99.0574 115.13 98.6455 114.191 97.8901L104.751 90.2477C104.38 89.9458 103.918 89.7792 103.439 89.7754H85.2944C84.9465 89.7754 84.6127 89.6371 84.3667 89.3911C84.1206 89.145 83.9824 88.8113 83.9824 88.4634C83.9824 88.1154 84.1206 87.7817 84.3667 87.5356C84.6127 87.2896 84.9465 87.1514 85.2944 87.1514H103.426C104.507 87.1519 105.554 87.5249 106.391 88.2075L115.838 95.8565C116.307 96.2363 116.894 96.4425 117.497 96.4403H122.089C122.726 96.4379 123.34 96.2077 123.822 95.7913C124.303 95.375 124.619 94.8 124.713 94.1706L125.127 91.2186C125.293 90.0946 125.856 89.0673 126.714 88.3224C127.572 87.5776 128.668 87.1645 129.804 87.1579H133.248C133.596 87.1579 133.93 87.2962 134.176 87.5422C134.422 87.7883 134.56 88.122 134.56 88.4699C134.56 88.8179 134.422 89.1516 134.176 89.3977C133.93 89.6437 133.596 89.7819 133.248 89.7819H129.791C129.286 89.7857 128.799 89.9695 128.418 90.3002C128.037 90.6309 127.786 91.0868 127.711 91.5859L127.298 94.5379C127.113 95.7883 126.487 96.9312 125.533 97.7602C124.579 98.5891 123.36 99.0494 122.096 99.0578Z" fill="#2E353A"/>
<path id="Vector_106" d="M113.994 93.4946C113.994 93.4946 114.053 96.5909 111.147 96.3941L110.202 99.7528C110.068 100.226 110.034 100.722 110.103 101.209C110.171 101.696 110.342 102.163 110.603 102.58L112.656 105.86H131.68L133.176 103.039C133.415 102.591 133.505 102.077 133.433 101.573C133.362 101.07 133.131 100.602 132.775 100.238L127.108 94.4458C126.811 94.1405 126.456 93.8978 126.064 93.7322C125.672 93.5666 125.25 93.4813 124.825 93.4814L113.994 93.4946Z" fill="#407BFF"/>
<path id="Vector_107" opacity="0.4" d="M113.994 93.4946C113.994 93.4946 114.053 96.5909 111.147 96.3941L110.202 99.7528C110.068 100.226 110.034 100.722 110.103 101.209C110.171 101.696 110.342 102.163 110.603 102.58L112.656 105.86H131.68L133.176 103.039C133.415 102.591 133.505 102.077 133.433 101.573C133.362 101.07 133.131 100.602 132.775 100.238L127.108 94.4458C126.811 94.1405 126.456 93.8978 126.064 93.7322C125.672 93.5666 125.25 93.4813 124.825 93.4814L113.994 93.4946Z" fill="black"/>
<path id="Vector_108" d="M146.663 201.197C158.043 201.197 167.268 190.069 167.268 176.341C167.268 162.614 158.043 151.485 146.663 151.485C135.283 151.485 126.058 162.614 126.058 176.341C126.058 190.069 135.283 201.197 146.663 201.197Z" fill="#2E353A"/>
<path id="Vector_109" d="M143.219 192.019C150.396 192.019 156.214 184.999 156.214 176.34C156.214 167.682 150.396 160.662 143.219 160.662C136.042 160.662 130.224 167.682 130.224 176.34C130.224 184.999 136.042 192.019 143.219 192.019Z" fill="white"/>
<path id="Vector_110" d="M166.94 160.308C164.769 156.615 158.963 148.632 148.526 146.296C145.852 145.669 143.078 145.589 140.372 146.06L140.326 145.949L140.372 145.85H140.287L138.496 141.776H136.456C134.799 141.776 133.187 142.315 131.864 143.311L128.282 146.001L129.968 151.846C129.48 152.369 129.025 152.921 128.603 153.499C125.581 157.255 123.521 161.691 122.601 166.422C122.571 166.62 122.583 166.821 122.638 167.013C122.694 167.205 122.789 167.383 122.92 167.535C123.05 167.686 123.211 167.808 123.393 167.891C123.575 167.974 123.772 168.017 123.972 168.016H125.048C125.33 168.021 125.607 167.939 125.842 167.782C126.076 167.625 126.257 167.4 126.36 167.137C127.321 164.598 128.844 162.308 130.814 160.44L136.79 176L141.599 173.979L139.913 154.588C139.913 154.588 150.973 151.479 158.215 160.426C158.637 160.951 159.17 161.374 159.776 161.666C160.382 161.958 161.046 162.11 161.718 162.112H165.923C166.132 162.109 166.337 162.05 166.517 161.943C166.697 161.836 166.845 161.684 166.948 161.502C167.051 161.319 167.104 161.113 167.103 160.904C167.101 160.695 167.045 160.489 166.94 160.308Z" fill="#407BFF"/>
<path id="Vector_111" opacity="0.2" d="M166.94 160.308C164.769 156.615 158.963 148.632 148.526 146.296C145.852 145.669 143.078 145.589 140.372 146.06L140.326 145.949L140.372 145.85H140.287L138.496 141.776H136.456C134.799 141.776 133.187 142.315 131.864 143.311L128.282 146.001L129.968 151.846C129.48 152.369 129.025 152.921 128.603 153.499C125.581 157.255 123.521 161.691 122.601 166.422C122.571 166.62 122.583 166.821 122.638 167.013C122.694 167.205 122.789 167.383 122.92 167.535C123.05 167.686 123.211 167.808 123.393 167.891C123.575 167.974 123.772 168.017 123.972 168.016H125.048C125.33 168.021 125.607 167.939 125.842 167.782C126.076 167.625 126.257 167.4 126.36 167.137C127.321 164.598 128.844 162.308 130.814 160.44L136.79 176L141.599 173.979L139.913 154.588C139.913 154.588 150.973 151.479 158.215 160.426C158.637 160.951 159.17 161.374 159.776 161.666C160.382 161.958 161.046 162.11 161.718 162.112H165.923C166.132 162.109 166.337 162.05 166.517 161.943C166.697 161.836 166.845 161.684 166.948 161.502C167.051 161.319 167.104 161.113 167.103 160.904C167.101 160.695 167.045 160.489 166.94 160.308Z" fill="black"/>
<path id="Vector_112" d="M140.234 182.658C143.223 182.658 145.646 179.736 145.646 176.131C145.646 172.526 143.223 169.604 140.234 169.604C137.245 169.604 134.822 172.526 134.822 176.131C134.822 179.736 137.245 182.658 140.234 182.658Z" fill="#407BFF"/>
<path id="Vector_113" opacity="0.4" d="M140.234 182.658C143.223 182.658 145.646 179.736 145.646 176.131C145.646 172.526 143.223 169.604 140.234 169.604C137.245 169.604 134.822 172.526 134.822 176.131C134.822 179.736 137.245 182.658 140.234 182.658Z" fill="black"/>
<path id="Vector_114" d="M120.745 106.589C120.745 106.589 124.149 128.027 135.393 128.171C145.935 128.315 146.919 108.189 136.863 105.1C128.741 102.6 120.745 106.589 120.745 106.589Z" fill="#407BFF"/>
<path id="Vector_115" opacity="0.2" d="M120.745 106.589C120.745 106.589 124.149 128.027 135.393 128.171C145.935 128.315 146.919 108.189 136.863 105.1C128.741 102.6 120.745 106.589 120.745 106.589Z" fill="black"/>
<path id="Vector_116" d="M143.173 116.448C143.422 121.887 140.142 126.288 135.846 126.288C131.549 126.288 127.869 121.874 127.619 116.448C127.37 111.023 130.65 106.608 134.94 106.608C139.23 106.608 142.924 111.004 143.173 116.448Z" fill="white"/>
<path id="Vector_117" d="M132.474 102.39H122.712L123.486 101.131H132.474V102.39Z" fill="#407BFF"/>
<path id="Vector_118" d="M78.7998 121.191V123.657C78.7998 125.894 76.9696 127.344 74.726 127.344H30.3673C28.1173 127.344 26.3198 125.894 26.3198 123.657V121.191C26.3198 118.954 28.1173 117.504 30.3673 117.504H74.726C76.9696 117.504 78.7998 118.954 78.7998 121.191Z" fill="#2E353A"/>
<path id="Vector_119" opacity="0.2" d="M64.3678 121.19V123.657C64.3924 124.156 64.3108 124.654 64.1283 125.118C63.9459 125.583 63.6667 126.003 63.3095 126.352C62.9522 126.701 62.5249 126.969 62.056 127.14C61.587 127.311 61.087 127.381 60.5892 127.344H30.3673C28.1173 127.344 26.3198 125.894 26.3198 123.657V121.19C26.3198 118.954 28.1173 117.504 30.3673 117.504H60.5892C61.087 117.467 61.587 117.536 62.056 117.707C62.5249 117.878 62.9522 118.147 63.3095 118.495C63.6667 118.844 63.9459 119.265 64.1283 119.729C64.3108 120.194 64.3924 120.692 64.3678 121.19Z" fill="white"/>
<path id="Vector_120" opacity="0.2" d="M58.7854 166.626V182.448H50.4149C42.0251 182.449 33.7853 180.224 26.5365 176L12.2619 167.682C10.7241 166.783 9.50615 165.426 8.77907 163.8C8.05199 162.174 7.85223 160.361 8.20784 158.616C9.90688 150.423 14.7678 136.364 28.4979 130.867L29.1539 130.9H34.6971C37.8963 130.9 41.0292 131.811 43.7284 133.529C46.4275 135.246 48.5809 137.698 49.936 140.596L55.84 153.256C57.7871 157.444 58.7925 162.008 58.7854 166.626Z" fill="black"/>
<path id="Vector_121" d="M95.8307 78.283L94.7886 79.0801L101.894 88.3707L102.936 87.5736L95.8307 78.283Z" fill="#2E353A"/>
<path id="Vector_122" d="M91.5593 77.1602H94.9049C95.2526 77.1601 95.5926 77.262 95.8829 77.4533C96.1732 77.6445 96.4011 77.9166 96.5384 78.236L96.9845 79.279C97.0993 79.5492 97.1454 79.8435 97.1187 80.1358C97.0921 80.4281 96.9935 80.7092 96.8317 80.9542C96.67 81.1991 96.4501 81.4001 96.1917 81.5394C95.9334 81.6786 95.6445 81.7517 95.351 81.7522H91.7102C91.2829 81.7532 90.8695 81.5998 90.5465 81.3201C90.2234 81.0404 90.0123 80.6533 89.9521 80.2302L89.8013 79.1872C89.7656 78.9354 89.7844 78.6788 89.8563 78.4349C89.9283 78.1909 90.0518 77.9653 90.2184 77.7731C90.3851 77.581 90.591 77.4268 90.8224 77.3211C91.0537 77.2153 91.305 77.1605 91.5593 77.1602Z" fill="#407BFF"/>
<path id="Vector_123" d="M129.211 79.754L127.462 88.0605L128.746 88.3309L130.495 80.0243L129.211 79.754Z" fill="#2E353A"/>
<path id="Vector_124" d="M133.786 77.1602H130.184C129.831 77.16 129.49 77.2873 129.224 77.5188C128.957 77.7502 128.783 78.0702 128.734 78.4197L128.492 80.0794C128.462 80.2893 128.479 80.503 128.54 80.706C128.601 80.9089 128.705 81.0962 128.845 81.2551C128.985 81.414 129.158 81.5407 129.352 81.6265C129.546 81.7123 129.756 81.7552 129.968 81.7522H133.563C133.916 81.7525 134.257 81.6251 134.523 81.3937C134.79 81.1622 134.963 80.8422 135.012 80.4927L135.255 78.833C135.284 78.6237 135.268 78.4105 135.207 78.2081C135.147 78.0056 135.043 77.8186 134.904 77.6598C134.764 77.501 134.592 77.3742 134.399 77.288C134.206 77.2018 133.997 77.1582 133.786 77.1602Z" fill="#407BFF"/>
<path id="Vector_125" d="M102.921 119.885L97.2337 107.9C96.8832 107.161 96.2571 106.588 95.4895 106.305C94.7219 106.022 93.8739 106.05 93.1272 106.385L78.2819 112.945C77.6747 113.217 77.1711 113.677 76.8453 114.257L61.5277 140.615C61.2935 141.019 61.1525 141.471 61.1151 141.937C61.0776 142.403 61.1446 142.872 61.3112 143.308C61.4777 143.745 61.7396 144.139 62.0778 144.462C62.416 144.785 62.822 145.028 63.2661 145.174L84.9141 152.252C85.6265 152.487 86.3995 152.458 87.0928 152.172C87.786 151.886 88.3537 151.36 88.6926 150.691L102.882 122.634C103.1 122.21 103.216 121.741 103.223 121.264C103.23 120.787 103.127 120.315 102.921 119.885ZM93.7766 110.649C93.4376 110.538 93.1391 110.329 92.9189 110.048C92.6986 109.767 92.5665 109.428 92.5393 109.072C92.512 108.716 92.5908 108.361 92.7657 108.05C92.9407 107.739 93.2038 107.487 93.522 107.325C93.8401 107.164 94.199 107.101 94.5531 107.143C94.9073 107.186 95.2409 107.332 95.5118 107.564C95.7827 107.797 95.9787 108.104 96.075 108.447C96.1713 108.791 96.1636 109.155 96.0529 109.494C95.9029 109.948 95.5793 110.324 95.1528 110.541C94.7263 110.757 94.2316 110.796 93.7766 110.649Z" fill="#407BFF"/>
<path id="Vector_126" opacity="0.6" d="M102.921 119.885L97.2337 107.9C96.8832 107.161 96.2571 106.588 95.4895 106.305C94.7219 106.022 93.8739 106.05 93.1272 106.385L78.2819 112.945C77.6747 113.217 77.1711 113.677 76.8453 114.257L61.5277 140.615C61.2935 141.019 61.1525 141.471 61.1151 141.937C61.0776 142.403 61.1446 142.872 61.3112 143.308C61.4777 143.745 61.7396 144.139 62.0778 144.462C62.416 144.785 62.822 145.028 63.2661 145.174L84.9141 152.252C85.6265 152.487 86.3995 152.458 87.0928 152.172C87.786 151.886 88.3537 151.36 88.6926 150.691L102.882 122.634C103.1 122.21 103.216 121.741 103.223 121.264C103.23 120.787 103.127 120.315 102.921 119.885ZM93.7766 110.649C93.4376 110.538 93.1391 110.329 92.9189 110.048C92.6986 109.767 92.5665 109.428 92.5393 109.072C92.512 108.716 92.5908 108.361 92.7657 108.05C92.9407 107.739 93.2038 107.487 93.522 107.325C93.8401 107.164 94.199 107.101 94.5531 107.143C94.9073 107.186 95.2409 107.332 95.5118 107.564C95.7827 107.797 95.9787 108.104 96.075 108.447C96.1713 108.791 96.1636 109.155 96.0529 109.494C95.9029 109.948 95.5793 110.324 95.1528 110.541C94.7263 110.757 94.2316 110.796 93.7766 110.649Z" fill="white"/>
<path id="Vector_127" d="M91.651 126.295C91.3567 125.472 90.8631 124.735 90.2143 124.149C89.4156 123.428 88.4782 122.876 87.4592 122.529L83.6675 129.699C83.7025 129.709 83.7357 129.725 83.7659 129.745C83.7929 129.767 83.8242 129.782 83.8577 129.791C84.7415 130.301 85.5937 130.864 86.4096 131.477C87.0636 131.957 87.6333 132.542 88.0955 133.209C88.4882 133.776 88.7153 134.442 88.7515 135.131C88.7357 135.942 88.5096 136.736 88.0955 137.433C87.6824 138.246 87.0957 138.959 86.3768 139.519C85.6855 140.043 84.8957 140.423 84.0545 140.635C83.1556 140.852 82.2278 140.925 81.3059 140.851C80.2767 140.773 79.2599 140.577 78.2752 140.267L76.8976 142.891L75.8348 142.544L77.2321 139.92C74.6728 139.037 72.556 137.196 71.3281 134.783L73.1387 133.583C73.5129 134.582 74.1148 135.48 74.8968 136.207C75.8427 137.109 76.9573 137.815 78.1768 138.286L81.9684 131.116L81.8241 131.005C80.9895 130.5 80.1816 129.953 79.4035 129.365C78.8016 128.923 78.282 128.379 77.8684 127.757C77.5238 127.236 77.3391 126.625 77.3371 125.999C77.3748 125.265 77.5862 124.55 77.9537 123.913C78.3657 123.115 78.9347 122.407 79.6265 121.834C80.2848 121.29 81.0391 120.874 81.8504 120.607C82.6978 120.334 83.5841 120.201 84.4744 120.213C85.463 120.224 86.4462 120.36 87.4001 120.62L88.8302 117.904L89.8929 118.252L88.4694 120.935C89.5919 121.317 90.6316 121.909 91.5329 122.68C92.3102 123.368 92.9453 124.201 93.4025 125.133L91.651 126.295ZM85.852 136.928C86.1159 136.481 86.2542 135.971 86.2521 135.452C86.2247 134.982 86.0681 134.528 85.7995 134.14C85.4698 133.655 85.0645 133.225 84.599 132.868C83.9919 132.385 83.359 131.936 82.7032 131.523L78.9836 138.555C80.3267 139.061 81.7787 139.205 83.1952 138.975C83.7659 138.862 84.3026 138.618 84.7635 138.263C85.2244 137.908 85.597 137.451 85.852 136.928ZM80.1513 124.294C79.9044 124.718 79.7606 125.194 79.7315 125.684C79.7327 126.105 79.8533 126.517 80.0792 126.872C80.3672 127.311 80.7315 127.696 81.155 128.007C81.7286 128.448 82.3241 128.859 82.9393 129.24L86.6195 122.286C85.3056 121.828 83.8815 121.792 82.5457 122.181C81.5048 122.55 80.6469 123.307 80.1513 124.294Z" fill="#2E353A"/>
<path id="Vector_128" d="M95.6133 107.828C95.6133 107.828 102.58 108.156 101.845 101.76C100.901 93.5927 110.452 93.3172 109.304 90.2012" stroke="#407BFF" stroke-linecap="round" stroke-linejoin="round"/>
</g>
</g>
</svg>
