<svg width="24" height="24" viewBox="0 0 24 24" fill="none" xmlns="http://www.w3.org/2000/svg">
<g id="fa-solid:notes-medical">
<path id="Vector" d="M17.25 5.25H14.3333C14.3333 4.00898 13.287 3 12 3C10.713 3 9.66667 4.00898 9.66667 5.25H6.75C5.78385 5.25 5 6.00586 5 6.9375V19.3125C5 20.2441 5.78385 21 6.75 21H17.25C18.2161 21 19 20.2441 19 19.3125V6.9375C19 6.00586 18.2161 5.25 17.25 5.25ZM12 4.40625C12.4849 4.40625 12.875 4.78242 12.875 5.25C12.875 5.71758 12.4849 6.09375 12 6.09375C11.5151 6.09375 11.125 5.71758 11.125 5.25C11.125 4.78242 11.5151 4.40625 12 4.40625ZM15.5 15.0938C15.5 15.2484 15.3687 15.375 15.2083 15.375H13.1667V17.3438C13.1667 17.4984 13.0354 17.625 12.875 17.625H11.125C10.9646 17.625 10.8333 17.4984 10.8333 17.3438V15.375H8.79167C8.63125 15.375 8.5 15.2484 8.5 15.0938V13.4062C8.5 13.2516 8.63125 13.125 8.79167 13.125H10.8333V11.1562C10.8333 11.0016 10.9646 10.875 11.125 10.875H12.875C13.0354 10.875 13.1667 11.0016 13.1667 11.1562V13.125H15.2083C15.3687 13.125 15.5 13.2516 15.5 13.4062V15.0938ZM15.5 8.34375C15.5 8.49844 15.3687 8.625 15.2083 8.625H8.79167C8.63125 8.625 8.5 8.49844 8.5 8.34375V7.78125C8.5 7.62656 8.63125 7.5 8.79167 7.5H15.2083C15.3687 7.5 15.5 7.62656 15.5 7.78125V8.34375Z" fill="#3355B9"/>
</g>
</svg>
