<svg width="24" height="24" viewBox="0 0 24 24" fill="none" xmlns="http://www.w3.org/2000/svg">
<g id="fa6-solid:hand-holding-medical">
<path id="Vector" d="M10.273 4.389V6.33344H8.37173C7.92019 6.33344 7.55691 6.70497 7.55691 7.16678V8.83344C7.55691 9.29525 7.92019 9.66678 8.37173 9.66678H10.273V11.6112C10.273 12.073 10.6363 12.4446 11.0878 12.4446H12.7175C13.169 12.4446 13.5323 12.073 13.5323 11.6112V9.66678H15.4335C15.8851 9.66678 16.2484 9.29525 16.2484 8.83344V7.16678C16.2484 6.70497 15.8851 6.33344 15.4335 6.33344H13.5323V4.389C13.5323 3.92719 13.169 3.55566 12.7175 3.55566H11.0878C10.6363 3.55566 10.273 3.92719 10.273 4.389ZM21.6703 17.1737C22.2747 16.7189 22.4037 15.8508 21.9589 15.2327C21.5142 14.6147 20.6654 14.4827 20.0611 14.9376L15.9971 18.0001H11.9026C11.6039 18.0001 11.3594 17.7501 11.3594 17.4446C11.3594 17.139 11.6039 16.889 11.9026 16.889H14.6187C15.2196 16.889 15.7051 16.3925 15.7051 15.7779C15.7051 15.1633 15.2196 14.6668 14.6187 14.6668H9.24428C8.2563 14.6668 7.29888 15.0105 6.5282 15.639L5.0038 16.889H3.7544C3.15347 16.889 2.66797 17.3855 2.66797 18.0001V20.2223C2.66797 20.8369 3.15347 21.3334 3.7544 21.3334H14.6357C15.6203 21.3334 16.5811 21.0105 17.3755 20.4133L21.6737 17.1737H21.6703Z" fill="#3355B9"/>
</g>
</svg>
