<svg width="24" height="25" viewBox="0 0 24 25" fill="none" xmlns="http://www.w3.org/2000/svg">
<g id="Frame 2608398">
<path id="Logo" fill-rule="evenodd" clip-rule="evenodd" d="M20.1794 16.1965C18.0694 20.7139 12.6968 22.6654 8.17941 20.5554C4.90841 19.0275 2.98271 15.7891 2.97016 12.4034C2.96915 12.1307 3.1835 11.9099 3.45518 11.8863L6.04985 11.661L8.62259 11.4377C9.05218 11.3507 9.43984 11.0831 9.6669 10.6779C9.67098 10.6689 9.67512 10.66 9.67932 10.651C10.3057 9.31005 11.9005 8.73075 13.2414 9.3571C13.9273 9.67747 14.4142 10.2514 14.6421 10.915C14.5629 10.6832 14.4522 10.462 14.3122 10.2592C14.312 10.259 14.3121 10.2586 14.3124 10.2585C14.3126 10.2584 14.3128 10.2585 14.3129 10.2587C14.4496 10.4436 14.633 10.598 14.856 10.7022C15.0659 10.8002 15.2875 10.8428 15.5043 10.8358C15.5055 10.8358 15.5066 10.8366 15.5069 10.8377C15.5073 10.8389 15.5084 10.8397 15.5097 10.8396L17.0671 10.7044C17.4121 10.6744 17.643 10.3337 17.5067 10.0154C16.9474 8.70932 15.9241 7.59624 14.5355 6.94765C11.5375 5.5473 7.97199 6.84245 6.57164 9.84044C6.47405 10.0494 6.38954 10.2611 6.3178 10.4746C6.206 10.8074 5.83308 10.9944 5.51504 10.8459L3.763 10.0275C3.51851 9.91331 3.39256 9.63685 3.48234 9.38237C3.58048 9.1042 3.6931 8.82825 3.82055 8.55541C5.93059 4.03803 11.3032 2.0865 15.8205 4.19654C18.8633 5.61782 20.742 8.51932 20.9994 11.6427C21.0044 11.7028 20.9595 11.7553 20.8994 11.7606L20.7903 11.7702C20.7898 11.7702 20.7894 11.7707 20.7895 11.7712C20.7895 11.7717 20.7891 11.7721 20.7886 11.7722L18.776 11.9469L17.982 12.0166C17.9818 12.0166 17.9816 12.0165 17.9816 12.0163C17.9816 12.0161 17.9814 12.0159 17.9812 12.016L15.6308 12.2201C15.6286 12.2203 15.627 12.2219 15.6267 12.224C15.6265 12.2259 15.6251 12.2275 15.6232 12.2279C15.1674 12.321 14.7536 12.5939 14.4926 13.0064C13.839 14.285 12.2847 14.8256 10.9732 14.2131C10.6209 14.0485 10.3212 13.8171 10.0821 13.5411C10.0816 13.5405 10.0809 13.5403 10.0802 13.5404C10.0795 13.5406 10.0787 13.5403 10.0783 13.5397C9.90437 13.3234 9.67957 13.1426 9.41116 13.0172C9.17682 12.9078 8.93141 12.8509 8.68823 12.8419C8.68504 12.8418 8.68227 12.8396 8.68136 12.8366C8.68036 12.8332 8.67711 12.831 8.67358 12.8313L6.60617 13.0108C6.29993 13.0374 6.07374 13.3125 6.13744 13.6132C6.51397 15.3907 7.69141 16.9762 9.46443 17.8043C12.4624 19.2047 16.028 17.9095 17.4283 14.9115C17.5494 14.6523 17.8549 14.5239 18.1144 14.6442L19.9255 15.484C20.188 15.6057 20.3114 15.9121 20.1896 16.1747C20.1862 16.182 20.1828 16.1893 20.1794 16.1965ZM11.5689 12.9618C12.2113 13.2619 12.9754 12.9844 13.2754 12.342C13.5755 11.6995 13.298 10.9355 12.6555 10.6354C12.0131 10.3353 11.2491 10.6129 10.949 11.2553C10.6489 11.8977 10.9265 12.6618 11.5689 12.9618Z" fill="#3355B9"/>
</g>
</svg>
