<svg width="24" height="24" viewBox="0 0 24 24" fill="none" xmlns="http://www.w3.org/2000/svg">
<g id="Frame 2608256">
<path id="Vector" d="M17 20C16.3333 20 15.7667 19.7667 15.3 19.3C14.8333 18.8333 14.6 18.2667 14.6 17.6C14.6 17.5067 14.6067 17.4099 14.62 17.3096C14.6333 17.2093 14.6533 17.1195 14.68 17.04L9.04 13.76C8.81333 13.96 8.56 14.1168 8.28 14.2304C8 14.344 7.70667 14.4005 7.4 14.4C6.73333 14.4 6.16667 14.1667 5.7 13.7C5.23333 13.2333 5 12.6667 5 12C5 11.3333 5.23333 10.7667 5.7 10.3C6.16667 9.83333 6.73333 9.6 7.4 9.6C7.70667 9.6 8 9.6568 8.28 9.7704C8.56 9.884 8.81333 10.0405 9.04 10.24L14.68 6.96C14.6533 6.88 14.6333 6.79013 14.62 6.6904C14.6067 6.59067 14.6 6.49387 14.6 6.4C14.6 5.73333 14.8333 5.16667 15.3 4.7C15.7667 4.23333 16.3333 4 17 4C17.6667 4 18.2333 4.23333 18.7 4.7C19.1667 5.16667 19.4 5.73333 19.4 6.4C19.4 7.06667 19.1667 7.63333 18.7 8.1C18.2333 8.56667 17.6667 8.8 17 8.8C16.6933 8.8 16.4 8.74347 16.12 8.6304C15.84 8.51733 15.5867 8.36053 15.36 8.16L9.72 11.44C9.74667 11.52 9.76667 11.6101 9.78 11.7104C9.79333 11.8107 9.8 11.9072 9.8 12C9.8 12.0933 9.79333 12.1901 9.78 12.2904C9.76667 12.3907 9.74667 12.4805 9.72 12.56L15.36 15.84C15.5867 15.64 15.84 15.4835 16.12 15.3704C16.4 15.2573 16.6933 15.2005 17 15.2C17.6667 15.2 18.2333 15.4333 18.7 15.9C19.1667 16.3667 19.4 16.9333 19.4 17.6C19.4 18.2667 19.1667 18.8333 18.7 19.3C18.2333 19.7667 17.6667 20 17 20Z" fill="#3355B9"/>
</g>
</svg>
