<svg width="24" height="24" viewBox="0 0 24 24" fill="none" xmlns="http://www.w3.org/2000/svg">
<g id="healthicons:accident-and-emergency">
<g id="Group">
<path id="Vector" d="M10.4323 9.76605C10.5639 9.78253 10.6835 9.85057 10.7648 9.9552C10.8462 10.0598 10.8827 10.1925 10.8663 10.3241L10.4143 13.9431C10.3979 14.0747 10.3298 14.1944 10.2251 14.2758C10.1204 14.3572 9.98769 14.3937 9.85608 14.3773C9.72446 14.3609 9.60477 14.2928 9.52334 14.1881C9.4419 14.0834 9.40539 13.9507 9.42183 13.8191L9.87433 10.2001C9.89081 10.0685 9.95884 9.94892 10.0635 9.86753C10.1681 9.78615 10.3008 9.74965 10.4323 9.76605Z" fill="#3355B9"/>
<path id="Vector_2" fill-rule="evenodd" clip-rule="evenodd" d="M4.5 3C4.10218 3 3.72064 3.15804 3.43934 3.43934C3.15804 3.72064 3 4.10218 3 4.5V19.5C3 19.8978 3.15804 20.2794 3.43934 20.5607C3.72064 20.842 4.10218 21 4.5 21H19.5C19.8978 21 20.2794 20.842 20.5607 20.5607C20.842 20.2794 21 19.8978 21 19.5V4.5C21 4.10218 20.842 3.72064 20.5607 3.43934C20.2794 3.15804 19.8978 3 19.5 3H4.5ZM8.727 9.831C8.8245 9.003 9.423 8.307 10.2445 8.165C11.5195 7.945 12.5395 7.9465 13.765 8.161C14.5825 8.304 15.175 8.9985 15.2725 9.8225L16 16H8L8.727 9.831ZM7.5 18V17H16.5V18H7.5ZM6.5225 12.5C6.4926 12.1673 6.4926 11.8327 6.5225 11.5H5V12.5H6.5225ZM7.0055 9.6935C7.14569 9.39055 7.31322 9.10102 7.506 8.8285L6.188 8.067L5.688 8.933L7.0055 9.6935ZM8.828 7.506C9.0995 7.3145 9.389 7.146 9.694 7.0055L8.933 5.688L8.067 6.188L8.828 7.506ZM11.5 6.5225C11.8327 6.4926 12.1673 6.4926 12.5 6.5225V5H11.5V6.5225ZM14.3065 7.0055C14.6094 7.14581 14.8989 7.31333 15.1715 7.506L15.933 6.188L15.067 5.688L14.3065 7.0055ZM16.494 8.828C16.6855 9.0995 16.854 9.389 16.9945 9.694L18.312 8.933L17.812 8.067L16.494 8.828ZM17.4775 11.5C17.5074 11.8327 17.5074 12.1673 17.4775 12.5H19V11.5H17.4775Z" fill="#3355B9"/>
</g>
</g>
</svg>
