<svg width="24" height="24" viewBox="0 0 24 24" fill="none" xmlns="http://www.w3.org/2000/svg">
<g id="Hub station">
<path id="Subtract" fill-rule="evenodd" clip-rule="evenodd" d="M23 19H21V10C21 9.73478 20.8946 9.48043 20.7071 9.29289C20.5196 9.10536 20.2652 9 20 9H17V19H15V4C15 3.73478 14.8946 3.48043 14.7071 3.29289C14.5196 3.10536 14.2652 3 14 3H4C3.73478 3 3.48043 3.10536 3.29289 3.29289C3.10536 3.48043 3 3.73478 3 4V19H1V21H23V19ZM6.93699 12.73L9.14732 12.56L8.66288 15.7211C8.63669 15.8748 8.67103 16.0096 8.7659 16.1255C8.86077 16.2415 8.968 16.2849 9.08759 16.2558C9.15942 16.2386 9.2139 16.2152 9.25101 16.1856C9.28813 16.1559 9.31694 16.1182 9.33743 16.0723L11.9002 10.6381C11.9761 10.4805 11.969 10.3145 11.8789 10.1401C11.7888 9.96574 11.6662 9.88516 11.5111 9.89839L9.30075 10.0684L9.78519 6.9073C9.81138 6.75367 9.77704 6.61887 9.68217 6.5029C9.5873 6.38693 9.48007 6.3435 9.36047 6.37262C9.2888 6.3904 9.23436 6.41396 9.19717 6.44331C9.15997 6.47265 9.13113 6.51027 9.11063 6.55616L6.54787 11.9904C6.47197 12.1479 6.47906 12.3139 6.56916 12.4883C6.65925 12.6627 6.78186 12.7433 6.93699 12.73Z" fill="#3355B9"/>
</g>
</svg>
