<svg width="24" height="24" viewBox="0 0 24 24" fill="none" xmlns="http://www.w3.org/2000/svg">
<g id="ic:round-arrow-back">
<path id="Vector" d="M19.0004 11.0002H7.83041L12.7104 6.12016C13.1004 5.73016 13.1004 5.09016 12.7104 4.70016C12.6179 4.60746 12.508 4.53391 12.387 4.48373C12.2661 4.43354 12.1364 4.40771 12.0054 4.40771C11.8744 4.40771 11.7448 4.43354 11.6238 4.48373C11.5028 4.53391 11.3929 4.60746 11.3004 4.70016L4.71041 11.2902C4.61771 11.3827 4.54416 11.4926 4.49398 11.6135C4.4438 11.7345 4.41797 11.8642 4.41797 11.9952C4.41797 12.1261 4.4438 12.2558 4.49398 12.3768C4.54416 12.4978 4.61771 12.6076 4.71041 12.7002L11.3004 19.2902C11.393 19.3827 11.5029 19.4562 11.6239 19.5063C11.7448 19.5564 11.8745 19.5822 12.0054 19.5822C12.1363 19.5822 12.266 19.5564 12.387 19.5063C12.5079 19.4562 12.6178 19.3827 12.7104 19.2902C12.803 19.1976 12.8764 19.0877 12.9265 18.9667C12.9766 18.8457 13.0024 18.7161 13.0024 18.5852C13.0024 18.4542 12.9766 18.3246 12.9265 18.2036C12.8764 18.0827 12.803 17.9727 12.7104 17.8802L7.83041 13.0002H19.0004C19.5504 13.0002 20.0004 12.5502 20.0004 12.0002C20.0004 11.4502 19.5504 11.0002 19.0004 11.0002Z" fill="#363636"/>
</g>
</svg>
