<svg width="24" height="24" viewBox="0 0 24 24" fill="none" xmlns="http://www.w3.org/2000/svg">
<g id="ic:round-arrow-back">
<path id="Vector" d="M5.41755 12.9896L16.5876 12.9896L11.7076 17.8696C11.3176 18.2596 11.3176 18.8996 11.7076 19.2896C11.8001 19.3823 11.91 19.4558 12.0309 19.506C12.1519 19.5562 12.2816 19.582 12.4126 19.582C12.5435 19.582 12.6732 19.5562 12.7942 19.506C12.9151 19.4558 13.025 19.3823 13.1176 19.2896L19.7076 12.6996C19.8003 12.6071 19.8738 12.4972 19.924 12.3762C19.9742 12.2552 20 12.1256 20 11.9946C20 11.8636 19.9742 11.7339 19.924 11.613C19.8738 11.492 19.8003 11.3821 19.7076 11.2896L13.1176 4.69959C13.025 4.60701 12.9151 4.53357 12.7941 4.48346C12.6731 4.43336 12.5435 4.40757 12.4126 4.40757C12.2816 4.40757 12.152 4.43336 12.031 4.48346C11.91 4.53357 11.8001 4.60701 11.7076 4.69959C11.615 4.79217 11.5415 4.90208 11.4914 5.02305C11.4413 5.14401 11.4155 5.27366 11.4155 5.40459C11.4155 5.53552 11.4413 5.66517 11.4914 5.78613C11.5415 5.9071 11.615 6.01701 11.7076 6.10959L16.5876 10.9896L5.41755 10.9896C4.86755 10.9896 4.41755 11.4396 4.41755 11.9896C4.41755 12.5396 4.86755 12.9896 5.41755 12.9896Z" fill="white"/>
</g>
</svg>
