<svg width="74" height="74" viewBox="0 0 74 74" fill="none" xmlns="http://www.w3.org/2000/svg">
<g id="ic:round-error">
<path id="Vector" d="M37 6.16699C19.98 6.16699 6.16663 19.9803 6.16663 37.0003C6.16663 54.0203 19.98 67.8337 37 67.8337C54.02 67.8337 67.8333 54.0203 67.8333 37.0003C67.8333 19.9803 54.02 6.16699 37 6.16699ZM37 40.0837C35.3041 40.0837 33.9166 38.6962 33.9166 37.0003V24.667C33.9166 22.9712 35.3041 21.5837 37 21.5837C38.6958 21.5837 40.0833 22.9712 40.0833 24.667V37.0003C40.0833 38.6962 38.6958 40.0837 37 40.0837ZM40.0833 52.417H33.9166V46.2503H40.0833V52.417Z" fill="#E34731"/>
</g>
</svg>
