<svg width="52" height="74" viewBox="0 0 52 74" fill="none" xmlns="http://www.w3.org/2000/svg">
<g id="logos:google-maps" clip-path="url(#clip0_723_6694)">
<path id="Vector" d="M14.4233 54.8174C16.5635 57.5448 18.5114 60.4178 20.2528 63.4156C21.7397 66.2348 22.3595 68.1465 23.4461 71.5435C24.1125 73.4203 24.7148 73.9804 26.0097 73.9804C27.4207 73.9804 28.0609 73.0275 28.5555 71.5537C29.5827 68.3457 30.3886 65.8975 31.6601 63.5841C34.1551 59.1179 37.2555 55.1491 40.3018 51.3348C41.1264 50.2553 46.4585 43.9661 48.8589 39.0036C48.8589 39.0036 51.8093 33.5524 51.8093 25.9393C51.8093 18.818 48.8997 13.8789 48.8997 13.8789L40.5228 16.1223L35.4355 29.5211L34.1769 31.3687L33.9253 31.7034L33.5905 32.1224L33.003 32.7917L32.1634 33.6311L27.6332 37.3218L16.3074 43.8612L14.4233 54.8174Z" fill="#34A853"/>
<path id="Vector_2" d="M2.73389 38.088C5.4981 44.4018 10.8285 49.952 14.435 54.8227L33.5905 32.132C33.5905 32.132 30.8918 35.6614 25.9965 35.6614C20.5437 35.6614 16.1386 31.3071 16.1386 25.8165C16.1386 22.0514 18.4037 19.4648 18.4037 19.4648L5.40051 22.9491L2.73389 38.088Z" fill="#FBBC04"/>
<path id="Vector_3" d="M33.8045 1.16622C40.1665 3.21745 45.6119 7.52376 48.9056 13.8739L33.5965 32.1174C33.5965 32.1174 35.8616 29.484 35.8616 25.7423C35.8616 20.1239 31.1307 15.9267 26.0198 15.9267C21.1868 15.9267 18.4111 19.4503 18.4111 19.4503V7.95708L33.8045 1.16602V1.16622Z" fill="#4285F4"/>
<path id="Vector_4" d="M6.24316 9.22782C10.043 4.68156 16.7292 0 25.9471 0C30.4194 0 33.7887 1.17412 33.7887 1.17412L18.3967 19.461H7.49128L6.24316 9.22782Z" fill="#1A73E8"/>
<path id="Vector_5" d="M2.73394 38.0879C2.73394 38.0879 0.190918 33.1079 0.190918 25.8934C0.190918 19.0747 2.84161 13.1144 6.24299 9.22852L18.4052 19.4633L2.73394 38.0879Z" fill="#EA4335"/>
</g>
<defs>
<clipPath id="clip0_723_6694">
<rect width="51.6185" height="74" fill="white" transform="translate(0.190918)"/>
</clipPath>
</defs>
</svg>
