<svg width="133" height="134" viewBox="0 0 133 134" fill="none" xmlns="http://www.w3.org/2000/svg">
<path id="Logo" fill-rule="evenodd" clip-rule="evenodd" d="M126.757 94.9066C111.285 128.03 71.8902 142.34 38.7664 126.868C14.7817 115.665 0.661479 91.919 0.569452 67.093C0.562042 65.0934 2.13378 63.4744 4.12583 63.3013L23.1505 61.6483C23.151 61.6482 23.1515 61.6487 23.1514 61.6492C23.1513 61.6498 23.1518 61.6503 23.1523 61.6502L42.016 60.0121C45.166 59.3746 48.0085 57.4123 49.6735 54.4413C49.7034 54.3753 49.7338 54.3094 49.7645 54.2436C54.3572 44.4112 66.0511 40.1635 75.8835 44.7562C80.9128 47.1053 84.481 51.3124 86.1523 56.1779C86.1526 56.1788 86.1534 56.1793 86.1543 56.1792C86.1556 56.1791 86.1565 56.1778 86.1561 56.1766C85.575 54.4773 84.7618 52.8582 83.7352 51.3709C83.734 51.3691 83.7347 51.3666 83.7367 51.3658C83.7382 51.3652 83.7398 51.3657 83.7407 51.3669C84.7427 52.7228 86.0876 53.8553 87.7225 54.619C89.2618 55.338 90.8869 55.65 92.4762 55.599C92.4851 55.5987 92.493 55.6044 92.4954 55.6129C92.498 55.6218 92.5065 55.6276 92.5157 55.6268L103.935 54.6352C106.465 54.4155 108.159 51.9171 107.159 49.583C103.058 40.0064 95.5545 31.8447 85.3728 27.0888C63.39 16.8208 37.2455 26.3175 26.9774 48.3003C26.2618 49.8324 25.6422 51.3847 25.1161 52.9504C24.2963 55.3902 21.5619 56.762 19.2299 55.6727L6.383 49.672C4.59024 48.8346 3.66671 46.8075 4.32502 44.9415C5.04463 42.9018 5.87045 40.8784 6.80491 38.8778C22.2769 5.75398 61.6715 -8.55566 94.7952 6.91628C117.107 17.3378 130.882 38.6132 132.77 61.5151C132.806 61.9559 132.477 62.3412 132.036 62.3799L131.236 62.4501C131.232 62.4504 131.23 62.4537 131.23 62.4574C131.23 62.4612 131.227 62.4644 131.224 62.4648L116.466 63.7463L110.644 64.2572C110.643 64.2573 110.642 64.2562 110.641 64.2548C110.641 64.2533 110.64 64.2522 110.639 64.2523L93.4036 65.749C93.3881 65.7503 93.3758 65.7624 93.3741 65.7778C93.3725 65.7918 93.3621 65.8032 93.3483 65.8061C90.0059 66.4889 86.9716 68.4903 85.0582 71.515C80.2655 80.89 68.8684 84.8545 59.2519 80.3626C56.6688 79.1561 54.4712 77.4594 52.718 75.4352C52.7146 75.4312 52.7092 75.4294 52.7041 75.4304C52.6987 75.4315 52.6932 75.4295 52.6898 75.4253C51.4147 73.8394 49.7664 72.5134 47.7982 71.5941C46.08 70.7915 44.2804 70.3748 42.4974 70.3085C42.4739 70.3076 42.4536 70.2919 42.447 70.2694C42.4396 70.2446 42.4158 70.2283 42.3899 70.2306L27.2306 71.5469C24.9851 71.7419 23.3266 73.7589 23.7936 75.964C26.5545 88.9976 35.1881 100.623 48.1889 106.696C70.1717 116.964 96.3162 107.467 106.584 85.4842C107.472 83.5836 109.712 82.6418 111.615 83.5242L124.895 89.6818C126.82 90.5745 127.724 92.8211 126.831 94.7461C126.807 94.7996 126.782 94.8531 126.757 94.9066ZM63.6198 71.188C68.3304 73.3883 73.9328 71.3533 76.1331 66.6427C78.3334 61.9321 76.2984 56.3297 71.5878 54.1294C66.8772 51.9291 61.2748 53.9641 59.0745 58.6747C56.8742 63.3853 58.9092 68.9877 63.6198 71.188Z" fill="url(#paint0_linear_1_1574)"/>
<defs>
<linearGradient id="paint0_linear_1_1574" x1="93.5005" y1="6.5" x2="38.7664" y2="126.868" gradientUnits="userSpaceOnUse">
<stop stop-color="#3256B5"/>
<stop offset="0.471171" stop-color="#6EC3FE"/>
<stop offset="1" stop-color="#3355B9"/>
</linearGradient>
</defs>
</svg>
