<svg width="16" height="17" viewBox="0 0 16 17" fill="none" xmlns="http://www.w3.org/2000/svg">
<g id="material-symbols:speed-rounded">
<path id="Vector" d="M6.96671 10.8332C7.24448 11.1109 7.59448 11.2416 8.01671 11.2252C8.43893 11.2087 8.74448 11.0558 8.93337 10.7665L11.75 6.54984C11.85 6.39428 11.8363 6.2525 11.7087 6.1245C11.5812 5.9965 11.4394 5.98273 11.2834 6.08317L7.06671 8.89984C6.77782 9.09984 6.6196 9.40273 6.59204 9.8085C6.56448 10.2143 6.68937 10.5558 6.96671 10.8332ZM3.40004 13.8332C3.1556 13.8332 2.93071 13.7803 2.72537 13.6745C2.52004 13.5687 2.35604 13.4105 2.23337 13.1998C1.94449 12.6776 1.72226 12.1358 1.56671 11.5745C1.41115 11.0132 1.33337 10.4327 1.33337 9.83317C1.33337 8.91095 1.50849 8.04428 1.85871 7.23317C2.20893 6.42206 2.68382 5.7165 3.28337 5.1165C3.88337 4.5165 4.58893 4.04162 5.40004 3.69184C6.21115 3.34206 7.07782 3.16695 8.00004 3.1665C8.91115 3.1665 9.76671 3.33873 10.5667 3.68317C11.3667 4.02762 12.0667 4.49717 12.6667 5.09184C13.2667 5.68606 13.7445 6.3805 14.1 7.17517C14.4556 7.96984 14.6389 8.8225 14.65 9.73317C14.6612 10.3443 14.5916 10.9416 14.4414 11.5252C14.2912 12.1087 14.0607 12.6669 13.75 13.1998C13.6278 13.4109 13.4638 13.5694 13.258 13.6752C13.0523 13.7809 12.8274 13.8336 12.5834 13.8332H3.40004Z" fill="#3355B9"/>
</g>
</svg>
