<svg width="18" height="19" viewBox="0 0 18 19" fill="none" xmlns="http://www.w3.org/2000/svg">
<g id="material-symbols:call">
<rect y="0.5" width="18" height="18" rx="9" fill="#3355B9"/>
<path id="Vector" d="M12.3125 13.25C11.4444 13.25 10.5868 13.0607 9.73958 12.6821C8.89236 12.3035 8.12153 11.7671 7.42708 11.0729C6.73264 10.3785 6.19625 9.60764 5.81792 8.76042C5.43958 7.91319 5.25028 7.05556 5.25 6.1875C5.25 6.0625 5.29167 5.95833 5.375 5.875C5.45833 5.79167 5.5625 5.75 5.6875 5.75H7.375C7.47222 5.75 7.55903 5.78306 7.63542 5.84917C7.71181 5.91528 7.75694 5.99333 7.77083 6.08333L8.04167 7.54167C8.05556 7.65278 8.05208 7.74653 8.03125 7.82292C8.01042 7.89931 7.97222 7.96528 7.91667 8.02083L6.90625 9.04167C7.04514 9.29861 7.21 9.54681 7.40083 9.78625C7.59167 10.0257 7.80181 10.2567 8.03125 10.4792C8.24653 10.6944 8.47222 10.8942 8.70833 11.0783C8.94444 11.2625 9.19444 11.4308 9.45833 11.5833L10.4375 10.6042C10.5 10.5417 10.5817 10.4947 10.6825 10.4633C10.7833 10.4319 10.8822 10.4233 10.9792 10.4375L12.4167 10.7292C12.5139 10.7569 12.5937 10.8074 12.6562 10.8804C12.7187 10.9535 12.75 11.035 12.75 11.125V12.8125C12.75 12.9375 12.7083 13.0417 12.625 13.125C12.5417 13.2083 12.4375 13.25 12.3125 13.25Z" fill="white"/>
</g>
</svg>
