<svg width="16" height="16" viewBox="0 0 16 16" fill="none" xmlns="http://www.w3.org/2000/svg">
<g id="mdi:motorbike-electric">
<path id="Vector" d="M11.613 5.33329L8.93967 2.66663H5.99967V3.99996H8.39301L9.72634 5.33329H4.33301C2.66634 5.33329 1.33301 6.66663 1.33301 8.33329C1.33301 9.99996 2.66634 11.3333 4.33301 11.3333C5.81301 11.3333 7.03967 10.2533 7.27967 8.84663L8.69301 7.99996C8.66634 8.11329 8.66634 8.21996 8.66634 8.33329C8.66634 9.99996 9.99967 11.3333 11.6663 11.3333C13.333 11.3333 14.6663 9.99996 14.6663 8.33329C14.6663 6.66663 13.333 5.33329 11.6663 5.33329M5.89301 8.83996C5.66634 9.51329 5.05301 9.99996 4.31301 9.99996C3.87098 9.99996 3.44706 9.82436 3.1345 9.5118C2.82194 9.19924 2.64634 8.77532 2.64634 8.33329C2.64634 7.89127 2.82194 7.46734 3.1345 7.15478C3.44706 6.84222 3.87098 6.66663 4.31301 6.66663C5.05967 6.66663 5.66634 7.15996 5.89301 7.83329H3.99967V8.83329L5.89301 8.83996ZM11.6463 9.99996C11.2043 9.99996 10.7804 9.82436 10.4678 9.5118C10.1553 9.19924 9.97967 8.77532 9.97967 8.33329C9.97967 7.89127 10.1553 7.46734 10.4678 7.15478C10.7804 6.84222 11.2043 6.66663 11.6463 6.66663C12.0884 6.66663 12.5123 6.84222 12.8249 7.15478C13.1374 7.46734 13.313 7.89127 13.313 8.33329C13.313 8.77532 13.1374 9.19924 12.8249 9.5118C12.5123 9.82436 12.0884 9.99996 11.6463 9.99996ZM7.33301 13.3333H4.66634L8.66634 15.3333V14H11.333L7.33301 12V13.3333Z" fill="#3355B9"/>
</g>
</svg>
