<svg width="25" height="25" viewBox="0 0 25 25" fill="none" xmlns="http://www.w3.org/2000/svg">
<g id="mdi:motorbike-electric">
<path id="Vector" d="M17.7535 8.37598L13.7435 4.37598H9.3335V6.37598H12.9235L14.9235 8.37598H6.8335C4.3335 8.37598 2.3335 10.376 2.3335 12.876C2.3335 15.376 4.3335 17.376 6.8335 17.376C9.0535 17.376 10.8935 15.756 11.2535 13.646L13.3735 12.376C13.3335 12.546 13.3335 12.706 13.3335 12.876C13.3335 15.376 15.3335 17.376 17.8335 17.376C20.3335 17.376 22.3335 15.376 22.3335 12.876C22.3335 10.376 20.3335 8.37598 17.8335 8.37598M9.1735 13.636C8.8335 14.646 7.9135 15.376 6.8035 15.376C6.14045 15.376 5.50457 15.1126 5.03573 14.6437C4.56689 14.1749 4.3035 13.539 4.3035 12.876C4.3035 12.2129 4.56689 11.5771 5.03573 11.1082C5.50457 10.6394 6.14045 10.376 6.8035 10.376C7.9235 10.376 8.8335 11.116 9.1735 12.126H6.3335V13.626L9.1735 13.636ZM17.8035 15.376C17.1405 15.376 16.5046 15.1126 16.0357 14.6437C15.5669 14.1749 15.3035 13.539 15.3035 12.876C15.3035 12.2129 15.5669 11.5771 16.0357 11.1082C16.5046 10.6394 17.1405 10.376 17.8035 10.376C18.4665 10.376 19.1024 10.6394 19.5713 11.1082C20.0401 11.5771 20.3035 12.2129 20.3035 12.876C20.3035 13.539 20.0401 14.1749 19.5713 14.6437C19.1024 15.1126 18.4665 15.376 17.8035 15.376ZM11.3335 20.376H7.3335L13.3335 23.376V21.376H17.3335L11.3335 18.376V20.376Z" fill="#363636" fill-opacity="0.6"/>
</g>
</svg>
