<svg width="16" height="16" viewBox="0 0 16 16" fill="none" xmlns="http://www.w3.org/2000/svg">
<g id="mdi:location">
<path id="Vector" d="M7.99968 7.66671C7.55765 7.66671 7.13372 7.49111 6.82116 7.17855C6.5086 6.86599 6.33301 6.44207 6.33301 6.00004C6.33301 5.55801 6.5086 5.13409 6.82116 4.82153C7.13372 4.50897 7.55765 4.33337 7.99968 4.33337C8.4417 4.33337 8.86563 4.50897 9.17819 4.82153C9.49075 5.13409 9.66634 5.55801 9.66634 6.00004C9.66634 6.21891 9.62323 6.43564 9.53947 6.63785C9.45572 6.84006 9.33295 7.02379 9.17819 7.17855C9.02342 7.33332 8.83969 7.45608 8.63748 7.53984C8.43527 7.6236 8.21855 7.66671 7.99968 7.66671ZM7.99968 1.33337C6.762 1.33337 5.57501 1.82504 4.69984 2.70021C3.82467 3.57538 3.33301 4.76236 3.33301 6.00004C3.33301 9.50004 7.99968 14.6667 7.99968 14.6667C7.99968 14.6667 12.6663 9.50004 12.6663 6.00004C12.6663 4.76236 12.1747 3.57538 11.2995 2.70021C10.4243 1.82504 9.23735 1.33337 7.99968 1.33337Z" fill="#3355B9"/>
</g>
</svg>
