<svg width="24" height="25" viewBox="0 0 24 25" fill="none" xmlns="http://www.w3.org/2000/svg">
<g id="mingcute:close-line" clip-path="url(#clip0_1099_3713)">
<g id="Group">
<path id="Vector" fill-rule="evenodd" clip-rule="evenodd" d="M11.9999 13.9141L17.6569 19.5711C17.8455 19.7533 18.0982 19.8541 18.3603 19.8518C18.6225 19.8495 18.8734 19.7444 19.0588 19.559C19.2442 19.3736 19.3493 19.1227 19.3516 18.8606C19.3539 18.5984 19.2531 18.3458 19.0709 18.1571L13.4139 12.5001L19.0709 6.84315C19.2531 6.65455 19.3539 6.40194 19.3516 6.13975C19.3493 5.87755 19.2442 5.62674 19.0588 5.44133C18.8734 5.25592 18.6225 5.15075 18.3603 5.14848C18.0982 5.1462 17.8455 5.24699 17.6569 5.42915L11.9999 11.0861L6.34295 5.42915C6.15349 5.25149 5.90236 5.15451 5.64268 5.15873C5.38299 5.16295 5.13514 5.26803 4.95155 5.45174C4.76797 5.63546 4.66307 5.88339 4.65903 6.14307C4.655 6.40276 4.75216 6.65382 4.92995 6.84315L10.5859 12.5001L4.92895 18.1571C4.83343 18.2494 4.75725 18.3597 4.70484 18.4817C4.65244 18.6037 4.62485 18.735 4.62369 18.8677C4.62254 19.0005 4.64784 19.1322 4.69812 19.2551C4.7484 19.378 4.82266 19.4897 4.91655 19.5835C5.01044 19.6774 5.1221 19.7517 5.24499 19.802C5.36789 19.8523 5.49957 19.8776 5.63235 19.8764C5.76513 19.8752 5.89635 19.8477 6.01835 19.7953C6.14035 19.7428 6.2507 19.6667 6.34295 19.5711L11.9999 13.9141Z" fill="black"/>
</g>
</g>
<defs>
<clipPath id="clip0_1099_3713">
<rect width="24" height="24" fill="white" transform="translate(0 0.5)"/>
</clipPath>
</defs>
</svg>
