<svg width="16" height="16" viewBox="0 0 16 16" fill="none" xmlns="http://www.w3.org/2000/svg">
<g id="mingcute:time-line" clip-path="url(#clip0_1_5604)">
<g id="Group">
<path id="Vector" d="M7.99967 1.33337C11.6817 1.33337 14.6663 4.31804 14.6663 8.00004C14.6663 11.682 11.6817 14.6667 7.99967 14.6667C4.31767 14.6667 1.33301 11.682 1.33301 8.00004C1.33301 4.31804 4.31767 1.33337 7.99967 1.33337ZM7.99967 2.66671C6.58519 2.66671 5.22863 3.22861 4.22844 4.2288C3.22824 5.229 2.66634 6.58555 2.66634 8.00004C2.66634 9.41453 3.22824 10.7711 4.22844 11.7713C5.22863 12.7715 6.58519 13.3334 7.99967 13.3334C9.41416 13.3334 10.7707 12.7715 11.7709 11.7713C12.7711 10.7711 13.333 9.41453 13.333 8.00004C13.333 6.58555 12.7711 5.229 11.7709 4.2288C10.7707 3.22861 9.41416 2.66671 7.99967 2.66671ZM7.99967 4.00004C8.16296 4.00006 8.32057 4.06001 8.44259 4.16852C8.56461 4.27702 8.64257 4.42654 8.66167 4.58871L8.66634 4.66671V7.72404L10.471 9.52871C10.5906 9.64868 10.66 9.80966 10.6652 9.97896C10.6703 10.1483 10.6109 10.3132 10.4988 10.4402C10.3868 10.5673 10.2306 10.6469 10.062 10.663C9.89341 10.679 9.725 10.6303 9.59101 10.5267L9.52834 10.4714L7.52834 8.47137C7.42473 8.36767 7.35818 8.23271 7.33901 8.08737L7.33301 8.00004V4.66671C7.33301 4.4899 7.40325 4.32033 7.52827 4.1953C7.65329 4.07028 7.82286 4.00004 7.99967 4.00004Z" fill="#3355B9"/>
</g>
</g>
<defs>
<clipPath id="clip0_1_5604">
<rect width="16" height="16" fill="white"/>
</clipPath>
</defs>
</svg>
