<svg width="164" height="119" viewBox="0 0 164 119" fill="none" xmlns="http://www.w3.org/2000/svg">
<g id="push-notifications/rafiki">
<g id="background-complete">
<path id="Vector" d="M164 107.388H0V107.47H164V107.388Z" fill="#EBEBEB"/>
<path id="Vector_2" d="M147.567 112.665H136.704V112.747H147.567V112.665Z" fill="#EBEBEB"/>
<path id="Vector_3" d="M98.8718 112.707H96.0215V112.789H98.8718V112.707Z" fill="#EBEBEB"/>
<path id="Vector_4" d="M136.373 109.621H116.221V109.703H136.373V109.621Z" fill="#EBEBEB"/>
<path id="Vector_5" d="M73.8459 111.556H69.6836V111.638H73.8459V111.556Z" fill="#EBEBEB"/>
<path id="Vector_6" d="M66.7648 111.556H54.6846V111.638H66.7648V111.556Z" fill="#EBEBEB"/>
<path id="Vector_7" d="M25.5481 110.172H17.207V110.254H25.5481V110.172Z" fill="#EBEBEB"/>
<path id="Vector_8" d="M52.0795 110.172H27.5156V110.254H52.0795V110.172Z" fill="#EBEBEB"/>
<path id="Vector_9" d="M77.7363 92.7584H14.4028C13.9067 92.7575 13.4311 92.5598 13.0806 92.2087C12.7301 91.8576 12.5332 91.3817 12.5332 90.8855V1.85648C12.5375 1.36318 12.7363 0.891497 13.0864 0.543896C13.4364 0.196294 13.9095 0.000845055 14.4028 0H77.7363C78.233 0 78.7094 0.197321 79.0607 0.548554C79.4119 0.899787 79.6092 1.37616 79.6092 1.87288V90.8855C79.6092 91.3822 79.4119 91.8586 79.0607 92.2099C78.7094 92.5611 78.233 92.7584 77.7363 92.7584ZM14.4028 0.0656003C13.9284 0.0664691 13.4737 0.255533 13.1386 0.591294C12.8034 0.927055 12.6152 1.38208 12.6152 1.85648V90.8855C12.6152 91.3599 12.8034 91.815 13.1386 92.1507C13.4737 92.4865 13.9284 92.6755 14.4028 92.6764H77.7363C78.211 92.6755 78.666 92.4866 79.0017 92.1509C79.3374 91.8152 79.5263 91.3602 79.5272 90.8855V1.85648C79.5263 1.38178 79.3374 0.926762 79.0017 0.591094C78.666 0.255427 78.211 0.0664673 77.7363 0.0656003H14.4028Z" fill="#EBEBEB"/>
<path id="Vector_10" d="M148.685 92.7584H85.3485C84.852 92.7575 84.3761 92.5599 84.0251 92.2089C83.6741 91.8579 83.4765 91.382 83.4756 90.8855V1.85648C83.4808 1.36288 83.6803 0.891201 84.0308 0.543691C84.3814 0.19618 84.8548 0.000835839 85.3485 0H148.685C149.178 0.00170707 149.65 0.197538 150 0.545047C150.349 0.892556 150.547 1.36374 150.552 1.85648V90.8855C150.552 91.3811 150.355 91.8565 150.005 92.2075C149.656 92.5586 149.181 92.7567 148.685 92.7584ZM85.3485 0.0656003C84.8738 0.0664673 84.4187 0.255427 84.0831 0.591094C83.7474 0.926762 83.5585 1.38178 83.5576 1.85648V90.8855C83.5585 91.3602 83.7474 91.8152 84.0831 92.1509C84.4187 92.4866 84.8738 92.6755 85.3485 92.6764H148.685C149.16 92.6755 149.615 92.4866 149.951 92.1509C150.286 91.8152 150.475 91.3602 150.476 90.8855V1.85648C150.475 1.38178 150.286 0.926762 149.951 0.591094C149.615 0.255427 149.16 0.0664673 148.685 0.0656003H85.3485Z" fill="#EBEBEB"/>
<path id="Vector_11" d="M62.5759 63.7988L142.293 63.7988V5.56899L62.5759 5.56899L62.5759 63.7988Z" fill="#CDCDCD"/>
<path id="Vector_12" d="M59.0534 63.7988L141.477 63.7988V5.56899L59.0534 5.56899L59.0534 63.7988Z" fill="#F2F2F2"/>
<path id="Vector_13" d="M136.54 58.8665V10.5029L63.9832 10.5029V58.8665L136.54 58.8665Z" fill="#FAFAFA"/>
<path id="Vector_14" d="M118.903 58.8633L102.385 10.5029H86.6113L103.129 58.8633H118.903Z" fill="white"/>
<path id="Vector_15" d="M99.7419 58.8633L83.2239 10.5029H77.0771L93.5952 58.8633H99.7419Z" fill="white"/>
<path id="Vector_16" d="M64.6123 58.8665V10.5029H63.9858V58.8665H64.6123Z" fill="#CDCDCD"/>
<path id="Vector_17" d="M21.1792 47.96H49.3281L49.3281 8.0522H21.1792L21.1792 47.96Z" fill="#CBCBCB"/>
<path id="Vector_18" d="M19.1882 47.96L48.2031 47.96L48.2031 8.0522L19.1882 8.0522L19.1882 47.96Z" fill="#EBEAEA"/>
<path id="Vector_19" d="M45.3398 44.8111V11.1943L22.0518 11.1943L22.0518 44.8111H45.3398Z" fill="white"/>
<path id="Vector_20" d="M32.1208 75.8996C34.2101 70.7434 39.1793 68.8246 40.8981 65.5676C43.1449 61.3036 43.1317 54.9043 41.2261 52.5985C39.5598 50.5911 34.0494 64.1572 33.4295 65.6725C31.7287 69.7623 30.6646 74.0885 30.2741 78.5006C30.3201 75.3157 30.3627 72.39 30.3988 70.1333C30.5169 62.773 30.6612 60.4049 30.7268 59.6767C30.9564 59.3192 31.2286 58.9059 31.3828 58.6927C32.7177 56.8133 35.6763 54.573 37.1556 51.8408C39.3138 47.849 38.9661 43.0733 37.4508 41.2956C35.8665 39.4358 33.0687 43.831 31.5829 48.1836C30.097 52.5361 30.7301 56.7116 30.3135 60.3196C30.2282 61.0281 30.1364 63.7209 30.0544 67.4601C29.6017 63.4389 28.703 60.746 27.0401 58.2335C24.9933 55.147 23.2254 51.3881 21.5395 51.8736C19.8536 52.359 20.7589 57.3348 22.0938 60.8247C23.2877 63.9341 29.1425 67.037 30.0052 69.5364C29.9035 74.6007 29.8117 81.0164 29.7493 86.9958C29.2869 83.9093 29.605 83.6502 27.7092 78.9237C26.5841 76.1161 21.9757 72.6524 21.4181 74.581C20.8605 76.5097 21.7035 80.157 23.4452 82.7154C24.8523 84.7753 27.9716 84.772 28.6932 86.0512C28.8605 86.3497 29.4181 87.4944 29.7362 88.1504C29.6608 95.4451 29.628 101.887 29.6641 104.081L29.9658 104.104C29.9658 103.537 29.9888 99.8403 30.0478 94.9203C30.8055 92.2963 35.9059 90.7842 37.4803 88.0651C39.1203 85.2213 40.3142 81.902 39.6057 79.6814C39.0153 77.8282 34.3577 80.3374 32.4849 83.4173C31.2286 85.4641 30.4611 87.6453 30.1036 90.5776C30.1462 87.232 30.1954 83.6371 30.2413 80.2456C30.6251 79.3928 31.4877 77.4445 32.1208 75.8996Z" fill="#CDCDCD"/>
<path id="Vector_21" d="M35.1154 107.387H24.3964C24.1131 107.387 23.8386 107.289 23.6193 107.11C23.4 106.93 23.2493 106.681 23.1926 106.403L22.4316 102.664H37.0834L36.3224 106.413C36.2626 106.689 36.1102 106.936 35.8907 107.113C35.6711 107.29 35.3975 107.387 35.1154 107.387Z" fill="#F0F0F0"/>
<path id="Vector_22" d="M37.3919 104.104H22.1235C21.9467 104.104 21.7761 104.038 21.6443 103.92C21.5125 103.802 21.4286 103.64 21.4085 103.465L21.0805 100.693C21.0694 100.592 21.0797 100.49 21.1106 100.394C21.1414 100.298 21.1922 100.209 21.2597 100.133C21.3271 100.058 21.4097 99.9975 21.502 99.956C21.5943 99.9145 21.6943 99.8929 21.7955 99.8926H37.6838C37.7852 99.8924 37.8855 99.9136 37.978 99.955C38.0706 99.9963 38.1534 100.057 38.2209 100.132C38.2885 100.208 38.3392 100.297 38.3699 100.394C38.4006 100.49 38.4105 100.592 38.3989 100.693L38.0709 103.465C38.0517 103.634 37.973 103.792 37.8486 103.909C37.7243 104.026 37.5625 104.095 37.3919 104.104Z" fill="#F0F0F0"/>
<path id="Vector_23" d="M133.047 104.996H136.323V69.7394H133.047V104.996Z" fill="#F0F0F0"/>
<path id="Vector_24" d="M66.2759 107.345L135.067 107.345V104.996L66.2759 104.996V107.345Z" fill="#F0F0F0"/>
<path id="Vector_25" d="M133.05 69.7393H65.0195V104.996H133.05V69.7393Z" fill="#EBEAEA"/>
<path id="Vector_26" d="M133.821 69.7393H137.206V67.5154H133.821V69.7393Z" fill="#CBCBCB"/>
<path id="Vector_27" d="M133.82 67.5156H64.1367V69.7395H133.82V67.5156Z" fill="#EBEBEB"/>
<path id="Vector_28" d="M128.166 84.9522H69.9004C69.2044 84.9522 68.537 84.6757 68.0449 84.1836C67.5528 83.6915 67.2764 83.0241 67.2764 82.3282V74.7842C67.2764 74.0882 67.5528 73.4208 68.0449 72.9287C68.537 72.4366 69.2044 72.1602 69.9004 72.1602H128.166C128.862 72.1602 129.53 72.4366 130.022 72.9287C130.514 73.4208 130.79 74.0882 130.79 74.7842V82.3282C130.79 83.0241 130.514 83.6915 130.022 84.1836C129.53 84.6757 128.862 84.9522 128.166 84.9522ZM69.9004 72.8162C69.3784 72.8162 68.8779 73.0235 68.5088 73.3926C68.1397 73.7616 67.9324 74.2622 67.9324 74.7842V82.3282C67.9324 82.8501 68.1397 83.3507 68.5088 83.7197C68.8779 84.0888 69.3784 84.2962 69.9004 84.2962H128.166C128.688 84.2962 129.189 84.0888 129.558 83.7197C129.927 83.3507 130.134 82.8501 130.134 82.3282V74.7842C130.134 74.2622 129.927 73.7616 129.558 73.3926C129.189 73.0235 128.688 72.8162 128.166 72.8162H69.9004Z" fill="white"/>
<path id="Vector_29" d="M128.166 100.758H69.9004C69.2044 100.758 68.537 100.481 68.0449 99.9893C67.5528 99.4972 67.2764 98.8297 67.2764 98.1338V90.5898C67.2764 89.8939 67.5528 89.2265 68.0449 88.7344C68.537 88.2423 69.2044 87.9658 69.9004 87.9658H128.166C128.862 87.9658 129.53 88.2423 130.022 88.7344C130.514 89.2265 130.79 89.8939 130.79 90.5898V98.1338C130.79 98.8297 130.514 99.4972 130.022 99.9893C129.53 100.481 128.862 100.758 128.166 100.758ZM69.9004 88.5956C69.3784 88.5956 68.8779 88.8029 68.5088 89.172C68.1397 89.5411 67.9324 90.0416 67.9324 90.5636V98.1076C67.9324 98.6295 68.1397 99.1301 68.5088 99.4992C68.8779 99.8682 69.3784 100.076 69.9004 100.076H128.166C128.688 100.076 129.189 99.8682 129.558 99.4992C129.927 99.1301 130.134 98.6295 130.134 98.1076V90.5636C130.134 90.0416 129.927 89.5411 129.558 89.172C129.189 88.8029 128.688 88.5956 128.166 88.5956H69.9004Z" fill="white"/>
<path id="Vector_30" d="M114.925 79.7041H83.1419C82.9163 79.7041 82.6998 79.6147 82.54 79.4554C82.3802 79.2962 82.2899 79.0802 82.2891 78.8546V78.2314C82.2899 78.0057 82.3802 77.7897 82.54 77.6304C82.6998 77.4712 82.9163 77.3818 83.1419 77.3818H114.925C115.151 77.3818 115.367 77.4712 115.527 77.6304C115.687 77.7897 115.777 78.0057 115.778 78.2314V78.8546C115.777 79.0802 115.687 79.2962 115.527 79.4554C115.367 79.6147 115.151 79.7041 114.925 79.7041ZM83.1419 78.0641C83.0905 78.0649 83.0414 78.0854 83.0048 78.1215C82.9681 78.1575 82.9467 78.2062 82.9451 78.2576V78.8808C82.9467 78.9321 82.9681 78.9809 83.0048 79.0169C83.0414 79.0529 83.0905 79.0735 83.1419 79.0743H114.925C114.977 79.0743 115.026 79.054 115.063 79.0178C115.1 78.9816 115.121 78.9324 115.122 78.8808V78.2576C115.121 78.206 115.1 78.1567 115.063 78.1205C115.026 78.0843 114.977 78.0641 114.925 78.0641H83.1419Z" fill="white"/>
<path id="Vector_31" d="M114.925 95.5107H83.1419C82.9163 95.5107 82.6998 95.4213 82.54 95.2621C82.3802 95.1029 82.2899 94.8868 82.2891 94.6612V94.038C82.2899 93.8124 82.3802 93.5963 82.54 93.4371C82.6998 93.2779 82.9163 93.1885 83.1419 93.1885H114.925C115.151 93.1885 115.367 93.2779 115.527 93.4371C115.687 93.5963 115.777 93.8124 115.778 94.038V94.6612C115.777 94.8868 115.687 95.1029 115.527 95.2621C115.367 95.4213 115.151 95.5107 114.925 95.5107ZM83.1419 93.8445C83.0905 93.8453 83.0414 93.8658 83.0048 93.9019C82.9681 93.9379 82.9467 93.9866 82.9451 94.038V94.6612C82.9467 94.7126 82.9681 94.7613 83.0048 94.7973C83.0414 94.8334 83.0905 94.8539 83.1419 94.8547H114.925C114.977 94.8547 115.026 94.8344 115.063 94.7982C115.1 94.762 115.121 94.7128 115.122 94.6612V94.038C115.121 93.9864 115.1 93.9372 115.063 93.901C115.026 93.8648 114.977 93.8445 114.925 93.8445H83.1419Z" fill="white"/>
</g>
<g id="Device">
<path id="Vector_32" d="M133.764 39.8085L133.618 42.0596L134 42.0842L134.145 39.8331L133.764 39.8085Z" fill="#87969E"/>
<path id="Vector_33" d="M134.343 30.6662L133.866 38.0645L134.248 38.0891L134.725 30.6908L134.343 30.6662Z" fill="#87969E"/>
<path id="Vector_34" d="M129.806 19.9221H84.8617C83.7076 19.9423 82.6025 20.3918 81.762 21.1829C80.9214 21.9739 80.4058 23.0498 80.3156 24.2005L74.5079 113.859C74.4655 114.409 74.5378 114.961 74.7202 115.482C74.9026 116.002 75.1912 116.478 75.5677 116.881C75.9441 117.284 76.4001 117.604 76.9068 117.821C77.4135 118.038 77.9598 118.147 78.511 118.142H123.448C124.604 118.122 125.711 117.673 126.554 116.881C127.396 116.089 127.914 115.012 128.005 113.859L133.809 24.2005C133.851 23.6511 133.779 23.0989 133.597 22.5789C133.414 22.059 133.125 21.5827 132.749 21.1803C132.373 20.7779 131.916 20.4582 131.41 20.2416C130.903 20.025 130.357 19.9162 129.806 19.9221Z" fill="#87969E"/>
<path id="Vector_35" opacity="0.7" d="M128.38 19.9221H84.8617C83.7076 19.9423 82.6025 20.3918 81.762 21.1829C80.9214 21.9739 80.4058 23.0498 80.3156 24.2005L74.5079 113.859C74.4655 114.409 74.5378 114.961 74.7202 115.482C74.9026 116.002 75.1912 116.478 75.5677 116.881C75.9441 117.284 76.4001 117.604 76.9068 117.821C77.4135 118.038 77.9598 118.147 78.511 118.142H122.021C123.177 118.122 124.285 117.673 125.128 116.881C125.97 116.089 126.488 115.012 126.579 113.859L132.383 24.2005C132.425 23.6511 132.353 23.0989 132.17 22.5789C131.988 22.059 131.699 21.5827 131.323 21.1803C130.946 20.7779 130.49 20.4582 129.984 20.2416C129.477 20.025 128.931 19.9162 128.38 19.9221Z" fill="white"/>
<path id="Vector_36" d="M124.71 111.515H76.8406C76.6616 111.516 76.4844 111.479 76.32 111.409C76.1556 111.338 76.0075 111.234 75.8849 111.103C75.7623 110.973 75.6678 110.819 75.6073 110.65C75.5468 110.482 75.5215 110.302 75.533 110.124L80.7863 28.9911C80.8077 28.6597 80.9543 28.3489 81.1965 28.1217C81.4386 27.8945 81.7581 27.7679 82.0901 27.7676H129.963C130.142 27.7677 130.319 27.8046 130.484 27.876C130.648 27.9473 130.796 28.0516 130.919 28.1823C131.041 28.3131 131.136 28.4676 131.196 28.6363C131.257 28.805 131.282 28.9843 131.271 29.1631L126.017 110.292C125.996 110.624 125.849 110.935 125.606 111.163C125.363 111.39 125.042 111.516 124.71 111.515Z" fill="white"/>
<path id="Vector_37" d="M114.073 25.1145H96.6724C96.5829 25.1153 96.4942 25.0975 96.4119 25.0622C96.3296 25.0269 96.2556 24.9749 96.1945 24.9095C96.1334 24.844 96.0865 24.7666 96.0569 24.6821C96.0273 24.5977 96.0155 24.5079 96.0224 24.4187C96.04 24.2332 96.1247 24.0606 96.2606 23.9332C96.3965 23.8058 96.5742 23.7323 96.7604 23.7266H114.161C114.25 23.7253 114.339 23.7426 114.421 23.7775C114.503 23.8124 114.577 23.864 114.638 23.9291C114.7 23.9943 114.747 24.0715 114.776 24.1557C114.806 24.24 114.818 24.3296 114.811 24.4187C114.794 24.6048 114.71 24.7783 114.574 24.9065C114.438 25.0348 114.26 25.1087 114.073 25.1145Z" fill="white"/>
<path id="Vector_38" d="M100.492 114.922C100.464 115.38 100.263 115.811 99.9305 116.127C99.5978 116.444 99.1576 116.623 98.6985 116.627C98.478 116.629 98.2595 116.586 98.0565 116.5C97.8536 116.414 97.6705 116.287 97.5188 116.127C97.3671 115.967 97.2499 115.777 97.1746 115.57C97.0994 115.363 97.0676 115.142 97.0812 114.922C97.1101 114.465 97.3111 114.035 97.6437 113.719C97.9763 113.404 98.4159 113.226 98.8744 113.221C99.0947 113.218 99.3131 113.261 99.5161 113.347C99.719 113.433 99.9021 113.559 100.054 113.719C100.206 113.879 100.323 114.068 100.398 114.275C100.474 114.482 100.505 114.702 100.492 114.922Z" fill="white"/>
<path id="Vector_39" opacity="0.2" d="M119.494 50.2266H78.6175L76.0176 90.3341H119.494C120.628 90.3321 121.715 89.8808 122.518 89.079C123.32 88.2772 123.773 87.1901 123.776 86.0557V54.5202C123.777 53.3832 123.326 52.2922 122.523 51.4871C121.72 50.682 120.631 50.2286 119.494 50.2266Z" fill="#87969E"/>
</g>
<g id="Notification">
<path id="Vector_40" d="M115.686 46.6748H65.5918C63.2268 46.6748 61.3096 48.592 61.3096 50.957V82.504C61.3096 84.869 63.2268 86.7862 65.5918 86.7862H115.686C118.051 86.7862 119.968 84.869 119.968 82.504V50.957C119.968 48.592 118.051 46.6748 115.686 46.6748Z" fill="#3355B9"/>
<path id="Vector_41" d="M103.986 52.2587C103.796 51.9138 103.204 51.9138 103.014 52.2587L98.0643 61.2257C98.0198 61.306 97.9977 61.3961 98.0002 61.4871C98.0027 61.5781 98.0298 61.6669 98.0787 61.7449C98.1277 61.8229 98.1969 61.8874 98.2796 61.9321C98.3622 61.9768 98.4556 62.0002 98.5505 62H108.45C108.545 62.0002 108.638 61.9768 108.721 61.9321C108.803 61.8874 108.872 61.823 108.921 61.7451C108.97 61.6671 108.997 61.5784 109 61.4874C109.002 61.3965 108.98 61.3065 108.936 61.2262L103.986 52.2587ZM104.05 60.4176H102.95V59.3627H104.05V60.4176ZM102.95 58.3077V55.6704H104.05L104.051 58.3077H102.95Z" fill="white"/>
<path id="Vector_42" d="M59.9404 46.2124C59.8401 46.2119 59.7439 46.1721 59.6727 46.1015L58.9845 45.4171C58.9125 45.3451 58.8721 45.2474 58.8721 45.1456C58.8721 45.0438 58.9125 44.9462 58.9845 44.8742C59.0565 44.8022 59.1542 44.7617 59.256 44.7617C59.3578 44.7617 59.4554 44.8022 59.5274 44.8742L60.2118 45.5624C60.283 45.634 60.323 45.7309 60.323 45.8319C60.323 45.9329 60.283 46.0298 60.2118 46.1015C60.1761 46.1369 60.1337 46.1649 60.0871 46.184C60.0406 46.203 59.9907 46.2126 59.9404 46.2124Z" fill="#3355B9"/>
<path id="Vector_43" d="M58.9043 48.6133H57.937C57.8356 48.6133 57.7384 48.573 57.6667 48.5013C57.595 48.4296 57.5547 48.3324 57.5547 48.231C57.5547 48.1296 57.595 48.0323 57.6667 47.9606C57.7384 47.8889 57.8356 47.8486 57.937 47.8486H58.9043C59.0058 47.8486 59.103 47.8889 59.1747 47.9606C59.2464 48.0323 59.2867 48.1296 59.2867 48.231C59.2867 48.3324 59.2464 48.4296 59.1747 48.5013C59.103 48.573 59.0058 48.6133 58.9043 48.6133Z" fill="#3355B9"/>
<path id="Vector_44" d="M62.376 45.18C62.2791 45.1803 62.1857 45.1437 62.1147 45.0776C62.0437 45.0116 62.0004 44.9211 61.9937 44.8244L61.9248 43.8571C61.9212 43.8069 61.9275 43.7564 61.9434 43.7086C61.9594 43.6608 61.9846 43.6167 62.0176 43.5787C62.0506 43.5406 62.0909 43.5095 62.136 43.4871C62.1811 43.4647 62.2302 43.4514 62.2804 43.448C62.3812 43.4417 62.4805 43.4756 62.5564 43.5422C62.6323 43.6088 62.6788 43.7028 62.6857 43.8036L62.7583 44.7709C62.762 44.8211 62.7557 44.8716 62.7397 44.9194C62.7238 44.9672 62.6986 45.0113 62.6656 45.0494C62.6325 45.0874 62.5923 45.1185 62.5472 45.1409C62.5021 45.1633 62.453 45.1766 62.4028 45.18H62.376Z" fill="#3355B9"/>
<path id="Vector_45" d="M94.917 82.6611L110.299 98.0389V82.6611H94.917Z" fill="#3355B9"/>
<path id="Vector_46" d="M97.8822 73.4465L96.4491 70.4352C96.0801 69.6419 95.893 68.7762 95.9015 67.9014L95.964 63.1587C95.9727 61.1401 95.3075 59.1763 94.0736 57.5787C92.8398 55.981 91.1081 54.8409 89.1529 54.339C89.168 54.2487 89.1784 54.1577 89.1839 54.0663C89.186 53.7789 89.1315 53.494 89.0235 53.2277C88.9155 52.9614 88.7561 52.719 88.5544 52.5143C88.3527 52.3096 88.1126 52.1467 87.848 52.0348C87.5833 51.9229 87.2992 51.8642 87.0118 51.862C86.7245 51.8599 86.4395 51.9144 86.1733 52.0225C85.907 52.1305 85.6646 52.2899 85.4599 52.4916C85.2552 52.6933 85.0922 52.9333 84.9803 53.198C84.8684 53.4626 84.8097 53.7468 84.8076 54.0341C84.8079 54.1255 84.8159 54.2167 84.8313 54.3067C82.869 54.7792 81.1204 55.8928 79.8624 57.4712C78.6043 59.0496 77.9088 61.0025 77.8858 63.0208L77.8503 67.7616C77.8441 68.6343 77.6424 69.4946 77.2599 70.2792L75.7988 73.2744C75.6561 73.5681 75.59 73.8931 75.6067 74.2192C75.6234 74.5454 75.7224 74.8619 75.8945 75.1395C76.0665 75.417 76.306 75.6465 76.5906 75.8065C76.8753 75.9666 77.1958 76.052 77.5223 76.0548L96.133 76.1949C96.4578 76.1949 96.7774 76.113 97.0621 75.9567C97.3469 75.8004 97.5876 75.5748 97.7619 75.3008C97.9363 75.0268 98.0388 74.7132 98.0598 74.389C98.0808 74.0649 98.0197 73.7407 97.8822 73.4465Z" fill="white"/>
<path id="Vector_47" d="M84.6883 77.3223C84.5469 77.3217 84.4074 77.356 84.2824 77.4222C84.1574 77.4883 84.0506 77.5843 83.9715 77.7016C83.8924 77.8188 83.8434 77.9538 83.8289 78.0945C83.8145 78.2353 83.8349 78.3774 83.8885 78.5083C84.1202 79.0868 84.5188 79.5832 85.0336 79.9343C85.5484 80.2855 86.156 80.4755 86.7792 80.4801C87.4023 80.4847 88.0127 80.3037 88.5326 79.9603C89.0526 79.6168 89.4585 79.1263 89.6988 78.5513C89.754 78.4215 89.7764 78.2801 89.7641 78.1396C89.7518 77.999 89.7051 77.8637 89.6281 77.7454C89.5512 77.6272 89.4463 77.5297 89.3228 77.4615C89.1993 77.3933 89.0609 77.3566 88.9199 77.3545L84.6883 77.3223Z" fill="white"/>
</g>
</g>
</svg>
