<svg width="24" height="25" viewBox="0 0 24 25" fill="none" xmlns="http://www.w3.org/2000/svg">
<g id="ri:hand-heart-fill">
<path id="Vector" d="M9.33488 11.8779H11.5049C12.0958 11.8779 12.681 11.9943 13.227 12.2205C13.7729 12.4466 14.269 12.7781 14.6869 13.196C15.1047 13.6138 15.4362 14.1099 15.6623 14.6559C15.8885 15.2018 16.0049 15.787 16.0049 16.3779H9.00388V17.3779H17.0039V16.3779C17.001 15.314 16.694 14.2731 16.1189 13.3779H19.0049C19.9503 13.3778 20.8763 13.6456 21.6756 14.1504C22.4749 14.6552 23.1148 15.3762 23.5209 16.2299C21.1559 19.3499 17.3269 21.3789 13.0049 21.3789C10.2439 21.3789 7.90488 20.7879 6.00488 19.7539V10.4499C7.22141 10.6239 8.37027 11.1165 9.33488 11.8779ZM4.00488 9.37793C4.24997 9.37799 4.4865 9.46805 4.66956 9.63102C4.85262 9.79398 4.96945 10.0185 4.99788 10.2619L5.00488 10.3779V19.3779C5.00488 19.6431 4.89953 19.8975 4.71199 20.085C4.52445 20.2726 4.2701 20.3779 4.00488 20.3779H2.00488C1.73967 20.3779 1.48531 20.2726 1.29778 20.085C1.11024 19.8975 1.00488 19.6431 1.00488 19.3779V10.3779C1.00488 10.1127 1.11024 9.85836 1.29778 9.67082C1.48531 9.48329 1.73967 9.37793 2.00488 9.37793H4.00488Z" fill="#363636" fill-opacity="0.6"/>
<path id="Vector_2" fill-rule="evenodd" clip-rule="evenodd" d="M14.1554 3.42918C14.0191 3.37598 13.846 3.37598 13.5 3.37598C13.1541 3.37598 12.9809 3.37598 12.8446 3.42918C12.6632 3.49995 12.5187 3.63629 12.443 3.80823C12.4084 3.88628 12.3952 3.97763 12.3896 4.11028C12.3872 4.20639 12.359 4.30032 12.3076 4.38318C12.2563 4.46604 12.1836 4.5351 12.0964 4.58383C12.0075 4.63076 11.9076 4.65563 11.8059 4.65612C11.7042 4.65661 11.604 4.6327 11.5147 4.58663C11.3901 4.52433 11.2999 4.49003 11.2107 4.47883C11.0157 4.4545 10.8184 4.50431 10.6618 4.61743C10.5446 4.70213 10.4581 4.84353 10.2853 5.12598C10.1121 5.40843 10.0259 5.54948 10.0064 5.68773C9.98059 5.87183 10.0336 6.05803 10.1537 6.20538C10.2083 6.27258 10.2853 6.32893 10.4043 6.39963C10.58 6.50358 10.6927 6.68068 10.6927 6.87598C10.6927 7.07128 10.58 7.24838 10.4046 7.35198C10.2853 7.42303 10.2083 7.47938 10.1534 7.54658C10.0941 7.61936 10.0506 7.70258 10.0253 7.79143C10.0001 7.88028 9.99367 7.973 10.0064 8.06423C10.0259 8.20213 10.1121 8.34353 10.2853 8.62598C10.4584 8.90843 10.5446 9.04948 10.6618 9.13453C10.818 9.24758 11.0155 9.29728 11.2107 9.27313C11.2999 9.26193 11.3901 9.22763 11.5147 9.16533C11.6041 9.11919 11.7043 9.09525 11.8061 9.09574C11.9078 9.09623 12.0078 9.12113 12.0967 9.16813C12.2758 9.26613 12.3819 9.44638 12.3896 9.64168C12.3952 9.77468 12.4084 9.86568 12.443 9.94373C12.5182 10.1152 12.6626 10.2517 12.8446 10.3228C12.9809 10.376 13.1541 10.376 13.5 10.376C13.846 10.376 14.0191 10.376 14.1554 10.3228C14.3369 10.252 14.4813 10.1157 14.557 9.94373C14.5916 9.86568 14.6049 9.77468 14.6104 9.64168C14.6178 9.44638 14.7242 9.26578 14.9037 9.16813C14.9925 9.12119 15.0925 9.09633 15.1941 9.09584C15.2958 9.09535 15.396 9.11925 15.4854 9.16533C15.6099 9.22763 15.7002 9.26193 15.7893 9.27313C15.9846 9.29763 16.1821 9.24758 16.3383 9.13453C16.4554 9.04983 16.542 8.90843 16.7148 8.62598C16.8879 8.34353 16.9741 8.20248 16.9937 8.06423C17.0063 7.97297 16.9998 7.88024 16.9745 7.79139C16.9492 7.70254 16.9056 7.61933 16.8463 7.54658C16.7918 7.47938 16.7148 7.42303 16.5958 7.35233C16.42 7.24838 16.3073 7.07128 16.3073 6.87598C16.3073 6.68068 16.42 6.50358 16.5954 6.39998C16.7148 6.32893 16.7918 6.27258 16.8467 6.20538C16.9059 6.1326 16.9495 6.04938 16.9747 5.96053C16.9999 5.87168 17.0064 5.77896 16.9937 5.68773C16.9741 5.54983 16.8879 5.40843 16.7148 5.12598C16.5416 4.84353 16.4554 4.70248 16.3383 4.61743C16.1817 4.50431 15.9844 4.4545 15.7893 4.47883C15.7002 4.49003 15.6099 4.52433 15.4854 4.58663C15.396 4.63277 15.2957 4.6567 15.194 4.65621C15.0922 4.65572 14.9922 4.63082 14.9033 4.58383C14.8161 4.53506 14.7435 4.46598 14.6922 4.38312C14.641 4.30026 14.6128 4.20635 14.6104 4.11028C14.6049 3.97728 14.5916 3.88628 14.557 3.80823C14.5195 3.72308 14.4648 3.64579 14.3959 3.58075C14.327 3.51571 14.2453 3.4642 14.1554 3.42918ZM13.5 7.92598C14.1153 7.92598 14.6137 7.45593 14.6137 6.87598C14.6137 6.29603 14.1149 5.82598 13.5 5.82598C12.8848 5.82598 12.3863 6.29603 12.3863 6.87598C12.3863 7.45593 12.8851 7.92598 13.5 7.92598Z" fill="#363636" fill-opacity="0.6"/>
</g>
</svg>
