<svg width="74" height="74" viewBox="0 0 74 74" fill="none" xmlns="http://www.w3.org/2000/svg">
<g id="solar:user-id-bold">
<path id="Vector" fill-rule="evenodd" clip-rule="evenodd" d="M30.8333 12.333H43.1666C54.7939 12.333 60.609 12.333 64.2196 15.9467C67.8333 19.5573 67.8333 25.3724 67.8333 36.9997C67.8333 48.6269 67.8333 54.4421 64.2196 58.0527C60.609 61.6663 54.7939 61.6663 43.1666 61.6663H30.8333C19.206 61.6663 13.3909 61.6663 9.78029 58.0527C6.16663 54.4421 6.16663 48.6269 6.16663 36.9997C6.16663 25.3724 6.16663 19.5573 9.78029 15.9467C13.3909 12.333 19.206 12.333 30.8333 12.333ZM40.8541 27.7497C40.8541 27.1364 41.0978 26.5482 41.5314 26.1145C41.9651 25.6808 42.5533 25.4372 43.1666 25.4372H58.5833C59.1966 25.4372 59.7848 25.6808 60.2185 26.1145C60.6522 26.5482 60.8958 27.1364 60.8958 27.7497C60.8958 28.363 60.6522 28.9512 60.2185 29.3849C59.7848 29.8185 59.1966 30.0622 58.5833 30.0622H43.1666C42.5533 30.0622 41.9651 29.8185 41.5314 29.3849C41.0978 28.9512 40.8541 28.363 40.8541 27.7497ZM43.9375 36.9997C43.9375 36.3864 44.1811 35.7982 44.6148 35.3645C45.0485 34.9308 45.6367 34.6872 46.25 34.6872H58.5833C59.1966 34.6872 59.7848 34.9308 60.2185 35.3645C60.6522 35.7982 60.8958 36.3864 60.8958 36.9997C60.8958 37.613 60.6522 38.2012 60.2185 38.6349C59.7848 39.0685 59.1966 39.3122 58.5833 39.3122H46.25C45.6367 39.3122 45.0485 39.0685 44.6148 38.6349C44.1811 38.2012 43.9375 37.613 43.9375 36.9997ZM47.0208 46.2497C47.0208 45.6364 47.2644 45.0482 47.6981 44.6145C48.1318 44.1808 48.72 43.9372 49.3333 43.9372H58.5833C59.1966 43.9372 59.7848 44.1808 60.2185 44.6145C60.6522 45.0482 60.8958 45.6364 60.8958 46.2497C60.8958 46.863 60.6522 47.4512 60.2185 47.8849C59.7848 48.3185 59.1966 48.5622 58.5833 48.5622H49.3333C48.72 48.5622 48.1318 48.3185 47.6981 47.8849C47.2644 47.4512 47.0208 46.863 47.0208 46.2497ZM33.9166 27.7497C33.9166 29.3852 33.2669 30.9537 32.1105 32.1102C30.954 33.2666 29.3855 33.9163 27.75 33.9163C26.1145 33.9163 24.5459 33.2666 23.3895 32.1102C22.233 30.9537 21.5833 29.3852 21.5833 27.7497C21.5833 26.1142 22.233 24.5457 23.3895 23.3892C24.5459 22.2327 26.1145 21.583 27.75 21.583C29.3855 21.583 30.954 22.2327 32.1105 23.3892C33.2669 24.5457 33.9166 26.1142 33.9166 27.7497ZM27.75 52.4163C40.0833 52.4163 40.0833 49.6568 40.0833 46.2497C40.0833 42.8426 34.5641 40.083 27.75 40.083C20.9358 40.083 15.4166 42.8426 15.4166 46.2497C15.4166 49.6568 15.4166 52.4163 27.75 52.4163Z" fill="#3355B9"/>
</g>
</svg>
