<svg width="134" height="94" viewBox="0 0 134 94" fill="none" xmlns="http://www.w3.org/2000/svg">
<g id="take-away/rafiki">
<g id="background-complete">
<path id="Vector" d="M134 81.8804H0V81.9475H134V81.8804Z" fill="#EBEBEB"/>
<path id="Vector_2" d="M36.8928 83.7075H28.0166V83.7746H36.8928V83.7075Z" fill="#EBEBEB"/>
<path id="Vector_3" d="M56.7867 86.1675H45.8657V86.2346H56.7867V86.1675Z" fill="#EBEBEB"/>
<path id="Vector_4" d="M27.7485 85.3276H14.0591V85.3947H27.7485V85.3276Z" fill="#EBEBEB"/>
<path id="Vector_5" d="M120.573 84.1587H95.6113V84.2258H120.573V84.1587Z" fill="#EBEBEB"/>
<path id="Vector_6" d="M93.2267 84.1587H91.5303V84.2258H93.2267V84.1587Z" fill="#EBEBEB"/>
<path id="Vector_7" d="M85.6101 85.2915H74.2925V85.3586H85.6101V85.2915Z" fill="#EBEBEB"/>
<path id="Vector_8" d="M18.9395 25.1656H42.1911C42.1911 25.1656 40.9396 22.2506 36.7588 23.1579C36.7588 23.1579 35.8797 19.8429 32.6905 20.3019C32.6905 20.3019 30.0507 17.4353 26.1996 18.5465C22.3484 19.6577 22.6807 23.1579 22.6807 23.1579C22.6807 23.1579 19.8319 22.4117 18.9395 25.1656Z" fill="#FAFAFA"/>
<path id="Vector_9" d="M81.1748 7.40602H57.9258C57.9258 7.40602 59.1747 4.48836 63.3555 5.3956C63.3555 5.3956 64.2345 2.08068 67.4264 2.53967C67.4264 2.53967 70.0662 -0.324311 73.9147 0.786924C77.7631 1.89816 77.4362 5.3956 77.4362 5.3956C77.4362 5.3956 80.2957 4.65209 81.1748 7.40602Z" fill="#FAFAFA"/>
<path id="Vector_10" d="M98.3208 6.64583H116.108C116.108 6.64583 115.427 4.20058 112.854 5.00582C112.854 5.00582 113.39 1.71506 111.493 1.33391C109.596 0.952763 108.993 3.45707 108.993 3.45707C108.558 2.96422 107.995 2.60258 107.367 2.41289C106.739 2.2232 106.07 2.21299 105.436 2.38341C104.813 2.54594 104.245 2.87382 103.792 3.33251C103.339 3.79119 103.019 4.3637 102.863 4.98972C102.863 4.98972 99.6956 3.17255 98.3208 6.64583Z" fill="#FAFAFA"/>
<path id="Vector_11" d="M33.9557 38.8726H12.3174V81.8108H33.9557V38.8726Z" fill="#E6E6E6"/>
<path id="Vector_12" d="M30.0215 38.8726H12.3174V81.8108H30.0215V38.8726Z" fill="#F0F0F0"/>
<path id="Vector_13" d="M34.2098 38.8726H11.8506V39.5731H34.2098V38.8726Z" fill="#E0E0E0"/>
<path id="Vector_14" d="M34.2098 37.4712H11.8506V38.1718H34.2098V37.4712Z" fill="#E0E0E0"/>
<path id="Vector_15" d="M33.7413 38.1714H12.3174V38.8719H33.7413V38.1714Z" fill="#F0F0F0"/>
<path id="Vector_16" d="M17.3234 41.3979H13.9976V44.78H17.3234V41.3979Z" fill="#E6E6E6"/>
<path id="Vector_17" d="M17.3211 41.3979H14.29V44.78H17.3211V41.3979Z" fill="#F5F5F5"/>
<path id="Vector_18" d="M22.3591 41.3979H19.0332V44.78H22.3591V41.3979Z" fill="#E6E6E6"/>
<path id="Vector_19" d="M22.3568 41.3979H19.3257V44.78H22.3568V41.3979Z" fill="#F5F5F5"/>
<path id="Vector_20" d="M27.3952 41.3979H24.0693V44.78H27.3952V41.3979Z" fill="#E6E6E6"/>
<path id="Vector_21" d="M27.3919 41.3979H24.3608V44.78H27.3919V41.3979Z" fill="#F5F5F5"/>
<path id="Vector_22" d="M17.3234 46.3765H13.9976V49.7585H17.3234V46.3765Z" fill="#E6E6E6"/>
<path id="Vector_23" d="M17.3211 46.3765H14.29V49.7585H17.3211V46.3765Z" fill="#F5F5F5"/>
<path id="Vector_24" d="M22.3591 46.3765H19.0332V49.7585H22.3591V46.3765Z" fill="#E6E6E6"/>
<path id="Vector_25" d="M22.3568 46.3765H19.3257V49.7585H22.3568V46.3765Z" fill="#F5F5F5"/>
<path id="Vector_26" d="M27.3952 46.3765H24.0693V49.7585H27.3952V46.3765Z" fill="#E6E6E6"/>
<path id="Vector_27" d="M27.3919 46.3765H24.3608V49.7585H27.3919V46.3765Z" fill="#F5F5F5"/>
<path id="Vector_28" d="M17.3234 55.4956H13.9976V58.8776H17.3234V55.4956Z" fill="#E6E6E6"/>
<path id="Vector_29" d="M17.3211 55.4956H14.29V58.8776H17.3211V55.4956Z" fill="#F5F5F5"/>
<path id="Vector_30" d="M22.3591 55.4956H19.0332V58.8776H22.3591V55.4956Z" fill="#E6E6E6"/>
<path id="Vector_31" d="M22.3568 55.4956H19.3257V58.8776H22.3568V55.4956Z" fill="#F5F5F5"/>
<path id="Vector_32" d="M27.3952 55.4956H24.0693V58.8776H27.3952V55.4956Z" fill="#E6E6E6"/>
<path id="Vector_33" d="M27.3919 55.4956H24.3608V58.8776H27.3919V55.4956Z" fill="#F5F5F5"/>
<path id="Vector_34" d="M17.3234 60.4751H13.9976V63.8571H17.3234V60.4751Z" fill="#E6E6E6"/>
<path id="Vector_35" d="M17.3211 60.4751H14.29V63.8571H17.3211V60.4751Z" fill="#F5F5F5"/>
<path id="Vector_36" d="M22.3591 60.4751H19.0332V63.8571H22.3591V60.4751Z" fill="#E6E6E6"/>
<path id="Vector_37" d="M22.3568 60.4751H19.3257V63.8571H22.3568V60.4751Z" fill="#F5F5F5"/>
<path id="Vector_38" d="M27.3952 60.4751H24.0693V63.8571H27.3952V60.4751Z" fill="#E6E6E6"/>
<path id="Vector_39" d="M27.3919 60.4751H24.3608V63.8571H27.3919V60.4751Z" fill="#F5F5F5"/>
<path id="Vector_40" d="M17.3234 70.606H13.9976V73.988H17.3234V70.606Z" fill="#E6E6E6"/>
<path id="Vector_41" d="M17.3211 70.606H14.29V73.988H17.3211V70.606Z" fill="#F5F5F5"/>
<path id="Vector_42" d="M22.3591 70.606H19.0332V73.988H22.3591V70.606Z" fill="#E6E6E6"/>
<path id="Vector_43" d="M22.3568 70.606H19.3257V73.988H22.3568V70.606Z" fill="#F5F5F5"/>
<path id="Vector_44" d="M27.3952 70.606H24.0693V73.988H27.3952V70.606Z" fill="#E6E6E6"/>
<path id="Vector_45" d="M27.3919 70.606H24.3608V73.988H27.3919V70.606Z" fill="#F5F5F5"/>
<path id="Vector_46" d="M17.3234 75.5864H13.9976V78.9684H17.3234V75.5864Z" fill="#E6E6E6"/>
<path id="Vector_47" d="M17.3211 75.5864H14.29V78.9684H17.3211V75.5864Z" fill="#F5F5F5"/>
<path id="Vector_48" d="M22.3591 75.5864H19.0332V78.9684H22.3591V75.5864Z" fill="#E6E6E6"/>
<path id="Vector_49" d="M22.3568 75.5864H19.3257V78.9684H22.3568V75.5864Z" fill="#F5F5F5"/>
<path id="Vector_50" d="M27.3952 75.5864H24.0693V78.9684H27.3952V75.5864Z" fill="#E6E6E6"/>
<path id="Vector_51" d="M27.3919 75.5864H24.3608V78.9684H27.3919V75.5864Z" fill="#F5F5F5"/>
<path id="Vector_52" d="M33.9557 52.1362H12.3174V52.4503H33.9557V52.1362Z" fill="#E0E0E0"/>
<path id="Vector_53" d="M33.9557 67.7212H12.3174V68.0352H33.9557V67.7212Z" fill="#E0E0E0"/>
<path id="Vector_54" d="M119.045 30.0122H97.667V82.1141H119.045V30.0122Z" fill="#E0E0E0"/>
<path id="Vector_55" d="M112.956 30.0122H97.667V82.1141H112.956V30.0122Z" fill="#F0F0F0"/>
<path id="Vector_56" d="M104.933 34.2935H99.2432V37.0608H104.933V34.2935Z" fill="#E6E6E6"/>
<path id="Vector_57" d="M104.933 34.2935H99.6211V37.0608H104.933V34.2935Z" fill="#F5F5F5"/>
<path id="Vector_58" d="M111.515 34.2935H105.825V37.0608H111.515V34.2935Z" fill="#E6E6E6"/>
<path id="Vector_59" d="M111.515 34.2935H106.204V37.0608H111.515V34.2935Z" fill="#F5F5F5"/>
<path id="Vector_60" d="M104.933 39.5005H99.2432V42.2678H104.933V39.5005Z" fill="#E6E6E6"/>
<path id="Vector_61" d="M104.933 39.5005H99.6211V42.2678H104.933V39.5005Z" fill="#F5F5F5"/>
<path id="Vector_62" d="M111.515 39.5005H105.825V42.2678H111.515V39.5005Z" fill="#E6E6E6"/>
<path id="Vector_63" d="M111.515 39.5005H106.204V42.2678H111.515V39.5005Z" fill="#F5F5F5"/>
<path id="Vector_64" d="M104.933 46.1548H99.2432V48.9221H104.933V46.1548Z" fill="#E6E6E6"/>
<path id="Vector_65" d="M104.933 46.1548H99.6211V48.9221H104.933V46.1548Z" fill="#F5F5F5"/>
<path id="Vector_66" d="M111.515 46.1548H105.825V48.9221H111.515V46.1548Z" fill="#E6E6E6"/>
<path id="Vector_67" d="M111.515 46.1548H106.204V48.9221H111.515V46.1548Z" fill="#F5F5F5"/>
<path id="Vector_68" d="M104.933 49.979H99.2432V52.7464H104.933V49.979Z" fill="#E6E6E6"/>
<path id="Vector_69" d="M104.933 49.979H99.6211V52.7464H104.933V49.979Z" fill="#F5F5F5"/>
<path id="Vector_70" d="M111.515 49.979H105.825V52.7464H111.515V49.979Z" fill="#E6E6E6"/>
<path id="Vector_71" d="M111.515 49.979H106.204V52.7464H111.515V49.979Z" fill="#F5F5F5"/>
<path id="Vector_72" d="M104.933 56.2632H99.2432V59.0305H104.933V56.2632Z" fill="#E6E6E6"/>
<path id="Vector_73" d="M104.933 56.2632H99.6211V59.0305H104.933V56.2632Z" fill="#F5F5F5"/>
<path id="Vector_74" d="M111.515 56.2632H105.825V59.0305H111.515V56.2632Z" fill="#E6E6E6"/>
<path id="Vector_75" d="M111.515 56.2632H106.204V59.0305H111.515V56.2632Z" fill="#F5F5F5"/>
<path id="Vector_76" d="M104.933 60.0854H99.2432V62.8528H104.933V60.0854Z" fill="#E6E6E6"/>
<path id="Vector_77" d="M104.933 60.0854H99.6211V62.8528H104.933V60.0854Z" fill="#F5F5F5"/>
<path id="Vector_78" d="M111.515 60.0854H105.825V62.8528H111.515V60.0854Z" fill="#E6E6E6"/>
<path id="Vector_79" d="M111.515 60.0854H106.204V62.8528H111.515V60.0854Z" fill="#F5F5F5"/>
<path id="Vector_80" d="M104.933 66.9243H99.2432V69.6917H104.933V66.9243Z" fill="#E6E6E6"/>
<path id="Vector_81" d="M104.933 66.9243H99.6211V69.6917H104.933V66.9243Z" fill="#F5F5F5"/>
<path id="Vector_82" d="M111.515 66.9243H105.825V69.6917H111.515V66.9243Z" fill="#E6E6E6"/>
<path id="Vector_83" d="M111.515 66.9243H106.204V69.6917H111.515V66.9243Z" fill="#F5F5F5"/>
<path id="Vector_84" d="M104.933 71.9731H99.2432V74.7405H104.933V71.9731Z" fill="#E6E6E6"/>
<path id="Vector_85" d="M104.933 71.9731H99.6211V74.7405H104.933V71.9731Z" fill="#F5F5F5"/>
<path id="Vector_86" d="M111.515 71.9731H105.825V74.7405H111.515V71.9731Z" fill="#E6E6E6"/>
<path id="Vector_87" d="M111.515 71.9731H106.204V74.7405H111.515V71.9731Z" fill="#F5F5F5"/>
<path id="Vector_88" opacity="0.05" d="M119.045 43.9722H97.667V44.4473H119.045V43.9722Z" fill="black"/>
<path id="Vector_89" opacity="0.05" d="M119.045 54.2661H97.667V54.7412H119.045V54.2661Z" fill="black"/>
<path id="Vector_90" opacity="0.05" d="M119.045 64.6509H97.667V65.126H119.045V64.6509Z" fill="black"/>
<path id="Vector_91" d="M119.045 28.4712H96.6592V30.1354H119.045V28.4712Z" fill="#E0E0E0"/>
<path id="Vector_92" opacity="0.05" d="M119.045 28.4712H113.929V30.1354H119.045V28.4712Z" fill="black"/>
<path id="Vector_93" d="M67.2195 18.3149H43.0513V81.2259H67.2195V18.3149Z" fill="#E6E6E6"/>
<path id="Vector_94" d="M58.2764 18.3149H34.1055V81.2259H58.2764V18.3149Z" fill="#F0F0F0"/>
<path id="Vector_95" d="M56.1674 22.5854H36.2148V25.7903H56.1674V22.5854Z" fill="#E6E6E6"/>
<path id="Vector_96" d="M56.1678 22.5854H36.9897V25.7903H56.1678V22.5854Z" fill="#F5F5F5"/>
<path id="Vector_97" d="M56.1674 27.98H36.2148V31.1848H56.1674V27.98Z" fill="#E6E6E6"/>
<path id="Vector_98" d="M56.1678 27.98H36.9897V31.1848H56.1678V27.98Z" fill="#F5F5F5"/>
<path id="Vector_99" d="M56.1674 33.5854H36.2148V36.7903H56.1674V33.5854Z" fill="#E6E6E6"/>
<path id="Vector_100" d="M56.1678 33.5854H36.9897V36.7903H56.1678V33.5854Z" fill="#F5F5F5"/>
<path id="Vector_101" d="M56.1674 39.1919H36.2148V42.3968H56.1674V39.1919Z" fill="#E6E6E6"/>
<path id="Vector_102" d="M56.1678 39.1919H36.9897V42.3968H56.1678V39.1919Z" fill="#F5F5F5"/>
<path id="Vector_103" d="M56.1674 44.7974H36.2148V48.0022H56.1674V44.7974Z" fill="#E6E6E6"/>
<path id="Vector_104" d="M56.1678 44.7974H36.9897V48.0022H56.1678V44.7974Z" fill="#F5F5F5"/>
<path id="Vector_105" d="M56.1674 50.4038H36.2148V53.6087H56.1674V50.4038Z" fill="#E6E6E6"/>
<path id="Vector_106" d="M56.1678 50.4038H36.9897V53.6087H56.1678V50.4038Z" fill="#F5F5F5"/>
<path id="Vector_107" d="M56.1674 56.5825H36.2148V59.7874H56.1674V56.5825Z" fill="#E6E6E6"/>
<path id="Vector_108" d="M56.1678 56.5825H36.9897V59.7874H56.1678V56.5825Z" fill="#F5F5F5"/>
<path id="Vector_109" d="M56.1674 62.7583H36.2148V65.9632H56.1674V62.7583Z" fill="#E6E6E6"/>
<path id="Vector_110" d="M56.1678 62.7583H36.9897V65.9632H56.1678V62.7583Z" fill="#F5F5F5"/>
<path id="Vector_111" d="M56.1674 68.937H36.2148V72.1419H56.1674V68.937Z" fill="#E6E6E6"/>
<path id="Vector_112" d="M56.1678 68.937H36.9897V72.1419H56.1678V68.937Z" fill="#F5F5F5"/>
<path id="Vector_113" d="M56.1674 75.1167H36.2148V78.3216H56.1674V75.1167Z" fill="#E6E6E6"/>
<path id="Vector_114" d="M56.1678 75.1167H36.9897V78.3216H56.1678V75.1167Z" fill="#F5F5F5"/>
<path id="Vector_115" d="M67.8492 17.6812H33.4219V19.2165H67.8492V17.6812Z" fill="#F5F5F5"/>
<path id="Vector_116" d="M67.8492 14.9106H33.4219V16.446H67.8492V14.9106Z" fill="#F5F5F5"/>
<path id="Vector_117" d="M66.705 16.146H34.1055V17.6813H66.705V16.146Z" fill="#F0F0F0"/>
<path id="Vector_118" d="M67.2221 22.5854H60.4873V25.7903H67.2221V22.5854Z" fill="#E0E0E0"/>
<path id="Vector_119" d="M67.2221 27.8589H60.4873V31.0638H67.2221V27.8589Z" fill="#E0E0E0"/>
<path id="Vector_120" d="M67.2221 33.1343H60.4873V36.3391H67.2221V33.1343Z" fill="#E0E0E0"/>
<path id="Vector_121" d="M67.2221 39.189H60.4873V42.3938H67.2221V39.189Z" fill="#E0E0E0"/>
<path id="Vector_122" d="M67.2221 44.7974H60.4873V48.0022H67.2221V44.7974Z" fill="#E0E0E0"/>
<path id="Vector_123" d="M67.2221 50.4038H60.4873V53.6087H67.2221V50.4038Z" fill="#E0E0E0"/>
<path id="Vector_124" d="M67.2221 56.5796H60.4873V59.7845H67.2221V56.5796Z" fill="#E0E0E0"/>
<path id="Vector_125" d="M67.2221 62.7583H60.4873V65.9632H67.2221V62.7583Z" fill="#E0E0E0"/>
<path id="Vector_126" d="M67.2221 68.937H60.4873V72.1419H67.2221V68.937Z" fill="#E0E0E0"/>
<path id="Vector_127" d="M67.2221 75.1167H60.4873V78.3216H67.2221V75.1167Z" fill="#E0E0E0"/>
<path id="Vector_128" d="M98.2884 40.3003H95.6299V44.4661H98.2884V40.3003Z" fill="#E0E0E0"/>
<path id="Vector_129" d="M98.2884 47.1177H95.6299V51.2835H98.2884V47.1177Z" fill="#E0E0E0"/>
<path id="Vector_130" d="M98.2884 53.7456H95.6299V57.9114H98.2884V53.7456Z" fill="#E0E0E0"/>
<path id="Vector_131" d="M98.2884 60.7505H95.6299V64.9163H98.2884V60.7505Z" fill="#E0E0E0"/>
<path id="Vector_132" d="M98.2884 67.5679H95.6299V71.7337H98.2884V67.5679Z" fill="#E0E0E0"/>
<path id="Vector_133" d="M98.289 36.1128H70.3125V78.7263H98.289V36.1128Z" fill="#E6E6E6"/>
<path id="Vector_134" d="M93.5639 36.1128H70.3149V78.7263H93.5639V36.1128Z" fill="#F0F0F0"/>
<path id="Vector_135" d="M91.311 40.3032H72.4062V44.469H91.311V40.3032Z" fill="#EBEBEB"/>
<path id="Vector_136" d="M91.311 47.1177H72.4062V51.2835H91.311V47.1177Z" fill="#EBEBEB"/>
<path id="Vector_137" d="M91.311 53.936H72.4062V58.1018H91.311V53.936Z" fill="#EBEBEB"/>
<path id="Vector_138" d="M91.311 60.7505H72.4062V64.9163H91.311V60.7505Z" fill="#EBEBEB"/>
<path id="Vector_139" d="M91.311 67.5679H72.4062V71.7337H91.311V67.5679Z" fill="#EBEBEB"/>
<path id="Vector_140" d="M91.31 40.3032H73.1021V44.469H91.31V40.3032Z" fill="#F5F5F5"/>
<path id="Vector_141" d="M91.31 47.1177H73.1021V51.2835H91.31V47.1177Z" fill="#F5F5F5"/>
<path id="Vector_142" d="M91.31 53.936H73.1021V58.1018H91.31V53.936Z" fill="#F5F5F5"/>
<path id="Vector_143" d="M91.31 60.7505H73.1021V64.9163H91.31V60.7505Z" fill="#F5F5F5"/>
<path id="Vector_144" d="M91.31 67.5679H73.1021V71.7337H91.31V67.5679Z" fill="#F5F5F5"/>
</g>
<g id="Shape">
<path id="shape" d="M66.9996 94.0002C95.6977 94.0002 118.962 92.6399 118.962 90.9618C118.962 89.2837 95.6977 87.9233 66.9996 87.9233C38.3015 87.9233 15.0371 89.2837 15.0371 90.9618C15.0371 92.6399 38.3015 94.0002 66.9996 94.0002Z" fill="#F5F5F5"/>
</g>
<g id="Character">
<path id="Vector_145" d="M60.8042 76.7122C61.2705 77.0691 70.6318 76.0599 68.2117 59.4263C68.2117 59.4263 72.6525 60.5563 73.1295 60.4811C73.1295 60.4811 79.6446 70.4849 74.901 75.4399C70.1574 80.3948 63.0876 80.6981 63.0876 80.6981L60.8042 76.7122Z" fill="#407BFF"/>
<path id="Vector_146" opacity="0.3" d="M60.8042 76.7122C61.2705 77.0691 70.6318 76.0599 68.2117 59.4263C68.2117 59.4263 72.6525 60.5563 73.1295 60.4811C73.1295 60.4811 79.6446 70.4849 74.901 75.4399C70.1574 80.3948 63.0876 80.6981 63.0876 80.6981L60.8042 76.7122Z" fill="black"/>
<path id="Vector_147" d="M71.1788 61.9998C71.2029 61.9998 68.5631 62.0508 67.6787 60.9503C66.7943 59.8498 66.1966 57.8824 67.8046 56.5403C69.4126 55.1982 78.8543 49.4005 83.3004 48.9442C87.7465 48.4879 92.5062 51.3599 92.5062 51.3599L86.6852 55.6706L74.1509 58.7091L71.1788 61.9998Z" fill="#263238"/>
<path id="Vector_148" d="M62.6426 74.0921L62.8865 76.4971L65.7701 76.2529L65.336 73.7808L62.6426 74.0921Z" fill="#FFC3BD"/>
<path id="Vector_149" d="M62.0826 76.3222L66.266 76.2632L66.5635 78.3783C66.5635 78.3783 62.6454 78.432 61.0347 78.2172C59.424 78.0025 59.6759 77.1624 59.6759 77.1624C59.6759 77.1624 61.5626 77.208 62.0826 76.3222Z" fill="#263238"/>
<path id="Vector_150" d="M98.5919 82.4105C99.2165 76.2621 95.5103 70.8485 90.3138 70.3189C85.1173 69.7894 80.3983 74.3443 79.7736 80.4928C79.149 86.6412 82.8552 92.0548 88.0517 92.5844C93.2482 93.114 97.9672 88.559 98.5919 82.4105Z" fill="#263238"/>
<path id="Vector_151" d="M82.6087 47.2244C82.6087 47.2244 83.0429 57.2013 77.2487 57.4859C71.4546 57.7704 65.2289 57.1342 65.2289 57.1342L67.054 75.0616L61.6217 75.3972C61.6217 75.3972 57.7223 60.1888 57.1085 56.3666C56.4948 52.5443 57.0281 49.8414 61.0562 48.145C65.0842 46.4487 82.6087 47.2244 82.6087 47.2244Z" fill="#407BFF"/>
<path id="Vector_152" d="M50.1841 78.8785L57.4013 57.8831L67.0493 47.2163C67.0493 47.2163 58.6287 47.2485 54.5819 49.5784C50.5351 51.9082 50.385 54.7078 49.6427 58.0388C48.9003 61.3698 45.9229 77.1365 45.9229 77.1365L50.1841 78.8785Z" fill="#407BFF"/>
<path id="Vector_153" opacity="0.7" d="M82.6094 47.2232C82.6094 47.2232 73.6421 46.8232 67.0654 47.2232C67.0654 47.2232 58.6448 47.2554 54.598 49.5852C50.5512 51.915 50.385 54.7066 49.6427 58.0376C48.9003 61.3686 45.9229 77.1353 45.9229 77.1353L50.184 78.8773L57.4013 57.8819C58.6153 63.7011 61.6223 75.3852 61.6223 75.3852L67.0546 75.0604L65.2269 57.1438C65.2269 57.1438 71.4499 57.7799 77.2467 57.4954C83.0435 57.2109 82.6094 47.2232 82.6094 47.2232Z" fill="black"/>
<path id="Vector_154" d="M67.804 31.0405L64.4728 31.4458C64.4728 31.4458 63.8939 37.5791 63.3552 38.7709C63.3552 38.7709 53.1095 40.18 48.9127 40.0593L46.7821 41.5087L46.707 44.0291L48.7948 44.0908L49.4674 42.4938C49.4674 42.4938 50.8771 42.432 51.2041 41.6375C51.2041 41.6375 62.0902 44.2707 66.0995 41.2644C66.1049 41.2671 68.5222 37.7106 67.804 31.0405Z" fill="#FFC3BD"/>
<path id="Vector_155" d="M77.3506 14.6177C77.3506 14.6177 78.3931 15.9597 77.9964 17.122C77.887 17.4534 77.6941 17.751 77.4364 17.9861C77.1787 18.2212 76.8648 18.3858 76.5251 18.4641C76.5251 18.4641 76.3295 20.3242 75.2334 20.3779C74.1372 20.4315 74.5044 16.2792 74.5044 16.2792L77.3506 14.6177Z" fill="#263238"/>
<path id="Vector_156" d="M68.9112 47.2692L68.1796 35.2791L63.6396 32.2568C63.6396 32.2568 65.1244 27.0146 67.9652 26.1262C70.806 25.2377 77.0021 23.2005 80.7595 24.2124C84.5168 25.2243 84.0854 29.6639 83.4395 32.9573L82.7159 33.1291C82.7159 33.1291 82.6033 46.1069 82.598 47.2236L68.9112 47.2692Z" fill="#263238"/>
<path id="Vector_157" d="M77.0796 24.9541C75.5922 26.3955 72.5584 27.2544 71.7196 26.5378C70.8807 25.8211 71.9393 25.1635 72.7273 24.3529C73.1534 23.9073 73.14 23.0726 73.0408 22.4069C72.9886 22.0715 72.9116 21.7404 72.8103 21.4164C70.0258 21.2634 68.8707 19.9589 68.7555 17.6586C68.6403 15.3583 69.6801 12.6876 69.6801 12.6876L71.6472 11.0073C71.6472 11.0073 74.3272 11.4099 76.4712 12.8862C77.7469 13.7559 77.369 15.4684 76.8411 16.7326C76.6174 17.2707 76.3484 17.7889 76.0371 18.2814C75.7369 21.4299 77.0796 24.9541 77.0796 24.9541Z" fill="#FFC3BD"/>
<path id="Vector_158" d="M70.3052 18.2919C70.3052 18.2919 71.3772 18.3429 71.8462 17.6772" stroke="#263238" stroke-width="0.145078" stroke-linecap="round" stroke-linejoin="round"/>
<path id="Vector_159" d="M72.0129 15.5745C72.0129 15.7785 71.8894 15.9396 71.7445 15.9369C71.5995 15.9342 71.4948 15.7651 71.5002 15.5611C71.5056 15.3571 71.6237 15.1961 71.7686 15.1988C71.9136 15.2014 72.0209 15.3706 72.0129 15.5745Z" fill="#263238"/>
<path id="Vector_160" d="M69.568 15.64C69.568 15.844 69.4446 16.005 69.2996 16.0023C69.1547 15.9996 69.05 15.8305 69.0554 15.6266C69.0607 15.4226 69.1788 15.2615 69.3238 15.2642C69.4687 15.2669 69.5761 15.4387 69.568 15.64Z" fill="#263238"/>
<path id="Vector_161" d="M70.4171 17.306L70.3072 15.6606L69.522 17.2228C69.6445 17.3271 69.7962 17.3911 69.9564 17.406C70.1166 17.4209 70.2774 17.386 70.4171 17.306Z" fill="#ED847E"/>
<path id="Vector_162" d="M71.8828 14.2866C72.0884 14.2301 72.3073 14.2484 72.5007 14.3383C72.694 14.4283 72.8493 14.584 72.9387 14.7778" stroke="#263238" stroke-width="0.145078" stroke-linecap="round" stroke-linejoin="round"/>
<path id="Vector_163" d="M68.8125 14.5898C68.8125 14.5898 69.3056 14.0529 69.8845 14.1898" stroke="#263238" stroke-width="0.145078" stroke-linecap="round" stroke-linejoin="round"/>
<path id="Vector_164" d="M76.8604 16.7324C73.7945 16.8424 73.4139 13.3611 73.4139 13.3611C71.897 14.1663 69.6914 12.69 69.6914 12.69L71.6585 11.0044C71.6585 11.0044 74.3385 11.4124 76.4825 12.8833C77.7662 13.7556 77.3884 15.4735 76.8604 16.7324Z" fill="#263238"/>
<path id="Vector_165" d="M68.7049 13.7091C68.7049 13.7091 67.1184 12.6515 67.8178 11.8892C68.5173 11.127 72.8026 12.5764 76.0052 14.3533C76.0052 14.3533 68.6701 9.43862 66.6762 10.9927C65.028 12.2784 68.6835 14.0634 68.5736 14.0607L68.7049 13.7091Z" fill="#407BFF"/>
<path id="Vector_166" d="M77.6534 13.35C77.6489 13.9066 77.5436 14.4577 77.3425 14.9766L70.1387 11.4872C70.4372 11.142 70.7947 10.853 71.1946 10.6336C71.6209 10.3894 72.0845 10.2171 72.5668 10.1236C73.0781 10.0257 73.6016 10.0076 74.1185 10.07C76.7529 10.3733 77.6668 12.4025 77.6534 13.35Z" fill="#407BFF"/>
<path id="Vector_167" d="M61.1044 45.4443C60.6354 45.9355 54.5706 44.6767 53.512 45.2403C53.0644 45.4766 52.8688 46.314 52.4185 47.232C51.8048 48.4801 50.714 49.849 47.8625 49.9403C42.9099 50.0987 43.5075 45.0659 43.1162 43.4312C43.1162 43.4312 38.4262 42.575 38.1797 41.751C37.9331 40.9269 38.236 40.8035 38.236 40.8035C38.236 40.8035 44.0221 41.8771 45.1423 40.4116C45.3593 40.1993 45.6138 40.0291 45.8927 39.9096C46.5358 39.6265 47.2274 39.4707 47.9295 39.4507C49.969 39.3433 52.456 39.9177 53.1528 41.2114C54.5679 43.85 60.6354 43.2568 61.1928 43.9493C61.7503 44.6418 61.5734 44.9531 61.1044 45.4443Z" fill="#407BFF"/>
<path id="Vector_168" d="M45.7506 48.8823C45.7506 48.8823 37.6141 60.1557 44.3141 77.5087" stroke="#263238" stroke-width="0.145078" stroke-linecap="round" stroke-linejoin="round"/>
<path id="Vector_169" d="M56.4892 54.7389C56.4892 54.7389 56.4892 54.7603 56.4892 54.8033C56.4892 54.8462 56.4892 54.8704 56.4892 54.9187V54.9455C56.3925 56.0313 56.2133 57.108 55.9532 58.1665C55.5834 59.7314 55.093 61.2211 54.6883 62.4182C52.9731 67.5046 53.1714 72.9857 53.1714 72.9857C52.6032 72.2771 51.5634 71.7724 50.2636 71.4181C45.5307 70.1163 37.4961 70.8142 37.4961 70.8142C35.9202 65.2768 36.483 56.6097 38.0508 51.7568C39.6186 46.9038 43.9656 47.999 43.9656 47.999C43.9656 47.999 48.5538 48.1332 49.13 48.0714C50.1845 47.9433 51.2519 47.965 52.3004 48.1359C55.8434 48.7854 56.6956 51.5904 56.4892 54.7389Z" fill="#407BFF"/>
<path id="Vector_170" d="M91.8143 75.8674C83.7743 83.136 68.2544 83.8983 56.7063 83.0931L50.2368 71.4359L47.6157 66.7144L56.0363 55.3471L56.4812 54.7485C56.4812 54.7485 56.4812 54.77 56.4812 54.813C56.4812 54.8559 56.4812 54.8801 56.4812 54.9284V54.9552C56.3659 56.9817 55.6209 73.245 61.5732 77.2336L61.6214 77.2685C62.4268 77.7898 63.3614 78.0761 64.3202 78.0952C75.2412 78.4119 74.9356 64.1377 72.1592 61.0804L91.1094 57.2663C91.1094 57.2663 94.8507 66.701 91.8143 75.8674Z" fill="#407BFF"/>
<path id="Vector_171" d="M70.7367 57.984C70.7367 57.984 68.9598 59.4603 69.8764 61.4412C70.793 63.4221 79.6289 59.5757 83.1076 58.8751C86.5862 58.1746 90.6116 57.4901 92.3428 57.1331C94.0741 56.7761 93.924 51.8024 92.509 51.3622C91.094 50.922 77.233 53.3753 74.9336 54.7228C73.4152 55.6463 72.0071 56.7404 70.7367 57.984Z" fill="#263238"/>
<path id="Vector_172" d="M75.1848 17.9609C75.0157 17.7786 74.9133 17.5442 74.8943 17.2961C74.8753 17.048 74.9409 16.8007 75.0803 16.5947C75.5091 15.9505 76.3747 14.9279 77.2055 15.6928C78.3686 16.7665 76.3828 18.7179 75.56 18.2455C75.4222 18.1688 75.2959 18.073 75.1848 17.9609Z" fill="#FFC3BD"/>
<path id="Vector_173" opacity="0.2" d="M68.7046 13.7091C68.7046 13.7091 67.1181 12.6515 67.8176 11.8892C68.1284 11.551 69.0584 11.6208 70.3153 11.9805C71.1236 12.1984 71.9153 12.4738 72.6844 12.8045C73.7886 13.285 74.9624 13.8997 76.005 14.3533C76.005 14.3533 68.6698 9.43862 66.6759 10.9927C65.0277 12.2784 68.4554 13.9453 68.576 14.058L68.635 13.8406L68.7046 13.7091Z" fill="black"/>
<path id="Vector_174" d="M69.4582 13.2505C69.4582 13.2505 67.8502 13.5189 68.9597 15.2529L69.4582 13.2505Z" fill="#263238"/>
<path id="Vector_175" d="M70.9987 12.1938C70.9987 12.1938 68.5733 11.3403 67.898 11.8234C67.2226 12.3065 67.9301 13.2272 68.702 13.7023L69.321 13.7828L69.6855 12.6823L70.6289 12.5669L70.9987 12.1938Z" fill="#263238"/>
<path id="Vector_176" opacity="0.3" d="M74.3031 10.8802L73.7216 11.7418L71.1943 10.6413C71.6207 10.3971 72.0843 10.2248 72.5665 10.1313L74.3031 10.8802Z" fill="white"/>
<path id="Vector_177" opacity="0.1" d="M73.7405 21.1792C73.5732 21.6247 73.3332 22.0392 73.0303 22.4059C72.9781 22.0704 72.901 21.7394 72.7998 21.4154C73.1248 21.3927 73.4432 21.3127 73.7405 21.1792Z" fill="black"/>
<path id="Vector_178" d="M49.7147 44.7841C49.6075 46.6442 48.8035 48.1661 47.8173 48.5419C47.6466 48.6077 47.4639 48.6361 47.2813 48.6251C46.0646 48.5553 45.1802 46.7274 45.3035 44.5452C45.4267 42.363 46.5148 40.6505 47.7315 40.7203C48.2273 40.7472 48.6642 41.0666 49.0045 41.5792C49.5057 42.3147 49.7871 43.4904 49.7147 44.7841Z" fill="#F5F5F5"/>
<path id="Vector_179" d="M49.7141 44.7837C49.6069 46.6438 48.8029 48.1658 47.8166 48.5415C46.691 48.4771 45.8736 46.7888 45.9889 44.7837C46.1041 42.7787 47.1064 41.187 48.232 41.2514C48.522 41.2731 48.7965 41.3912 49.0119 41.5869C49.505 42.3143 49.7864 43.49 49.7141 44.7837Z" fill="white"/>
<path id="Vector_180" d="M93.149 71.1503C91.0774 69.6929 83.0615 68.2622 83.0615 68.2622C78.1919 68.2622 73.9173 72.6508 73.3277 78.4781C72.8453 83.2183 74.9357 87.5209 78.3045 89.483C78.3045 89.483 78.5859 89.6011 79.0576 89.7864C80.8425 90.4923 85.3717 92.2021 88.049 92.5779" fill="#263238"/>
<path id="Vector_181" opacity="0.3" d="M98.5919 82.4105C99.2165 76.2621 95.5103 70.8485 90.3138 70.3189C85.1173 69.7894 80.3983 74.3443 79.7736 80.4928C79.149 86.6412 82.8552 92.0548 88.0517 92.5844C93.2482 93.114 97.9672 88.559 98.5919 82.4105Z" fill="black"/>
<path id="Vector_182" d="M56.9283 82.0521C57.553 75.9037 53.8467 70.4901 48.6502 69.9605C43.4537 69.431 38.7347 73.9859 38.11 80.1344C37.4854 86.2828 41.1916 91.6964 46.3881 92.226C51.5847 92.7556 56.3037 88.2006 56.9283 82.0521Z" fill="#263238"/>
<path id="Vector_183" d="M53.3008 72.0123L48.509 92.1622C47.8099 92.2756 47.0989 92.2964 46.3944 92.2239H46.3408C45.4216 91.9877 45.8316 92.2427 44.9097 91.9367C42.5647 91.161 39.1584 89.7894 39.1584 89.7894C35.5485 88.0313 33.509 83.7554 34.0048 78.8703C34.6051 72.9518 38.8449 68.531 43.835 68.8933C43.835 68.8933 46.2042 69.3308 48.643 69.967C49.715 70.2354 50.787 70.5548 51.6687 70.8877C52.2525 71.2011 52.7998 71.5783 53.3008 72.0123Z" fill="#263238"/>
<path id="Vector_184" opacity="0.3" d="M56.9295 82.0401C56.3935 87.3413 52.8103 91.4561 48.5036 92.1513C47.8045 92.2648 47.0936 92.2855 46.3891 92.213H46.3355C45.3542 92.1069 44.4006 91.8222 43.5215 91.3729C39.9008 89.5343 37.6094 85.0679 38.1105 80.129C38.735 73.985 43.4437 69.4354 48.6376 69.9561H48.651C49.7055 70.0628 50.729 70.3756 51.6633 70.8768C52.2472 71.1911 52.7946 71.5692 53.2954 72.0041C55.8602 74.2373 57.3529 77.9844 56.9295 82.0401Z" fill="black"/>
<path id="Vector_185" d="M55.6236 74.9803C55.4665 74.7293 55.2871 74.493 55.0876 74.2743C53.8896 72.637 51.1507 72.025 49.3577 72.17C47.9833 72.3043 46.6637 72.7784 45.5173 73.5496C44.2095 74.3978 43.2741 75.6969 41.977 76.5881C39.5168 78.2898 35.7835 78.2415 33.3126 76.4888C33.1732 76.3895 33.0407 76.281 32.9159 76.164C32.6641 75.9014 32.4962 75.5697 32.4335 75.2111C32.339 74.7634 32.3734 74.2979 32.5327 73.869C33.0687 72.3605 34.8563 71.0346 35.9845 70.2266C38.272 68.6103 40.9626 67.6616 43.7565 67.4861C51.7242 66.9359 55.1224 73.7509 55.6236 74.9803Z" fill="#407BFF"/>
<path id="Vector_186" opacity="0.3" d="M55.0715 75.1943C53.359 72.7195 51.1614 72.0243 49.3685 72.1693C47.994 72.3036 46.6744 72.7777 45.528 73.5489C44.2202 74.3971 43.2849 75.6962 41.9878 76.5874C39.5275 78.2891 35.7943 78.2408 33.3233 76.4881C33.184 76.3888 33.0515 76.2803 32.9267 76.1633C32.6749 75.9008 32.5069 75.569 32.4443 75.2104C32.3497 74.7627 32.3841 74.2973 32.5434 73.8683C33.3716 74.8266 35.7836 77.1349 39.0505 76.0157C43.1241 74.6065 44.1184 70.4192 48.4734 70.4568C51.9332 70.4971 54.0638 73.1812 55.0715 75.1943Z" fill="black"/>
<g id="Group" opacity="0.3">
<path id="Vector_187" d="M37.1509 69.4882C38.313 68.6611 39.6205 68.061 41.0047 67.7194C42.3903 67.3662 43.8253 67.2482 45.2498 67.3705C46.6721 67.5076 48.0649 67.8624 49.3797 68.4226L49.8675 68.6374L50.3445 68.8763C50.6661 69.0266 50.969 69.2145 51.2798 69.3862C51.5907 69.558 51.8775 69.7701 52.175 69.9607C52.4724 70.1512 52.7512 70.374 53.0352 70.5861C51.8664 69.8018 50.6188 69.1423 49.3127 68.6186C48.0092 68.0948 46.6356 67.7665 45.2364 67.6442C43.8401 67.5105 42.4314 67.6011 41.0637 67.9127C40.377 68.0651 39.7039 68.2734 39.051 68.5354C38.3884 68.7908 37.7521 69.11 37.1509 69.4882Z" fill="black"/>
</g>
<g id="Group_2" opacity="0.3">
<path id="Vector_188" d="M45.8281 67.5704C45.4939 66.451 45.2933 65.2959 45.2304 64.1293C45.142 62.9671 45.1232 61.7995 45.1473 60.6399C45.1715 59.4804 45.2519 58.3101 45.3591 57.1505L45.5547 55.4166C45.6405 54.8395 45.7155 54.2624 45.8227 53.688L45.5788 57.1774L45.4823 58.9167C45.4663 59.4965 45.4314 60.0762 45.4287 60.656C45.3832 61.8156 45.4046 62.9751 45.4475 64.1454C45.4663 64.7252 45.5118 65.3023 45.5708 65.8794C45.6179 66.4483 45.7038 67.0133 45.8281 67.5704Z" fill="black"/>
</g>
<path id="Vector_189" opacity="0.3" d="M61.5599 77.2077C55.964 73.6029 55.7416 64.3023 55.9319 58.1664C55.9667 57.1115 56.0096 56.1533 56.0417 55.3292C56.1005 54.5045 56.1005 53.6766 56.0417 52.8518C55.4763 48.6377 52.2603 48.1304 52.2603 48.1304H52.2737C55.8354 48.7853 56.6876 51.5902 56.4813 54.7387C56.4813 54.7387 56.4813 54.7602 56.4813 54.8031C56.4813 54.8461 56.4813 54.8703 56.4813 54.9186V54.9454C56.3607 56.9719 55.6156 73.2352 61.5599 77.2077Z" fill="black"/>
<path id="Vector_190" opacity="0.2" d="M61.1047 45.4443C60.6357 45.9355 54.5709 44.6767 53.5123 45.2403C53.0647 45.4765 52.8691 46.314 52.4189 47.232C51.1539 49.2451 49.3744 49.5618 49.2645 49.5779C51.3871 47.9674 51.9793 44.0915 50.9261 41.6409C49.8729 39.1903 46.1021 39.8264 45.8877 39.8989C46.5307 39.6158 47.2224 39.4599 47.9245 39.4399C49.964 39.3325 52.451 39.907 53.1478 41.2007C54.5629 43.8392 60.6304 43.246 61.1878 43.9385C61.7453 44.631 61.5737 44.9531 61.1047 45.4443Z" fill="black"/>
<path id="Vector_191" d="M56.3556 43.1001C55.9869 43.7816 55.8399 44.5614 55.9349 45.3306L61.0724 45.9104C61.3351 45.606 61.5292 45.2484 61.6415 44.8622C61.7539 44.4759 61.7819 44.0699 61.7237 43.6718C61.7237 43.6718 56.6343 43.1591 56.3556 43.1001Z" fill="#263238"/>
<path id="Vector_192" d="M40.755 42.9107C40.755 42.9107 40.2432 41.821 40.8569 41.1311C39.4847 41.0077 38.6352 40.8627 37.7508 40.7339C37.6194 41.1338 37.5551 41.5177 38.0188 42.127C38.4824 42.7363 40.755 42.9107 40.755 42.9107Z" fill="#263238"/>
<path id="Vector_193" d="M37.9005 49.73C37.0107 51.1821 36.2496 53.5066 36.1826 57.2187" stroke="#407BFF" stroke-width="0.145078" stroke-linecap="round" stroke-linejoin="round"/>
<path id="Vector_194" d="M40.8302 47.3374C40.1829 47.4878 39.5878 47.8094 39.1069 48.2688" stroke="#407BFF" stroke-width="0.145078" stroke-linecap="round" stroke-linejoin="round"/>
<path id="Vector_195" d="M80.7972 33.3442L77.4151 33.7576C77.4151 33.7576 76.8255 39.9821 76.2787 41.1927C76.2787 41.1927 65.8777 42.626 61.6138 42.4999L59.451 43.9708L59.376 46.5314L61.4959 46.5932L62.1793 44.9827C62.1793 44.9827 63.6104 44.921 63.94 44.113C63.94 44.113 74.9923 46.7972 79.0633 43.7372C79.0606 43.7265 81.5181 40.1163 80.7972 33.3442Z" fill="#FFC3BD"/>
<path id="Vector_196" opacity="0.2" d="M53.2575 81.2348C53.161 84.6115 50.9527 87.2849 48.3236 87.2098C47.9703 87.1992 47.6202 87.1386 47.2838 87.0299C45.1773 86.3589 43.6604 83.8707 43.7435 80.9584C43.8266 78.14 45.3783 75.8102 47.4178 75.1633C47.8253 75.032 48.2521 74.9712 48.68 74.9835C51.3091 75.0613 53.3566 77.8689 53.2575 81.2348Z" fill="#FAFAFA"/>
<path id="Vector_197" d="M50.8374 81.2339C50.7544 84.1167 49.2294 86.4868 47.2838 87.037C45.1773 86.366 43.6604 83.8778 43.7435 80.9655C43.8266 78.1471 45.3783 75.8173 47.4178 75.1704C49.4438 75.7207 50.9205 78.2491 50.8374 81.2339Z" fill="#263238"/>
<path id="Vector_198" opacity="0.2" d="M94.5507 81.5024C94.4515 84.8791 92.2432 87.5552 89.6168 87.4773C89.2633 87.4682 88.913 87.4076 88.577 87.2975C86.4678 86.6265 84.9509 84.1409 85.0367 81.226C85.1171 78.4103 86.6688 76.0778 88.7083 75.4309C89.1158 75.2996 89.5426 75.2388 89.9705 75.2511C92.5996 75.3289 94.6471 78.1311 94.5507 81.5024Z" fill="#FAFAFA"/>
<path id="Vector_199" d="M92.1306 81.5032C92.0449 84.3833 90.5226 86.7534 88.577 87.3036C86.4678 86.6326 84.9509 84.1471 85.0367 81.2321C85.1171 78.4164 86.6688 76.0839 88.7083 75.437C90.737 75.9873 92.2164 78.5157 92.1306 81.5032Z" fill="#263238"/>
<path id="Vector_200" d="M98.6947 72.6081C98.7402 75.9284 93.6938 78.1267 85.2491 79.5117C82.9728 79.9125 80.6465 79.9397 78.3615 79.5922C74.6095 78.9722 72.7764 77.3832 72.7764 77.3832C72.7764 77.3832 73.7304 65.9084 83.1721 64.4536C89.6041 63.4659 94.4442 66.0641 96.8991 68.8637C98.0541 70.1789 98.6813 71.5451 98.6947 72.6081Z" fill="#407BFF"/>
<path id="Vector_201" opacity="0.3" d="M98.6945 72.6079C98.74 75.9282 93.6936 78.1265 85.2489 79.5116C82.9726 79.9124 80.6464 79.9396 78.3613 79.5921C78.766 76.4758 80.583 68.3026 88.481 67.4544C92.0642 67.0679 94.8299 67.7926 96.8989 68.8636C98.054 70.1788 98.6811 71.545 98.6945 72.6079Z" fill="black"/>
<g id="Group_3" opacity="0.3">
<path id="Vector_202" d="M73.3228 77.434C73.4965 75.872 73.8684 74.3387 74.4296 72.871C74.9814 71.3881 75.7432 69.9924 76.6915 68.7266C77.1707 68.0975 77.7092 67.5159 78.2995 66.99C78.8845 66.4555 79.5293 65.9908 80.2211 65.605C81.5976 64.8275 83.1229 64.3509 84.6967 64.2065C83.9255 64.336 83.167 64.5317 82.4294 64.7917C82.0569 64.9044 81.7058 65.0789 81.3574 65.2265C81.0078 65.3942 80.667 65.5796 80.3363 65.7821C79.9986 65.9754 79.6878 66.2089 79.3688 66.4263C79.0499 66.6437 78.7551 66.9014 78.4737 67.1725C77.9014 67.6934 77.3801 68.2677 76.9166 68.8877C75.9752 70.129 75.2078 71.4936 74.636 72.9434C74.339 73.6656 74.0831 74.404 73.8695 75.1552C73.6421 75.9032 73.4595 76.6642 73.3228 77.434Z" fill="black"/>
</g>
<path id="Vector_203" d="M60.6514 73.6436L61.2088 75.5386L67.0539 75.0501L67.1316 72.4009L60.6514 73.6436Z" fill="#407BFF"/>
</g>
</g>
</svg>
