<svg width="24" height="24" viewBox="0 0 24 24" fill="none" xmlns="http://www.w3.org/2000/svg">
<g id="tdesign:notification-filled">
<path id="Vector" d="M9.20417 18.9084C9.3842 19.5129 9.75347 20.0429 10.2572 20.4197C10.7608 20.7965 11.372 21 12 21C12.628 21 13.2392 20.7965 13.7428 20.4197C14.2465 20.0429 14.6158 19.5129 14.7958 18.9084H9.20417ZM4.5 18.0712H19.5V15.5593L17.8333 13.0474V8.86101C17.8333 8.09133 17.6825 7.32919 17.3893 6.6181C17.0961 5.90701 16.6665 5.26089 16.1248 4.71665C15.5831 4.1724 14.9401 3.74069 14.2323 3.44614C13.5246 3.1516 12.766 3 12 3C11.234 3 10.4754 3.1516 9.76768 3.44614C9.05995 3.74069 8.41689 4.1724 7.87521 4.71665C7.33354 5.26089 6.90386 5.90701 6.6107 6.6181C6.31755 7.32919 6.16667 8.09133 6.16667 8.86101V13.0474L4.5 15.5593V18.0712Z" fill="black"/>
</g>
</svg>
