<svg width="22" height="22" viewBox="0 0 22 22" fill="none" xmlns="http://www.w3.org/2000/svg">
<g id="uis:calender">
<path id="Subtract" fill-rule="evenodd" clip-rule="evenodd" d="M3.25 16C1.975 16 1 15.025 1 13.75V7.75H16L16 9.5C12.9626 9.5 10.5 11.9626 10.5 15C10.5 15.3415 10.5311 15.6757 10.5907 16H3.25ZM12.25 2.5H13.75C15.025 2.5 16 3.475 16 4.75V6.25H1V4.75C1 3.475 1.975 2.5 3.25 2.5H4.75V1.75C4.75 1.3 5.05 1 5.5 1C5.95 1 6.25 1.3 6.25 1.75V2.5H10.75V1.75C10.75 1.3 11.05 1 11.5 1C11.95 1 12.25 1.3 12.25 1.75V2.5Z" fill="#3355B9"/>
<path id="Vector" d="M16.5 11C14.0148 11 12 13.0148 12 15.5C12 17.9852 14.0148 20 16.5 20C18.9852 20 21 17.9852 21 15.5C21 13.0148 18.9852 11 16.5 11ZM18.5769 16.1923H16.5C16.4082 16.1923 16.3201 16.1558 16.2552 16.0909C16.1903 16.026 16.1538 15.938 16.1538 15.8462V12.7308C16.1538 12.639 16.1903 12.5509 16.2552 12.486C16.3201 12.4211 16.4082 12.3846 16.5 12.3846C16.5918 12.3846 16.6799 12.4211 16.7448 12.486C16.8097 12.5509 16.8462 12.639 16.8462 12.7308V15.5H18.5769C18.6687 15.5 18.7568 15.5365 18.8217 15.6014C18.8866 15.6663 18.9231 15.7543 18.9231 15.8462C18.9231 15.938 18.8866 16.026 18.8217 16.0909C18.7568 16.1558 18.6687 16.1923 18.5769 16.1923Z" fill="#3355B9"/>
</g>
</svg>
