<svg width="57" height="33" viewBox="0 0 57 33" fill="none" xmlns="http://www.w3.org/2000/svg">
<path id="Vector" d="M51.6391 32.1268C51.6391 32.1268 59.5067 23.6145 54.8397 18.6794C50.1728 13.7443 46.6583 21.0528 46.6583 21.0528C46.6583 21.0528 52.6375 10.3667 46.6583 6.96063C40.6791 3.55456 39.0588 12.2095 39.0588 12.2095C39.0588 12.2095 40.5993 0.964349 32.5833 0.353879C24.5673 -0.25659 26.2276 8.99744 26.2276 8.99744C26.2276 8.99744 21.4693 0.0343685 15.2448 3.79988C9.02031 7.56539 14.2635 15.5186 14.2635 15.5186C14.2635 15.5186 8.72363 9.64785 5.56859 13.904C2.41354 18.1602 7.45705 21.9942 7.45705 21.9942C7.45705 21.9942 1.45505 20.0772 0.553608 25.6513C-0.347833 31.2254 5.29473 32.1268 5.29473 32.1268H51.6391Z" fill="#4AAA4E"/>
</svg>
